<svg xmlns="http://www.w3.org/2000/svg" xmlns:xlink="http://www.w3.org/1999/xlink" id="Layer_1" x="0px" y="0px" viewBox="0 0 423.9 423.9" style="enable-background:new 0 0 423.9 423.9;" width="377px" height="377px" xml:space="preserve">
<style type="text/css">
	.st0{fill:#FF7C76;}
	.st1{fill:#FFAA42;}
	.st2{fill:#001468;}
	.st3{fill:#90DBE3;}
	.st4{fill:#5C50D6;}
	.st5{opacity:0.15;}
	.st6{fill:#FFFFFF;}
	.st7{fill:#3350FE;}
	.st8{fill:#4080FE;}
	.st9{fill:#81B0FF;}
	.st10{opacity:0.24;}
	.st11{fill:#FFD066;}
	.st12{opacity:0.5;}
</style>
<g>
	<g>
		<circle class="st0" cx="211.9" cy="211.9" r="211.9"></circle>
	</g>
	<g>
		<g>
			<g>
				<g>
					<polygon class="st1" points="61.8,422.9 61.8,247.8 102.6,207 102.6,382      "></polygon>
				</g>
				<g>
					<path class="st2" d="M61.8,423.9c-0.1,0-0.3,0-0.4-0.1c-0.4-0.2-0.6-0.5-0.6-0.9V247.8c0-0.3,0.1-0.5,0.3-0.7l40.8-40.8       c0.3-0.3,0.7-0.4,1.1-0.2s0.6,0.5,0.6,0.9V382c0,0.3-0.1,0.5-0.3,0.7l-40.8,40.8C62.3,423.8,62.1,423.9,61.8,423.9z        M62.8,248.2v172.2l38.8-38.8V209.4L62.8,248.2z"></path>
				</g>
			</g>
		</g>
	</g>
	<g>
		<path class="st3" d="M357.7,251.7H126.5V86.9h218.3c7.1,0,12.9,5.8,12.9,12.9V251.7z"></path>
	</g>
	<g>
		<path class="st4" d="M339.8,271H108.6V65.3c0-7.1,5.8-12.9,12.9-12.9H327c7.1,0,12.9,5.8,12.9,12.9V271z"></path>
	</g>
	<g class="st5">
		<path d="M325.4,257.3l-241.3-2.5V90.6h218.3c7.1,0,12.9,5.8,12.9,12.9L325.4,257.3z"></path>
	</g>
	<g>
		<g>
			<path class="st6" d="M308.8,254.8H77.6V87.2c0-7.1,5.8-12.9,12.9-12.9H296c7.1,0,12.9,5.8,12.9,12.9V254.8z"></path>
		</g>
		<g>
			<g>
				<path class="st7" d="M279.6,231H107.3c-4.3,0-7.7-3.4-7.7-7.7v-24.5c0-4.3,3.4-7.7,7.7-7.7h172.3c4.3,0,7.7,3.4,7.7,7.7v24.5      C287.3,227.6,283.9,231,279.6,231z"></path>
			</g>
			<g>
				<path class="st8" d="M279.6,227.3H107.3c-4.3,0-7.7-3.4-7.7-7.7v-23.1c0-4.3,3.4-7.7,7.7-7.7h172.3c4.3,0,7.7,3.4,7.7,7.7v23.1      C287.3,223.9,283.9,227.3,279.6,227.3z"></path>
			</g>
			<g>
				<rect x="140.7" y="206.7" class="st9" width="105.5" height="4.2"></rect>
			</g>
		</g>
		<g class="st10">
			<g>
				<path class="st9" d="M285.3,136.1v34.6H101.6v-34.6H285.3 M287.3,134.1H99.6v38.6h187.7V134.1L287.3,134.1z"></path>
			</g>
		</g>
		<g>
			<rect x="99.6" y="105.8" class="st9" width="187.7" height="7.8"></rect>
		</g>
	</g>
	<g>
		<g>
			<g>
				<rect x="61.8" y="247.8" class="st11" width="256" height="175.1"></rect>
			</g>
			<g>
				<path class="st2" d="M317.8,423.9h-256c-0.6,0-1-0.4-1-1V247.8c0-0.6,0.4-1,1-1h256c0.6,0,1,0.4,1,1v175.1      C318.8,423.4,318.4,423.9,317.8,423.9z M62.8,421.9h254V248.8h-254V421.9z"></path>
			</g>
		</g>
		<g class="st12">
			<g>
				<path class="st6" d="M131.3,344.5H93v-38.2h38.2V344.5z M95,342.5h34.2v-34.2H95V342.5z"></path>
			</g>
			<g>
				<path class="st6" d="M213.9,344.5h-47.4l23.7-39.2L213.9,344.5z M170,342.5h40.3l-20.2-33.3L170,342.5z"></path>
			</g>
			<g>
				<path class="st6" d="M266.3,345.8c-11.2,0-20.3-9.1-20.3-20.3s9.1-20.3,20.3-20.3c11.2,0,20.3,9.1,20.3,20.3      S277.5,345.8,266.3,345.8z M266.3,307.1c-10.1,0-18.3,8.2-18.3,18.3s8.2,18.3,18.3,18.3c10.1,0,18.3-8.2,18.3-18.3      S276.4,307.1,266.3,307.1z"></path>
			</g>
		</g>
	</g>
	<g>
		<g>
			<g>
				<g>
					<polygon class="st1" points="317.8,422.9 317.8,247.8 358.7,207 358.7,382      "></polygon>
				</g>
				<g>
					<path class="st2" d="M317.8,423.9c-0.1,0-0.3,0-0.4-0.1c-0.4-0.2-0.6-0.5-0.6-0.9V247.8c0-0.3,0.1-0.5,0.3-0.7l40.8-40.8       c0.3-0.3,0.7-0.4,1.1-0.2c0.4,0.2,0.6,0.5,0.6,0.9V382c0,0.3-0.1,0.5-0.3,0.7l-40.8,40.8C318.4,423.8,318.1,423.9,317.8,423.9z        M318.8,248.2v172.2l38.8-38.8V209.4L318.8,248.2z"></path>
				</g>
			</g>
		</g>
	</g>
</g>
</svg>