<svg xmlns="http://www.w3.org/2000/svg" xmlns:xlink="http://www.w3.org/1999/xlink" id="Layer_1" x="0px" y="0px" viewBox="0 0 423.9 423.9" style="enable-background:new 0 0 423.9 423.9;" width="377px" height="377px" xml:space="preserve">
<style type="text/css">
	.st0{fill:#81B0FF;}
	.st1{fill:#FFFFFF;}
	.st2{fill:#FFD0BB;}
	.st3{opacity:0.24;}
	.st4{fill:#FA902C;}
	.st5{fill:#FFA990;}
	.st6{fill:#F76E5D;}
	.st7{opacity:0.2;}
	.st8{fill:#4F53DA;}
	.st9{opacity:0.15;}
	.st10{opacity:0.6;}
</style>
<g>
	<path class="st0" d="M211.9,363.8c-78.5,0-146.1,16-182.7-46.1c-0.4-0.7-1.9-1.5-2.3-2.2C9.8,284.9,0,249.5,0,211.9   C0,94.9,94.9,0,211.9,0c117,0,211.9,94.9,211.9,211.9c0,37.6-9.8,72.9-27,103.5c-0.8,1.4-11.5,2.7-12.3,4   C347.7,379.5,289.7,363.8,211.9,363.8z"></path>
</g>
<g>
	<g>
		<path class="st1" d="M384,320.3h-344c-7.1,0-12.9-5.8-12.9-12.9V90.5c0-7.1,5.8-12.9,12.9-12.9h344c7.1,0,12.9,5.8,12.9,12.9    v216.8C396.9,314.5,391.1,320.3,384,320.3z"></path>
	</g>
	<g>
		<path class="st2" d="M396.9,315.5c-36.3,64.7-105.5,108.4-185,108.4c-79.4,0-148.7-43.7-185-108.4v-67.3h369.9V315.5z"></path>
	</g>
	<g>
		<path class="st2" d="M396.9,101.3H27V90.5c0-7.1,5.8-12.9,12.9-12.9h344c7.1,0,12.9,5.8,12.9,12.9V101.3z"></path>
	</g>
	<g class="st3">
		<g>
			<rect x="69" y="137.3" class="st0" width="136.3" height="11.8"></rect>
		</g>
		<g>
			<rect x="69" y="169.8" class="st0" width="136.1" height="5.5"></rect>
		</g>
		<g>
			<rect x="69" y="191.2" class="st0" width="136.1" height="5.5"></rect>
		</g>
		<g>
			<rect x="69" y="212.5" class="st0" width="136.1" height="5.5"></rect>
		</g>
	</g>
	<g>
		<g>
			<circle class="st4" cx="48.4" cy="89.4" r="3.3"></circle>
		</g>
		<g>
			<circle class="st4" cx="62.8" cy="89.4" r="3.3"></circle>
		</g>
		<g>
			<circle class="st4" cx="77.2" cy="89.4" r="3.3"></circle>
		</g>
	</g>
</g>
<g>
	<g>
		<g>
			<rect x="51.4" y="304.4" class="st1" width="156.3" height="25.6"></rect>
		</g>
		<g>
			<rect x="216.1" y="304.4" class="st1" width="156.3" height="25.6"></rect>
		</g>
	</g>
	<g>
		<rect x="117.9" y="275.8" class="st5" width="187.9" height="7.2"></rect>
	</g>
	<g>
		<g>
			<path class="st6" d="M268.4,379.2h-113c-2.9,0-5.3-2.4-5.3-5.3v-16.4c0-2.9,2.4-5.3,5.3-5.3h113c2.9,0,5.3,2.4,5.3,5.3v16.4     C273.7,376.9,271.3,379.2,268.4,379.2z"></path>
		</g>
		<g class="st7">
			<rect x="179.2" y="363.8" class="st1" width="65.3" height="3.9"></rect>
		</g>
	</g>
	<g>
		<g>
			<path class="st8" d="M207,332H79.2c-0.6,0-1-0.4-1-1s0.4-1,1-1H207c0.6,0,1,0.4,1,1S207.6,332,207,332z"></path>
		</g>
		<g>
			<path class="st8" d="M373.4,332H216.5c-0.6,0-1-0.4-1-1s0.4-1,1-1h156.8c0.6,0,1,0.4,1,1S373.9,332,373.4,332z"></path>
		</g>
	</g>
</g>
<g>
	<polygon class="st8" points="242.1,23.7 211.9,53.8 181.8,23.7  "></polygon>
</g>
<g>
	<g class="st3">
		<g>
			<rect x="229.3" y="137.3" class="st0" width="125.6" height="80.8"></rect>
		</g>
	</g>
	<g>
		<g>
			<g>
				<g class="st9">
					<g>
						<path class="st0" d="M269.9,205.8c5.5-8.1,11-15.4,16.6-22c-5.4-5.1-14.4-11.8-22.9-10.2c-11.5,2.2-25.2,15.2-34.3,25.2V218        H262C264.7,213.8,267.3,209.7,269.9,205.8z"></path>
					</g>
				</g>
			</g>
			<g>
				<g class="st3">
					<g>
						<path class="st0" d="M354.9,161.1c-8.2-7.4-20-12.8-35.2-5.3c-11.3,5.6-22.3,15.3-33.2,28.1c-8.3,9.8-16.4,21.3-24.4,34.2        h92.8V161.1z"></path>
					</g>
				</g>
			</g>
		</g>
	</g>
	<g class="st10">
		<g>
			<circle class="st1" cx="248.8" cy="155.3" r="9"></circle>
		</g>
	</g>
</g>
</svg>