<svg xmlns="http://www.w3.org/2000/svg" xmlns:xlink="http://www.w3.org/1999/xlink" id="Layer_1" x="0px" y="0px" viewBox="0 0 423.9 423.9" style="enable-background:new 0 0 423.9 423.9;" width="377px" height="377px" xml:space="preserve">
<style type="text/css">
	.st0{fill:#A27AF9;}
	.st1{fill:#FAF5FF;}
	.st2{opacity:0.23;}
	.st3{fill:#D0C3E8;}
	.st4{fill:#F4B7A2;}
	.st5{opacity:0.1;}
	.st6{fill:#1A1243;}
	.st7{fill:#231F20;}
	.st8{fill:#CE775F;}
	.st9{fill:#B9F6CA;}
	.st10{opacity:0.4;}
	.st11{fill:#FFFFFF;}
	.st12{fill:#00B7D3;}
	.st13{opacity:0.69;}
</style>
<g>
	<g>
		<path class="st0" d="M215.4,384.1c-22.5,0-45.3,31.2-65.9,27.3c-0.7-0.1-3.6,2.1-4.3,1.8c-7.2-2.4-14.2-5.1-21-8.2    c-1.2-0.5-1.5-6.1-2.7-6.8c-19-11.5-34.3-37.6-49.9-52.1C30,307.4,36.5,274.7,36.5,213.3c0-19.2-34-39.3-29.2-57    C31.8,66.2,114.1,0,211.9,0c117,0,211.9,94.9,211.9,211.9c0,41.2-11.7,79.6-32.1,112.1C354.4,384,291.3,384.1,215.4,384.1z"></path>
	</g>
	<g>
		<g>
			<g>
				<g>
					<path class="st1" d="M399.1,311.4l9.7-178.2c-8.4-21-20-40.3-34.3-57.3L180.9,31c-7.7-1.8-15.2,3.8-15.6,11.7l-20.1,370.4       c21,7,43.4,10.7,66.7,10.7C293,423.9,363.5,378.3,399.1,311.4z"></path>
				</g>
			</g>
			<g>
				<g class="st2">
					<path class="st3" d="M371.7,351.2l0.3-4.8L176.5,301l-6.4,118.7c13.5,2.7,27.5,4.1,41.8,4.1       C275.7,423.9,332.9,395.7,371.7,351.2z"></path>
				</g>
			</g>
			<g>
				<g>
					<path class="st0" d="M271.2,221.4c-0.4,0-0.7,0-1.1-0.1L185,201.5c-2.3-0.5-3.9-2.6-3.8-5l0.8-14.3c0.1-1.4,0.8-2.8,1.9-3.6       c1.2-0.9,2.6-1.2,4-0.9l85.1,19.7c2.3,0.5,3.9,2.6,3.8,5l-0.8,14.3c-0.1,1.4-0.8,2.8-1.9,3.6       C273.2,221,272.2,221.4,271.2,221.4z M186.8,179.6c-0.6,0-1.2,0.2-1.7,0.6c-0.7,0.5-1.1,1.3-1.1,2.1l-0.8,14.3       c-0.1,1.4,0.9,2.6,2.2,3l85.1,19.7c0.8,0.2,1.7,0,2.4-0.5c0.7-0.5,1.1-1.3,1.1-2.1l0.8-14.3c0.1-1.4-0.9-2.6-2.2-3l-85.1-19.7       C187.3,179.7,187.1,179.6,186.8,179.6z"></path>
				</g>
				<g>
					<path class="st0" d="M373.9,245.2c-0.4,0-0.7,0-1.1-0.1l-85.1-19.7c-2.3-0.5-3.9-2.6-3.8-5l0.8-14.3c0.1-1.4,0.8-2.8,1.9-3.6       c1.2-0.9,2.6-1.2,4-0.9l85.1,19.7c2.3,0.5,3.9,2.6,3.8,5l-0.8,14.3c-0.1,1.4-0.8,2.8-1.9,3.6       C375.9,244.9,374.9,245.2,373.9,245.2z M289.5,203.5c-0.6,0-1.2,0.2-1.7,0.6c-0.7,0.5-1.1,1.3-1.1,2.1l-0.8,14.3       c-0.1,1.4,0.9,2.6,2.2,3l85.1,19.7c0.8,0.2,1.7,0,2.4-0.5c0.7-0.5,1.1-1.3,1.1-2.1l0.8-14.3c0.1-1.4-0.9-2.6-2.2-3l-85.1-19.7       C290,203.5,289.7,203.5,289.5,203.5z"></path>
				</g>
			</g>
			<g class="st2">
				<path class="st3" d="M164.7,54.3L410,111.2l0.5-9.3c0.5-10.1-6.2-19.1-16.1-21.4L180.9,31c-7.7-1.8-15.2,3.8-15.6,11.7      L164.7,54.3z"></path>
			</g>
			<g>
				<g>
					
						<ellipse transform="matrix(0.9985 5.419762e-002 -5.419762e-002 0.9985 2.7194 -9.834)" class="st0" cx="182.7" cy="45.2" rx="2.6" ry="3.4"></ellipse>
				</g>
				<g>
					
						<ellipse transform="matrix(0.9985 5.419762e-002 -5.419762e-002 0.9985 2.8373 -10.2829)" class="st0" cx="191" cy="47.2" rx="2.6" ry="3.4"></ellipse>
				</g>
				<g>
					
						<ellipse transform="matrix(0.9985 5.419762e-002 -5.419762e-002 0.9985 2.9548 -10.7318)" class="st0" cx="199.3" cy="49.1" rx="2.6" ry="3.4"></ellipse>
				</g>
			</g>
			<g>
				<path class="st0" d="M321.9,251.1l-85.1-19.7c-2.3-0.5-4.6,1.2-4.7,3.6l-0.8,14.3c-0.1,1.9,1.2,3.6,3,4l85.1,19.7      c2.3,0.5,4.6-1.2,4.7-3.6l0.8-14.3C325,253.2,323.8,251.5,321.9,251.1z"></path>
			</g>
		</g>
		<g>
			<g>
				<g>
					<g>
						<path class="st4" d="M94.5,136.2L71,181.9c-10.3,2.8-37.7-15.4-44.7-25.5l30.6-57.7L94.5,136.2z"></path>
					</g>
					<g class="st5">
						<g>
							<path d="M96.6,132.2l-7.9,15.4c-15.9-12.7-4.8-53.5-4.8-53.5L96.6,132.2z"></path>
						</g>
					</g>
					<g>
						<path class="st4" d="M100.9,57.4c0,0,15.2,5.7,24.1,9.3c5.5,2.2,1.6,22.1,2.7,30.6c0.6,5,2.8,13.5,3.1,15.2        c1.2,6.1-1.6,5.4-6.4,6.4c0,0-2.7,23.1-10.8,27.3c-12.9,6.7-38.6-14.8-44.9-21.2c-6.4-6.4-9.2-27.4,2.3-45.9        C76.9,69.8,79.6,57.6,100.9,57.4z"></path>
					</g>
					<g>
						<g>
							<path class="st6" d="M118.3,125.7c0,0-0.1,0-0.1,0c-4.9-0.5-7-5.2-7.1-5.4c-0.2-0.5,0-1.1,0.5-1.3c0.5-0.2,1.1,0,1.3,0.5l0,0         c0,0,1.8,3.9,5.5,4.3c0.5,0.1,0.9,0.6,0.9,1.1C119.2,125.3,118.8,125.7,118.3,125.7z"></path>
						</g>
					</g>
					<g>
						<g>
							
								<ellipse transform="matrix(1 3.045806e-003 -3.045806e-003 1 0.2948 -0.3544)" class="st7" cx="116.5" cy="96.6" rx="1.8" ry="2.4"></ellipse>
						</g>
						<g>
							<path class="st6" d="M111.8,89.5c-0.7,0-1.3-0.4-1.4-1.1c-0.2-0.8,0.2-1.6,1-1.8c0.2-0.1,4.9-1.4,8.2-1.3         c0.8,0,1.5,0.7,1.5,1.5c0,0.8-0.7,1.5-1.5,1.5c-2.9,0-7.3,1.2-7.4,1.2C112.1,89.5,111.9,89.5,111.8,89.5z"></path>
						</g>
					</g>
				</g>
			</g>
			<g>
				<g>
					<path class="st4" d="M413.9,271.7c-0.1-0.4-0.2-1.5-0.2-2.9c0.4-6.4,0.5-13.7-0.9-16.8c-2.8-6.1-8.4-12.6-8.4-12.6l-1.7,17.1       c-0.3,0.3-0.7,0.7-1.1,1.1c-2.5,2.8-5.4,4.6-7.2,6.2c1.6-7,1.5-13.4-2.5-15.5c-3.8-2-19.9,29.7-23.2,36.4       c-18.7,12.8-40.2,23.3-57.3,26.7c-17.8,3.6-59.7,14.6-91.3-19.2c-50.4-54-47.4-93.9-74.5-111.7L130,296.3       c0,0,43.3,78.6,117,87.5c83.6,10.1,140.2-41.2,157.7-69.9l0,0c4-6.6,7.6-9.8,8.5-18.4c0.4-3.9,0.5-10.8,1.6-13.2       C415.9,280,415.4,275.8,413.9,271.7z"></path>
				</g>
				<g class="st5">
					<g>
						<path d="M148.4,322.7l8.4,9.7c7.5-7,28.5-29.4,45.5-61.2c0,0-1.9-2.7-3.3-4l-19.6-6.1L148.4,322.7z"></path>
					</g>
				</g>
				<g>
					<path class="st8" d="M252.9,373.5c-8.1,0-12.9-3.2-13.2-3.4c-0.5-0.3-0.6-0.9-0.3-1.4c0.3-0.5,0.9-0.6,1.4-0.3       c0.1,0.1,9.3,6.1,23.3,1c0.5-0.2,1.1,0.1,1.3,0.6c0.2,0.5-0.1,1.1-0.6,1.3C260.3,372.9,256.3,373.5,252.9,373.5z"></path>
				</g>
			</g>
			<g>
				<g>
					<path class="st9" d="M148.4,325.4c8.2-7.6,39.4-34.6,59.3-64.3c-22.4-30.3-41.5-67.9-62.3-81.6c-22.4-16.2-93.2-26-138.1-23.2       C2.6,174,0,192.7,0,211.9c0,85.8,50.9,159.6,124.2,193l6-107.9C130.2,297,137.3,312.3,148.4,325.4z"></path>
				</g>
			</g>
		</g>
		<g class="st10">
			<g>
				<g>
					<path class="st11" d="M40.8,250.9c-0.6,0-1.2-0.2-1.8-0.6c-1.3-1-1.6-2.9-0.6-4.2l10.7-14.5c1-1.3,2.9-1.6,4.2-0.6       c1.3,1,1.6,2.9,0.6,4.2l-10.7,14.5C42.6,250.5,41.7,250.9,40.8,250.9z"></path>
				</g>
			</g>
			<g>
				<g>
					<path class="st11" d="M99.6,329c-1.4,0-2.6-0.9-2.9-2.3l-3.1-13.3c-0.4-1.6,0.6-3.2,2.2-3.6c1.6-0.4,3.2,0.6,3.6,2.2l3.1,13.3       c0.4,1.6-0.6,3.2-2.2,3.6C100,329,99.8,329,99.6,329z"></path>
				</g>
			</g>
			<g>
				<g>
					<path class="st11" d="M189,256.6c-1.4,0-2.6-0.9-2.9-2.3l-3.1-13.3c-0.4-1.6,0.6-3.2,2.2-3.6c1.6-0.4,3.2,0.6,3.6,2.2l3.1,13.3       c0.4,1.6-0.6,3.2-2.2,3.6C189.4,256.6,189.2,256.6,189,256.6z"></path>
				</g>
			</g>
			<g>
				<g>
					<path class="st11" d="M108.4,368.3c-0.8,0-1.7-0.4-2.3-1.1c-1.1-1.3-0.9-3.2,0.3-4.2l6.7-5.7c1.3-1.1,3.2-0.9,4.2,0.3       s0.9,3.2-0.3,4.2l-6.7,5.7C109.8,368.1,109.1,368.3,108.4,368.3z"></path>
				</g>
			</g>
			<g>
				<g>
					<path class="st11" d="M17.8,274.6c-1,0-2-0.5-2.6-1.4c-0.9-1.4-0.4-3.3,1-4.1l7.5-4.6c1.4-0.9,3.3-0.4,4.1,1       c0.9,1.4,0.4,3.3-1,4.1l-7.5,4.6C18.9,274.4,18.4,274.6,17.8,274.6z"></path>
				</g>
			</g>
			<g>
				<g>
					<path class="st11" d="M64,348.9c-0.4,0-0.8-0.1-1.2-0.3l-11.5-5c-1.5-0.7-2.2-2.4-1.6-3.9c0.7-1.5,2.4-2.2,3.9-1.6l11.5,5       c1.5,0.7,2.2,2.4,1.6,3.9C66.3,348.3,65.2,348.9,64,348.9z"></path>
				</g>
			</g>
			<g>
				<g>
					<path class="st11" d="M82.4,272.8c-0.3,0-0.5,0-0.8-0.1c-1.6-0.4-2.5-2.1-2.1-3.7l4.8-17.4c0.4-1.6,2.1-2.5,3.7-2.1       c1.6,0.4,2.5,2.1,2.1,3.7l-4.8,17.4C84.9,272,83.7,272.8,82.4,272.8z"></path>
				</g>
			</g>
			<g>
				<g>
					<path class="st11" d="M151.9,260.4c-0.9,0-1.7-0.4-2.3-1.1c-1.1-1.3-0.9-3.2,0.4-4.2l12.6-10.4c1.3-1.1,3.2-0.9,4.2,0.4       c1.1,1.3,0.9,3.2-0.4,4.2l-12.6,10.4C153.3,260.1,152.6,260.4,151.9,260.4z"></path>
				</g>
			</g>
			<g>
				<g>
					<path class="st11" d="M137.8,206.9c-1.4,0-2.6-0.9-2.9-2.3c-0.4-1.6,0.6-3.2,2.2-3.6l15.9-3.7c1.6-0.4,3.2,0.6,3.6,2.2       c0.4,1.6-0.6,3.2-2.2,3.6l-15.9,3.7C138.3,206.9,138.1,206.9,137.8,206.9z"></path>
				</g>
			</g>
			<g>
				<g>
					<path class="st11" d="M86.7,205.8c-0.1,0-0.1,0-0.2,0c-1.7-0.1-2.9-1.5-2.8-3.1c0.2-3.9-0.1-10.5-1.4-12.4       c-0.9-1.4-0.5-3.2,0.9-4.2c1.4-0.9,3.2-0.5,4.2,0.9c2.8,4.3,2.5,14.1,2.4,16C89.6,204.5,88.3,205.8,86.7,205.8z"></path>
				</g>
			</g>
			<g>
				<g>
					<path class="st11" d="M158,290.6c-0.2,0-0.4,0-0.6-0.1c-3.8-0.8-10.4-1.5-12.5-0.6c-1.5,0.7-3.3,0-4-1.5c-0.7-1.5,0-3.3,1.5-4       c4.7-2.1,14.3-0.2,16.2,0.2c1.6,0.3,2.7,1.9,2.3,3.6C160.6,289.6,159.4,290.6,158,290.6z"></path>
				</g>
			</g>
			<g>
				<g>
					<path class="st11" d="M116.8,246.3c-1.4,0-2.7-1-2.9-2.4c-0.8-3.8-2.7-10.2-4.4-11.7c-1.2-1.1-1.3-3-0.2-4.2       c1.1-1.2,3-1.3,4.2-0.2c3.8,3.5,5.9,13.1,6.2,15c0.3,1.6-0.7,3.2-2.4,3.5C117.2,246.3,117,246.3,116.8,246.3z"></path>
				</g>
			</g>
			<g>
				<g>
					<path class="st11" d="M43.7,187.8c-0.2,0-0.4,0-0.6-0.1c-3.8-0.8-10.4-1.5-12.5-0.6c-1.5,0.7-3.3,0-4-1.5c-0.7-1.5,0-3.3,1.5-4       c4.7-2.1,14.3-0.2,16.2,0.2c1.6,0.3,2.7,1.9,2.3,3.6C46.3,186.8,45.1,187.8,43.7,187.8z"></path>
				</g>
			</g>
			<g>
				<g>
					<path class="st11" d="M57,302.1c-0.8,0-1.6-0.3-2.2-0.9c-2.7-2.8-7.7-7.2-10-7.6c-1.6-0.3-2.7-1.9-2.4-3.5       c0.3-1.6,1.9-2.7,3.5-2.4c5,0.9,11.9,8,13.2,9.4c1.1,1.2,1.1,3.1-0.1,4.2C58.5,301.9,57.7,302.1,57,302.1z"></path>
				</g>
			</g>
			<g>
				<g>
					<path class="st11" d="M16.3,218.2c-0.5,0-1.1-0.1-1.5-0.4c-1.4-0.9-1.9-2.7-1-4.1c2.2-3.7,9.5-7.1,11-7.7c1.5-0.7,3.3,0,4,1.5       c0.7,1.5,0,3.3-1.5,4c-3.3,1.5-7.4,4-8.3,5.4C18.4,217.7,17.4,218.2,16.3,218.2z"></path>
				</g>
			</g>
		</g>
		<g class="st10">
			<g>
				<path class="st12" d="M130,297.3c-0.5,0-0.9-0.3-1-0.8c-12.4-77.2,1.9-119.3,2.1-119.7c0.2-0.5,0.8-0.8,1.3-0.6      c0.5,0.2,0.8,0.8,0.6,1.3c-0.1,0.4-14.3,42.1-2,118.7c0.1,0.5-0.3,1.1-0.8,1.1C130.1,297.3,130,297.3,130,297.3z"></path>
			</g>
			<g>
				<path class="st12" d="M143.6,312c-0.3,0-0.5-0.1-0.7-0.3c-0.4-0.4-0.4-1,0-1.4c0.5-0.4,47-45,55.8-58c0.3-0.5,0.9-0.6,1.4-0.3      c0.5,0.3,0.6,0.9,0.3,1.4c-8.9,13.2-54.1,56.5-56,58.3C144.1,311.9,143.9,312,143.6,312z"></path>
			</g>
			<g>
				<path class="st12" d="M64.7,165.1c-33.2,0-47.8-6-48.5-6.3c-0.5-0.2-0.7-0.8-0.5-1.3c0.2-0.5,0.8-0.7,1.3-0.5      c0.2,0.1,21.1,8.7,68.8,5.4c0.6,0,1,0.4,1.1,0.9c0,0.6-0.4,1-0.9,1.1C78.1,164.9,71,165.1,64.7,165.1z"></path>
			</g>
		</g>
	</g>
	<g>
		<g>
			<g>
				<path class="st6" d="M86.2,92.8c0,0,5.3,1,5.7,0.5c16.5-16.5,2.4-33.7,14.6-29.1c16.7,6.2,19.5,4.6,20,2.9      c0.5-1.5,2.2-5.6-3.3-10C109.8,46.2,80,26,57.5,44.8c-32,26.7-12.7,76.9-12.7,76.9s15.3,8,21.1,2.1c6.8-6.8,11.4-31.5,11.4-31.5      L86.2,92.8z"></path>
			</g>
			<g>
				<g>
					<path class="st4" d="M69,102.3c2.7,7.8,8.1,13.5,15,11.1c6.9-2.4,10.2-10.7,7.5-18.4c-2.7-7.8-10.5-12.1-17.4-9.6       C67.1,87.7,66.2,94.5,69,102.3z"></path>
				</g>
				<g>
					<path class="st8" d="M84.8,97.1c-0.3,0-0.6-0.1-0.8-0.4c-3.5-4.3-6.2-2.8-6.3-2.7c-0.5,0.3-1.1,0.1-1.4-0.4       c-0.3-0.5-0.1-1.1,0.3-1.4c0.2-0.1,4.2-2.5,8.9,3.2c0.3,0.4,0.3,1.1-0.1,1.4C85.2,97,85,97.1,84.8,97.1z"></path>
				</g>
			</g>
		</g>
		<g>
			<g>
				<path class="st1" d="M406.3,178.6l4.2-76.7c0.5-10.1-6.2-19.1-16.1-21.4L180.9,31c-7.7-1.8-15.2,3.8-15.6,11.7l-1.7,31      L406.3,178.6z"></path>
			</g>
			<g class="st13">
				<polygon class="st3" points="187.2,104.3 382.7,149.6 383.3,137.5 187.9,92.2     "></polygon>
			</g>
			<g>
				<g class="st2">
					<polygon class="st3" points="186.1,125 185.8,130.2 381.3,175.5 381.5,170.4      "></polygon>
				</g>
				<g class="st2">
					<polygon class="st3" points="214,151.5 213.7,156.6 351.2,188.5 351.5,183.4      "></polygon>
				</g>
			</g>
			<g class="st2">
				<path class="st3" d="M164.7,54.3L410,111.2l0.5-9.3c0.5-10.1-6.2-19.1-16.1-21.4L180.9,31c-7.7-1.8-15.2,3.8-15.6,11.7      L164.7,54.3z"></path>
			</g>
			<g>
				<g>
					
						<ellipse transform="matrix(0.9985 5.419762e-002 -5.419762e-002 0.9985 2.7194 -9.834)" class="st0" cx="182.7" cy="45.2" rx="2.6" ry="3.4"></ellipse>
				</g>
				<g>
					
						<ellipse transform="matrix(0.9985 5.419762e-002 -5.419762e-002 0.9985 2.8373 -10.2829)" class="st0" cx="191" cy="47.2" rx="2.6" ry="3.4"></ellipse>
				</g>
				<g>
					
						<ellipse transform="matrix(0.9985 5.419762e-002 -5.419762e-002 0.9985 2.9548 -10.7318)" class="st0" cx="199.3" cy="49.1" rx="2.6" ry="3.4"></ellipse>
				</g>
			</g>
		</g>
		<g>
			<g>
				<path class="st4" d="M413.9,271.7c-0.1-0.4-0.2-1.5-0.2-2.9c0.4-6.4,0.5-13.7-0.9-16.8c-2.8-6.1-9.6-14-9.6-14l-1,19      c-0.2,0.2-0.4,0.4-0.6,0.6c-2.5,2.8-5.4,4.6-7.2,6.2c1.6-7,1.5-13.4-2.5-15.5c-3.8-2-19.9,29.7-23.2,36.4      c-18.7,12.8-40.2,23.3-57.3,26.7l60.9,37.5c15.3-12.1,26.4-25,32.5-35.1l0,0c4-6.6,7.6-9.8,8.5-18.4c0.4-3.9,0.5-10.8,1.6-13.2      C415.9,280,415.4,275.8,413.9,271.7z"></path>
			</g>
			<g>
				<path class="st8" d="M390.1,281.1c-0.1,0-0.2,0-0.3,0c-0.5-0.1-0.9-0.7-0.7-1.2l3.5-13c0.1-0.5,0.7-0.9,1.2-0.7      c0.5,0.1,0.9,0.7,0.7,1.2l-3.5,13C390.9,280.8,390.5,281.1,390.1,281.1z"></path>
			</g>
		</g>
	</g>
</g>
</svg>