<svg xmlns="http://www.w3.org/2000/svg" xmlns:xlink="http://www.w3.org/1999/xlink" id="Layer_1" x="0px" y="0px" viewBox="0 0 440.3 423.9" style="enable-background:new 0 0 440.3 423.9;" width="391px" height="377px" xml:space="preserve">
<style type="text/css">
	.st0{fill:#6BCEBB;}
	.st1{fill:#1A1243;}
	.st2{fill:#FCD771;}
	.st3{fill:#FFAA03;}
	.st4{fill:#E1875B;}
	.st5{opacity:0.1;}
	.st6{fill:#BC593F;}
	.st7{fill:#2D78FF;}
	.st8{fill:#A5FFEA;}
	.st9{opacity:0.8;}
	.st10{fill:#FFFFFF;}
</style>
<g>
	<path class="st0" d="M228.3,423.9c-5.6,0-11.1-0.2-16.6-0.6c-7-0.5-12.8-9-18.8-10.2c-36.1-7.5-56.5-20-85.7-47.2   c-7.5-7-37.9-13.3-44.3-21.3c-29.1-36.3-46.6-82.4-46.6-132.6C16.3,94.9,111.2,0,228.3,0s211.9,94.9,211.9,211.9   C440.2,329,345.3,423.9,228.3,423.9z"></path>
</g>
<g>
	<g>
		<path class="st1" d="M142.7,121.2c13.1-27.3-15.5-33.9-32.5-27.7c-33.3-6.1-53.4,9-56.2,33.3c-1,9.1-1.7,20.8-15.8,29.2    c-7.2,4.3-12.6,7.1-16.7,9.8c-3.3,14.9-5.1,30.3-5.1,46.2c0,34.5,8.5,68.9,24.7,99.4c11.3,0.2,19.4-0.9,19.4-0.9l29.7-80.5    l-15.3-27.2C74.9,202.7,140.4,125.9,142.7,121.2z"></path>
	</g>
	<g>
		<g>
			<path class="st2" d="M198.5,315.8c9.4-22.3,3-39.2,2.4-48.1c-0.5-8.9,31.6-13.8,31.6-13.8l2.9-0.6l-49.9-50.5h-83.2     c0,0-30.2-8.2-46.8,20.5c-13,22.6,0.8,92.5,7.2,121.2c3.7,4.6,7.5,9,11.6,13.3l101.9,8.1C176.4,365.8,189.1,338.1,198.5,315.8z"></path>
		</g>
	</g>
	<g>
		<path class="st3" d="M130.2,235c-8.9,0-17.6-2.5-24.4-7c-0.5-0.3-0.6-0.9-0.3-1.4c0.3-0.5,0.9-0.6,1.4-0.3    c6.5,4.3,14.8,6.7,23.3,6.7c20,0,36.4-12.8,36.4-28.6c0-0.6,0.4-1,1-1s1,0.4,1,1C168.6,221.2,151.4,235,130.2,235z"></path>
	</g>
	<g>
		<g>
			<g>
				<path class="st4" d="M141.7,202.7l-5.5-29.3L97,158.9l-1.1,43.9c0,13.8,14.1,25,31.6,25s31.6-11.2,31.6-25H141.7z"></path>
			</g>
			<g class="st5">
				<path d="M135.2,169.3l3,14.8C99.5,180.5,108,151,108,151L135.2,169.3z"></path>
			</g>
			<g>
				<path class="st4" d="M112.6,109.9c0,0,12.8-3.1,20.4,0.1c11.6,4.9,10.5,20,15.7,25.1c2.7,2.6,6.1,3.5,7.4,4.2      c3.5,1.7,1.5,5.9-1.8,8.6c0,0,7.6,17.9,3,24.2c-7.3,10.1-36,6.6-43.3,4.1c-7.3-2.4-17.6-19.6-15.8-38.1      C99,128.7,96.3,118.3,112.6,109.9z"></path>
			</g>
			<g>
				<g>
					
						<ellipse transform="matrix(0.8937 -0.4486 0.4486 0.8937 -46.0532 76.6152)" class="st1" cx="138.7" cy="135.5" rx="1.6" ry="2.1"></ellipse>
				</g>
				<g>
					<path class="st1" d="M131.7,131.8c-0.3,0-0.5-0.1-0.7-0.3c-0.4-0.4-0.3-1,0.1-1.4c0.1-0.1,3.2-2.9,5.7-4.1       c0.5-0.2,1.1,0,1.3,0.5c0.2,0.5,0,1.1-0.5,1.3c-2.3,1.1-5.2,3.8-5.2,3.8C132.2,131.7,132,131.8,131.7,131.8z"></path>
				</g>
			</g>
			<g>
				<path class="st1" d="M141.7,112c0,0-14.5-5.3-16.7-3.4c-0.5,0.4-0.1,2.2-0.1,3.3c0.3,12.5-4.2,31.2-18.8,36.7      c-3.6,1.3-10.5,2.7-5.6,11.3c24.2,42.2,11.8,53.2-26,51.9c-17.7-0.6-21.4,17.9-24.2,25.8c-2.5,7.3-29.2-6.9-22-19.6      c11.9-21,60-66,53.3-79.6c-0.3-0.6-7.3-32.2,25.2-44.6C135.1,82.9,141.7,112,141.7,112z"></path>
			</g>
			<g>
				
					<ellipse transform="matrix(-0.6902 0.7236 -0.7236 -0.6902 280.6679 183.1088)" class="st4" cx="101.1" cy="151.6" rx="11.3" ry="12.8"></ellipse>
			</g>
			<g>
				<path class="st6" d="M98.4,152c-0.5,0-0.9-0.3-1-0.8c-0.3-1.5,0.8-4.1,2.7-5.2c1-0.6,3.2-1.2,6,1.4c0.4,0.4,0.4,1,0,1.4      c-0.4,0.4-1,0.4-1.4,0c-1.4-1.3-2.6-1.7-3.6-1.1c-1.3,0.7-1.8,2.6-1.7,3c0.1,0.5-0.2,1.1-0.8,1.2C98.5,152,98.4,152,98.4,152z"></path>
			</g>
			<g>
				<path class="st1" d="M147,156.5c-3.7,0-5.9-2.1-6-2.2c-0.4-0.4-0.4-1,0-1.4c0.4-0.4,1-0.4,1.4,0c0.1,0.1,2.7,2.6,7.2,1.2      c0.5-0.2,1.1,0.1,1.2,0.7c0.2,0.5-0.1,1.1-0.7,1.2C149,156.3,148,156.5,147,156.5z"></path>
			</g>
		</g>
	</g>
	<g>
		<g>
			<g>
				<path class="st7" d="M73.8,357.1c35.1,37.3,83.6,61.9,137.9,66.1c-17.7-38.7-31.3-65.8-31.3-65.8S100.4,357.2,73.8,357.1z"></path>
			</g>
		</g>
	</g>
	<g class="st5">
		<g>
			<path d="M53.3,249.9c5.1-44.5,31.2,8.7,35.8,31.5c2.5,12.2,104.6,100.7,104.6,100.7l10.7,24.5C46.8,417.1,53.3,249.9,53.3,249.9z     "></path>
		</g>
	</g>
	<g>
		<g>
			<path class="st2" d="M53.3,239.6c0-8.6,1.9-14,3.4-16.5c13.9-22,46.5-6.6,50.5,13.1c2.5,12.2,21.7,81.9,64.7,104.3     c13.6,7.1,34.3,3.6,56.3-4.6l31.1,47.5c-16.2,7.6-35.5,13.7-53.6,17.3C59.4,420.3,53.3,239.6,53.3,239.6z"></path>
		</g>
	</g>
	<g>
		<g>
			<path class="st3" d="M103,369.9c-0.2,0-0.5-0.1-0.7-0.3c-48.1-45.9-50-129.1-50-130c0-10.2,2.5-15.3,3.6-17     c5-8,12.4-11.9,20.7-10.9c12.9,1.5,25.9,14.3,31.6,31.1c0.4,1.2,0.9,2.8,1.5,4.8c5.9,19.3,21.6,70.5,60,90.6     c4.3,2.2,11.6,4.7,16.5,5.1c0.6,0,1,0.5,0.9,1.1c0,0.6-0.5,1-1.1,0.9c-5.3-0.4-12.9-3-17.3-5.3c-39.2-20.4-55-72.2-61-91.7     c-0.6-2-1.1-3.6-1.5-4.8c-5.5-16.1-17.8-28.4-30-29.8c-7.6-0.9-14.1,2.6-18.8,10c-0.8,1.2-3.3,6-3.3,15.9     c0,0.8,2,83.2,49.4,128.5c0.4,0.4,0.4,1,0,1.4C103.5,369.8,103.2,369.9,103,369.9z"></path>
		</g>
	</g>
</g>
<g>
	<path class="st1" d="M38.1,156c-20.4,12.2-27.4,12.3-26.4,33.9c1.2,27.4-5.9,23.9-10,37.9c-6.6,22.6,7.8,29,8.1,45.5   c0.6,27.3,15.9,41,43.4,37.8c4.5-0.5-7.1-11-7.4-16.9C44.6,258.9,38.1,156,38.1,156z"></path>
</g>
<g>
	<g>
		<path class="st4" d="M354.9,306.1c0,0,13-10.3,24.1-16.7c11.1-6.4,20.2-10.7,20.2-10.7l-14.2-10.1c0,0-43.7,2.2-50.2,6.8    c-6.6,4.7-11.7,8.3-11.7,8.3L354.9,306.1z"></path>
	</g>
	<g>
		<g>
			<g>
				<g>
					<path class="st8" d="M430.6,279.8H187.7c-5.3,0-9.6-4.3-9.6-9.6V58.5c0-5.3,4.3-9.6,9.6-9.6h242.9c5.3,0,9.6,4.3,9.6,9.6v211.7       C440.2,275.5,435.9,279.8,430.6,279.8z"></path>
				</g>
				<g>
					<g class="st9">
						<rect x="200.9" y="103.4" class="st10" width="115.5" height="10.6"></rect>
					</g>
					<g class="st9">
						<rect x="200.9" y="135.4" class="st10" width="115.5" height="5.8"></rect>
					</g>
					<g class="st9">
						<rect x="200.9" y="158" class="st10" width="115.5" height="5.8"></rect>
					</g>
					<g class="st9">
						<g>
							<path class="st10" d="M418.4,229.5h-84.5V102.4h84.5V229.5z M335.9,227.5h80.5V104.4h-80.5V227.5z"></path>
						</g>
						<g>
							
								<rect x="301.2" y="164.9" transform="matrix(0.5503 0.8349 -0.8349 0.5503 307.7141 -239.4726)" class="st10" width="149.9" height="2"></rect>
						</g>
						<g>
							
								<rect x="375.2" y="91" transform="matrix(0.835 0.5503 -0.5503 0.835 153.4018 -179.6268)" class="st10" width="2" height="149.9"></rect>
						</g>
					</g>
					<g class="st9">
						<g>
							<rect x="200.9" y="180.6" class="st10" width="115.5" height="5.8"></rect>
						</g>
					</g>
					<g>
						<path class="st10" d="M313.1,228.5H204.2c-1.8,0-3.3-1.5-3.3-3.3v-11c0-1.8,1.5-3.3,3.3-3.3h108.9c1.8,0,3.3,1.5,3.3,3.3v11        C316.4,227,314.9,228.5,313.1,228.5z"></path>
					</g>
					<g>
						<path class="st7" d="M313.1,228.5h-42.4v-17.6h42.4c1.8,0,3.3,1.5,3.3,3.3v11C316.4,227,314.9,228.5,313.1,228.5z"></path>
					</g>
				</g>
			</g>
		</g>
	</g>
	<g>
		<g>
			<path class="st4" d="M257.6,377.6c57.8-28.3,101.8-75.7,125.9-100.4l-55.2,2.8c0,0-47.5,35.1-92.8,53.8L257.6,377.6z"></path>
		</g>
	</g>
	<g>
		<path class="st4" d="M359.8,299.6c5.9-5.8,15.8-14.8,18.5-17c2-1.7,20.1-11,19.1-15.4c-1.5-6.7-13.7-4.5-23.2,1.4    c-3.5,2.1-34.4,8.9-43,20.9l-2.3,11.1L359.8,299.6z"></path>
	</g>
	<g>
		<path class="st6" d="M359.8,300.6c-0.3,0-0.5-0.1-0.7-0.3c-0.4-0.4-0.4-1,0-1.4c5.6-5.5,9.5-9.2,16.5-14.9    c0.4-0.4,1.1-0.3,1.4,0.1c0.4,0.4,0.3,1.1-0.1,1.4c-6.9,5.7-10.8,9.3-16.4,14.8C360.3,300.5,360,300.6,359.8,300.6z"></path>
	</g>
	<g>
		<path class="st6" d="M330.5,290.5c-0.2,0-0.4,0-0.5-0.1c-0.5-0.3-0.6-0.9-0.3-1.4c5.4-9,21.1-14.9,34.2-16.7    c0.5-0.1,1.1,0.3,1.1,0.9c0.1,0.5-0.3,1.1-0.9,1.1c-15.2,2.1-28.3,8.5-32.7,15.8C331.1,290.3,330.8,290.5,330.5,290.5z"></path>
	</g>
	<g>
		<polygon class="st2" points="241.3,327.9 270.4,379 248.2,390.4 222.6,335.4   "></polygon>
	</g>
	<g>
		<path class="st3" d="M243.4,383.1c-0.4,0-0.7-0.2-0.9-0.6l-20.2-44.4c-0.2-0.5,0-1.1,0.5-1.3c0.5-0.2,1.1,0,1.3,0.5l20.2,44.4    c0.2,0.5,0,1.1-0.5,1.3C243.7,383.1,243.5,383.1,243.4,383.1z"></path>
	</g>
	<g>
		<rect x="178.1" y="72.4" class="st10" width="262.1" height="2"></rect>
	</g>
</g>
</svg>