<?xml version="1.0" encoding="utf-8"?>
<!-- Generator: Adobe Illustrator 19.1.0, SVG Export Plug-In . SVG Version: 6.00 Build 0)  -->
<svg version="1.1" id="Layer_1" xmlns="http://www.w3.org/2000/svg" xmlns:xlink="http://www.w3.org/1999/xlink" x="0px" y="0px"
	 viewBox="988 -1531.5 1600 2323.7" style="enable-background:new 988 -1531.5 1600 2323.7;" width="1600px" height="2324px" xml:space="preserve">
<style type="text/css">
	.st0{fill:none;}
	.st1{opacity:5.000000e-002;}
	.st2{fill:#FFFFFF;stroke:#E8E8E8;stroke-miterlimit:10;}
	.st3{fill:#E2E2E2;stroke:#E2E2E2;stroke-miterlimit:10;}
	.st4{fill:#F6F6F6;}
	.st5{fill:#E2E2E2;}
	.st6{fill:#FFA300;}
	.st7{fill:#FFFFFF;}
	.st8{fill:#34BC79;}
	.st9{fill:#5D5EF4;}
	.st10{fill:#FF4759;}
	.st11{fill:#A900FF;}
	.st12{fill:#00BEA4;}
	.st13{fill:#E8E8E8;}
	.st14{fill:#F2F2F2;}
	.st15{fill:#DDDDDD;}
	.st16{fill:#BCBCBC;}
</style>
<g>
	<rect x="988" y="-1531.5" class="st0" width="1600" height="2323.7"/>
</g>
<g>
	<g>
		<g class="st1">
			<path d="M1514.7,690.3v-1956c0-5.2,4.2-9.4,9.4-9.4h1054.5c5.2,0,9.4,4.2,9.4,9.4v1956H1514.7L1514.7,690.3z"/>
		</g>
		<g>
			<g>
				<path class="st2" d="M1524.7,670.3v-1941.7c0-13.9,10.1-23.7,22.6-23.7h1009.4c17.3,0,31.3,13.5,30.8,30.1V670.3H1524.7
					L1524.7,670.3z"/>
			</g>
			<g>
				<path class="st3" d="M2587.5-1235.5H1524.7v-50.3c0-5.2,4.2-9.4,9.4-9.4h1053.4V-1235.5z"/>
			</g>
		</g>
		<g>
			<g>
				<g>
					<ellipse class="st4" cx="1652.5" cy="-1264.1" rx="8.4" ry="8.6"/>
				</g>
				<g>
					<ellipse class="st4" cx="1618.6" cy="-1264.1" rx="8.4" ry="8.6"/>
				</g>
				<g>
					<ellipse class="st4" cx="1584.6" cy="-1264.1" rx="8.4" ry="8.6"/>
				</g>
			</g>
		</g>
	</g>
</g>
<g>
	<g>
		<path class="st5" d="M2588-1235.5H1524.7v-50.3c0-5.2,4.2-9.4,9.4-9.4H2588V-1235.5z"/>
	</g>
</g>
<g>
	<g>
		<g>
			<circle class="st6" cx="1572.7" cy="-946.2" r="9.7"/>
		</g>
		<g>
			<g>
				<rect x="1451.8" y="-948.2" class="st6" width="121.2" height="4"/>
			</g>
		</g>
	</g>
	<g>
		<path class="st6" d="M1461.5-874.1h-367.3c-3.5,0-6.4-2.8-6.4-6.4v-131.4c0-3.5,2.8-6.4,6.4-6.4h367.3c3.5,0,6.4,2.8,6.4,6.4
			v131.5C1467.8-877,1465-874.1,1461.5-874.1z"/>
	</g>
	<g>
		<path class="st7" d="M1206.3-975.5h7.3c6.2,0,10.4,4.2,10.4,9.7v0.1c0,5.5-4.3,9.8-10.4,9.8h-7.3V-975.5z M1213.6-959
			c4.1,0,6.8-2.8,6.8-6.6v-0.1c0-3.8-2.7-6.7-6.8-6.7h-3.9v13.3L1213.6-959L1213.6-959z"/>
		<path class="st7" d="M1228.9-975.5h14.5v3.1h-11.1v5.1h9.8v3.1h-9.8v5.3h11.2v3.1h-14.7L1228.9-975.5L1228.9-975.5L1228.9-975.5z"
			/>
		<path class="st7" d="M1253.2-972.3h-6.2v-3.2h15.9v3.2h-6.2v16.4h-3.5V-972.3L1253.2-972.3z"/>
		<path class="st7" d="M1271.6-975.6h3.2l8.6,19.7h-3.6l-2-4.7h-9.3l-2,4.7h-3.5L1271.6-975.6z M1276.6-963.6l-3.4-7.8l-3.4,7.8
			H1276.6z"/>
		<path class="st7" d="M1287.7-975.5h3.4v19.6h-3.4V-975.5z"/>
		<path class="st7" d="M1297.1-975.5h3.4v16.5h10.3v3.1h-13.7V-975.5L1297.1-975.5z"/>
		<path class="st7" d="M1315.1-975.5h14.5v3.1h-11.1v5.1h9.8v3.1h-9.8v5.3h11.2v3.1H1315L1315.1-975.5L1315.1-975.5z"/>
		<path class="st7" d="M1334.6-975.5h7.3c6.2,0,10.4,4.2,10.4,9.7v0.1c0,5.5-4.3,9.8-10.4,9.8h-7.3V-975.5z M1341.9-959
			c4.1,0,6.8-2.8,6.8-6.6v-0.1c0-3.8-2.7-6.7-6.8-6.7h-3.9v13.3L1341.9-959L1341.9-959z"/>
		<path class="st7" d="M1171.3-913.7l2.1-2.5c1.9,1.6,3.8,2.5,6.2,2.5c2.1,0,3.5-1,3.5-2.5v-0.1c0-1.4-0.8-2.2-4.4-3
			c-4.2-1-6.5-2.2-6.5-5.9v-0.1c0-3.4,2.8-5.7,6.7-5.7c2.9,0,5.1,0.9,7.1,2.5l-1.8,2.6c-1.8-1.3-3.5-2-5.3-2c-2,0-3.2,1-3.2,2.3v0.1
			c0,1.5,0.9,2.2,4.6,3.1c4.1,1,6.3,2.5,6.3,5.7v0.1c0,3.7-2.9,5.9-7,5.9C1176.5-910.6,1173.7-911.6,1171.3-913.7z"/>
		<path class="st7" d="M1191-919.2v-11.3h3.4v11.1c0,3.6,1.9,5.6,5,5.6s4.9-1.8,4.9-5.5v-11.2h3.4v11.1c0,5.9-3.3,8.8-8.4,8.8
			S1191-913.5,1191-919.2z"/>
		<path class="st7" d="M1213.2-930.5h8.8c2.2,0,4,0.6,5.1,1.7c0.9,0.9,1.3,1.9,1.3,3.2v0.1c0,2.4-1.3,3.6-2.8,4.4
			c2.3,0.8,3.9,2.1,3.9,4.8v0.1c0,3.5-2.9,5.4-7.3,5.4h-9.1L1213.2-930.5L1213.2-930.5z M1221.3-922.2c2.2,0,3.7-0.9,3.7-2.7v-0.1
			c0-1.5-1.2-2.5-3.4-2.5h-5v5.2L1221.3-922.2L1221.3-922.2z M1222.3-914c2.4,0,3.8-0.9,3.8-2.7v-0.1c0-1.7-1.3-2.6-4-2.6h-5.5v5.4
			H1222.3L1222.3-914z"/>
		<path class="st7" d="M1234.1-930.5h3.4v8.1h9.4v-8.1h3.4v19.6h-3.4v-8.3h-9.4v8.3h-3.4V-930.5z"/>
		<path class="st7" d="M1256.1-930.5h14.5v3.1h-11.1v5.1h9.8v3.1h-9.8v5.3h11.2v3.1H1256L1256.1-930.5L1256.1-930.5z"/>
		<path class="st7" d="M1282.5-930.6h3.2l8.6,19.7h-3.6l-2-4.7h-9.3l-2,4.7h-3.5L1282.5-930.6z M1287.4-918.6l-3.4-7.9l-3.4,7.8h6.8
			L1287.4-918.6L1287.4-918.6z"/>
		<path class="st7" d="M1298.3-930.5h7.3c6.2,0,10.4,4.2,10.4,9.7v0.1c0,5.5-4.3,9.8-10.4,9.8h-7.3V-930.5z M1305.7-914
			c4.1,0,6.8-2.8,6.8-6.6v-0.1c0-3.8-2.7-6.7-6.8-6.7h-3.9v13.3L1305.7-914L1305.7-914z"/>
		<path class="st7" d="M1320.9-930.5h3.4v16.5h10.3v3.1h-13.7V-930.5L1320.9-930.5z"/>
		<path class="st7" d="M1339.2-930.5h3.4v19.6h-3.4V-930.5z"/>
		<path class="st7" d="M1348.5-930.5h3.2l10.5,13.6v-13.6h3.4v19.6h-2.9l-10.8-13.9v13.9h-3.4V-930.5L1348.5-930.5z"/>
		<path class="st7" d="M1371.4-930.5h14.5v3.1h-11.1v5.1h9.8v3.1h-9.8v5.3h11.2v3.1h-14.7L1371.4-930.5L1371.4-930.5L1371.4-930.5z"
			/>
	</g>
</g>
<g>
	<g>
		<g>
			<circle class="st8" cx="1572.7" cy="-1127" r="9.7"/>
		</g>
		<g>
			<g>
				<rect x="1451.8" y="-1129" class="st8" width="121.2" height="4"/>
			</g>
		</g>
	</g>
	<g>
		<path class="st8" d="M1461.5-1054.9h-367.3c-3.5,0-6.4-2.8-6.4-6.4v-131.4c0-3.5,2.8-6.4,6.4-6.4h367.3c3.5,0,6.4,2.8,6.4,6.4
			v131.5C1467.8-1057.7,1465-1054.9,1461.5-1054.9z"/>
	</g>
	<g>
		<path class="st7" d="M1194.1-1156.2h3.4v8.1h9.4v-8.1h3.4v19.6h-3.4v-8.3h-9.4v8.3h-3.4V-1156.2z"/>
		<path class="st7" d="M1216.1-1156.2h14.5v3.1h-11.1v5.1h9.8v3.1h-9.8v5.3h11.2v3.1H1216L1216.1-1156.2L1216.1-1156.2z"/>
		<path class="st7" d="M1242.5-1156.4h3.2l8.6,19.7h-3.6l-2-4.7h-9.3l-2,4.7h-3.5L1242.5-1156.4z M1247.5-1144.4l-3.4-7.8l-3.4,7.8
			H1247.5z"/>
		<path class="st7" d="M1258.4-1156.2h7.3c6.2,0,10.4,4.2,10.4,9.7v0.1c0,5.5-4.3,9.8-10.4,9.8h-7.3V-1156.2z M1265.7-1139.8
			c4.1,0,6.8-2.8,6.8-6.6v-0.1c0-3.8-2.7-6.7-6.8-6.7h-3.9v13.3L1265.7-1139.8L1265.7-1139.8z"/>
		<path class="st7" d="M1281-1156.2h3.4v16.5h10.3v3.1H1281V-1156.2z"/>
		<path class="st7" d="M1299.2-1156.2h3.4v19.6h-3.4V-1156.2z"/>
		<path class="st7" d="M1308.6-1156.2h3.2l10.5,13.6v-13.6h3.4v19.6h-2.9l-10.8-14v13.9h-3.4V-1156.2z"/>
		<path class="st7" d="M1331.4-1156.2h14.6v3.1h-11.1v5.1h9.8v3.1h-9.8v5.3h11.2v3.1h-14.7V-1156.2z"/>
		<path class="st7" d="M1350.5-1151.6h13.5v3.1h-13.5V-1151.6z M1350.5-1144.6h13.5v3.1h-13.5V-1144.6z"/>
		<path class="st7" d="M1153.6-1111.2h3.7l4.7,14.5l4.8-14.6h2.9l4.8,14.6l4.7-14.5h3.6l-6.8,19.7h-3l-4.8-14.1l-4.8,14.1h-3
			L1153.6-1111.2z"/>
		<path class="st7" d="M1187.1-1111.2h3.4v8.1h9.4v-8.1h3.4v19.6h-3.4v-8.3h-9.4v8.3h-3.4V-1111.2z"/>
		<path class="st7" d="M1216-1111.4h3.2l8.6,19.7h-3.6l-2-4.7h-9.3l-2,4.7h-3.5L1216-1111.4z M1220.9-1099.4l-3.4-7.8l-3.4,7.8
			H1220.9z"/>
		<path class="st7" d="M1234.2-1108.1h-6.2v-3.2h15.9v3.2h-6.2v16.4h-3.5V-1108.1z"/>
		<path class="st7" d="M1262.1-1108.1h-6.2v-3.2h15.9v3.2h-6.2v16.4h-3.5V-1108.1L1262.1-1108.1z"/>
		<path class="st7" d="M1276.1-1111.2h3.4v8.1h9.4v-8.1h3.4v19.6h-3.4v-8.3h-9.4v8.3h-3.4V-1111.2z"/>
		<path class="st7" d="M1298.1-1111.2h14.5v3.1h-11.1v5.1h9.8v3.1h-9.8v5.3h11.2v3.1H1298L1298.1-1111.2L1298.1-1111.2z"/>
		<path class="st7" d="M1323.3-1099.4l-7.8-11.9h4.1l5.5,8.7l5.5-8.7h3.9l-7.8,11.8v7.8h-3.5L1323.3-1099.4L1323.3-1099.4z"/>
		<path class="st7" d="M1346.5-1101.4L1346.5-1101.4c0-5.5,4.2-10.2,10.1-10.2c3.4,0,5.5,1,7.5,2.7l-2.2,2.6c-1.5-1.3-3-2.1-5.5-2.1
			c-3.6,0-6.4,3.2-6.4,6.9v0.1c0,4,2.7,7,6.7,7c1.8,0,3.5-0.6,4.7-1.5v-3.7h-5v-3h8.3v8.2c-1.9,1.7-4.7,3.1-8.2,3.1
			C1350.6-1091.3,1346.5-1095.7,1346.5-1101.4z"/>
		<path class="st7" d="M1370.1-1111.2h14.5v3.1h-11.1v5.1h9.8v3.1h-9.8v5.3h11.2v3.1H1370L1370.1-1111.2L1370.1-1111.2z"/>
		<path class="st7" d="M1394.3-1108.1h-6.2v-3.2h15.9v3.2h-6.2v16.4h-3.5V-1108.1z"/>
	</g>
</g>
<g>
	<g>
		<g>
			<circle class="st9" cx="1572.7" cy="-573.6" r="9.7"/>
		</g>
		<g>
			<g>
				<rect x="1451.8" y="-575.6" class="st9" width="121.2" height="4"/>
			</g>
		</g>
	</g>
	<g>
		<path class="st9" d="M1461.5-521.5h-367.3c-3.5,0-6.4-2.8-6.4-6.4v-91.5c0-3.5,2.8-6.4,6.4-6.4h367.3c3.5,0,6.4,2.8,6.4,6.4v91.5
			C1467.8-524.3,1465-521.5,1461.5-521.5z"/>
	</g>
	<g>
		<path class="st7" d="M1118.5-583h3.2l8.6,19.7h-3.6l-2-4.7h-9.3l-2,4.7h-3.5L1118.5-583z M1123.5-571l-3.4-7.8l-3.4,7.8H1123.5z"
			/>
		<path class="st7" d="M1134.4-582.8h8.8c2.2,0,4,0.6,5.1,1.7c0.9,0.9,1.3,1.9,1.3,3.2v0.1c0,2.4-1.3,3.6-2.8,4.4
			c2.3,0.8,3.9,2.1,3.9,4.8v0.1c0,3.5-2.9,5.4-7.3,5.4h-9.1L1134.4-582.8L1134.4-582.8z M1142.5-574.6c2.2,0,3.7-0.9,3.7-2.7v-0.1
			c0-1.5-1.2-2.5-3.4-2.5h-5v5.2L1142.5-574.6L1142.5-574.6z M1143.5-566.3c2.4,0,3.8-0.9,3.8-2.7v-0.1c0-1.7-1.3-2.6-4-2.6h-5.5
			v5.4H1143.5L1143.5-566.3z"/>
		<path class="st7" d="M1154.5-573L1154.5-573c0-5.6,4.3-10.2,10.3-10.2s10.2,4.5,10.2,10v0.1c0,5.5-4.3,10.1-10.3,10.1
			S1154.5-567.5,1154.5-573z M1171.3-573L1171.3-573c0-3.9-2.8-7-6.7-7s-6.6,3.1-6.6,6.9v0.1c0,3.8,2.8,7,6.7,7
			C1168.6-566.1,1171.3-569.2,1171.3-573z"/>
		<path class="st7" d="M1176.9-582.8h3.8l5.9,15.1l5.9-15.1h3.7l-8.1,19.7h-3L1176.9-582.8z"/>
		<path class="st7" d="M1200.3-582.8h14.5v3.1h-11.1v5.1h9.8v3.1h-9.8v5.3h11.3v3.1h-14.7V-582.8z"/>
		<path class="st7" d="M1233.7-579.6h-6.2v-3.2h15.9v3.2h-6.2v16.4h-3.5V-579.6z"/>
		<path class="st7" d="M1247.7-582.8h3.4v8.1h9.4v-8.1h3.4v19.6h-3.4v-8.3h-9.4v8.3h-3.4V-582.8z"/>
		<path class="st7" d="M1269.7-582.8h14.5v3.1h-11.1v5.1h9.8v3.1h-9.8v5.3h11.2v3.1h-14.7L1269.7-582.8L1269.7-582.8L1269.7-582.8z"
			/>
		<path class="st7" d="M1298.3-582.8h14.6v3.1h-11.1v5.3h9.9v3.1h-9.9v8h-3.4L1298.3-582.8L1298.3-582.8L1298.3-582.8z"/>
		<path class="st7" d="M1316.3-573L1316.3-573c0-5.6,4.3-10.2,10.3-10.2s10.2,4.6,10.2,10.1v0.1c0,5.5-4.3,10.1-10.3,10.1
			S1316.3-567.5,1316.3-573z M1333.2-573L1333.2-573c0-3.9-2.8-7-6.7-7s-6.6,3.1-6.6,6.9v0.1c0,3.8,2.8,7,6.7,7
			C1330.5-566.1,1333.2-569.2,1333.2-573z"/>
		<path class="st7" d="M1341.7-582.8h3.4v16.5h10.3v3.1h-13.7V-582.8L1341.7-582.8z"/>
		<path class="st7" d="M1359.7-582.8h7.3c6.2,0,10.4,4.2,10.4,9.7v0.1c0,5.5-4.3,9.8-10.4,9.8h-7.3V-582.8z M1367-566.4
			c4.1,0,6.8-2.8,6.8-6.6v-0.1c0-3.8-2.7-6.7-6.8-6.7h-3.9v13.3L1367-566.4L1367-566.4z"/>
		<path class="st7" d="M1390.5-573L1390.5-573c0-5.6,4.2-10.2,10.1-10.2c3.6,0,5.8,1.3,7.7,3.1l-2.2,2.5c-1.6-1.5-3.2-2.4-5.5-2.4
			c-3.8,0-6.5,3.1-6.5,6.9v0.1c0,3.8,2.7,7,6.5,7c2.4,0,3.9-1,5.6-2.5l2.2,2.2c-2,2.1-4.3,3.5-8,3.5
			C1394.8-562.9,1390.5-567.4,1390.5-573z"/>
		<path class="st7" d="M1417.6-579.6h-6.2v-3.2h15.9v3.2h-6.3v16.4h-3.5L1417.6-579.6L1417.6-579.6z"/>
		<path class="st7" d="M1436-583h3.2l8.6,19.7h-3.6l-2-4.7h-9.3l-2,4.7h-3.5L1436-583z M1440.9-571l-3.4-7.8l-3.4,7.8H1440.9z"/>
	</g>
</g>
<g>
	<g>
		<g>
			<circle class="st9" cx="1572.7" cy="539.3" r="9.7"/>
		</g>
		<g>
			<g>
				<rect x="1451.8" y="537.3" class="st9" width="121.2" height="4"/>
			</g>
		</g>
	</g>
	<g>
		<path class="st9" d="M1461.5,591.3h-367.3c-3.5,0-6.4-2.8-6.4-6.4v-91.5c0-3.5,2.8-6.4,6.4-6.4h367.3c3.5,0,6.4,2.8,6.4,6.4v91.5
			C1467.8,588.6,1465,591.3,1461.5,591.3z"/>
	</g>
	<g>
		<path class="st7" d="M1181.2,546.8l2.1-2.5c1.9,1.6,3.8,2.5,6.2,2.5c2.1,0,3.5-1,3.5-2.5v-0.1c0-1.4-0.8-2.2-4.4-3
			c-4.2-1-6.5-2.2-6.5-5.9v-0.1c0-3.4,2.8-5.7,6.7-5.7c2.9,0,5.1,0.9,7.1,2.5l-1.8,2.6c-1.8-1.3-3.5-2-5.3-2c-2,0-3.2,1-3.2,2.3v0.1
			c0,1.5,0.9,2.2,4.6,3.1c4.1,1,6.3,2.5,6.3,5.7v0.1c0,3.7-2.9,5.9-7,5.9C1186.4,549.8,1183.6,548.8,1181.2,546.8z"/>
		<path class="st7" d="M1201.2,530.1h14.5v3.1h-11.1v5.1h9.8v3.1h-9.8v5.3h11.2v3.1h-14.7L1201.2,530.1L1201.2,530.1z"/>
		<path class="st7" d="M1219.7,539.8L1219.7,539.8c0-5.6,4.2-10.2,10.1-10.2c3.6,0,5.8,1.3,7.7,3.1l-2.2,2.5
			c-1.6-1.5-3.2-2.4-5.5-2.4c-3.8,0-6.5,3.1-6.5,6.9v0.1c0,3.8,2.7,7,6.5,7c2.4,0,3.9-1,5.6-2.5l2.2,2.2c-2,2.1-4.3,3.5-8,3.5
			C1224,550,1219.7,545.5,1219.7,539.8z"/>
		<path class="st7" d="M1240.6,539.8L1240.6,539.8c0-5.6,4.3-10.2,10.3-10.2s10.2,4.6,10.2,10.1v0.1c0,5.5-4.3,10.1-10.3,10.1
			S1240.6,545.3,1240.6,539.8z M1257.4,539.8L1257.4,539.8c0-3.9-2.8-7-6.7-7c-3.9,0-6.6,3.1-6.6,6.9v0.1c0,3.8,2.8,7,6.7,7
			C1254.7,546.8,1257.4,543.6,1257.4,539.8z"/>
		<path class="st7" d="M1265.9,530.1h3.2l10.5,13.6v-13.6h3.4v19.6h-2.9l-10.8-13.9v13.9h-3.4V530.1L1265.9,530.1z"/>
		<path class="st7" d="M1288.7,530.1h7.3c6.2,0,10.4,4.2,10.4,9.7v0.1c0,5.5-4.3,9.8-10.4,9.8h-7.3V530.1z M1296,546.5
			c4.1,0,6.8-2.8,6.8-6.6v-0.1c0-3.8-2.7-6.7-6.8-6.7h-3.9v13.3L1296,546.5L1296,546.5z"/>
		<path class="st7" d="M1319.6,539.8L1319.6,539.8c0-5.6,4.2-10.2,10.1-10.2c3.6,0,5.8,1.3,7.7,3.1l-2.2,2.5
			c-1.6-1.5-3.2-2.4-5.5-2.4c-3.8,0-6.5,3.1-6.5,6.9v0.1c0,3.8,2.7,7,6.5,7c2.4,0,3.9-1,5.6-2.5l2.2,2.2c-2,2.1-4.3,3.5-8,3.5
			C1323.8,550,1319.6,545.5,1319.6,539.8z"/>
		<path class="st7" d="M1346.6,533.1h-6.2v-3.2h15.9v3.2h-6.2v16.4h-3.5V533.1L1346.6,533.1z"/>
		<path class="st7" d="M1365.1,529.8h3.2l8.6,19.7h-3.6l-2-4.7h-9.3l-2,4.7h-3.5L1365.1,529.8z M1370,541.8l-3.4-7.8l-3.4,7.8H1370z
			"/>
	</g>
</g>
<g>
	<g>
		<g>
			<circle class="st10" cx="1572.7" cy="-753.1" r="9.7"/>
		</g>
		<g>
			<g>
				<rect x="1441.8" y="-755.1" class="st10" width="131.2" height="4"/>
			</g>
		</g>
	</g>
	<g>
		<path class="st10" d="M1461.5-701h-367.3c-3.5,0-6.4-2.8-6.4-6.4v-91.5c0-3.5,2.8-6.4,6.4-6.4h367.3c3.5,0,6.4,2.8,6.4,6.4v91.5
			C1467.8-703.9,1465-701,1461.5-701z"/>
	</g>
	<g>
		<path class="st7" d="M1184.6-762.4h3.4v8.1h9.4v-8.1h3.4v19.6h-3.4v-8.3h-9.4v8.3h-3.4V-762.4z"/>
		<path class="st7" d="M1206.6-762.4h14.5v3.1H1210v5.1h9.8v3.1h-9.8v5.3h11.2v3.1h-14.7L1206.6-762.4L1206.6-762.4z"/>
		<path class="st7" d="M1226-762.4h8.7c2.5,0,4.4,0.7,5.7,2c1,1.1,1.6,2.5,1.6,4.2v0.1c0,3.2-1.9,5.2-4.7,5.9l5.3,7.4h-4.1l-4.8-6.8
			h-4.3v6.8h-3.4V-762.4z M1234.5-752.7c2.5,0,4-1.3,4-3.3v-0.1c0-2.1-1.5-3.2-4.1-3.2h-5v6.6H1234.5z"/>
		<path class="st7" d="M1246.1-752.6L1246.1-752.6c0-5.6,4.3-10.2,10.3-10.2s10.2,4.6,10.2,10.1l0,0c0,5.5-4.3,10.1-10.3,10.1
			S1246.1-747,1246.1-752.6z M1263-752.6L1263-752.6c0-3.9-2.8-7-6.7-7c-3.9,0-6.6,3.1-6.6,6.9v0.1c0,3.8,2.8,7,6.7,7
			S1263-748.8,1263-752.6z"/>
		<path class="st7" d="M1280.8-762.4h3.4v19.6h-3.4V-762.4z"/>
		<path class="st7" d="M1290.2-762.4h3.7l6,9.3l6-9.3h3.7v19.6h-3.6v-14.1l-6.2,9.2h-0.1l-6.1-9.2v14h-3.4V-762.4L1290.2-762.4z"/>
		<path class="st7" d="M1322.1-762.6h3.2l8.6,19.7h-3.6l-2-4.7h-9.3l-2,4.7h-3.5L1322.1-762.6z M1327-750.6l-3.4-7.8l-3.4,7.8H1327z
			"/>
		<path class="st7" d="M1335.9-752.6L1335.9-752.6c0-5.5,4.2-10.2,10.1-10.2c3.4,0,5.5,1,7.5,2.7l-2.2,2.6c-1.5-1.3-3-2.1-5.5-2.1
			c-3.6,0-6.4,3.2-6.4,6.9v0.1c0,4,2.7,7,6.7,7c1.8,0,3.5-0.6,4.7-1.5v-3.7h-5v-3h8.3v8.2c-1.9,1.7-4.7,3.1-8.2,3.1
			C1339.9-742.5,1335.9-746.9,1335.9-752.6z"/>
		<path class="st7" d="M1359.4-762.4h14.6v3.1h-11.1v5.1h9.8v3.1h-9.8v5.3h11.2v3.1h-14.7V-762.4z"/>
	</g>
</g>
<g>
	<g>
		<g>
			<circle class="st11" cx="1572.7" cy="-244" r="9.7"/>
		</g>
		<g>
			<g>
				<rect x="1461.8" y="-246" class="st11" width="111.2" height="4"/>
			</g>
		</g>
	</g>
	<g>
		<path class="st11" d="M1461.5-191.9h-367.3c-3.5,0-6.4-2.8-6.4-6.4v-91.5c0-3.5,2.8-6.4,6.4-6.4h367.3c3.5,0,6.4,2.8,6.4,6.4v91.5
			C1467.8-194.7,1465-191.9,1461.5-191.9z"/>
	</g>
	<g>
		<path class="st7" d="M1174.9-253.4h14.6v3.1h-11.1v5.3h9.9v3.1h-9.9v8h-3.4L1174.9-253.4L1174.9-253.4z"/>
		<path class="st7" d="M1193.9-253.4h14.5v3.1h-11.1v5.1h9.8v3.1h-9.8v5.3h11.2v3.1h-14.7L1193.9-253.4L1193.9-253.4L1193.9-253.4z"
			/>
		<path class="st7" d="M1220.3-253.4h3.2l8.6,19.7h-3.6l-2-4.7h-9.3l-2,4.7h-3.5L1220.3-253.4z M1225.3-241.5l-3.4-7.8l-3.4,7.8
			H1225.3z"/>
		<path class="st7" d="M1238.5-250.1h-6.2v-3.2h15.9v3.2h-6.2v16.4h-3.5V-250.1z"/>
		<path class="st7" d="M1252.2-242v-11.3h3.4v11.1c0,3.6,1.9,5.6,5,5.6c3.1,0,4.9-1.8,4.9-5.5v-11.3h3.4v11.1c0,5.9-3.3,8.8-8.4,8.8
			C1255.5-233.4,1252.2-236.4,1252.2-242z"/>
		<path class="st7" d="M1274.4-253.4h8.7c2.5,0,4.4,0.7,5.7,2c1,1.1,1.6,2.5,1.6,4.2v0.1c0,3.2-1.9,5.2-4.7,5.9l5.3,7.4h-4l-4.8-6.8
			h-4.3v6.8h-3.4L1274.4-253.4L1274.4-253.4z M1282.9-243.6c2.5,0,4-1.3,4-3.3v-0.1c0-2.1-1.5-3.2-4.1-3.2h-5v6.6H1282.9z"/>
		<path class="st7" d="M1295.4-253.4h14.5v3.1h-11.1v5.1h9.8v3.1h-9.8v5.3h11.2v3.1h-14.7L1295.4-253.4L1295.4-253.4L1295.4-253.4z"
			/>
		<path class="st7" d="M1323.9-253.4h3.4v16.5h10.3v3.1h-13.7V-253.4L1323.9-253.4z"/>
		<path class="st7" d="M1342.2-253.4h3.4v19.6h-3.4V-253.4z"/>
		<path class="st7" d="M1350.2-236.5l2.1-2.5c1.9,1.6,3.8,2.5,6.2,2.5c2.1,0,3.5-1,3.5-2.5v-0.1c0-1.4-0.8-2.2-4.4-3
			c-4.2-1-6.5-2.2-6.5-5.9v-0.1c0-3.4,2.8-5.7,6.7-5.7c2.9,0,5.1,0.9,7.1,2.5l-1.8,2.6c-1.8-1.3-3.5-2-5.3-2c-2,0-3.2,1-3.2,2.3v0.1
			c0,1.5,0.9,2.2,4.6,3.1c4.1,1,6.3,2.5,6.3,5.7v0.1c0,3.7-2.9,5.9-7,5.9C1355.4-233.4,1352.6-234.4,1350.2-236.5z"/>
		<path class="st7" d="M1374.6-250.1h-6.2v-3.2h15.9v3.2h-6.3v16.4h-3.5L1374.6-250.1L1374.6-250.1z"/>
	</g>
</g>
<g>
	<g>
		<g>
			<circle class="st12" cx="1572.7" cy="157.9" r="9.7"/>
		</g>
		<g>
			<g>
				<rect x="1461.8" y="155.9" class="st12" width="111.2" height="4"/>
			</g>
		</g>
	</g>
	<g>
		<path class="st12" d="M1461.5,210h-367.3c-3.5,0-6.4-2.8-6.4-6.4v-91.5c0-3.5,2.8-6.4,6.4-6.4h367.3c3.5,0,6.4,2.8,6.4,6.4v91.5
			C1467.8,207.1,1465,210,1461.5,210z"/>
	</g>
	<g>
		<path class="st7" d="M1164.2,165.4l2.1-2.5c1.9,1.6,3.8,2.5,6.2,2.5c2.1,0,3.5-1,3.5-2.5v-0.1c0-1.4-0.8-2.2-4.4-3
			c-4.2-1-6.5-2.2-6.5-5.9v-0.1c0-3.4,2.8-5.7,6.7-5.7c2.9,0,5.1,0.9,7.1,2.5l-1.8,2.6c-1.8-1.3-3.5-2-5.3-2c-2,0-3.2,1-3.2,2.3v0.1
			c0,1.5,0.9,2.2,4.6,3.1c4.1,1,6.3,2.5,6.3,5.7v0.1c0,3.7-2.9,5.9-7,5.9C1169.4,168.5,1166.6,167.5,1164.2,165.4z"/>
		<path class="st7" d="M1183.3,158.5L1183.3,158.5c0-5.6,4.3-10.2,10.3-10.2s10.2,4.6,10.2,10.1v0.1c0,5.5-4.3,10.1-10.3,10.1
			S1183.3,164,1183.3,158.5z M1200.2,158.5L1200.2,158.5c0-3.9-2.8-7-6.7-7s-6.6,3.1-6.6,6.9v0.1c0,3.8,2.8,7,6.7,7
			C1197.4,165.4,1200.2,162.3,1200.2,158.5z"/>
		<path class="st7" d="M1207.8,158.5L1207.8,158.5c0-5.6,4.2-10.2,10.1-10.2c3.6,0,5.8,1.3,7.7,3.1l-2.2,2.5
			c-1.6-1.5-3.2-2.4-5.5-2.4c-3.8,0-6.5,3.1-6.5,6.9v0.1c0,3.8,2.7,7,6.5,7c2.4,0,3.9-1,5.6-2.5l2.2,2.2c-2,2.1-4.3,3.5-8,3.5
			C1212,168.6,1207.8,164.1,1207.8,158.5z"/>
		<path class="st7" d="M1230.2,148.6h3.4v19.6h-3.4V148.6z"/>
		<path class="st7" d="M1246.5,148.5h3.2l8.6,19.7h-3.6l-2-4.7h-9.3l-2,4.7h-3.5L1246.5,148.5z M1251.5,160.4l-3.4-7.8l-3.4,7.8
			H1251.5z"/>
		<path class="st7" d="M1262.4,148.6h3.4v16.5h10.3v3.1h-13.7V148.6L1262.4,148.6z"/>
		<path class="st7" d="M1289.5,148.6h7.7c4.6,0,7.4,2.6,7.4,6.6v0.1c0,4.4-3.5,6.7-7.8,6.7h-3.8v6.3h-3.4L1289.5,148.6L1289.5,148.6
			z M1297,158.8c2.6,0,4.2-1.5,4.2-3.5v-0.1c0-2.3-1.7-3.5-4.2-3.5h-4v7.1H1297z"/>
		<path class="st7" d="M1308.9,148.6h8.7c2.5,0,4.4,0.7,5.7,2c1,1.1,1.6,2.5,1.6,4.2v0.1c0,3.2-1.9,5.2-4.7,5.9l5.3,7.4h-4.1
			l-4.8-6.8h-4.3v6.8h-3.4V148.6L1308.9,148.6z M1317.4,158.3c2.5,0,4-1.3,4-3.3v-0.1c0-2.1-1.5-3.2-4.1-3.2h-5v6.6H1317.4z"/>
		<path class="st7" d="M1329,158.5L1329,158.5c0-5.6,4.3-10.2,10.3-10.2s10.2,4.6,10.2,10.1v0.1c0,5.5-4.3,10.1-10.3,10.1
			S1329,164,1329,158.5z M1345.9,158.5L1345.9,158.5c0-3.9-2.8-7-6.7-7c-3.9,0-6.6,3.1-6.6,6.9v0.1c0,3.8,2.8,7,6.7,7
			C1343.2,165.4,1345.9,162.3,1345.9,158.5z"/>
		<path class="st7" d="M1353.5,158.5L1353.5,158.5c0-5.6,4.3-10.2,10.3-10.2s10.2,4.6,10.2,10.1v0.1c0,5.5-4.3,10.1-10.3,10.1
			S1353.5,164,1353.5,158.5z M1370.4,158.5L1370.4,158.5c0-3.9-2.8-7-6.7-7c-3.9,0-6.6,3.1-6.6,6.9v0.1c0,3.8,2.8,7,6.7,7
			C1367.7,165.4,1370.4,162.3,1370.4,158.5z"/>
		<path class="st7" d="M1378.9,148.6h14.6v3.1h-11.1v5.3h9.9v3.1h-9.9v8h-3.4L1378.9,148.6L1378.9,148.6z"/>
	</g>
</g>
<g>
	<rect x="1524.7" y="-433.4" class="st13" width="1063.3" height="2"/>
</g>
<g>
	<rect x="1524.7" y="-54.6" class="st13" width="1063.3" height="2"/>
</g>
<g>
	<path d="M1460.6-1427.5h23.2v6h-16.5v6.2h14.5v6h-14.5v6.5h16.7v6h-23.5L1460.6-1427.5L1460.6-1427.5z"/>
	<path d="M1489.6-1420.2h6.7v3.3c1.5-2,3.6-3.8,7-3.8c3.1,0,5.4,1.4,6.6,3.7c2.1-2.4,4.5-3.7,7.7-3.7c5,0,8,3,8,8.7v15.4h-6.7v-13.2
		c0-3.2-1.4-4.8-3.9-4.8s-4,1.6-4,4.8v13.2h-6.7v-13.2c0-3.2-1.4-4.8-3.9-4.8s-4,1.6-4,4.8v13.2h-6.7L1489.6-1420.2L1489.6-1420.2z"
		/>
	<path d="M1530.2-1403.5L1530.2-1403.5c0-5.2,3.9-7.6,9.5-7.6c2.4,0,4.1,0.4,5.8,1v-0.5c0-2.8-1.7-4.3-5.1-4.3
		c-2.6,0-4.4,0.5-6.5,1.3l-1.7-5.1c2.6-1.1,5.1-1.9,9.2-1.9c3.7,0,6.3,1,8,2.6c1.8,1.8,2.6,4.4,2.6,7.5v13.7h-6.5v-2.6
		c-1.6,1.8-3.9,3-7.1,3C1533.9-1396.2,1530.2-1398.7,1530.2-1403.5z M1545.6-1405v-1.2c-1.1-0.5-2.6-0.9-4.3-0.9
		c-2.9,0-4.6,1.1-4.6,3.3v0.1c0,1.8,1.5,2.9,3.7,2.9C1543.5-1400.8,1545.6-1402.5,1545.6-1405z"/>
	<path d="M1558.1-1428.8h7v5.9h-7V-1428.8z M1558.2-1420.2h6.7v23.6h-6.7V-1420.2z"/>
	<path d="M1571.7-1428.8h6.7v32.1h-6.7V-1428.8z"/>
	<path d="M1596.9-1401.1l4-4.8c2.8,2.3,5.7,3.7,9.2,3.7c2.8,0,4.4-1.1,4.4-2.9v-0.1c0-1.7-1.1-2.6-6.2-3.9
		c-6.2-1.6-10.2-3.3-10.2-9.4v-0.1c0-5.6,4.5-9.3,10.8-9.3c4.5,0,8.3,1.4,11.4,3.9l-3.5,5.1c-2.7-1.9-5.4-3-8-3s-4,1.2-4,2.7v0.1
		c0,2,1.3,2.7,6.6,4c6.2,1.6,9.8,3.9,9.8,9.2v0.1c0,6.1-4.7,9.5-11.3,9.5C1605.4-1396.2,1600.6-1397.8,1596.9-1401.1z"/>
	<path d="M1626.9-1428.8h7v5.9h-7V-1428.8z M1627-1420.2h6.7v23.6h-6.7V-1420.2z"/>
	<path d="M1640.4-1392l2.3-5c2.4,1.4,4.8,2.2,8,2.2c4.6,0,6.7-2.2,6.7-6.4v-1.1c-2,2.4-4.1,3.8-7.7,3.8c-5.5,0-10.5-4-10.5-11v-0.1
		c0-7,5.1-11,10.5-11c3.7,0,5.8,1.5,7.6,3.5v-3.1h6.7v18.3c0,4.2-1,7.3-3,9.3c-2.2,2.2-5.6,3.2-10.2,3.2
		C1647-1389.5,1643.4-1390.5,1640.4-1392z M1657.4-1409.6L1657.4-1409.6c0-3.3-2.5-5.5-5.8-5.5s-5.7,2.2-5.7,5.5v0.1
		c0,3.3,2.5,5.5,5.7,5.5C1654.9-1404.1,1657.4-1406.5,1657.4-1409.6z"/>
	<path d="M1670.2-1420.2h6.7v3.3c1.5-2,3.5-3.8,6.9-3.8c5.1,0,8,3.3,8,8.8v15.3h-6.7v-13.2c0-3.2-1.5-4.8-4-4.8
		c-2.6,0-4.2,1.6-4.2,4.8v13.2h-6.7L1670.2-1420.2L1670.2-1420.2z"/>
	<path d="M1711.4-1409.8v-17.6h6.8v17.4c0,5,2.5,7.6,6.6,7.6s6.6-2.5,6.6-7.4v-17.6h6.8v17.4c0,9.3-5.2,13.9-13.5,13.9
		C1716.5-1396.2,1711.4-1400.8,1711.4-1409.8z"/>
	<path d="M1744.7-1420.2h6.7v3.4c1.6-2.2,3.9-3.8,7.3-3.8c5.5,0,10.7,4.3,10.7,12.2v0.1c0,7.9-5.1,12.2-10.7,12.2
		c-3.6,0-5.8-1.6-7.3-3.5v10.1h-6.7V-1420.2z M1762.8-1408.5L1762.8-1408.5c0-4-2.6-6.6-5.8-6.6c-3.1,0-5.7,2.6-5.7,6.5v0.1
		c0,3.9,2.6,6.5,5.7,6.5S1762.8-1404.5,1762.8-1408.5z"/>
	<path d="M1788.7-1427.5h12.6c7.3,0,11.8,4.4,11.8,10.6v0.1c0,7.1-5.5,10.8-12.5,10.8h-5.1v9.2h-6.8V-1427.5z M1800.9-1412
		c3.4,0,5.4-2,5.4-4.7v-0.1c0-3-2.1-4.7-5.5-4.7h-5.2v9.4L1800.9-1412L1800.9-1412z"/>
	<path d="M1815.8-1403.5L1815.8-1403.5c0-5.2,3.9-7.6,9.5-7.6c2.4,0,4.1,0.4,5.8,1v-0.5c0-2.8-1.7-4.3-5.1-4.3
		c-2.6,0-4.4,0.5-6.5,1.3l-1.7-5.1c2.6-1.1,5.1-1.9,9.2-1.9c3.7,0,6.3,1,8,2.6c1.8,1.8,2.6,4.4,2.6,7.5v13.7h-6.6v-2.6
		c-1.6,1.8-3.9,3-7.1,3C1819.4-1396.2,1815.8-1398.7,1815.8-1403.5z M1831.2-1405v-1.2c-1.1-0.5-2.6-0.9-4.3-0.9
		c-2.9,0-4.6,1.1-4.6,3.3v0.1c0,1.8,1.5,2.9,3.7,2.9C1829-1400.8,1831.2-1402.5,1831.2-1405z"/>
	<path d="M1843.6-1392l2.3-5c2.4,1.4,4.8,2.2,8,2.2c4.6,0,6.7-2.2,6.7-6.4v-1.1c-2,2.4-4.1,3.8-7.7,3.8c-5.5,0-10.5-4-10.5-11v-0.1
		c0-7,5.1-11,10.5-11c3.7,0,5.8,1.5,7.6,3.5v-3.1h6.7v18.3c0,4.2-1,7.3-3,9.3c-2.2,2.2-5.6,3.2-10.2,3.2
		C1850.2-1389.5,1846.6-1390.5,1843.6-1392z M1860.6-1409.6L1860.6-1409.6c0-3.3-2.5-5.5-5.8-5.5s-5.7,2.2-5.7,5.5v0.1
		c0,3.3,2.5,5.5,5.7,5.5C1858.1-1404.1,1860.6-1406.5,1860.6-1409.6z"/>
	<path d="M1872.2-1408.3L1872.2-1408.3c0-6.8,4.8-12.4,11.7-12.4c7.9,0,11.5,6.1,11.5,12.8c0,0.5,0,1.1-0.1,1.8h-16.4
		c0.7,3,2.8,4.6,5.8,4.6c2.2,0,3.9-0.7,5.7-2.4l3.8,3.4c-2.2,2.7-5.4,4.4-9.6,4.4C1877.5-1396.1,1872.2-1401.1,1872.2-1408.3z
		 M1888.9-1410.3c-0.4-3-2.2-5-5-5s-4.6,2-5.1,5H1888.9z"/>
	<path d="M1921.9-1421.2h-9.4v-6.2h25.5v6.2h-9.4v24.6h-6.8L1921.9-1421.2L1921.9-1421.2z"/>
	<path d="M1937-1408.3L1937-1408.3c0-6.8,4.8-12.4,11.7-12.4c7.9,0,11.5,6.1,11.5,12.8c0,0.5,0,1.1-0.1,1.8h-16.4
		c0.7,3,2.8,4.6,5.8,4.6c2.2,0,3.9-0.7,5.7-2.4l3.8,3.4c-2.2,2.7-5.4,4.4-9.6,4.4C1942.2-1396.1,1937-1401.1,1937-1408.3z
		 M1953.6-1410.3c-0.4-3-2.2-5-5-5s-4.6,2-5.1,5H1953.6z"/>
	<path d="M1965.3-1420.2h6.7v3.3c1.5-2,3.6-3.8,7-3.8c3.1,0,5.4,1.4,6.6,3.7c2.1-2.4,4.5-3.7,7.7-3.7c5,0,8,3,8,8.7v15.4h-6.7v-13.2
		c0-3.2-1.4-4.8-3.9-4.8s-4,1.6-4,4.8v13.2h-6.7v-13.2c0-3.2-1.4-4.8-3.9-4.8s-4,1.6-4,4.8v13.2h-6.7L1965.3-1420.2L1965.3-1420.2z"
		/>
	<path d="M2007.3-1420.2h6.7v3.4c1.6-2.2,3.9-3.8,7.3-3.8c5.5,0,10.7,4.3,10.7,12.2v0.1c0,7.9-5.1,12.2-10.7,12.2
		c-3.6,0-5.8-1.6-7.3-3.5v10.1h-6.7V-1420.2z M2025.4-1408.5L2025.4-1408.5c0-4-2.6-6.6-5.8-6.6c-3.1,0-5.7,2.6-5.7,6.5v0.1
		c0,3.9,2.6,6.5,5.7,6.5C2022.8-1402,2025.4-1404.5,2025.4-1408.5z"/>
	<path d="M2037.6-1428.8h6.7v32.1h-6.7V-1428.8z"/>
	<path d="M2049.3-1403.5L2049.3-1403.5c0-5.2,3.9-7.6,9.5-7.6c2.4,0,4.1,0.4,5.8,1v-0.5c0-2.8-1.7-4.3-5.1-4.3
		c-2.6,0-4.4,0.5-6.5,1.3l-1.7-5.1c2.6-1.1,5.1-1.9,9.2-1.9c3.7,0,6.3,1,8,2.6c1.8,1.8,2.6,4.4,2.6,7.5v13.7h-6.5v-2.6
		c-1.6,1.8-3.9,3-7.1,3C2053-1396.2,2049.3-1398.7,2049.3-1403.5z M2064.7-1405v-1.2c-1.1-0.5-2.6-0.9-4.3-0.9
		c-2.9,0-4.6,1.1-4.6,3.3v0.1c0,1.8,1.5,2.9,3.7,2.9C2062.6-1400.8,2064.7-1402.5,2064.7-1405z"/>
	<path d="M2077.9-1403.3v-11.2h-2.8v-5.7h2.8v-6h6.7v6h5.5v5.7h-5.5v10.1c0,1.5,0.7,2.3,2.2,2.3c1.2,0,2.3-0.3,3.3-0.8v5.4
		c-1.4,0.8-3,1.4-5.3,1.4C2080.7-1396.2,2077.9-1398,2077.9-1403.3z"/>
	<path d="M2093.5-1408.3L2093.5-1408.3c0-6.8,4.8-12.4,11.7-12.4c7.9,0,11.5,6.1,11.5,12.8c0,0.5,0,1.1-0.1,1.8h-16.4
		c0.7,3,2.8,4.6,5.8,4.6c2.2,0,3.9-0.7,5.7-2.4l3.8,3.4c-2.2,2.7-5.4,4.4-9.6,4.4C2098.7-1396.1,2093.5-1401.1,2093.5-1408.3z
		 M2110.1-1410.3c-0.4-3-2.2-5-5-5c-2.8,0-4.6,2-5.1,5H2110.1z"/>
</g>
<g>
	<g>
		<path class="st14" d="M2587-540.5h-402.1c-4.7,0-8.5-3.8-8.5-8.5v-592.2c0-4.7,3.8-8.5,8.5-8.5H2587V-540.5z"/>
	</g>
	<g>
		<g>
			<path class="st15" d="M2507.3-752.7h-247.5v-185.2h247.5V-752.7z M2261.7-754.7h243.5v-181.2h-243.5V-754.7z"/>
		</g>
		<g>
			<path class="st15" d="M2507.3-752.7h-247.5v-185.2h247.5V-752.7z M2261.7-754.7h243.5v-181.2h-243.5V-754.7z"/>
		</g>
		<g>
			<polygon class="st15" points="2332.8,-753 2331.4,-754.4 2468.2,-891.2 2507,-852.5 2505.6,-851.1 2468.2,-888.5 			"/>
		</g>
		<g>
			<polygon class="st15" points="2261.8,-752.6 2260.4,-754 2360.3,-854 2396.3,-818 2394.9,-816.5 2360.3,-851.1 			"/>
		</g>
		<g>
			<path class="st15" d="M2312.9-865.1c-11.1,0-20.2-9.1-20.2-20.2c0-11.1,9.1-20.2,20.2-20.2c11.1,0,20.2,9.1,20.2,20.2
				C2333.1-874.1,2324-865.1,2312.9-865.1z M2312.9-903.5c-10,0-18.2,8.2-18.2,18.2s8.2,18.2,18.2,18.2s18.2-8.2,18.2-18.2
				S2322.9-903.5,2312.9-903.5z"/>
		</g>
	</g>
</g>
<g>
	<g>
		<rect x="1650.6" y="-837.2" class="st14" width="379.4" height="16.7"/>
	</g>
	<g>
		<rect x="1650.6" y="-880" class="st14" width="450" height="16.7"/>
	</g>
	<g>
		<rect x="1650.6" y="-922.7" class="st14" width="450" height="16.7"/>
	</g>
	<g>
		<rect x="1650.6" y="-965.5" class="st14" width="450" height="16.7"/>
	</g>
	<g>
		<rect x="1650.6" y="-1080.4" class="st14" width="400" height="29"/>
	</g>
	<g>
		<rect x="1650.6" y="-1153.5" class="st14" width="450" height="29"/>
	</g>
	<g>
		<g>
			<path class="st9" d="M2094.2-539.5h-437.3c-3.5,0-6.4-2.8-6.4-6.4v-63.5c0-3.5,2.8-6.4,6.4-6.4h437.3c3.5,0,6.4,2.8,6.4,6.4v63.5
				C2100.6-542.3,2097.7-539.5,2094.2-539.5z"/>
		</g>
		<g>
			<path class="st7" d="M1815.6-570.1l2.5-3.1c1.8,1.5,3.6,2.4,5.9,2.4c1.8,0,2.8-0.7,2.8-1.8v-0.1c0-1.1-0.7-1.7-3.9-2.5
				c-3.9-1-6.5-2.1-6.5-6v-0.1c0-3.6,2.9-5.9,6.9-5.9c2.9,0,5.3,0.9,7.3,2.5l-2.2,3.2c-1.7-1.2-3.4-1.9-5.1-1.9s-2.5,0.8-2.5,1.7
				v0.1c0,1.3,0.8,1.7,4.2,2.6c4,1,6.2,2.5,6.2,5.9v0.1c0,3.9-3,6.1-7.2,6.1C1821-567,1818-568,1815.6-570.1z"/>
			<path class="st7" d="M1835.8-586.8h4.3v19.6h-4.3V-586.8z"/>
			<path class="st7" d="M1844.9-577L1844.9-577c0-5.6,4.3-10.2,10.3-10.2c3.5,0,5.7,1,7.7,2.7l-2.7,3.3c-1.5-1.3-2.9-2-5.1-2
				c-3.1,0-5.6,2.8-5.6,6.1v0.1c0,3.6,2.5,6.2,5.9,6.2c1.6,0,3-0.4,4.1-1.2v-2.8h-4.5v-3.7h8.5v8.5c-2,1.7-4.8,3.1-8.4,3.1
				C1849.1-566.9,1844.9-571.2,1844.9-577z"/>
			<path class="st7" d="M1868.4-586.8h4l9.2,12.1v-12.1h4.3v19.6h-3.7l-9.5-12.5v12.5h-4.3V-586.8z"/>
			<path class="st7" d="M1900-575.6v-11.2h4.3v11.1c0,3.2,1.6,4.8,4.2,4.8s4.2-1.6,4.2-4.7v-11.2h4.3v11.1c0,5.9-3.3,8.8-8.6,8.8
				C1903.2-566.9,1900-569.9,1900-575.6z"/>
			<path class="st7" d="M1922.2-586.8h8c4.7,0,7.5,2.8,7.5,6.8v0.1c0,4.5-3.5,6.9-7.9,6.9h-3.3v5.9h-4.3L1922.2-586.8L1922.2-586.8z
				 M1929.9-577c2.2,0,3.4-1.3,3.4-3v-0.1c0-1.9-1.3-3-3.5-3h-3.3v6L1929.9-577L1929.9-577z"/>
		</g>
	</g>
	<g>
		<g>
			<path class="st9" d="M2094.2-715.1c1.3,0,2.4,1.1,2.4,2.4v63.5c0,1.3-1.1,2.4-2.4,2.4h-437.3c-1.3,0-2.4-1.1-2.4-2.4v-63.5
				c0-1.3,1.1-2.4,2.4-2.4H2094.2 M2094.2-719.1h-437.3c-3.5,0-6.4,2.8-6.4,6.4v63.5c0,3.5,2.8,6.4,6.4,6.4h437.3
				c3.5,0,6.4-2.8,6.4-6.4v-63.5C2100.6-716.3,2097.7-719.1,2094.2-719.1L2094.2-719.1z"/>
		</g>
	</g>
	<g>
		<path class="st16" d="M1774.9-690.5h14.7v2.1h-12.4v6.9h11.1v2.1h-11.1v7.1h12.5v2.1h-14.8L1774.9-690.5L1774.9-690.5z"/>
		<path class="st16" d="M1794.1-685.2h2.2v2.5c1-1.5,2.3-2.8,4.8-2.8c2.4,0,4,1.3,4.8,3c1.1-1.7,2.7-3,5.3-3c3.5,0,5.6,2.3,5.6,6
			v9.3h-2.2v-8.8c0-2.9-1.5-4.5-3.9-4.5c-2.3,0-4.1,1.7-4.1,4.6v8.6h-2.2v-8.8c0-2.8-1.5-4.5-3.9-4.5s-4.2,2-4.2,4.7v8.6h-2.2
			L1794.1-685.2L1794.1-685.2z"/>
		<path class="st16" d="M1820.7-674.5L1820.7-674.5c0-3.3,2.6-5,6.4-5c1.9,0,3.2,0.3,4.6,0.6v-0.5c0-2.7-1.6-4.1-4.4-4.1
			c-1.8,0-3.2,0.4-4.6,1.1l-0.7-1.8c1.7-0.8,3.2-1.3,5.5-1.3c2.1,0,3.8,0.6,4.8,1.7c1,1,1.6,2.5,1.6,4.4v9.2h-2.2v-2.2
			c-1,1.3-2.8,2.6-5.4,2.6C1823.5-669.9,1820.7-671.5,1820.7-674.5z M1831.7-675.7v-1.4c-1.1-0.3-2.6-0.6-4.4-0.6
			c-2.8,0-4.4,1.2-4.4,3l0,0c0,1.9,1.7,3,3.8,3C1829.5-671.7,1831.7-673.3,1831.7-675.7z"/>
		<path class="st16" d="M1838.8-690.9h2.6v2.5h-2.6V-690.9z M1839-685.2h2.2v15h-2.2V-685.2z"/>
		<path class="st16" d="M1846.7-691.4h2.2v21.2h-2.2V-691.4z"/>
		<path class="st16" d="M1871-690.6h2.1l9.3,20.5h-2.4l-2.4-5.4h-11.1l-2.4,5.4h-2.3L1871-690.6z M1876.7-677.6l-4.6-10.4l-4.6,10.4
			H1876.7z"/>
		<path class="st16" d="M1884.6-677.6L1884.6-677.6c0-5,3.6-7.9,7.2-7.9c2.8,0,4.6,1.5,5.7,3.2v-9h2.2v21.2h-2.2v-3
			c-1.2,1.8-3,3.3-5.7,3.3C1888.2-669.9,1884.6-672.7,1884.6-677.6z M1897.6-677.7L1897.6-677.7c0-3.5-2.6-5.8-5.4-5.8
			c-2.9,0-5.3,2.1-5.3,5.8l0,0c0,3.5,2.4,5.8,5.3,5.8C1895-671.9,1897.6-674.2,1897.6-677.7z"/>
		<path class="st16" d="M1904-677.6L1904-677.6c0-5,3.6-7.9,7.2-7.9c2.8,0,4.6,1.5,5.7,3.2v-9h2.2v21.2h-2.2v-3
			c-1.2,1.8-3,3.3-5.7,3.3C1907.6-669.9,1904-672.7,1904-677.6z M1917-677.7L1917-677.7c0-3.5-2.6-5.8-5.4-5.8
			c-2.9,0-5.3,2.1-5.3,5.8l0,0c0,3.5,2.4,5.8,5.3,5.8C1914.4-671.9,1917-674.2,1917-677.7z"/>
		<path class="st16" d="M1924.3-685.2h2.2v3.9c1.1-2.5,3.3-4.3,6.1-4.2v2.4h-0.2c-3.3,0-5.9,2.3-5.9,6.9v6h-2.2V-685.2L1924.3-685.2
			z"/>
		<path class="st16" d="M1942.1-671.8c2.1,0,3.5-0.8,4.7-2.1l1.4,1.2c-1.5,1.7-3.3,2.8-6.2,2.8c-4.1,0-7.5-3.2-7.5-7.8
			c0-4.4,3-7.8,7.2-7.8c4.4,0,7,3.5,7,7.9c0,0.2,0,0.4,0,0.8h-11.9C1937.2-673.6,1939.5-671.8,1942.1-671.8z M1946.5-678.6
			c-0.3-2.7-1.8-5-4.8-5c-2.6,0-4.6,2.1-4.9,5H1946.5z"/>
		<path class="st16" d="M1951.6-672.1l1.1-1.6c1.6,1.2,3.4,1.9,5.2,1.9c1.8,0,3.1-0.9,3.1-2.4v-0.1c0-1.5-1.8-2.1-3.7-2.6
			c-2.3-0.7-5-1.5-5-4.2v-0.1c0-2.6,2.1-4.3,5.1-4.3c1.8,0,3.9,0.6,5.4,1.7l-1,1.7c-1.4-0.9-3-1.5-4.4-1.5c-1.8,0-2.9,0.9-2.9,2.2
			v0.1c0,1.4,1.9,2,3.9,2.6c2.3,0.7,4.8,1.6,4.8,4.3v0.1c0,2.8-2.3,4.5-5.3,4.5C1955.6-669.9,1953.3-670.7,1951.6-672.1z"/>
		<path class="st16" d="M1965.9-672.1l1.1-1.6c1.6,1.2,3.4,1.9,5.2,1.9c1.8,0,3.1-0.9,3.1-2.4v-0.1c0-1.5-1.8-2.1-3.7-2.6
			c-2.3-0.7-5-1.5-5-4.2v-0.1c0-2.6,2.1-4.3,5.1-4.3c1.8,0,3.9,0.6,5.4,1.7l-1,1.7c-1.4-0.9-3-1.5-4.4-1.5c-1.8,0-2.9,0.9-2.9,2.2
			v0.1c0,1.4,1.9,2,3.9,2.6c2.3,0.7,4.8,1.6,4.8,4.3v0.1c0,2.8-2.3,4.5-5.3,4.5C1969.9-669.9,1967.6-670.7,1965.9-672.1z"/>
	</g>
</g>
<g>
	<g>
		<g>
			<rect x="1727.1" y="-325.7" class="st14" width="621" height="16.7"/>
		</g>
		<g>
			<polygon class="st11" points="1660.8,-302.1 1644.6,-318.4 1650.2,-324 1660.8,-313.4 1677.1,-329.7 1682.7,-324.1 			"/>
		</g>
	</g>
	<g>
		<g>
			<rect x="1727.1" y="-252.4" class="st14" width="731" height="16.7"/>
		</g>
		<g>
			<polygon class="st11" points="1660.8,-228.9 1644.6,-245 1650.2,-250.6 1660.8,-240.1 1677.1,-256.4 1682.7,-250.7 			"/>
		</g>
	</g>
	<g>
		<g>
			<rect x="1727.1" y="-179" class="st14" width="491" height="16.7"/>
		</g>
		<g>
			<polygon class="st11" points="1660.8,-155.4 1644.6,-171.6 1650.2,-177.4 1660.8,-166.7 1677.1,-183.1 1682.7,-177.4 			"/>
		</g>
	</g>
</g>
<g>
	<g>
		<g>
			<rect x="1792.9" y="191.6" class="st14" width="554.7" height="16.7"/>
		</g>
		<g>
			<rect x="1792.9" y="149.6" class="st14" width="597.6" height="16.7"/>
		</g>
		<g>
			<rect x="1792.9" y="107.4" class="st14" width="509" height="16.7"/>
		</g>
	</g>
	<g>
		<g>
			<path class="st12" d="M1650.6,74.1c0-23.6,11.8-33.1,33.1-33.4L1686,52c-12.3,1.3-18.4,7.5-17.5,17.7h11.1v28.6h-29V74.1
				L1650.6,74.1z M1696,74.1c0-23.6,11.8-33.1,33.1-33.4l2.3,11.3c-12.3,1.3-18.4,7.5-17.5,17.7h11.1v28.6h-29V74.1L1696,74.1z"/>
		</g>
	</g>
	<g>
		<g>
			<path class="st12" d="M2461.5,232.6c0,23.6-11.8,33.1-33.1,33.4l-2.3-11.3c12.3-1.3,18.4-7.5,17.5-17.7h-11.1v-28.6h29V232.6z
				 M2506.9,232.6c0,23.6-11.8,33.1-33.1,33.4l-2.3-11.3c12.3-1.3,18.4-7.5,17.5-17.7h-11.1v-28.6h29V232.6z"/>
		</g>
	</g>
</g>
<g>
	<g>
		<path class="st9" d="M2500.6,566.1h-347.3c-3.5,0-6.4-2.8-6.4-6.4v-63.5c0-3.5,2.8-6.4,6.4-6.4h347.3c3.5,0,6.4,2.8,6.4,6.4v63.5
			C2506.9,563.1,2504.1,566.1,2500.6,566.1z"/>
	</g>
	<g>
		<path class="st7" d="M2267,535.3l2.5-3.1c1.8,1.5,3.6,2.4,5.9,2.4c1.8,0,2.8-0.7,2.8-1.8v-0.1c0-1.1-0.7-1.7-3.9-2.5
			c-3.9-1-6.5-2.1-6.5-6v-0.1c0-3.6,2.9-5.9,6.9-5.9c2.9,0,5.3,0.9,7.3,2.5l-2.2,3.2c-1.7-1.2-3.4-1.9-5.1-1.9s-2.5,0.8-2.5,1.7v0.1
			c0,1.3,0.8,1.7,4.2,2.6c4,1,6.2,2.5,6.2,5.9v0.1c0,3.9-3,6.1-7.2,6.1C2272.4,538.6,2269.4,537.5,2267,535.3z"/>
		<path class="st7" d="M2287.2,518.6h4.3v19.6h-4.3V518.6z"/>
		<path class="st7" d="M2296.2,528.5L2296.2,528.5c0-5.6,4.3-10.2,10.3-10.2c3.5,0,5.7,1,7.7,2.7l-2.7,3.3c-1.5-1.3-2.9-2-5.1-2
			c-3.1,0-5.6,2.8-5.6,6.1v0.1c0,3.6,2.5,6.2,5.9,6.2c1.6,0,3-0.4,4.1-1.2v-2.8h-4.3V527h8.5v8.5c-2,1.7-4.8,3.1-8.4,3.1
			C2300.4,538.6,2296.2,534.3,2296.2,528.5z"/>
		<path class="st7" d="M2319.7,518.6h4l9.2,12.1v-12.1h4.3v19.6h-3.7l-9.5-12.5v12.5h-4.3V518.6z"/>
		<path class="st7" d="M2351.3,529.8v-11.2h4.3v11.1c0,3.2,1.6,4.8,4.2,4.8s4.2-1.6,4.2-4.7v-11.2h4.3v11.1c0,5.9-3.3,8.8-8.6,8.8
			C2354.6,538.6,2351.3,535.6,2351.3,529.8z"/>
		<path class="st7" d="M2373.5,518.6h8c4.7,0,7.5,2.8,7.5,6.8v0.1c0,4.5-3.5,6.9-7.9,6.9h-3.3v5.9h-4.3V518.6L2373.5,518.6z
			 M2381.3,528.6c2.2,0,3.4-1.3,3.4-3v-0.1c0-1.9-1.3-3-3.5-3h-3.3v6L2381.3,528.6L2381.3,528.6z"/>
	</g>
</g>
<g>
	<g>
		<g>
			<path class="st9" d="M2168.8,493.9c1.3,0,2.4,1.1,2.4,2.4v63.5c0,1.3-1.1,2.4-2.4,2.4h-511.9c-1.3,0-2.4-1.1-2.4-2.4v-63.5
				c0-1.3,1.1-2.4,2.4-2.4H2168.8 M2168.8,489.9h-511.9c-3.5,0-6.4,2.8-6.4,6.4v63.5c0,3.5,2.8,6.4,6.4,6.4h511.9
				c3.5,0,6.4-2.8,6.4-6.4v-63.5C2175.1,492.6,2172.3,489.9,2168.8,489.9L2168.8,489.9z"/>
		</g>
	</g>
	<g>
		<path class="st16" d="M1691.4,518.5h14.7v2.1h-12.4v6.9h11.1v2.1h-11.1v7.1h12.5v2.1h-14.8L1691.4,518.5L1691.4,518.5z"/>
		<path class="st16" d="M1710.6,523.8h2.2v2.5c1-1.5,2.3-2.8,4.8-2.8c2.4,0,4,1.3,4.8,3c1.1-1.7,2.7-3,5.3-3c3.5,0,5.6,2.3,5.6,6
			v9.3h-2.2V530c0-2.9-1.5-4.5-3.9-4.5c-2.3,0-4.1,1.7-4.1,4.6v8.6h-2.2v-8.8c0-2.8-1.5-4.5-3.9-4.5s-4.2,2-4.2,4.7v8.6h-2.2
			L1710.6,523.8L1710.6,523.8z"/>
		<path class="st16" d="M1737.2,534.5L1737.2,534.5c0-3.3,2.6-5,6.4-5c1.9,0,3.2,0.3,4.6,0.6v-0.5c0-2.7-1.6-4.1-4.4-4.1
			c-1.8,0-3.2,0.4-4.6,1.1l-0.7-1.8c1.7-0.8,3.2-1.3,5.5-1.3c2.1,0,3.8,0.6,4.8,1.7c1,1,1.6,2.5,1.6,4.4v9.2h-2.2v-2.2
			c-1,1.3-2.8,2.6-5.4,2.6C1740,539.1,1737.2,537.6,1737.2,534.5z M1748.2,533.3v-1.4c-1.1-0.3-2.6-0.6-4.4-0.6
			c-2.8,0-4.4,1.2-4.4,3v0.1c0,1.9,1.7,3,3.8,3C1746,537.3,1748.2,535.6,1748.2,533.3z"/>
		<path class="st16" d="M1755.4,518.1h2.6v2.5h-2.6V518.1z M1755.5,523.8h2.2v15h-2.2V523.8z"/>
		<path class="st16" d="M1763.3,517.6h2.2v21.2h-2.2V517.6z"/>
		<path class="st16" d="M1787.6,518.3h2.1l9.3,20.5h-2.5l-2.4-5.4H1783l-2.4,5.4h-2.3L1787.6,518.3z M1793.2,531.3l-4.6-10.4
			l-4.6,10.4H1793.2z"/>
		<path class="st16" d="M1801.1,531.3L1801.1,531.3c0-5,3.6-7.9,7.2-7.9c2.8,0,4.6,1.5,5.7,3.2v-9h2.2v21.2h-2.2v-3
			c-1.2,1.8-3,3.3-5.7,3.3C1804.7,539.1,1801.1,536.3,1801.1,531.3z M1814.1,531.3L1814.1,531.3c0-3.5-2.6-5.8-5.4-5.8
			c-2.9,0-5.3,2.1-5.3,5.8v0.1c0,3.5,2.4,5.8,5.3,5.8C1811.5,537.1,1814.1,534.8,1814.1,531.3z"/>
		<path class="st16" d="M1820.5,531.3L1820.5,531.3c0-5,3.6-7.9,7.2-7.9c2.8,0,4.6,1.5,5.7,3.2v-9h2.2v21.2h-2.2v-3
			c-1.2,1.8-3,3.3-5.7,3.3C1824.1,539.1,1820.5,536.3,1820.5,531.3z M1833.5,531.3L1833.5,531.3c0-3.5-2.6-5.8-5.4-5.8
			c-2.9,0-5.3,2.1-5.3,5.8v0.1c0,3.5,2.4,5.8,5.3,5.8C1830.9,537.1,1833.5,534.8,1833.5,531.3z"/>
		<path class="st16" d="M1840.8,523.8h2.2v3.9c1.1-2.5,3.3-4.3,6.1-4.2v2.4h-0.1c-3.3,0-5.9,2.3-5.9,6.9v6h-2.2L1840.8,523.8
			L1840.8,523.8z"/>
		<path class="st16" d="M1858.7,537.1c2.1,0,3.5-0.8,4.7-2.1l1.4,1.2c-1.5,1.7-3.3,2.8-6.2,2.8c-4.1,0-7.5-3.2-7.5-7.8
			c0-4.4,3-7.8,7.2-7.8c4.4,0,7,3.5,7,7.9c0,0.2,0,0.4,0,0.8h-11.9C1853.7,535.3,1856,537.1,1858.7,537.1z M1863.1,530.5
			c-0.3-2.7-1.8-5-4.8-5c-2.6,0-4.6,2.1-4.9,5H1863.1z"/>
		<path class="st16" d="M1868.1,536.8l1.1-1.6c1.6,1.2,3.4,1.9,5.2,1.9c1.8,0,3.1-0.9,3.1-2.4v-0.1c0-1.5-1.8-2.1-3.7-2.6
			c-2.3-0.7-5-1.5-5-4.2v-0.1c0-2.6,2.1-4.3,5.1-4.3c1.8,0,3.9,0.6,5.4,1.7l-1,1.7c-1.4-0.9-3-1.5-4.4-1.5c-1.8,0-2.9,0.9-2.9,2.2
			v0.1c0,1.4,1.9,2,3.9,2.6c2.3,0.7,4.8,1.6,4.8,4.3v0.1c0,2.8-2.3,4.5-5.3,4.5C1872.2,539.1,1869.8,538.3,1868.1,536.8z"/>
		<path class="st16" d="M1882.4,536.8l1.1-1.6c1.6,1.2,3.4,1.9,5.2,1.9c1.8,0,3.1-0.9,3.1-2.4v-0.1c0-1.5-1.8-2.1-3.7-2.6
			c-2.3-0.7-5-1.5-5-4.2v-0.1c0-2.6,2.1-4.3,5.1-4.3c1.8,0,3.9,0.6,5.4,1.7l-1,1.7c-1.4-0.9-3-1.5-4.4-1.5c-1.8,0-2.9,0.9-2.9,2.2
			v0.1c0,1.4,1.9,2,3.9,2.6c2.3,0.7,4.8,1.6,4.8,4.3v0.1c0,2.8-2.3,4.5-5.3,4.5C1886.5,539.1,1884.1,538.3,1882.4,536.8z"/>
	</g>
</g>
<g>
	<rect x="1650.6" y="383.4" class="st14" width="856.4" height="26.4"/>
</g>
</svg>
