<?xml version="1.0" encoding="utf-8"?>
<!-- Generator: Adobe Illustrator 19.1.0, SVG Export Plug-In . SVG Version: 6.00 Build 0)  -->
<svg version="1.1" id="Layer_1" xmlns="http://www.w3.org/2000/svg" xmlns:xlink="http://www.w3.org/1999/xlink" x="0px" y="0px"
	 viewBox="1482.2 -1509 1599.6 1799" style="enable-background:new 1482.2 -1509 1599.6 1799;" width="1600px" height="1799px" xml:space="preserve">
<style type="text/css">
	.st0{fill:none;}
	.st1{opacity:5.000000e-002;}
	.st2{fill:#FFFFFF;stroke:#E8E8E8;stroke-miterlimit:10;}
	.st3{fill:#E2E2E2;}
	.st4{fill:#F6F6F6;}
	.st5{fill:#F2F2F2;}
	.st6{fill:#A900FF;}
	.st7{fill:#FFFFFF;}
	.st8{fill:none;stroke:#E8E8E8;stroke-miterlimit:10;}
	.st9{fill:#34BC79;}
	.st10{fill:#FF4759;}
	.st11{fill:#81B0FF;}
	.st12{fill:#FFA300;}
	.st13{fill:#DDDDDD;}
</style>
<g>
	<rect x="1482.2" y="-1509" class="st0" width="1599.6" height="1799"/>
</g>
<g class="st1">
	<g>
		<path d="M2907.4,186H1636.6c-5.2,0-9.4-4.2-9.4-9.4v-1417.3c0-6.3,5.1-11.5,11.5-11.5h1266.4c6.3,0,11.5,5.1,11.5,11.5V176.7
			C2916.7,181.8,2912.5,186,2907.4,186z"/>
	</g>
</g>
<g>
	<path d="M1927.5-1404.7h6.8v12.2h12.5v-12.2h6.8v30.8h-6.8v-12.4h-12.5v12.4h-6.8V-1404.7z"/>
	<path d="M1959.3-1385.5L1959.3-1385.5c0-6.9,5.5-12.4,12.8-12.4s12.7,5.4,12.7,12.2v0.1c0,6.8-5.5,12.3-12.8,12.3
		S1959.3-1378.7,1959.3-1385.5z M1978.2-1385.5L1978.2-1385.5c0-3.6-2.5-6.6-6.2-6.6c-3.8,0-6.1,2.9-6.1,6.4v0.1
		c0,3.5,2.5,6.5,6.2,6.5C1975.9-1379.1,1978.2-1382,1978.2-1385.5z"/>
	<path d="M1989.9-1397.4h6.7v3.3c1.5-2,3.6-3.8,7-3.8c3.1,0,5.4,1.4,6.6,3.7c2.1-2.4,4.5-3.7,7.7-3.7c5,0,8,3,8,8.7v15.4h-6.7v-13.2
		c0-3.2-1.4-4.8-3.9-4.8s-4,1.6-4,4.8v13.2h-6.7v-13.2c0-3.2-1.4-4.8-3.9-4.8s-4,1.6-4,4.8v13.2h-6.7L1989.9-1397.4L1989.9-1397.4z"
		/>
	<path d="M2030.8-1385.5L2030.8-1385.5c0-6.8,4.8-12.4,11.7-12.4c7.9,0,11.5,6.1,11.5,12.8c0,0.5,0,1.1-0.1,1.8h-16.4
		c0.7,3,2.8,4.6,5.8,4.6c2.2,0,3.9-0.7,5.7-2.4l3.8,3.4c-2.2,2.7-5.4,4.4-9.6,4.4C2036-1373.3,2030.8-1378.3,2030.8-1385.5z
		 M2047.4-1387.5c-0.4-3-2.2-5-5-5s-4.6,2-5.1,5H2047.4z"/>
	<path d="M2059-1397.4h6.7v3.4c1.6-2.2,3.9-3.8,7.3-3.8c5.5,0,10.7,4.3,10.7,12.2v0.1c0,7.9-5.1,12.2-10.7,12.2
		c-3.6,0-5.8-1.6-7.3-3.5v10.1h-6.7V-1397.4z M2077.1-1385.6L2077.1-1385.6c0-4-2.6-6.6-5.8-6.6c-3.1,0-5.7,2.6-5.7,6.5v0.1
		c0,3.9,2.6,6.5,5.7,6.5C2074.4-1379.1,2077.1-1381.7,2077.1-1385.6z"/>
	<path d="M2087.5-1380.6L2087.5-1380.6c0-5.2,3.9-7.6,9.5-7.6c2.4,0,4.1,0.4,5.8,1v-0.4c0-2.8-1.7-4.3-5.1-4.3
		c-2.6,0-4.4,0.5-6.5,1.3l-1.7-5.1c2.6-1.1,5.1-1.9,9.2-1.9c3.7,0,6.3,1,8,2.6c1.8,1.8,2.6,4.4,2.6,7.5v13.7h-6.5v-2.6
		c-1.6,1.8-3.9,3-7.1,3C2091.2-1373.4,2087.5-1376,2087.5-1380.6z M2102.9-1382.2v-1.2c-1.1-0.5-2.6-0.9-4.3-0.9
		c-2.9,0-4.6,1.1-4.6,3.3v0.1c0,1.8,1.5,2.9,3.7,2.9C2100.7-1378,2102.9-1379.8,2102.9-1382.2z"/>
	<path d="M2115.3-1369.2l2.3-5c2.4,1.4,4.8,2.2,8,2.2c4.6,0,6.7-2.2,6.7-6.4v-1.1c-2,2.4-4.1,3.8-7.7,3.8c-5.5,0-10.5-4-10.5-11
		v-0.1c0-7,5.1-11,10.5-11c3.7,0,5.8,1.5,7.6,3.5v-3.1h6.7v18.3c0,4.2-1,7.3-3,9.3c-2.2,2.2-5.6,3.2-10.2,3.2
		C2121.9-1366.7,2118.3-1367.6,2115.3-1369.2z M2132.3-1386.8L2132.3-1386.8c0-3.3-2.5-5.5-5.8-5.5s-5.7,2.2-5.7,5.5v0.1
		c0,3.3,2.5,5.5,5.7,5.5C2129.8-1381.3,2132.3-1383.6,2132.3-1386.8z"/>
	<path d="M2144-1385.5L2144-1385.5c0-6.8,4.8-12.4,11.7-12.4c7.9,0,11.5,6.1,11.5,12.8c0,0.5,0,1.1-0.1,1.8h-16.4
		c0.7,3,2.8,4.6,5.8,4.6c2.2,0,3.9-0.7,5.7-2.4l3.8,3.4c-2.2,2.7-5.4,4.4-9.6,4.4C2149.2-1373.3,2144-1378.3,2144-1385.5z
		 M2160.6-1387.5c-0.4-3-2.2-5-5-5s-4.6,2-5.1,5H2160.6z"/>
	<path d="M2170.4-1377l2.9-4.4c2.6,1.8,5.2,2.8,7.4,2.8c1.9,0,2.8-0.7,2.8-1.8v-0.1c0-1.5-2.3-1.9-4.9-2.7c-3.3-1-7-2.5-7-7.1v-0.1
		c0-4.8,3.9-7.5,8.6-7.5c3,0,6.2,1,8.8,2.7l-2.6,4.6c-2.3-1.4-4.7-2.2-6.4-2.2c-1.6,0-2.5,0.7-2.5,1.6v0.1c0,1.3,2.2,1.9,4.8,2.8
		c3.3,1.1,7.1,2.7,7.1,7v0.1c0,5.2-3.9,7.6-9,7.6C2177.3-1373.4,2173.6-1374.5,2170.4-1377z"/>
	<path d="M2208.7-1404.7h6.8v12.2h12.5v-12.2h6.8v30.8h-6.8v-12.4h-12.5v12.4h-6.8V-1404.7z"/>
	<path d="M2240.3-1380.6L2240.3-1380.6c0-5.2,3.9-7.6,9.5-7.6c2.4,0,4.1,0.4,5.8,1v-0.4c0-2.8-1.7-4.3-5.1-4.3
		c-2.6,0-4.4,0.5-6.5,1.3l-1.7-5.1c2.6-1.1,5.1-1.9,9.2-1.9c3.7,0,6.3,1,8,2.6c1.8,1.8,2.6,4.4,2.6,7.5v13.7h-6.5v-2.6
		c-1.6,1.8-3.9,3-7.1,3C2243.9-1373.4,2240.3-1376,2240.3-1380.6z M2255.6-1382.2v-1.2c-1.1-0.5-2.6-0.9-4.3-0.9
		c-2.9,0-4.6,1.1-4.6,3.3v0.1c0,1.8,1.5,2.9,3.7,2.9C2253.5-1378,2255.6-1379.8,2255.6-1382.2z"/>
	<path d="M2265-1397.4h7.1l5.3,15.8l5.3-15.8h7l-9.3,23.8h-6.1L2265-1397.4z"/>
	<path d="M2291.2-1385.5L2291.2-1385.5c0-6.8,4.8-12.4,11.7-12.4c7.9,0,11.5,6.1,11.5,12.8c0,0.5,0,1.1-0.1,1.8h-16.4
		c0.7,3,2.8,4.6,5.8,4.6c2.2,0,3.9-0.7,5.7-2.4l3.8,3.4c-2.2,2.7-5.4,4.4-9.6,4.4C2296.5-1373.3,2291.2-1378.3,2291.2-1385.5z
		 M2307.9-1387.5c-0.4-3-2.2-5-5-5s-4.6,2-5.1,5H2307.9z"/>
	<path d="M2333.7-1404.7h7.3l8.1,13l8.1-13h7.3v30.8h-6.7v-20.1l-8.7,13.2h-0.2l-8.6-13v20h-6.6L2333.7-1404.7L2333.7-1404.7z"/>
	<path d="M2371.2-1382.2v-15.3h6.7v13.2c0,3.2,1.5,4.8,4,4.8c2.6,0,4.2-1.6,4.2-4.8v-13.2h6.7v23.6h-6.7v-3.3
		c-1.5,2-3.5,3.8-6.9,3.8C2374.2-1373.4,2371.2-1376.8,2371.2-1382.2z"/>
	<path d="M2399.3-1406h6.7v32.1h-6.7V-1406z"/>
	<path d="M2413.6-1380.6v-11.2h-2.8v-5.7h2.8v-6h6.7v6h5.5v5.7h-5.5v10.1c0,1.5,0.7,2.3,2.2,2.3c1.2,0,2.3-0.3,3.3-0.8v5.4
		c-1.4,0.8-3,1.4-5.3,1.4C2416.4-1373.5,2413.6-1375.1,2413.6-1380.6z"/>
	<path d="M2431.1-1406h7v5.9h-7V-1406z M2431.3-1397.4h6.7v23.6h-6.7V-1397.4z"/>
	<path d="M2444.5-1397.4h6.7v3.4c1.6-2.2,3.9-3.8,7.3-3.8c5.5,0,10.7,4.3,10.7,12.2v0.1c0,7.9-5.1,12.2-10.7,12.2
		c-3.6,0-5.8-1.6-7.3-3.5v10.1h-6.7V-1397.4z M2462.6-1385.6L2462.6-1385.6c0-4-2.6-6.6-5.8-6.6c-3.1,0-5.7,2.6-5.7,6.5v0.1
		c0,3.9,2.6,6.5,5.7,6.5C2460-1379.1,2462.6-1381.7,2462.6-1385.6z"/>
	<path d="M2474.7-1406h6.7v32.1h-6.7V-1406z"/>
	<path d="M2486.8-1385.5L2486.8-1385.5c0-6.8,4.8-12.4,11.7-12.4c7.9,0,11.5,6.1,11.5,12.8c0,0.5,0,1.1-0.1,1.8h-16.4
		c0.7,3,2.8,4.6,5.8,4.6c2.2,0,3.9-0.7,5.7-2.4l3.8,3.4c-2.2,2.7-5.4,4.4-9.6,4.4C2492-1373.3,2486.8-1378.3,2486.8-1385.5z
		 M2503.4-1387.5c-0.4-3-2.2-5-5-5s-4.6,2-5.1,5H2503.4z"/>
	<path d="M2527.8-1389.2L2527.8-1389.2c0-8.8,6.6-16,16.1-16c5.8,0,9.3,1.9,12.1,4.8l-4.3,5c-2.4-2.2-4.8-3.5-7.9-3.5
		c-5.2,0-8.9,4.3-8.9,9.6v0.1c0,5.3,3.7,9.7,8.9,9.7c3.5,0,5.7-1.4,8.1-3.6l4.3,4.4c-3.2,3.4-6.7,5.5-12.6,5.5
		C2534.5-1373.3,2527.8-1380.3,2527.8-1389.2z"/>
	<path d="M2569-1398.4h-9.4v-6.2h25.5v6.2h-9.4v24.6h-6.8L2569-1398.4L2569-1398.4z"/>
	<path d="M2597.2-1404.9h6.2l13.2,31h-7.1l-2.8-6.9h-13l-2.8,6.9h-6.9L2597.2-1404.9z M2604.3-1386.8l-4.1-10l-4.1,10H2604.3z"/>
	<path d="M2619-1377l2.9-4.4c2.6,1.8,5.2,2.8,7.4,2.8c1.9,0,2.8-0.7,2.8-1.8v-0.1c0-1.5-2.3-1.9-4.9-2.7c-3.3-1-7-2.5-7-7.1v-0.1
		c0-4.8,3.9-7.5,8.6-7.5c3,0,6.2,1,8.8,2.7l-2.6,4.6c-2.3-1.4-4.7-2.2-6.4-2.2c-1.6,0-2.5,0.7-2.5,1.6v0.1c0,1.3,2.2,1.9,4.8,2.8
		c3.3,1.1,7.1,2.7,7.1,7v0.1c0,5.2-3.9,7.6-9,7.6C2625.9-1373.4,2622.2-1374.5,2619-1377z"/>
</g>
<g>
	<g>
		<g>
			<path class="st2" d="M2917.4,166H1646.6c-5.2,0-9.4-4.2-9.4-9.4v-1417.3c0-6.3,5.1-11.5,11.5-11.5h1266.4
				c6.3,0,11.5,5.1,11.5,11.5V156.7C2926.7,161.8,2922.5,166,2917.4,166z"/>
		</g>
		<g>
			<path class="st3" d="M2926.7-1207H1637.3v-55.8c0-5.2,4.2-9.4,9.4-9.4h1270.6c5.2,0,9.4,4.2,9.4,9.4V-1207L2926.7-1207z"/>
		</g>
	</g>
	<g>
		<g>
			<g>
				<ellipse class="st4" cx="1761.1" cy="-1239.6" rx="9" ry="9.3"/>
			</g>
			<g>
				<ellipse class="st4" cx="1724.5" cy="-1239.6" rx="9" ry="9.3"/>
			</g>
			<g>
				<ellipse class="st4" cx="1687.9" cy="-1239.6" rx="9" ry="9.3"/>
			</g>
		</g>
	</g>
</g>
<g>
	<g>
		<rect x="1986.4" y="-996.7" class="st5" width="591.4" height="15.2"/>
	</g>
	<g>
		<rect x="1851.6" y="-1035.6" class="st5" width="860.8" height="15.2"/>
	</g>
	<g>
		<rect x="1851.6" y="-1110.9" class="st5" width="860.8" height="26.4"/>
	</g>
</g>
<g>
	<g>
		<path class="st6" d="M2450.6-841.6h-337.1c-3.5,0-6.4-2.8-6.4-6.4v-61.5c0-3.5,2.8-6.4,6.4-6.4h337.2c3.5,0,6.4,2.8,6.4,6.4v61.5
			C2457-844.4,2454.2-841.6,2450.6-841.6z"/>
	</g>
	<g>
		<path class="st7" d="M2254.6-878.1L2254.6-878.1c0-5.6,4.2-10.2,10.2-10.2c3.7,0,5.9,1.2,7.7,3l-2.7,3.2c-1.5-1.4-3.1-2.2-5-2.2
			c-3.3,0-5.7,2.7-5.7,6.1v0.1c0,3.4,2.3,6.2,5.7,6.2c2.2,0,3.6-0.9,5.2-2.3l2.7,2.8c-2,2.2-4.3,3.5-8,3.5
			C2258.9-868,2254.6-872.5,2254.6-878.1z"/>
		<path class="st7" d="M2281.4-884h-6v-4h16.2v4h-6v15.6h-4.3L2281.4-884L2281.4-884z"/>
		<path class="st7" d="M2299.9-888.1h4l8.4,19.7h-4.5l-1.8-4.4h-8.3l-1.8,4.4h-4.4L2299.9-888.1z M2304.4-876.6l-2.6-6.4l-2.6,6.4
			H2304.4z"/>
	</g>
</g>
<line class="st8" x1="1637.3" y1="-760.1" x2="2926.7" y2="-760.1"/>
<line class="st8" x1="1637.3" y1="96.7" x2="2926.7" y2="96.7"/>
<line class="st8" x1="1637.3" y1="-332.5" x2="2926.7" y2="-332.5"/>
<g>
	<g>
		<g>
			<g>
				<path class="st9" d="M1992.6-415.7h-237.2c-3.5,0-6.4-2.8-6.4-6.4v-61.5c0-3.5,2.8-6.4,6.4-6.4h237.2c3.5,0,6.4,2.8,6.4,6.4
					v61.5C1999-418.5,1996.2-415.7,1992.6-415.7z"/>
			</g>
			<g>
				<path class="st7" d="M1846.6-451.2L1846.6-451.2c0-5.6,4.2-10.2,10.2-10.2c3.7,0,5.9,1.2,7.7,3l-2.7,3.2c-1.5-1.4-3.1-2.2-5-2.2
					c-3.3,0-5.7,2.7-5.7,6.1v0.1c0,3.4,2.3,6.2,5.7,6.2c2.2,0,3.6-0.9,5.2-2.3l2.7,2.8c-2,2.2-4.3,3.5-8,3.5
					C1850.9-441.1,1846.6-445.6,1846.6-451.2z"/>
				<path class="st7" d="M1873.4-457.1h-6v-4h16.2v4h-6v15.6h-4.3L1873.4-457.1L1873.4-457.1z"/>
				<path class="st7" d="M1891.9-461.2h4l8.4,19.7h-4.5l-1.8-4.4h-8.3l-1.8,4.4h-4.4L1891.9-461.2z M1896.4-449.7l-2.6-6.4l-2.6,6.4
					H1896.4z"/>
			</g>
		</g>
		<g>
			<g>
				<circle class="st5" cx="1874" cy="-630" r="45.1"/>
			</g>
			<g>
				<g>
					<rect x="1749" y="-547.1" class="st5" width="249.9" height="16.7"/>
				</g>
			</g>
		</g>
	</g>
	<g>
		<g>
			<g>
				<path class="st10" d="M2400.6-415.7h-237.1c-3.5,0-6.4-2.8-6.4-6.4v-61.5c0-3.5,2.8-6.4,6.4-6.4h237.2c3.5,0,6.4,2.8,6.4,6.4
					v61.5C2407-418.5,2404.2-415.7,2400.6-415.7z"/>
			</g>
			<g>
				<path class="st7" d="M2254.6-451.2L2254.6-451.2c0-5.6,4.2-10.2,10.2-10.2c3.7,0,5.9,1.2,7.7,3l-2.7,3.2c-1.5-1.4-3.1-2.2-5-2.2
					c-3.3,0-5.7,2.7-5.7,6.1v0.1c0,3.4,2.3,6.2,5.7,6.2c2.2,0,3.6-0.9,5.2-2.3l2.7,2.8c-2,2.2-4.3,3.5-8,3.5
					C2258.9-441.1,2254.6-445.6,2254.6-451.2z"/>
				<path class="st7" d="M2281.4-457.1h-6v-4h16.2v4h-6v15.6h-4.3L2281.4-457.1L2281.4-457.1z"/>
				<path class="st7" d="M2299.9-461.2h4l8.4,19.7h-4.5l-1.8-4.4h-8.3l-1.8,4.4h-4.4L2299.9-461.2z M2304.4-449.7l-2.6-6.4l-2.6,6.4
					H2304.4z"/>
			</g>
		</g>
		<g>
			<g>
				<circle class="st5" cx="2282" cy="-630" r="45.1"/>
			</g>
			<g>
				<g>
					<rect x="2157" y="-547.1" class="st5" width="249.9" height="16.7"/>
				</g>
			</g>
		</g>
	</g>
	<g>
		<g>
			<g>
				<path class="st11" d="M2808.6-415.7h-237.2c-3.5,0-6.4-2.8-6.4-6.4v-61.5c0-3.5,2.8-6.4,6.4-6.4h237.2c3.5,0,6.4,2.8,6.4,6.4
					v61.5C2815-418.5,2812.2-415.7,2808.6-415.7z"/>
			</g>
			<g>
				<path class="st7" d="M2662.6-451.2L2662.6-451.2c0-5.6,4.2-10.2,10.2-10.2c3.7,0,5.9,1.2,7.7,3l-2.7,3.2c-1.5-1.4-3.1-2.2-5-2.2
					c-3.3,0-5.7,2.7-5.7,6.1v0.1c0,3.4,2.3,6.2,5.7,6.2c2.2,0,3.6-0.9,5.2-2.3l2.7,2.8c-2,2.2-4.3,3.5-8,3.5
					C2666.9-441.1,2662.6-445.6,2662.6-451.2z"/>
				<path class="st7" d="M2689.4-457.1h-6v-4h16.2v4h-6v15.6h-4.3v-15.6H2689.4z"/>
				<path class="st7" d="M2707.9-461.2h4l8.4,19.7h-4.5l-1.8-4.4h-8.3l-1.8,4.4h-4.4L2707.9-461.2z M2712.4-449.7l-2.6-6.4l-2.6,6.4
					H2712.4z"/>
			</g>
		</g>
		<g>
			<g>
				<circle class="st5" cx="2690" cy="-630" r="45.1"/>
			</g>
			<g>
				<g>
					<rect x="2565" y="-547.1" class="st5" width="249.9" height="16.7"/>
				</g>
			</g>
		</g>
	</g>
</g>
<g>
	<g>
		<g>
			<path class="st12" d="M2092.5,16h-337.1c-3.5,0-6.4-2.8-6.4-6.4v-61.5c0-3.5,2.8-6.4,6.4-6.4h337.2c3.5,0,6.4,2.8,6.4,6.4V9.6
				C2098.9,13.2,2096.1,16,2092.5,16z"/>
		</g>
		<g>
			<path class="st7" d="M1896.6-20.5L1896.6-20.5c0-5.6,4.2-10.2,10.2-10.2c3.7,0,5.9,1.2,7.7,3l-2.7,3.2c-1.5-1.4-3.1-2.2-5-2.2
				c-3.3,0-5.7,2.7-5.7,6.1v0.1c0,3.4,2.3,6.2,5.7,6.2c2.2,0,3.6-0.9,5.2-2.3l2.7,2.8c-2,2.2-4.3,3.5-8,3.5
				C1900.9-10.4,1896.6-14.9,1896.6-20.5z"/>
			<path class="st7" d="M1923.4-26.4h-6v-4h16.2v4h-6v15.6h-4.3L1923.4-26.4L1923.4-26.4z"/>
			<path class="st7" d="M1941.9-30.5h4l8.4,19.7h-4.5l-1.8-4.4h-8.3l-1.8,4.4h-4.4L1941.9-30.5z M1946.4-18.9l-2.6-6.4l-2.6,6.4
				H1946.4z"/>
		</g>
	</g>
	<g>
		<g>
			<rect x="1749" y="-145.4" class="st5" width="351.6" height="16.7"/>
		</g>
		<g>
			<rect x="1749" y="-188.1" class="st5" width="511.9" height="16.7"/>
		</g>
		<g>
			<g>
				<rect x="1749" y="-230.8" class="st5" width="511.9" height="16.7"/>
			</g>
		</g>
	</g>
	<g>
		<g>
			<path class="st5" d="M2806.5,16h-391c-4.7,0-8.5-3.8-8.5-8.5v-250.8c0-4.7,3.8-8.5,8.5-8.5h391c4.7,0,8.5,3.8,8.5,8.5V7.4
				C2815,12.2,2811.2,16,2806.5,16z"/>
		</g>
		<g>
			<g>
				<path class="st13" d="M2729.7-29.1h-237.5v-177.8h237.5V-29.1z M2494.3-31.1h233.5v-173.8h-233.5V-31.1L2494.3-31.1z"/>
			</g>
			<g>
				<path class="st13" d="M2729.7-29.1h-237.5v-177.8h237.5V-29.1z M2494.3-31.1h233.5v-173.8h-233.5V-31.1L2494.3-31.1z"/>
			</g>
			<g>
				<polygon class="st13" points="2562.3,-29.4 2560.9,-30.8 2692.2,-162.2 2729.4,-124.9 2728,-123.5 2692.2,-159.3 				"/>
			</g>
			<g>
				<polygon class="st13" points="2494.3,-29.1 2492.9,-30.5 2588.7,-126.4 2623.3,-91.8 2621.9,-90.4 2588.7,-123.6 				"/>
			</g>
			<g>
				<path class="st13" d="M2543.2-136.9c-10.7,0-19.4-8.7-19.4-19.4s8.7-19.4,19.4-19.4c10.7,0,19.4,8.7,19.4,19.4
					S2553.9-136.9,2543.2-136.9z M2543.2-173.8c-9.6,0-17.4,7.8-17.4,17.4s7.8,17.4,17.4,17.4s17.4-7.8,17.4-17.4
					S2552.8-173.8,2543.2-173.8z"/>
			</g>
		</g>
	</g>
</g>
</svg>
