<svg xmlns="http://www.w3.org/2000/svg" xmlns:xlink="http://www.w3.org/1999/xlink" id="Layer_1" x="0px" y="0px" viewBox="0 0 787 698.5" style="enable-background:new 0 0 787 698.5;" width="807px" height="716px" xml:space="preserve">
<style type="text/css">
	.st0{fill:#64FFD9;}
	.st1{opacity:0.5;}
	.st2{fill:#FFFFFF;}
	.st3{fill:#2D78FF;}
	.st4{fill:#FFC5DB;}
	.st5{fill:#FF7FAA;}
	.st6{fill:#E1875B;}
	.st7{fill:#1A1243;}
	.st8{fill:#A5FFEA;}
	.st9{fill:#FCD771;}
	.st10{fill:#FFAA03;}
	.st11{opacity:0.1;}
	.st12{fill:#6BCEBB;}
	.st13{fill:#BC593F;}
	.st14{fill:#4585FD;}
	.st15{fill:#33419E;}
	.st16{opacity:0.7;}
	.st17{opacity:0.6;}
</style>
<g>
	<g>
		<path class="st0" d="M777.5,698.5H534c-5.3,0-9.6-4.3-9.6-9.6V483.2c0-5.3,4.3-9.6,9.6-9.6h243.4c5.3,0,9.6,4.3,9.6,9.6v205.7    C787,694.2,782.7,698.5,777.5,698.5z"></path>
	</g>
	<g>
		<g class="st1">
			<rect x="547.5" y="538.3" class="st2" width="115.5" height="10.6"></rect>
		</g>
		<g class="st1">
			<rect x="547.5" y="570.4" class="st2" width="115.5" height="5.8"></rect>
		</g>
		<g class="st1">
			<rect x="547.5" y="592.9" class="st2" width="115.5" height="5.8"></rect>
		</g>
		<g class="st1">
			<g>
				<path class="st2" d="M765,664.5h-84.5V537.3H765V664.5z M682.5,662.5H763V539.3h-80.5V662.5z"></path>
			</g>
			<g>
				
					<rect x="647.8" y="599.9" transform="matrix(0.5503 0.8349 -0.8349 0.5503 826.7011 -333.2838)" class="st2" width="149.9" height="2"></rect>
			</g>
			<g>
				
					<rect x="721.8" y="525.9" transform="matrix(0.835 0.5503 -0.5503 0.835 449.9372 -298.5775)" class="st2" width="2" height="149.9"></rect>
			</g>
		</g>
		<g class="st1">
			<g>
				<rect x="547.5" y="615.5" class="st2" width="115.5" height="5.8"></rect>
			</g>
		</g>
		<g>
			<path class="st2" d="M659.7,663.5H550.8c-1.8,0-3.3-1.5-3.3-3.3v-11c0-1.8,1.5-3.3,3.3-3.3h108.9c1.8,0,3.3,1.5,3.3,3.3v11     C663,662,661.5,663.5,659.7,663.5z"></path>
		</g>
		<g>
			<path class="st3" d="M659.7,663.5h-42.4v-17.6h42.4c1.8,0,3.3,1.5,3.3,3.3v11C663,662,661.5,663.5,659.7,663.5z"></path>
		</g>
	</g>
</g>
<g>
	<g>
		<path class="st4" d="M58,695.4c0,0-24.1,2.3-27.9-14.2c-1.4-7.1,17.5-15.7,17.5-15.7l61.8-65.5c0,0,8.6-5.5,13.4,2.2    s13.3,24.8,12.4,27.2C134.4,631.8,58,695.4,58,695.4z"></path>
	</g>
	<g>
		<g>
			<path class="st5" d="M42.8,663.7l66.5-63.8c0,0,8.6-5.5,13.4,2.2c1.1,1.8,2.4,4,3.7,6.5c-10.1,8-67.5,64.6-73.6,69.7     c-5.3,4.5-9.5,10.5-11.8,15.8c-5-2.5-9.9-6.5-11.1-13C29.1,675.7,42.8,663.7,42.8,663.7z"></path>
		</g>
	</g>
</g>
<g>
	<path class="st6" d="M235,67.8c0,0-6.8-4.6-8.6-10.9c-0.8-2.8-0.2-6.2,0.8-7.9c3.2-5.8,11.1-1.2,11.1-1.2L235,67.8z"></path>
</g>
<g>
	<path class="st6" d="M404.8,302.1c0,0,12.7-10,23.5-16.3c10.8-6.3,19.7-10.4,19.7-10.4l-13.8-9.9c0,0-42.6,2.1-49,6.7   c-6.4,4.5-11.4,8.1-11.4,8.1L404.8,302.1z"></path>
</g>
<g>
	<g>
		<path class="st7" d="M197.8,121.8c12.8-26.7-15.1-33.1-31.7-27c-32.5-5.9-52.1,8.7-54.8,32.5c-1,8.9-1.7,20.2-15.4,28.4    c-19.9,11.9-26.7,12-25.8,33.1c1.2,26.7-12.7,25.3-20.8,36.9c-8.9,12.7,11,19.9-13.2,46.1c-2.1,2.2-1.5,5.9,0.8,9.8    c0.1,0.1,0.1,0.2,0.2,0.3c0,0.1,0.1,0.1,0.1,0.2c0.1,0.2,0.2,0.3,0.3,0.5c20.1,31.7,80.1,23.7,80.1,23.7S195.5,126.4,197.8,121.8z    "></path>
	</g>
</g>
<g>
	<g>
		<path class="st8" d="M475,321.4c2,0,3.6,1.6,3.6,3.6v266.3c0,2-1.6,3.6-3.6,3.6H241.8c-2,0-3.6-1.6-3.6-3.6V325    c0-2,1.6-3.6,3.6-3.6H475 M475,315.4H241.8c-5.3,0-9.6,4.3-9.6,9.6v266.3c0,5.3,4.3,9.6,9.6,9.6H475c5.3,0,9.6-4.3,9.6-9.6V325    C484.6,319.7,480.3,315.4,475,315.4L475,315.4z"></path>
	</g>
</g>
<g>
	<path class="st9" d="M285.5,251.2c0,0-31.4,4.8-30.8,13.5s6.8,25.1-2.4,46.9c-9.2,21.8-21.6,48.8-21.6,48.8l-107.8-8.5   c0,0-26.1-102.5-9.9-130.5s45.6-20,45.6-20h81.1l48.7,49.3L285.5,251.2z"></path>
</g>
<g>
	<path class="st10" d="M185.6,232.8c-8.7,0-17.1-2.4-23.8-6.8c-0.5-0.3-0.6-0.9-0.3-1.4c0.3-0.5,0.9-0.6,1.4-0.3   c6.4,4.2,14.4,6.5,22.7,6.5c19.5,0,35.4-12.5,35.4-27.9c0-0.6,0.4-1,1-1s1,0.4,1,1C223,219.4,206.3,232.8,185.6,232.8z"></path>
</g>
<g>
	<path class="st8" d="M777.5,433.6H534c-5.3,0-9.6-4.3-9.6-9.6V9.6c0-5.3,4.3-9.6,9.6-9.6h243.4c5.3,0,9.6,4.3,9.6,9.6V424   C787,429.3,782.7,433.6,777.5,433.6z"></path>
</g>
<g>
	<g class="st11">
		<g>
			<path d="M250,280.3l243.2,10c5.3,0.2,9.7-3.9,10-9.2l10.3-250.7c0.2-5.3-3.9-9.7-9.2-10l-243.2-10c-5.3-0.2-9.7,3.9-10,9.2     l-10.3,250.7C240.6,275.6,244.8,280.1,250,280.3z"></path>
		</g>
	</g>
	<g>
		<path class="st2" d="M236,270.3l243.2,10c5.3,0.2,9.7-3.9,10-9.2l10.3-250.7c0.2-5.3-3.9-9.7-9.2-10l-243.2-10    c-5.3-0.2-9.7,3.9-10,9.2l-10.3,250.7C226.6,265.6,230.8,270.1,236,270.3z"></path>
	</g>
	<g>
		<g>
			<path class="st8" d="M369.7,202.4L369.7,202.4l93.1,3.8c0.7,0,1.3,0.6,1.3,1.4l-0.5,11c0,0.7-0.6,1.3-1.3,1.3l-0.1,0l-93-3.8     c-0.7,0-1.3-0.6-1.3-1.4l0.5-11C368.4,203,369,202.4,369.7,202.4 M369.7,200.4c-1.8,0-3.2,1.4-3.3,3.2l-0.5,11     c-0.1,1.8,1.3,3.4,3.2,3.4l93,3.8c0,0,0.1,0,0.1,0c1.8,0,3.2-1.4,3.3-3.2l0.5-11c0.1-1.8-1.3-3.4-3.2-3.4l-93-3.8     C369.8,200.4,369.8,200.4,369.7,200.4L369.7,200.4z"></path>
		</g>
		<g>
			<path class="st8" d="M258.5,197.9L258.5,197.9l93.1,3.8c0.4,0,0.7,0.2,0.9,0.4s0.4,0.6,0.3,0.9l-0.5,11c0,0.7-0.6,1.3-1.3,1.3     l-0.1,0l-93-3.8c-0.7,0-1.3-0.6-1.3-1.4l0.5-11C257.2,198.4,257.8,197.9,258.5,197.9 M258.5,195.9c-1.8,0-3.2,1.4-3.3,3.2     l-0.5,11c-0.1,1.8,1.3,3.4,3.2,3.4l93,3.8c0,0,0.1,0,0.1,0c1.8,0,3.2-1.4,3.3-3.2l0.5-11c0.1-1.8-1.3-3.4-3.2-3.4l-93-3.8     C258.6,195.9,258.5,195.9,258.5,195.9L258.5,195.9z"></path>
		</g>
	</g>
	<g>
		<path class="st9" d="M323.6,245.3l70.3,2.9c1.8,0.1,3.4-1.3,3.4-3.2l0.5-11c0.1-1.8-1.3-3.4-3.2-3.4l-70.3-2.9    c-1.8-0.1-3.4,1.3-3.4,3.2l-0.5,11C320.4,243.7,321.8,245.2,323.6,245.3z"></path>
	</g>
	<g>
		<g>
			
				<rect x="368.4" y="36.8" transform="matrix(-0.9992 -4.117751e-002 4.117751e-002 -0.9992 841.8995 101.5221)" class="st0" width="107.1" height="10.6"></rect>
		</g>
		<g>
			
				<rect x="367.2" y="68.8" transform="matrix(-0.9992 -4.117751e-002 4.117751e-002 -0.9992 838.2368 160.7305)" class="st8" width="107.1" height="5.8"></rect>
		</g>
		<g>
			
				<rect x="366.3" y="91.4" transform="matrix(-0.9992 -4.117751e-002 4.117751e-002 -0.9992 835.4482 205.8077)" class="st8" width="107.1" height="5.8"></rect>
		</g>
		<g>
			<g>
				<path class="st8" d="M261.3,32.2l87,3.6l-2.4,58l-87-3.6L261.3,32.2 M259.4,30.1l-2.6,62l91,3.8l2.6-62L259.4,30.1L259.4,30.1z"></path>
			</g>
			<g>
				
					<rect x="302.6" y="10.5" transform="matrix(0.5283 0.8491 -0.8491 0.5283 196.6666 -228.0969)" class="st8" width="2" height="105"></rect>
			</g>
			<g>
				
					<rect x="251.1" y="61.9" transform="matrix(0.8027 0.5964 -0.5964 0.8027 97.4522 -168.6585)" class="st8" width="105" height="2"></rect>
			</g>
		</g>
	</g>
	<g>
		<g>
			<g>
				<g>
					
						<rect x="416.8" y="165.1" transform="matrix(-0.9992 -4.117751e-002 4.117751e-002 -0.9992 879.929 354.1961)" class="st8" width="53.6" height="5.8"></rect>
				</g>
			</g>
			<g>
				<circle class="st12" cx="444.6" cy="143.7" r="9.6"></circle>
			</g>
		</g>
		<g>
			<g>
				<g>
					
						<rect x="335.4" y="161.8" transform="matrix(-0.9992 -4.117751e-002 4.117751e-002 -0.9992 717.3074 344.136)" class="st8" width="53.6" height="5.8"></rect>
				</g>
			</g>
			<g>
				<circle class="st12" cx="363.2" cy="140.4" r="9.6"></circle>
			</g>
		</g>
		<g>
			<g>
				<g>
					
						<rect x="254" y="158.4" transform="matrix(-0.9992 -4.117751e-002 4.117751e-002 -0.9992 554.6857 334.0758)" class="st8" width="53.6" height="5.8"></rect>
				</g>
			</g>
			<g>
				<circle class="st12" cx="281.8" cy="137" r="9.6"></circle>
			</g>
		</g>
	</g>
</g>
<g>
	<g>
		<path class="st3" d="M246.6,618.6c20.1-31.3-75.1-125-91.5-160.7c-18.9-41.2-2.6-94.6-2.6-94.6l1.7,0.1l-0.1-0.9h79.5    c0,0,92.3,130.1,124,230.1c26.2,82.8-29.5,105.9-68.8,105.9c-4.9,0-14.9,0-28.2,0C190.7,698.5,239.9,629,246.6,618.6z"></path>
	</g>
	<g class="st11">
		<path d="M246.6,618.6c20.1-31.3-75.1-125-91.5-160.7c-18.9-41.2-2.6-94.6-2.6-94.6l1.7,0.1l-0.1-0.9h79.5    c0,0,92.3,130.1,124,230.1c26.2,82.8-29.5,105.9-68.8,105.9c-5,0-15.2,0-28.7,0C189.9,698.5,239.9,629,246.6,618.6z"></path>
	</g>
</g>
<g>
	<g>
		<g>
			<path class="st6" d="M196.9,201.4l-5.4-28.6l-38.3-14.2l-1.1,42.8c0,13.5,13.8,24.4,30.8,24.4s30.8-10.9,30.8-24.4H196.9z"></path>
		</g>
		<g class="st11">
			<path d="M190.5,168.8l2.9,14.5c-37.8-3.6-29.5-32.4-29.5-32.4L190.5,168.8z"></path>
		</g>
		<g>
			<path class="st6" d="M168.4,110.8c0,0,12.5-3,19.9,0.1c11.3,4.8,10.2,19.5,15.3,24.5c2.6,2.6,6,3.5,7.3,4.1     c3.4,1.7,1.5,5.8-1.8,8.4c0,0,7.4,17.4,2.9,23.6c-7.1,9.9-35.1,6.4-42.3,4c-7.2-2.4-17.1-19.1-15.4-37.2     C155.1,129.1,152.6,119,168.4,110.8z"></path>
		</g>
		<g>
			<g>
				
					<ellipse transform="matrix(0.8937 -0.4486 0.4486 0.8937 -40.3126 101.4043)" class="st7" cx="193.9" cy="135.8" rx="1.5" ry="2"></ellipse>
			</g>
			<g>
				<path class="st7" d="M187.1,132.1c-0.3,0-0.5-0.1-0.7-0.3c-0.4-0.4-0.3-1,0.1-1.4c0.1-0.1,3.1-2.8,5.6-4c0.5-0.2,1.1,0,1.3,0.5      s0,1.1-0.5,1.3c-2.2,1.1-5.1,3.7-5.1,3.7C187.6,132.1,187.3,132.1,187.1,132.1z"></path>
			</g>
		</g>
		<g>
			<path class="st7" d="M196.8,112.9c0,0-14.1-5.2-16.3-3.4c-0.5,0.4-0.1,2.1-0.1,3.2c0.3,12.2-4.1,30.5-18.4,35.8     c-3.5,1.3-10.2,2.7-5.5,11c23.6,41.2,11.5,51.9-25.3,50.7c-17.3-0.6-20.9,17.5-23.6,25.2c-2.4,7.1,23.5-128.2,55.2-140.3     C190.4,84.5,196.8,112.9,196.8,112.9z"></path>
		</g>
		<g>
			
				<ellipse transform="matrix(-0.6902 0.7236 -0.7236 -0.6902 375.4322 142.2958)" class="st6" cx="157.3" cy="151.5" rx="11" ry="12.4"></ellipse>
		</g>
		<g>
			<path class="st13" d="M154.5,151.9c-0.5,0-0.9-0.3-1-0.8c-0.3-1.4,0.8-4,2.7-5.1c1-0.6,3.2-1.2,5.8,1.3c0.4,0.4,0.4,1,0,1.4     c-0.4,0.4-1,0.4-1.4,0c-1.3-1.2-2.5-1.6-3.5-1c-1.3,0.7-1.8,2.5-1.7,2.9c0.1,0.5-0.2,1.1-0.8,1.2     C154.7,151.9,154.6,151.9,154.5,151.9z"></path>
		</g>
		<g>
			<path class="st7" d="M202,156.2c-3.7,0-5.8-2.1-5.9-2.2c-0.4-0.4-0.4-1,0-1.4c0.4-0.4,1-0.4,1.4,0c0.1,0.1,2.7,2.5,7,1.2     c0.5-0.2,1.1,0.1,1.2,0.7c0.2,0.5-0.1,1.1-0.7,1.2C204,156.1,202.9,156.2,202,156.2z"></path>
		</g>
	</g>
</g>
<g>
	<g>
		<path class="st14" d="M82.2,609.2c0,0-0.1,0-0.1,0C82.1,609.2,82.1,609.2,82.2,609.2z"></path>
	</g>
	<g>
		<path class="st2" d="M138.8,624.2c-2.5,1-2.6,2.2-8.2,4.3c0,0,0,0,0,0c-0.7,0.2-1.3,0.5-2,0.7c-8.5,3-16.9,1-22.8-0.5    c-7.9-2-12.8-6-17.1-9c-7-4.9-77.8,63.2-77.8,63.2s21.6,15.6,29.1,15.6c20.8,0,60.7,0,101.2,0v-72.9v-0.6V624    C141.1,624,141.3,623.2,138.8,624.2z"></path>
	</g>
</g>
<g>
	<g>
		<path class="st6" d="M141,698.5v-73.6c14.6-4.7,27-7.3,36.8-8.8l6.9,82.3C167.9,698.5,159.3,698.5,141,698.5z"></path>
	</g>
	<g>
		<path class="st3" d="M122.5,351.9c3.1,0,111.5,0,111.5,0s72.2,143.3,99.6,238c24.1,83.4-35.5,108.6-74.8,108.6    c-9.5,0-44.2,0-74.2,0l-7.2-82.6c32.6-4.9,41.5,3.3,48.5-11.9c12-26.1-84.4-110.4-100.8-146.1    C106.1,416.7,115.1,400.9,122.5,351.9z"></path>
	</g>
</g>
<g>
	<path class="st15" d="M197.5,364.4h-72.4c-0.6,0-1-0.4-1-1s0.4-1,1-1h72.4c0.6,0,1,0.4,1,1S198,364.4,197.5,364.4z"></path>
</g>
<g>
	<path class="st15" d="M222.1,661h-37.6c-0.6,0-1-0.4-1-1s0.4-1,1-1h37.6c18.3,0,50.7-2.8,62.5-21.9c7.3-11.8,5.8-28.2-4.4-48.8   c-44.1-89.1-66.8-124.7-78.9-143.8c-1.5-2.4-2.9-4.6-4.2-6.6c-7.3-11.6-29.5-55.9-35.8-104.8c-0.1-0.5,0.3-1,0.9-1.1   c0.5-0.1,1,0.3,1.1,0.9c6.3,48.5,28.3,92.4,35.5,104c1.3,2,2.7,4.2,4.2,6.6c12.2,19.1,34.9,54.7,79,144c10.5,21.3,12,38.3,4.3,50.7   C274.6,657,245,661,222.1,661z"></path>
</g>
<g>
	<path class="st15" d="M192.6,428.7c-0.4,0-0.8-0.2-0.9-0.6c-0.2-0.5,0.1-1.1,0.6-1.3c0.9-0.4,23-9.1,17.8-34.6   c-0.1-0.5,0.2-1.1,0.8-1.2c0.5-0.1,1.1,0.2,1.2,0.8c5.6,27.1-18.8,36.8-19,36.9C192.8,428.7,192.7,428.7,192.6,428.7z"></path>
</g>
<g class="st11">
	<g>
		<path d="M110.6,247.3c5-43.4,133.7,129.5,133.7,129.5l22.3,36.2C127.6,445.2,110.6,247.3,110.6,247.3z"></path>
	</g>
</g>
<g>
	<g>
		<path class="st4" d="M83.7,698.5c-13.4,0-55.7,0-55.7,0s-24.1-0.7-27.9-17.2c-1.4-7.1,17.5-15.7,17.5-15.7L79.4,600    c0,0,8.2-3.6,13,4.2c1.1,1.8,2.9,2.1,4.2,4.6c4.5,8.3,9.3,18.9,8.7,20.7c-0.9,2.4-26.7,40.3-26.7,40.3    C86.1,673.7,99,698.5,83.7,698.5z"></path>
	</g>
	<g>
		<g>
			<path class="st5" d="M12.8,663.8L79.4,600c0,0,8.6-5.5,13.4,2.2c1.1,1.8,2.4,4,3.7,6.5c-10.1,8-67.5,64.6-73.6,69.7     c-5.3,4.5-9.5,10.5-11.8,15.8c-5-2.5-9.9-6.5-11.1-13C-0.9,675.8,12.8,663.8,12.8,663.8z"></path>
		</g>
	</g>
	<g>
		<path class="st5" d="M41.4,698.3c-0.2,0-0.3,0-0.5-0.1c-0.5-0.3-0.6-0.9-0.4-1.4c0.9-1.5,1.5-3,2.2-4.6c0.5-1.2,1-2.4,1.7-3.8    c1.6-3.3,4.4-5,7.9-4.9c2.7,0.1,8.9,0.1,11-0.4c4.9-1,8.3-4.2,14.4-14c0.3-0.5,0.9-0.6,1.4-0.3c0.5,0.3,0.6,0.9,0.3,1.4    c-6.5,10.3-10.2,13.8-15.7,14.9c-2.4,0.5-9.3,0.5-11.4,0.4c-2.7-0.1-4.7,1.2-6,3.8c-0.7,1.3-1.2,2.5-1.7,3.7    c-0.7,1.6-1.3,3.1-2.3,4.8C42.1,698.2,41.8,698.3,41.4,698.3z"></path>
	</g>
	<g>
		<path class="st5" d="M30.6,698.3c-0.2,0-0.5-0.1-0.7-0.2c-0.4-0.4-0.5-1-0.1-1.4c16.1-18.7,7.6-31.9,7.5-32.1    c-0.3-0.5-0.2-1.1,0.3-1.4c0.5-0.3,1.1-0.2,1.4,0.3c0.4,0.6,9.4,14.7-7.7,34.5C31.2,698.2,30.9,698.3,30.6,698.3z"></path>
	</g>
	<g>
		<path class="st4" d="M105.2,629.5c0,0-4.2,27.5-41.8,11.4L105.2,629.5z"></path>
	</g>
	<g>
		<path class="st5" d="M85,646.8c-7.3,0-16.2-2.4-26.6-7.2c-0.5-0.2-0.7-0.8-0.5-1.3c0.2-0.5,0.8-0.7,1.3-0.5    c16.4,7.6,28.7,9.1,36.6,4.4c7.3-4.3,8-12.6,8-12.7c0-0.6,0.5-1,1.1-0.9c0.6,0,1,0.5,0.9,1.1c0,0.4-0.8,9.5-9,14.3    C93.5,645.8,89.6,646.8,85,646.8z"></path>
	</g>
	<g>
		<path class="st5" d="M50.5,698.3c-0.2,0-0.3,0-0.4-0.1c-0.5-0.2-0.7-0.8-0.4-1.3c2.7-5.4,5.7-12.2,5.7-12.2    c0.2-0.5,0.8-0.7,1.3-0.5c0.5,0.2,0.7,0.8,0.5,1.3c0,0.1-3,6.9-5.8,12.3C51.2,698.1,50.9,698.3,50.5,698.3z"></path>
	</g>
</g>
<g>
	<path class="st6" d="M255.8,390.6c83-16.5,146.3-85.3,176.9-116.5l-53.9,2.7c0,0-59.9,44.2-108.2,58.9   C253.1,340.9,255.8,390.6,255.8,390.6z"></path>
</g>
<g>
	<g class="st11">
		<g>
			<path d="M378.8,276.8l53.9-2.7c-3.8,3.9-8.2,8.5-13.1,13.4l-17.8-7.1l-35.1,4.9C374.3,280.1,378.8,276.8,378.8,276.8z"></path>
		</g>
	</g>
</g>
<g>
	<g>
		<path class="st9" d="M110.6,237.3c0-8.4,1.8-13.6,3.4-16c13.5-21.5,45.3-6.4,49.2,12.8c2.4,11.9,21.2,79.8,63.2,101.7    c13.3,6.9,33.5,3.5,54.9-4.5l30.3,46.3c-15.8,7.4-34.6,13.4-52.3,16.9C116.5,413.6,110.6,237.3,110.6,237.3z"></path>
	</g>
</g>
<g>
	<g>
		<path class="st10" d="M159.1,364.4c-0.2,0-0.5-0.1-0.7-0.3c-46.9-44.8-48.8-126-48.8-126.8c0-9.9,2.5-14.9,3.5-16.6    c4.9-7.8,12.1-11.6,20.2-10.7c12.6,1.5,25.3,13.9,30.9,30.4c0.4,1.1,0.9,2.7,1.5,4.7c5.8,18.8,21,68.7,58.5,88.3    c4.2,2.2,11.3,4.6,16.1,4.9c0.6,0,1,0.5,0.9,1.1c0,0.6-0.5,1-1.1,0.9c-5.2-0.4-12.6-2.9-16.9-5.2c-38.2-19.9-53.7-70.5-59.5-89.5    c-0.6-2-1.1-3.5-1.5-4.7c-5.4-15.7-17.4-27.6-29.2-29c-7.4-0.9-13.7,2.5-18.3,9.8c-0.8,1.2-3.2,5.8-3.2,15.5    c0,0.8,1.9,81.2,48.2,125.4c0.4,0.4,0.4,1,0,1.4C159.6,364.3,159.3,364.4,159.1,364.4z"></path>
	</g>
</g>
<g>
	<path class="st6" d="M409.5,295.8c5.7-5.6,13-14.6,16-16.3c1.8-1,21.7-11,20.7-15.4c-1.5-6.5-13.3-4.3-22.7,1.3   c-3.4,2.1-33.6,8.7-42,20.4l-2.3,10.9L409.5,295.8z"></path>
</g>
<g>
	<path class="st13" d="M409.5,296.8c-0.3,0-0.5-0.1-0.7-0.3c-0.4-0.4-0.4-1,0-1.4c5.5-5.4,9.3-9,16.1-14.6c0.4-0.4,1.1-0.3,1.4,0.1   c0.4,0.4,0.3,1.1-0.1,1.4c-6.7,5.6-10.5,9.1-16,14.5C410,296.8,409.8,296.8,409.5,296.8z"></path>
</g>
<g>
	<path class="st13" d="M380.9,287c-0.2,0-0.4,0-0.5-0.1c-0.5-0.3-0.6-0.9-0.3-1.4c5.3-8.8,20.5-14.5,33.3-16.3   c0.5-0.1,1.1,0.3,1.1,0.9c0.1,0.5-0.3,1.1-0.9,1.1c-14.8,2.1-27.6,8.3-31.9,15.4C381.6,286.8,381.3,287,380.9,287z"></path>
</g>
<g class="st16">
	<g>
		<path class="st4" d="M19.9,685.1c-0.2,0-0.5-0.1-0.7-0.3L5.8,672.2c-0.4-0.4-0.4-1,0-1.4c0.4-0.4,1-0.4,1.4,0l13.4,12.7    c0.4,0.4,0.4,1,0,1.4C20.4,685,20.2,685.1,19.9,685.1z"></path>
	</g>
	<g>
		<path class="st4" d="M31.2,674.5c-0.2,0-0.5-0.1-0.7-0.3l-13.4-12.7c-0.4-0.4-0.4-1,0-1.4c0.4-0.4,1-0.4,1.4,0l13.4,12.7    c0.4,0.4,0.4,1,0,1.4C31.8,674.4,31.5,674.5,31.2,674.5z"></path>
	</g>
	<g>
		<path class="st4" d="M42.1,663.8c-0.2,0-0.5-0.1-0.7-0.3L28,650.9c-0.4-0.4-0.4-1,0-1.4c0.4-0.4,1-0.4,1.4,0l13.4,12.7    c0.4,0.4,0.4,1,0,1.4C42.6,663.7,42.3,663.8,42.1,663.8z"></path>
	</g>
	<g>
		<path class="st4" d="M53.9,652.5c-0.2,0-0.5-0.1-0.7-0.3l-13.4-12.7c-0.4-0.4-0.4-1,0-1.4c0.4-0.4,1-0.4,1.4,0l13.4,12.7    c0.4,0.4,0.4,1,0,1.4C54.4,652.4,54.2,652.5,53.9,652.5z"></path>
	</g>
	<g>
		<path class="st4" d="M66.6,640.8c-0.2,0-0.5-0.1-0.7-0.3l-13.4-12.7c-0.4-0.4-0.4-1,0-1.4c0.4-0.4,1-0.4,1.4,0l13.4,12.7    c0.4,0.4,0.4,1,0,1.4C67.1,640.7,66.9,640.8,66.6,640.8z"></path>
	</g>
	<g>
		<path class="st4" d="M77.7,629.8c-0.2,0-0.5-0.1-0.7-0.3l-13.4-12.7c-0.4-0.4-0.4-1,0-1.4s1-0.4,1.4,0l13.4,12.7    c0.4,0.4,0.4,1,0,1.4C78.2,629.7,78,629.8,77.7,629.8z"></path>
	</g>
	<g>
		<path class="st4" d="M89.4,620c-0.2,0-0.5-0.1-0.7-0.3L75.3,607c-0.4-0.4-0.4-1,0-1.4c0.4-0.4,1-0.4,1.4,0l13.4,12.7    c0.4,0.4,0.4,1,0,1.4C89.9,619.9,89.7,620,89.4,620z"></path>
	</g>
</g>
<g>
	<path class="st5" d="M59.9,698.3c-0.1,0-0.3,0-0.4-0.1c-0.5-0.2-0.7-0.8-0.5-1.3l6.1-13.5c0.2-0.5,0.8-0.7,1.3-0.5   c0.5,0.2,0.7,0.8,0.5,1.3l-6.1,13.5C60.7,698,60.3,698.3,59.9,698.3z"></path>
</g>
<g>
	<g>
		<path class="st6" d="M233.4,57.9c0,0-8.3-2.2-6.1-9c-1.5-2.5-2.8-3.8-0.4-8.6c1.4-2.7-3.6-4.5-1.2-10.1c3-5.2-2.2-11.5,8-12.3    c9.6-0.8,23.6-1.7,28,3.2c2,2.2-0.3,4.6-4.1,5.7c-1.3,0.4-16.1,2.1-17.7,2c-4.5-0.2,25.7,0.4,25.6,7.2c0,4.1-7,4-11.7,4.5    c-8.5,1,8.3-0.3,9.2,5.7c0.9,6-12.9,4.1-13.2,4.3c-0.4,0.2,6.5,0.7,7,4.7c0.2,1.5-0.9,2.6-2.1,3.2C252.3,59.7,247,59,233.4,57.9z"></path>
	</g>
	<g>
		<path class="st13" d="M244.2,30.2C244.2,30.2,244.2,30.2,244.2,30.2l-17-1.1c-0.6,0-1-0.5-0.9-1.1c0-0.6,0.5-1,1.1-0.9l17,1.1    c0.6,0,1,0.5,0.9,1.1C245.2,29.8,244.7,30.2,244.2,30.2z"></path>
	</g>
	<g>
		<path class="st13" d="M252.8,41.8C252.8,41.8,252.8,41.8,252.8,41.8l-25-2.1c-0.6,0-1-0.5-0.9-1.1c0-0.5,0.5-1,1.1-0.9l24.9,2.1    c0.6,0,1,0.5,0.9,1.1C253.8,41.4,253.3,41.8,252.8,41.8z"></path>
	</g>
	<g>
		<path class="st13" d="M249.2,51.7c0,0-0.1,0-0.1,0l-19-2.6c-0.5-0.1-0.9-0.6-0.9-1.1c0.1-0.5,0.6-0.9,1.1-0.9l19,2.6    c0.5,0.1,0.9,0.6,0.9,1.1C250.1,51.3,249.7,51.7,249.2,51.7z"></path>
	</g>
</g>
<g>
	<polygon class="st9" points="294,323.4 322.3,373.2 300.7,384.4 275.7,330.7  "></polygon>
</g>
<g>
	<path class="st10" d="M296,377.3c-0.4,0-0.7-0.2-0.9-0.6l-19.7-43.3c-0.2-0.5,0-1.1,0.5-1.3c0.5-0.2,1.1,0,1.3,0.5l19.7,43.3   c0.2,0.5,0,1.1-0.5,1.3C296.3,377.3,296.1,377.3,296,377.3z"></path>
</g>
<g>
	<path class="st15" d="M199.6,698.2c-0.5,0-0.9-0.4-1-0.9l-7-78.2c0-0.6,0.4-1,0.9-1.1c0.6-0.1,1,0.4,1.1,0.9l7,78.2   C200.6,697.6,200.2,698.1,199.6,698.2C199.7,698.2,199.6,698.2,199.6,698.2z"></path>
</g>
<g>
	<path class="st3" d="M132.6,698.5c-0.6,0-1-0.4-1-1v-67.7c0-0.6,0.4-1,1-1s1,0.4,1,1v67.7C133.6,698,133.1,698.5,132.6,698.5z"></path>
</g>
<g>
	<path class="st3" d="M122.2,698.5c-0.6,0-1-0.4-1-1v-64.8c0-0.6,0.4-1,1-1s1,0.4,1,1v64.8C123.2,698,122.8,698.5,122.2,698.5z"></path>
</g>
<g>
	<path class="st15" d="M137.9,395.5c-0.5,0-1-0.4-1-0.9c-1.4-19.5,0-31.2,0-31.3c0.1-0.5,0.6-0.9,1.1-0.9c0.5,0.1,0.9,0.6,0.9,1.1   c0,0.1-1.4,11.7,0,30.9C139,395,138.6,395.4,137.9,395.5C138,395.5,138,395.5,137.9,395.5z"></path>
</g>
<g class="st1">
	<rect x="524.5" y="500" class="st2" width="262.6" height="2"></rect>
</g>
<g class="st17">
	<rect x="562.8" y="352.1" class="st2" width="186" height="5.8"></rect>
</g>
<g class="st17">
	<g>
		<rect x="562.8" y="41.7" class="st2" width="186" height="10.6"></rect>
	</g>
	<g>
		<rect x="562.8" y="76.8" class="st2" width="186" height="5.8"></rect>
	</g>
	<g>
		<rect x="582" y="99.4" class="st2" width="147.5" height="5.8"></rect>
	</g>
</g>
<g class="st17">
	<g>
		<g>
			<path class="st2" d="M759.5,206h-95v-64.6h95V206z M666.5,204h91v-60.6h-91V204z"></path>
		</g>
		<g>
			
				<rect x="656" y="172.7" transform="matrix(0.8297 0.5582 -0.5582 0.8297 218.2501 -367.8824)" class="st2" width="112.1" height="2"></rect>
		</g>
		<g>
			
				<rect x="711" y="117.7" transform="matrix(0.5585 0.8295 -0.8295 0.5585 458.4393 -513.908)" class="st2" width="2" height="112.1"></rect>
		</g>
	</g>
	<g>
		<g>
			<path class="st2" d="M647,206h-95v-64.6h95V206z M554,204h91v-60.6h-91V204z"></path>
		</g>
		<g>
			
				<rect x="543.4" y="172.7" transform="matrix(0.8297 0.5582 -0.5582 0.8297 199.0891 -305.0747)" class="st2" width="112.1" height="2"></rect>
		</g>
		<g>
			
				<rect x="598.5" y="117.7" transform="matrix(0.5585 0.8295 -0.8295 0.5585 408.7671 -420.5788)" class="st2" width="2" height="112.1"></rect>
		</g>
	</g>
</g>
<g>
	<g>
		<rect x="593" y="266.4" class="st12" width="125.5" height="5.8"></rect>
	</g>
	<g>
		<rect x="606" y="289" class="st12" width="99.5" height="5.8"></rect>
	</g>
	<g>
		<g>
			<g>
				<path class="st12" d="M552.2,258.8c0-4.9,3.2-10.6,6.9-13.6l5,3c-2,3.1-3.4,6.4-3.4,10.6v5.8h-8.5V258.8z M565.7,258.8      c0-4.9,3.2-10.6,6.9-13.6l5,3c-2,3.1-3.4,6.4-3.4,10.6v5.8h-8.5V258.8z"></path>
			</g>
		</g>
		<g>
			<g>
				<path class="st12" d="M759.3,304c0,4.9-3.2,10.6-6.9,13.6l-5-3c2-3.1,3.4-6.4,3.4-10.6v-5.8h8.5V304z M745.8,304      c0,4.9-3.2,10.6-6.9,13.6l-5-3c2-3.1,3.4-6.4,3.4-10.6v-5.8h8.5V304z"></path>
			</g>
		</g>
	</g>
</g>
<g>
	<path class="st2" d="M683.6,393.7H555.5c-1.8,0-3.3-1.5-3.3-3.3v-11c0-1.8,1.5-3.3,3.3-3.3h128.1c1.8,0,3.3,1.5,3.3,3.3v11   C687,392.2,685.5,393.7,683.6,393.7z"></path>
</g>
<g>
	<path class="st5" d="M755.2,393.7h-58.3c-1.8,0-3.3-1.5-3.3-3.3v-11c0-1.8,1.5-3.3,3.3-3.3h58.3c1.8,0,3.3,1.5,3.3,3.3v11   C758.5,392.2,757,393.7,755.2,393.7z"></path>
</g>
</svg>