<svg xmlns="http://www.w3.org/2000/svg" xmlns:xlink="http://www.w3.org/1999/xlink" id="Layer_1" x="0px" y="0px" viewBox="0 0 787.3 699.1" style="enable-background:new 0 0 787.3 699.1;" width="808px" height="717px" xml:space="preserve">
<style type="text/css">
	.st0{fill:#6200E9;}
	.st1{opacity:0.15;}
	.st2{fill:#FFFFFF;}
	.st3{opacity:0.1;}
	.st4{fill:#B9F6CA;}
	.st5{opacity:0.3;}
	.st6{fill:#00B7D3;}
	.st7{fill:#90DBE3;}
	.st8{opacity:0.69;}
	.st9{fill:#D0C3E8;}
	.st10{opacity:0.23;}
	.st11{fill:#A27AF9;}
	.st12{fill:#F4B7A2;}
	.st13{fill:#1A1243;}
	.st14{fill:#231F20;}
	.st15{fill:#CE775F;}
	.st16{fill:#342191;}
	.st17{fill:#81B0FF;}
	.st18{opacity:0.4;}
	.st19{fill:none;}
</style>
<g>
	<g>
		<path class="st0" d="M787.3,118.2c0-9.8-6.9-18.3-16.5-20.4L613,64.8c-12.9-2.7-25.1,7.2-25.1,20.4V667c0,9.8,6.9,18.3,16.5,20.4    l52.3,10.9l130.6-0.2V118.2z"></path>
	</g>
</g>
<g class="st1">
	<g>
		<path class="st2" d="M587.9,87.4l199.4,41.7v-10.9c0-9.8-6.9-18.3-16.5-20.4l-167.2-35c-8.1-1.7-15.7,4.5-15.7,12.7V87.4z"></path>
	</g>
</g>
<g>
	<g class="st3">
		<path d="M737.9,326c0-9.8-6.9-18.3-16.5-20.4l-157.8-33c-12.9-2.7-25.1,7.2-25.1,20.4V687c0,4.1,1.2,8,3.4,11.3h196V326z"></path>
	</g>
</g>
<g>
	<g>
		<path class="st4" d="M727.9,306c0-9.8-6.9-18.3-16.5-20.4l-157.8-33c-12.9-2.7-25.1,7.2-25.1,20.4V667c0,9.8,6.9,18.3,16.5,20.4    l52.3,10.9h130.6V306z"></path>
	</g>
</g>
<g class="st5">
	<g>
		<path class="st2" d="M528.5,275.1l199.4,41.7V306c0-9.8-6.9-18.3-16.5-20.4l-167.2-35c-8.1-1.7-15.7,4.5-15.7,12.7V275.1z"></path>
	</g>
</g>
<g>
	<g>
		<path class="st6" d="M668.5,159.9c0-9.8-6.9-18.3-16.5-20.4l-157.8-33c-12.9-2.7-25.1,7.2-25.1,20.4V667c0,9.8,6.9,18.3,16.5,20.4    l52.3,10.9h130.6V159.9z"></path>
	</g>
</g>
<g class="st1">
	<g>
		<path class="st2" d="M469.1,129.1l199.4,41.7v-10.9c0-9.8-6.9-18.3-16.5-20.4l-167.2-35c-8.1-1.7-15.7,4.5-15.7,12.7V129.1z"></path>
	</g>
</g>
<g>
	<g>
		<path class="st7" d="M609,55.6c0-9.8-6.9-18.3-16.5-20.4l-167.2-35c-8.1-1.7-15.7,4.5-15.7,12.7v654c0,9.8,6.9,18.3,16.5,20.4    l52.3,10.9H609V55.6z"></path>
	</g>
</g>
<g class="st1">
	<g>
		<path class="st2" d="M409.7,24.8L609,66.5V55.6c0-9.8-6.9-18.3-16.5-20.4l-167.2-35c-8.1-1.7-15.7,4.5-15.7,12.7V24.8z"></path>
	</g>
</g>
<g>
	<g class="st3">
		<path d="M542.2,148.4c0-10.1-7.2-18.7-17.2-20.5L309.2,89.7c-7.8-1.4-14.9,4.6-14.9,12.5l-0.8,596.2h248L542.2,148.4z"></path>
	</g>
</g>
<g>
	<g>
		<g>
			<path class="st2" d="M526.9,129.9c0.5-10.1-6.2-19.1-16.1-21.4L297.3,59c-7.7-1.8-15.2,3.8-15.6,11.7l-34.1,627.6H496     L526.9,129.9z"></path>
		</g>
	</g>
	<g class="st8">
		<polygon class="st9" points="303.6,132.3 499,177.6 499.7,165.5 304.2,120.1   "></polygon>
	</g>
	<g>
		<g class="st10">
			<polygon class="st9" points="302.5,153 302.2,158.1 497.6,203.5 497.9,198.3    "></polygon>
		</g>
		<g class="st10">
			<polygon class="st9" points="330.4,179.5 330.1,184.6 467.6,216.5 467.9,211.4    "></polygon>
		</g>
	</g>
	<g class="st10">
		<g>
			<polygon class="st9" points="280.3,561.3 280,566.5 475.5,611.8 475.7,606.7    "></polygon>
		</g>
		<g>
			<polygon class="st9" points="281.4,540.5 281.2,545.7 476.6,591 476.9,585.9    "></polygon>
		</g>
		<g>
			<polygon class="st9" points="258.2,503.3 503.5,560.2 503.6,558.2 258.3,501.3    "></polygon>
		</g>
		<g>
			<polygon class="st9" points="308.1,588.9 307.9,594 445.4,625.9 445.6,620.8    "></polygon>
		</g>
	</g>
	<g class="st10">
		<polygon class="st9" points="285.1,472.9 480.5,518.3 488.4,374.3 292.9,329   "></polygon>
	</g>
	<g>
		<g>
			<path class="st11" d="M387.5,249.4c-0.4,0-0.7,0-1.1-0.1l-85.1-19.7c-2.3-0.5-3.9-2.6-3.8-5l0.8-14.3c0.1-1.4,0.8-2.8,1.9-3.6     c1.2-0.9,2.6-1.2,4-0.9l85.1,19.7c2.3,0.5,3.9,2.6,3.8,5l-0.8,14.3c-0.1,1.4-0.8,2.8-1.9,3.6C389.6,249,388.6,249.4,387.5,249.4z      M300.4,210.3l-0.8,14.3c-0.1,1.4,0.9,2.6,2.2,3l85.1,19.7c0.8,0.2,1.7,0,2.4-0.5c0.7-0.5,1.1-1.3,1.1-2.1l0.8-14.3     c0.1-1.4-0.9-2.6-2.2-3l-85.1-19.7c-0.8-0.2-1.7,0-2.4,0.5C300.8,208.7,300.4,209.5,300.4,210.3L300.4,210.3z"></path>
		</g>
		<g>
			<path class="st11" d="M490.2,273.2c-0.4,0-0.7,0-1.1-0.1L404,253.3c-2.3-0.5-3.9-2.6-3.8-5L401,234c0.1-1.4,0.8-2.8,1.9-3.6     c1.2-0.9,2.6-1.2,4-0.9l85.1,19.7c2.3,0.5,3.9,2.6,3.8,5l-0.8,14.3c-0.1,1.4-0.8,2.8-1.9,3.6     C492.3,272.8,491.3,273.2,490.2,273.2z M405.9,231.4c-0.6,0-1.2,0.2-1.7,0.6c-0.7,0.5-1.1,1.3-1.1,2.1l-0.8,14.3     c-0.1,1.4,0.9,2.6,2.2,3l85.1,19.7c0.8,0.2,1.7,0,2.4-0.5c0.7-0.5,1.1-1.3,1.1-2.1l0.8-14.3c0.1-1.4-0.9-2.6-2.2-3l-85.1-19.7     C406.3,231.4,406.1,231.4,405.9,231.4z"></path>
		</g>
	</g>
	<g class="st10">
		<path class="st9" d="M281.1,82.3l245.3,56.9l0.5-9.3c0.5-10.1-6.2-19.1-16.1-21.4L297.3,59c-7.7-1.8-15.2,3.8-15.6,11.7    L281.1,82.3z"></path>
	</g>
	<g>
		<g>
			
				<ellipse transform="matrix(0.9985 5.419762e-002 -5.419762e-002 0.9985 4.4062 -16.1004)" class="st11" cx="299.1" cy="73.2" rx="2.6" ry="3.4"></ellipse>
		</g>
		<g>
			
				<ellipse transform="matrix(0.9985 5.419762e-002 -5.419762e-002 0.9985 4.5241 -16.5493)" class="st11" cx="307.4" cy="75.1" rx="2.6" ry="3.4"></ellipse>
		</g>
		<g>
			
				<ellipse transform="matrix(0.9985 5.419762e-002 -5.419762e-002 0.9985 4.6416 -16.9982)" class="st11" cx="315.7" cy="77.1" rx="2.6" ry="3.4"></ellipse>
		</g>
	</g>
	<g>
		<path class="st11" d="M438.3,279.1l-85.1-19.7c-2.3-0.5-4.6,1.2-4.7,3.6l-0.8,14.3c-0.1,1.9,1.2,3.6,3,4l85.1,19.7    c2.3,0.5,4.6-1.2,4.7-3.6l0.8-14.3C441.4,281.2,440.2,279.5,438.3,279.1z"></path>
	</g>
	<g>
		<path class="st11" d="M418.5,644.2l-85.1-19.7c-2.3-0.5-4.6,1.2-4.7,3.6l-0.8,14.3c-0.1,1.9,1.2,3.6,3,4l85.1,19.7    c2.3,0.5,4.6-1.2,4.7-3.6l0.8-14.3C421.6,646.4,420.3,644.7,418.5,644.2z"></path>
	</g>
</g>
<g class="st3">
	<polygon points="619.8,698.1 609,698.1 609,130.6 619.8,132.8  "></polygon>
</g>
<g class="st3">
	<polygon points="679.2,698.1 668.5,698.1 668.5,276.6 679.2,278.9  "></polygon>
</g>
<g>
	<g>
		<path class="st12" d="M77.9,193.3c0,0-77.8,95.7-77.9,190.9c0,18,17.9,75.5,114.6,87C200.6,481.5,77.9,193.3,77.9,193.3z"></path>
	</g>
	<g class="st3">
		<g>
			<polygon points="23.4,284.7 20.2,292.4 43.9,381.2 53.5,288.6    "></polygon>
		</g>
	</g>
	<g>
		<g>
			<g>
				<path class="st12" d="M200.9,164.1l-23.5,45.8c-10.3,2.8-37.7-15.4-44.7-25.5l30.6-57.7L200.9,164.1z"></path>
			</g>
			<g class="st3">
				<g>
					<path d="M203,160.1l-7.9,15.4c-15.9-12.7-4.8-53.5-4.8-53.5L203,160.1z"></path>
				</g>
			</g>
			<g>
				<path class="st12" d="M207.3,85.4c0,0,15.2,5.7,24.1,9.3c5.5,2.2,1.6,22.1,2.7,30.6c0.6,5,2.8,13.5,3.1,15.2      c1.2,6.1-1.6,5.4-6.4,6.4c0,0-2.7,23.1-10.8,27.3C207,181,181.4,159.4,175,153c-6.4-6.4-9.2-27.4,2.3-45.9      C183.3,97.8,186,85.6,207.3,85.4z"></path>
			</g>
			<g>
				<path class="st13" d="M192.6,120.8c0,0,5.3,1,5.7,0.5c16.5-16.5,2.4-33.7,14.6-29.1c16.7,6.2,19.5,4.6,20,2.9      c0.5-1.5,2.2-5.6-3.3-10c-13.4-10.9-51.1-29.1-65.7-12.4c-27.5,31.3-12.7,76.9-12.7,76.9s15.3,8,21.1,2.1      c6.8-6.8,11.4-31.5,11.4-31.5L192.6,120.8z"></path>
			</g>
			<g>
				<g>
					<path class="st13" d="M224.7,153.7c0,0-0.1,0-0.1,0c-4.9-0.5-7-5.2-7.1-5.4c-0.2-0.5,0-1.1,0.5-1.3c0.5-0.2,1.1,0,1.3,0.5l0,0       c0,0,1.8,3.9,5.5,4.3c0.5,0.1,0.9,0.6,0.9,1.1C225.6,153.3,225.2,153.7,224.7,153.7z"></path>
				</g>
			</g>
			<g>
				<g>
					
						<ellipse transform="matrix(1 3.045806e-003 -3.045806e-003 1 0.3805 -0.6783)" class="st14" cx="222.9" cy="124.6" rx="1.8" ry="2.4"></ellipse>
				</g>
				<g>
					<path class="st13" d="M218.2,117.5c-0.7,0-1.3-0.4-1.4-1.1c-0.2-0.8,0.2-1.6,1-1.8c0.2-0.1,4.9-1.4,8.2-1.3       c0.8,0,1.5,0.7,1.5,1.5c0,0.8-0.7,1.5-1.5,1.5c-2.9-0.1-7.3,1.2-7.4,1.2C218.4,117.4,218.3,117.5,218.2,117.5z"></path>
				</g>
			</g>
			<g>
				<g>
					<path class="st12" d="M175.4,130.2c2.7,7.8,8.1,13.5,15,11.1c6.9-2.4,10.2-10.7,7.5-18.4s-10.5-12.1-17.4-9.6       C173.5,115.7,172.6,122.5,175.4,130.2z"></path>
				</g>
				<g>
					<path class="st15" d="M191.2,125.1c-0.3,0-0.6-0.1-0.8-0.4c-3.5-4.3-6.2-2.8-6.3-2.7c-0.5,0.3-1.1,0.1-1.4-0.4       c-0.3-0.5-0.1-1.1,0.3-1.4c0.2-0.1,4.2-2.5,8.9,3.2c0.3,0.4,0.3,1.1-0.1,1.4C191.6,125,191.4,125.1,191.2,125.1z"></path>
				</g>
			</g>
		</g>
	</g>
	<g>
		<path class="st16" d="M56.3,436.5c-10.3,23.8-12.2,66.6-7.1,99.3c6.4,41.2,5.3,162.3,5.3,162.3h103.4V419.4    C157.9,419.4,66.6,412.7,56.3,436.5z"></path>
	</g>
	<g class="st1">
		<path d="M157.9,698.1l0-105.1L102.2,538c15.8,52.2,27.8,119.4,43,160H157.9z"></path>
	</g>
	<g>
		<g>
			<path class="st16" d="M202.1,439.6l-120.1,7l0.8,34.3c0.4,16.6,5.1,32.8,13.6,47l100.8,170.7h122.1L202.1,439.6z"></path>
		</g>
	</g>
	<g class="st5">
		<path class="st17" d="M157.9,634.6c-0.3,0-0.7-0.2-0.9-0.5L95.5,528.5c-8.6-14.4-13.3-25.3-13.7-42c0-0.6,0.4-1,1-1    c0.5,0,1,0.4,1,1c0.4,16.3,4.8,26.6,13.4,41l61.6,105.6c0.3,0.5,0.1,1.1-0.4,1.4C158.3,634.5,158.1,634.6,157.9,634.6z"></path>
	</g>
	<g>
		<g class="st3">
			<g>
				<path d="M257.7,348.6l8.4,8.1c8-7.4,30-32.6,47.6-67.5l-27.7-0.1L257.7,348.6z"></path>
			</g>
		</g>
		<g>
			<path class="st12" d="M529.2,293.7c-0.1-0.4-0.2-1.5-0.2-2.9c0.4-6.4,0.5-13.7-0.9-16.8c-2.8-6.1-8.4-12.6-8.4-12.6l-1.7,17.1     c-0.3,0.3-0.7,0.7-1.1,1.1c-2.5,2.8-5.4,4.6-7.2,6.2c1.6-7,1.5-13.4-2.5-15.5c-3.8-2-19.9,29.7-23.2,36.4     c-18.7,12.8-40.2,23.3-57.3,26.7c-17.8,3.6-59.7,14.6-91.3-19.2c-50.4-54-56.4-87.9-83.5-105.7l-15.5,115.8     c0,0,52.3,72.6,126,81.5c83.6,10.1,140.2-41.2,157.7-69.9l0,0c4-6.6,7.6-9.8,8.5-18.4c0.4-3.9,0.5-10.8,1.6-13.2     C531.3,302,530.8,297.8,529.2,293.7z"></path>
		</g>
		<g>
			<path class="st15" d="M368.3,395.5c-8.1,0-12.9-3.2-13.2-3.4c-0.5-0.3-0.6-0.9-0.3-1.4c0.3-0.5,0.9-0.6,1.4-0.3     c0.1,0.1,9.3,6.1,23.3,1c0.5-0.2,1.1,0.1,1.3,0.6c0.2,0.5-0.1,1.1-0.6,1.3C375.7,394.9,371.7,395.5,368.3,395.5z"></path>
		</g>
		<g>
			<path class="st15" d="M505.5,303c-0.1,0-0.2,0-0.3,0c-0.5-0.1-0.9-0.7-0.7-1.2l3.5-13c0.1-0.5,0.7-0.8,1.2-0.7     c0.5,0.1,0.9,0.7,0.7,1.2l-3.5,13C506.3,302.7,505.9,303,505.5,303z"></path>
		</g>
	</g>
	<path class="st4" d="M251.8,207.5c-30.6-22.1-151-32.3-173.2-14.9c-0.2,0.1-0.4,0.2-0.7,0.3c-36.8,20.1-61.5,93.7-61.5,93.7   l28.4,19.6c-7.6,74.8-8,158.7-8,158.7c55.1,8.5,139.5,15.1,191.4,9.6l8.3-149.6c0,0,8.5,12.5,19.7,25.6   c11.2-10.4,42.1-39.1,59.5-65.1C292.2,253.5,271.5,220.5,251.8,207.5z"></path>
</g>
<g class="st18">
	<g>
		<path class="st19" d="M43.3,268.7c-2.9,2.6-7.4,7.5-7.9,9.8c-0.3,1.4-1.5,2.4-2.9,2.4c-0.2,0-0.4,0-0.6-0.1    c-1.6-0.3-2.7-1.9-2.3-3.6c1.1-5,8.3-11.7,9.7-13c1.2-1.1,3.1-1,4.2,0.2C44.6,265.7,44.5,267.6,43.3,268.7z M117.6,333.3l7.5-4.6    c1.4-0.9,3.3-0.4,4.1,1c0.9,1.4,0.4,3.3-1,4.1l-7.5,4.6c-0.5,0.3-1,0.4-1.6,0.4c-1,0-2-0.5-2.6-1.4    C115.8,336,116.2,334.2,117.6,333.3z M82.2,200.5c1.1-1.2,3-1.3,4.2-0.2c3.5,3.2,9.2,14,10.3,16.1c0.8,1.5,0.2,3.3-1.3,4    c-0.4,0.2-0.9,0.3-1.4,0.3c-1.1,0-2.1-0.6-2.7-1.6c-2.4-4.6-6.9-12.5-9-14.4C81.2,203.7,81.1,201.8,82.2,200.5z M66.8,269.7    l11.5,5c1.5,0.7,2.2,2.4,1.6,3.9c-0.5,1.1-1.6,1.8-2.8,1.8c-0.4,0-0.8-0.1-1.2-0.3l-11.5-5c-1.5-0.7-2.2-2.4-1.6-3.9    C63.5,269.7,65.3,269,66.8,269.7z M64.3,336.5c-0.3,0.1-0.5,0.1-0.8,0.1c-1.3,0-2.5-0.9-2.9-2.2c-1-3.7-3.4-9.9-5.2-11.4    c-1.3-1-1.5-2.9-0.5-4.2c1-1.3,2.9-1.5,4.2-0.5c4,3.2,6.7,12.6,7.3,14.5C66.8,334.4,65.9,336,64.3,336.5z M53.5,224.8    c1.5-0.8,3.3-0.2,4.1,1.2c1.7,3.2,4.5,7.2,5.9,7.9c1.5,0.8,2.1,2.6,1.3,4c-0.5,1-1.6,1.6-2.7,1.6c-0.5,0-0.9-0.1-1.4-0.3    c-3.9-2-7.7-9-8.5-10.4C51.5,227.4,52,225.6,53.5,224.8z M62.7,447.6c-2.4,3.1-5.9,8.7-5.9,11c0,1.6-1.4,2.9-3,2.9c0,0,0,0-0.1,0    c-1.7,0-3-1.4-2.9-3.1c0.1-5.1,6-13,7.1-14.6c1-1.3,2.9-1.6,4.2-0.6C63.5,444.4,63.7,446.3,62.7,447.6z M73.1,395.5l-10.9,8.2    c-0.5,0.4-1.2,0.6-1.8,0.6c-0.9,0-1.8-0.4-2.4-1.2c-1-1.3-0.7-3.2,0.6-4.2l10.9-8.2c1.3-1,3.2-0.7,4.2,0.6    C74.7,392.6,74.5,394.5,73.1,395.5z M83.6,377.7c-0.5,0.3-1.1,0.5-1.7,0.5c-1,0-1.9-0.5-2.5-1.3l-4.9-7.4    c-0.9-1.4-0.5-3.2,0.8-4.2c1.4-0.9,3.2-0.5,4.2,0.8l4.9,7.4C85.4,374.9,85,376.8,83.6,377.7z M94.1,257.6c-0.5,0-1.1-0.1-1.5-0.4    c-1.4-0.9-1.9-2.7-1-4.1c2.2-3.7,9.5-7.1,11-7.7c1.5-0.7,3.3,0,4,1.5c0.7,1.5,0,3.3-1.5,4c-3.3,1.5-7.4,4-8.3,5.4    C96.1,257.1,95.1,257.6,94.1,257.6z M99.8,328.2c-1.7,0-3-1.3-3-3c0-4.7,4.2-16.2,5-18.5c0.6-1.6,2.3-2.3,3.9-1.8    c1.6,0.6,2.3,2.3,1.8,3.9c-1.8,4.8-4.6,13.5-4.6,16.4C102.8,326.8,101.4,328.2,99.8,328.2z M108.4,399.8c-1.4-0.8-2-2.6-1.2-4.1    l6.6-11.9c0.8-1.4,2.6-2,4.1-1.2c1.4,0.8,2,2.6,1.2,4.1l-6.6,11.9c-0.5,1-1.6,1.5-2.6,1.5C109.4,400.2,108.9,400.1,108.4,399.8z     M130.5,435.3c-0.3,1.4-1.5,2.4-2.9,2.4c-0.2,0-0.4,0-0.6-0.1c-3.8-0.8-10.4-1.5-12.5-0.6c-1.5,0.7-3.3,0-4-1.5    c-0.7-1.5,0-3.3,1.5-4c4.7-2.1,14.3-0.2,16.2,0.2C129.8,432.1,130.8,433.6,130.5,435.3z M189.5,214c1.4-0.9,3.2-0.5,4.2,0.9    c2.8,4.3,2.5,14.1,2.4,16c-0.1,1.6-1.4,2.8-3,2.8c-0.1,0-0.1,0-0.2,0c-1.7-0.1-2.9-1.5-2.8-3.1c0.2-3.9-0.1-10.5-1.4-12.4    C187.7,216.8,188.1,214.9,189.5,214z M185.9,297l4.8-17.4c0.4-1.6,2.1-2.5,3.7-2.1c1.6,0.4,2.5,2.1,2.1,3.7l-4.8,17.4    c-0.4,1.3-1.6,2.2-2.9,2.2c-0.3,0-0.5,0-0.8-0.1C186.3,300.2,185.4,298.6,185.9,297z M137,215.1c-1.5,0.7-3.3,0-4-1.5    c-0.7-1.5,0-3.3,1.5-4c4.7-2.1,14.3-0.2,16.2,0.2c1.6,0.3,2.7,1.9,2.3,3.6c-0.3,1.4-1.5,2.4-2.9,2.4c-0.2,0-0.4,0-0.6-0.1    C145.7,214.9,139.1,214.1,137,215.1z M145.4,278.3c-1.3-1-1.6-2.9-0.6-4.2l10.7-14.5c1-1.3,2.9-1.6,4.2-0.6c1.3,1,1.6,2.9,0.6,4.2    l-10.7,14.5c-0.6,0.8-1.5,1.2-2.4,1.2C146.6,278.8,145.9,278.7,145.4,278.3z M148.8,318.1c0.3-1.6,1.9-2.7,3.5-2.4    c5,0.9,11.9,8,13.2,9.4c1.1,1.2,1.1,3.1-0.1,4.2c-0.6,0.5-1.3,0.8-2.1,0.8c-0.8,0-1.6-0.3-2.2-0.9c-2.7-2.8-7.7-7.2-10-7.6    C149.6,321.3,148.5,319.7,148.8,318.1z M152.5,370.4c0.7-1.5,2.4-2.2,3.9-1.6l11.5,5c1.5,0.7,2.2,2.4,1.6,3.9    c-0.5,1.1-1.6,1.8-2.8,1.8c-0.4,0-0.8-0.1-1.2-0.3l-11.5-5C152.5,373.7,151.8,371.9,152.5,370.4z M174.6,454.4    c-0.6,0.5-1.3,0.8-2.1,0.8c-0.8,0-1.6-0.3-2.2-0.9c-2.7-2.8-7.7-7.2-10-7.6c-1.6-0.3-2.7-1.9-2.4-3.5c0.3-1.6,1.9-2.7,3.5-2.4    c5,0.9,11.9,8,13.2,9.4C175.9,451.3,175.8,453.2,174.6,454.4z M198.6,419.9L186,430.4c-0.6,0.5-1.2,0.7-1.9,0.7    c-0.9,0-1.7-0.4-2.3-1.1c-1.1-1.3-0.9-3.2,0.4-4.2l12.6-10.4c1.3-1.1,3.2-0.9,4.2,0.4C200,417,199.8,418.9,198.6,419.9z     M206.6,356.9c-0.2,0.1-0.5,0.1-0.7,0.1c-1.4,0-2.6-0.9-2.9-2.3l-3.1-13.3c-0.4-1.6,0.6-3.2,2.2-3.6c1.6-0.4,3.2,0.6,3.6,2.2    l3.1,13.3C209.3,354.9,208.2,356.5,206.6,356.9z M223.5,389.9l-6.7,5.7c-0.6,0.5-1.3,0.7-1.9,0.7c-0.8,0-1.7-0.4-2.3-1.1    c-1.1-1.3-0.9-3.2,0.3-4.2l6.7-5.7c1.3-1.1,3.2-0.9,4.2,0.3C224.9,386.9,224.7,388.8,223.5,389.9z M223.8,274.3    c-0.2,0-0.4,0.1-0.6,0.1c-1.4,0-2.7-1-2.9-2.4c-0.8-3.8-2.7-10.2-4.4-11.7c-1.2-1.1-1.3-3-0.2-4.2s3-1.3,4.2-0.2    c3.8,3.5,5.9,13.1,6.2,15C226.4,272.3,225.4,273.9,223.8,274.3z M267.3,316.2c-0.3,1.4-1.5,2.4-2.9,2.4c-0.2,0-0.4,0-0.6-0.1    c-3.8-0.8-10.4-1.5-12.5-0.6c-1.5,0.7-3.3,0-4-1.5c-0.7-1.5,0-3.3,1.5-4c4.7-2.1,14.3-0.2,16.2,0.2    C266.6,313,267.7,314.6,267.3,316.2z M272.8,277.2l-12.6,10.4c-0.6,0.5-1.2,0.7-1.9,0.7c-0.9,0-1.7-0.4-2.3-1.1    c-1.1-1.3-0.9-3.2,0.4-4.2l12.6-10.4c1.3-1.1,3.2-0.9,4.2,0.4C274.3,274.3,274.1,276.2,272.8,277.2z M296,284.5    c-0.2,0.1-0.5,0.1-0.7,0.1c-1.4,0-2.6-0.9-2.9-2.3l-3.1-13.3c-0.4-1.6,0.6-3.2,2.2-3.6c1.6-0.4,3.2,0.6,3.6,2.2l3.1,13.3    C298.6,282.5,297.6,284.1,296,284.5z"></path>
	</g>
	<g>
		<path class="st2" d="M149.6,277.6l10.7-14.5c1-1.3,0.7-3.2-0.6-4.2c-1.3-1-3.2-0.7-4.2,0.6l-10.7,14.5c-1,1.3-0.7,3.2,0.6,4.2    c0.5,0.4,1.2,0.6,1.8,0.6C148.1,278.8,149,278.4,149.6,277.6z"></path>
	</g>
	<g>
		<path class="st2" d="M135.6,466.4c-1.5-0.8-3.3-0.3-4.1,1.2l-3.9,7c2.2,0.1,4.4,0.3,6.6,0.4l2.5-4.5    C137.6,469,137.1,467.2,135.6,466.4z"></path>
	</g>
	<g>
		<path class="st2" d="M112.5,398.7l6.6-11.9c0.8-1.4,0.3-3.3-1.2-4.1c-1.5-0.8-3.3-0.3-4.1,1.2l-6.6,11.9c-0.8,1.4-0.3,3.3,1.2,4.1    c0.5,0.3,1,0.4,1.5,0.4C110.9,400.2,111.9,399.6,112.5,398.7z"></path>
	</g>
	<g>
		<path class="st2" d="M205.8,340c-0.4-1.6-2-2.6-3.6-2.2c-1.6,0.4-2.6,2-2.2,3.6l3.1,13.3c0.3,1.4,1.6,2.3,2.9,2.3    c0.2,0,0.5,0,0.7-0.1c1.6-0.4,2.6-2,2.2-3.6L205.8,340z"></path>
	</g>
	<g>
		<path class="st2" d="M298.3,280.9l-3.1-13.3c-0.4-1.6-2-2.6-3.6-2.2c-1.6,0.4-2.6,2-2.2,3.6l3.1,13.3c0.3,1.4,1.6,2.3,2.9,2.3    c0.2,0,0.5,0,0.7-0.1C297.6,284.1,298.6,282.5,298.3,280.9z"></path>
	</g>
	<g>
		<path class="st2" d="M219.6,385.3l-6.7,5.7c-1.3,1.1-1.4,3-0.3,4.2c0.6,0.7,1.4,1.1,2.3,1.1c0.7,0,1.4-0.2,1.9-0.7l6.7-5.7    c1.3-1.1,1.4-3,0.3-4.2C222.7,384.4,220.8,384.3,219.6,385.3z"></path>
	</g>
	<g>
		<path class="st2" d="M119.2,338.9c0.5,0,1.1-0.1,1.6-0.4l7.5-4.6c1.4-0.9,1.9-2.7,1-4.1c-0.9-1.4-2.7-1.9-4.1-1l-7.5,4.6    c-1.4,0.9-1.9,2.7-1,4.1C117.2,338.4,118.2,338.9,119.2,338.9z"></path>
	</g>
	<g>
		<path class="st2" d="M79.6,366.1c-0.9-1.4-2.8-1.8-4.2-0.8c-1.4,0.9-1.8,2.8-0.8,4.2l4.9,7.4c0.6,0.9,1.5,1.3,2.5,1.3    c0.6,0,1.1-0.2,1.7-0.5c1.4-0.9,1.8-2.8,0.8-4.2L79.6,366.1z"></path>
	</g>
	<g>
		<path class="st2" d="M166.7,379.6c1.2,0,2.3-0.7,2.8-1.8c0.7-1.5,0-3.3-1.6-3.9l-11.5-5c-1.5-0.7-3.3,0-3.9,1.6    c-0.7,1.5,0,3.3,1.6,3.9l11.5,5C165.9,379.5,166.3,379.6,166.7,379.6z"></path>
	</g>
	<g>
		<path class="st2" d="M62.8,271.2c-0.7,1.5,0,3.3,1.6,3.9l11.5,5c0.4,0.2,0.8,0.3,1.2,0.3c1.2,0,2.3-0.7,2.8-1.8    c0.7-1.5,0-3.3-1.6-3.9l-11.5-5C65.3,269,63.5,269.7,62.8,271.2z"></path>
	</g>
	<g>
		<path class="st2" d="M69.5,390.7l-10.9,8.2c-1.3,1-1.6,2.9-0.6,4.2c0.6,0.8,1.5,1.2,2.4,1.2c0.6,0,1.3-0.2,1.8-0.6l10.9-8.2    c1.3-1,1.6-2.9,0.6-4.2C72.7,390,70.9,389.7,69.5,390.7z"></path>
	</g>
	<g>
		<path class="st2" d="M187.9,300.7c0.3,0.1,0.5,0.1,0.8,0.1c1.3,0,2.5-0.9,2.9-2.2l4.8-17.4c0.4-1.6-0.5-3.3-2.1-3.7    c-1.6-0.4-3.3,0.5-3.7,2.1l-4.8,17.4C185.4,298.6,186.3,300.2,187.9,300.7z"></path>
	</g>
	<g>
		<path class="st2" d="M194.7,415.3l-12.6,10.4c-1.3,1.1-1.5,2.9-0.4,4.2c0.6,0.7,1.4,1.1,2.3,1.1c0.7,0,1.4-0.2,1.9-0.7l12.6-10.4    c1.3-1.1,1.5-2.9,0.4-4.2C197.9,414.4,196,414.3,194.7,415.3z"></path>
	</g>
	<g>
		<path class="st2" d="M220.2,444.3c-0.2,1.6,0.9,3.2,2.6,3.4l6.9,0.9l0.3-6l-6.5-0.9C221.9,441.5,220.4,442.6,220.2,444.3z"></path>
	</g>
	<g>
		<path class="st2" d="M47.4,368.5c1.5,0,2.8-1.1,3-2.6c0.2-1.6-0.9-3.2-2.6-3.4l-7.3-1c-0.1,2-0.2,4-0.4,6l6.8,0.9    C47.1,368.5,47.3,368.5,47.4,368.5z"></path>
	</g>
	<g>
		<path class="st2" d="M269,272.6L256.4,283c-1.3,1.1-1.5,2.9-0.4,4.2c0.6,0.7,1.4,1.1,2.3,1.1c0.7,0,1.4-0.2,1.9-0.7l12.6-10.4    c1.3-1.1,1.5-2.9,0.4-4.2C272.2,271.7,270.3,271.5,269,272.6z"></path>
	</g>
	<g>
		<path class="st2" d="M249.6,220.9c0.3,1.4,1.6,2.3,2.9,2.3c0.2,0,0.5,0,0.7-0.1l13-3.1c-1.7-1.8-3.3-3.4-5-5l-9.4,2.2    C250.3,217.7,249.3,219.3,249.6,220.9z"></path>
	</g>
	<g>
		<path class="st2" d="M105.7,304.9c-1.6-0.6-3.3,0.2-3.9,1.8c-0.8,2.3-5,13.7-5,18.5c0,1.7,1.3,3,3,3s3-1.3,3-3    c0-2.8,2.8-11.5,4.6-16.4C108,307.2,107.2,305.5,105.7,304.9z"></path>
	</g>
	<g>
		<path class="st2" d="M91.4,219.2c0.5,1,1.6,1.6,2.7,1.6c0.5,0,0.9-0.1,1.4-0.3c1.5-0.8,2-2.6,1.3-4c-1.1-2.1-6.8-12.9-10.3-16.1    c-1.2-1.1-3.1-1-4.2,0.2c-1.1,1.2-1,3.1,0.2,4.2C84.5,206.7,89,214.6,91.4,219.2z"></path>
	</g>
	<g>
		<path class="st2" d="M190,230.6c-0.1,1.7,1.2,3.1,2.8,3.1c0.1,0,0.1,0,0.2,0c1.6,0,2.9-1.2,3-2.8c0.1-1.9,0.4-11.8-2.4-16    c-0.9-1.4-2.8-1.8-4.2-0.9s-1.8,2.8-0.9,4.2C189.9,220.1,190.2,226.7,190,230.6z"></path>
	</g>
	<g>
		<path class="st2" d="M128.1,431.7c-1.9-0.4-11.5-2.3-16.2-0.2c-1.5,0.7-2.2,2.5-1.5,4c0.7,1.5,2.5,2.2,4,1.5    c2.1-1,8.7-0.2,12.5,0.6c0.2,0,0.4,0.1,0.6,0.1c1.4,0,2.6-1,2.9-2.4C130.8,433.6,129.8,432.1,128.1,431.7z"></path>
	</g>
	<g>
		<path class="st2" d="M265,312.6c-1.9-0.4-11.5-2.3-16.2-0.2c-1.5,0.7-2.2,2.5-1.5,4c0.7,1.5,2.5,2.2,4,1.5c2.1-1,8.7-0.2,12.5,0.6    c0.2,0,0.4,0.1,0.6,0.1c1.4,0,2.6-1,2.9-2.4C267.7,314.6,266.6,313,265,312.6z"></path>
	</g>
	<g>
		<path class="st2" d="M219.9,255.8c-1.2-1.1-3.1-1-4.2,0.2s-1,3.1,0.2,4.2c1.7,1.6,3.6,7.9,4.4,11.7c0.3,1.4,1.5,2.4,2.9,2.4    c0.2,0,0.4,0,0.6-0.1c1.6-0.3,2.7-1.9,2.4-3.5C225.7,268.8,223.7,259.2,219.9,255.8z"></path>
	</g>
	<g>
		<path class="st2" d="M150.1,215.7c1.4,0,2.6-1,2.9-2.4c0.3-1.6-0.7-3.2-2.3-3.6c-1.9-0.4-11.5-2.3-16.2-0.2    c-1.5,0.7-2.2,2.5-1.5,4c0.7,1.5,2.5,2.2,4,1.5c2.1-1,8.7-0.2,12.5,0.6C149.7,215.7,149.9,215.7,150.1,215.7z"></path>
	</g>
	<g>
		<path class="st2" d="M62.2,443.4c-1.3-1-3.2-0.8-4.2,0.6c-1.2,1.5-7,9.4-7.1,14.6c0,1.7,1.3,3,2.9,3.1c0,0,0,0,0.1,0    c1.6,0,3-1.3,3-2.9c0.1-2.3,3.6-8,5.9-11C63.7,446.3,63.5,444.4,62.2,443.4z"></path>
	</g>
	<g>
		<path class="st2" d="M161.5,440.7c-1.6-0.3-3.2,0.8-3.5,2.4c-0.3,1.6,0.8,3.2,2.4,3.5c2.3,0.4,7.3,4.8,10,7.6    c0.6,0.6,1.4,0.9,2.2,0.9c0.7,0,1.5-0.3,2.1-0.8c1.2-1.1,1.3-3,0.1-4.2C173.4,448.7,166.6,441.7,161.5,440.7z"></path>
	</g>
	<g>
		<path class="st2" d="M161.2,329.2c0.6,0.6,1.4,0.9,2.2,0.9c0.7,0,1.5-0.3,2.1-0.8c1.2-1.1,1.3-3,0.1-4.2    c-1.3-1.4-8.2-8.5-13.2-9.4c-1.6-0.3-3.2,0.8-3.5,2.4s0.8,3.2,2.4,3.5C153.5,322,158.5,326.3,161.2,329.2z"></path>
	</g>
	<g>
		<path class="st2" d="M59.1,318.3c-1.3-1-3.2-0.8-4.2,0.5c-1,1.3-0.8,3.2,0.5,4.2c1.8,1.4,4.2,7.7,5.2,11.4    c0.4,1.3,1.6,2.2,2.9,2.2c0.3,0,0.5,0,0.8-0.1c1.6-0.4,2.5-2.1,2.1-3.7C65.9,330.9,63.1,321.5,59.1,318.3z"></path>
	</g>
	<g>
		<path class="st2" d="M39.2,264.3c-1.4,1.3-8.7,8-9.7,13c-0.3,1.6,0.7,3.2,2.3,3.6c0.2,0,0.4,0.1,0.6,0.1c1.4,0,2.6-1,2.9-2.4    c0.5-2.3,5-7.2,7.9-9.8c1.2-1.1,1.3-3,0.2-4.2C42.4,263.3,40.5,263.2,39.2,264.3z"></path>
	</g>
	<g>
		<path class="st2" d="M104.9,250.8c1.5-0.7,2.2-2.5,1.5-4c-0.7-1.5-2.4-2.2-4-1.5c-1.4,0.6-8.7,4-11,7.7c-0.9,1.4-0.4,3.3,1,4.1    c0.5,0.3,1,0.4,1.5,0.4c1,0,2-0.5,2.6-1.5C97.5,254.8,101.6,252.3,104.9,250.8z"></path>
	</g>
	<g>
		<path class="st2" d="M60.7,239.3c0.4,0.2,0.9,0.3,1.4,0.3c1.1,0,2.1-0.6,2.7-1.6c0.8-1.5,0.2-3.3-1.3-4c-1.4-0.7-4.2-4.7-5.9-7.9    c-0.8-1.5-2.6-2-4.1-1.2c-1.5,0.8-2,2.6-1.2,4.1C53,230.3,56.9,237.3,60.7,239.3z"></path>
	</g>
</g>
<g class="st18">
	<g>
		<path class="st6" d="M236.4,325.2c-0.5,0-0.9-0.3-1-0.8c-12.4-77.2,1.9-119.3,2.1-119.7c0.2-0.5,0.8-0.8,1.3-0.6    c0.5,0.2,0.8,0.8,0.6,1.3c-0.1,0.4-14.3,42.1-2,118.7c0.1,0.5-0.3,1.1-0.8,1.1C236.5,325.2,236.4,325.2,236.4,325.2z"></path>
	</g>
	<g>
		<path class="st6" d="M250,339.9c-0.3,0-0.5-0.1-0.7-0.3c-0.4-0.4-0.4-1,0-1.4c0.5-0.4,47-45,55.8-58c0.3-0.5,0.9-0.6,1.4-0.3    c0.5,0.3,0.6,0.9,0.3,1.4c-8.9,13.2-54.1,56.5-56,58.3C250.5,339.8,250.3,339.9,250,339.9z"></path>
	</g>
	<g>
		<path class="st6" d="M43.9,300.2c0,0-0.1,0-0.1,0c-0.5-0.1-0.9-0.6-0.9-1.1c0.3-2.7,7.6-66.5,22.1-87.4c0.3-0.5,0.9-0.6,1.4-0.3    c0.5,0.3,0.6,0.9,0.3,1.4c-14.2,20.5-21.7,85.9-21.8,86.5C44.9,299.8,44.4,300.2,43.9,300.2z"></path>
	</g>
	<g>
		<path class="st6" d="M167,465.7c-36.8,0-84.1-1.8-120.7-9.5c-0.5-0.1-0.9-0.6-0.8-1.2c0.1-0.5,0.6-0.9,1.2-0.8    c69.2,14.6,177.2,8,178.3,8c0.6,0,1,0.4,1.1,0.9c0,0.6-0.4,1-0.9,1.1C224.5,464.2,200,465.7,167,465.7z"></path>
	</g>
	<g>
		<path class="st6" d="M171.1,193c-33.2,0-47.8-6-48.5-6.3c-0.5-0.2-0.7-0.8-0.5-1.3c0.2-0.5,0.8-0.7,1.3-0.5    c0.2,0.1,21.1,8.6,68.8,5.4c0.6,0,1,0.4,1.1,0.9s-0.4,1-0.9,1.1C184.5,192.8,177.4,193,171.1,193z"></path>
	</g>
</g>
<g class="st5">
	<g>
		<path class="st17" d="M299.6,689c-0.4,0-0.7-0.2-0.9-0.5l-91.8-179.2c-0.5-1-12.5-25-13.2-28.9c-0.1-0.5,0.3-1.1,0.8-1.2    c0.5-0.1,1.1,0.3,1.2,0.8c0.5,3,9.6,21.5,13,28.3l91.8,179.2c0.3,0.5,0.1,1.1-0.4,1.3C299.9,688.9,299.8,689,299.6,689z"></path>
	</g>
	<g>
		<path class="st17" d="M216.1,524.9c-0.2,0-0.5-0.1-0.6-0.2c-0.4-0.4-0.5-1-0.1-1.4c0.1-0.1,11.5-14.1,3.8-35.3    c-0.2-0.5,0.1-1.1,0.6-1.3c0.5-0.2,1.1,0.1,1.3,0.6c8.1,22.3-4,37.1-4.1,37.2C216.7,524.8,216.4,524.9,216.1,524.9z"></path>
	</g>
</g>
<g>
	<path class="st0" d="M786.3,699.1h-770c-0.6,0-1-0.4-1-1s0.4-1,1-1h770c0.6,0,1,0.4,1,1S786.9,699.1,786.3,699.1z"></path>
</g>
</svg>