<svg xmlns="http://www.w3.org/2000/svg" xmlns:xlink="http://www.w3.org/1999/xlink" id="Layer_1" x="0px" y="0px" viewBox="0 0 788.2 699.5" style="enable-background:new 0 0 788.2 699.5;" width="809px" height="718px" xml:space="preserve">
<style type="text/css">
	.st0{fill:#4946B9;}
	.st1{opacity:0.9;}
	.st2{fill:#FFFFFF;}
	.st3{fill:#FCD771;}
	.st4{fill:none;stroke:#FFFFFF;stroke-width:2;stroke-miterlimit:10;}
	.st5{fill:#FF7FAA;}
	.st6{fill:#05D6AE;}
	.st7{opacity:0.25;}
	.st8{fill:#6EF4CB;}
	.st9{opacity:5.000000e-002;}
	.st10{fill:#81B0FF;}
	.st11{fill:#546DFE;}
	.st12{fill:#FFF175;}
	.st13{fill:#F4BBAB;}
	.st14{fill:#FFCBBB;}
	.st15{fill:#D88E7D;}
	.st16{fill:#D38E5F;}
	.st17{fill:#BC6753;}
	.st18{fill:#F4B7A2;}
	.st19{fill:#CE775F;}
	.st20{fill:none;stroke:#CE775F;stroke-width:2;stroke-linecap:round;stroke-miterlimit:10;}
	.st21{fill:#001468;}
</style>
<g>
	<g>
		<g>
			<path class="st0" d="M519.1,560.6H65.3c-7.1,0-12.9-5.8-12.9-12.9V12.9C52.4,5.8,58.2,0,65.3,0h453.8c7.1,0,12.9,5.8,12.9,12.9     v534.7C532,554.8,526.2,560.6,519.1,560.6z"></path>
		</g>
		<g class="st1">
			<path class="st2" d="M519.1,560.6H65.3c-7.1,0-12.9-5.8-12.9-12.9V12.9C52.4,5.8,58.2,0,65.3,0h453.8c7.1,0,12.9,5.8,12.9,12.9     v534.7C532,554.8,526.2,560.6,519.1,560.6z"></path>
		</g>
		<g>
			<path class="st3" d="M532,32.3H52.4V12.9C52.4,5.8,58.2,0,65.3,0h453.8c7.1,0,12.9,5.8,12.9,12.9V32.3z"></path>
		</g>
	</g>
	<g class="st1">
		<g>
			<g>
				<rect x="103.9" y="80.5" class="st2" width="377.8" height="16.4"></rect>
			</g>
			<g>
				<rect x="103.9" y="134.6" class="st2" width="377.8" height="8.9"></rect>
			</g>
			<g>
				<rect x="157.2" y="169.5" class="st2" width="271.2" height="8.9"></rect>
			</g>
		</g>
		<g>
			<g>
				<g>
					<rect x="310.7" y="235.9" class="st2" width="171" height="129.3"></rect>
				</g>
			</g>
			<g>
				<g>
					<rect x="103.9" y="235.9" class="st2" width="187.9" height="129.3"></rect>
				</g>
			</g>
		</g>
		<g>
			<g>
				<rect x="103.9" y="424.6" class="st2" width="327.4" height="10.2"></rect>
			</g>
			<g>
				<path class="st2" d="M337.8,468.8c0.7,0,1.3,0.6,1.3,1.3v24.4c0,0.7-0.6,1.3-1.3,1.3H107.2c-0.7,0-1.3-0.6-1.3-1.3v-24.4      c0-0.7,0.6-1.3,1.3-1.3H337.8 M337.8,466.8H107.2c-1.8,0-3.3,1.5-3.3,3.3v24.4c0,1.8,1.5,3.3,3.3,3.3h230.5      c1.8,0,3.3-1.5,3.3-3.3v-24.4C341.1,468.3,339.6,466.8,337.8,466.8L337.8,466.8z"></path>
			</g>
			<g>
				<path class="st5" d="M480.8,497.9H373.1c-1.8,0-3.3-1.5-3.3-3.3v-24.4c0-1.8,1.5-3.3,3.3-3.3h107.7c1.8,0,3.3,1.5,3.3,3.3v24.4      C484.1,496.4,482.6,497.9,480.8,497.9z"></path>
			</g>
		</g>
	</g>
</g>
<g>
	<g>
		<g>
			<path class="st2" d="M723,655.8H269.3c-7.1,0-12.9-5.8-12.9-12.9V108.2c0-7.1,5.8-12.9,12.9-12.9H723c7.1,0,12.9,5.8,12.9,12.9     v534.7C736,650,730.2,655.8,723,655.8z"></path>
		</g>
		<g>
			<path class="st6" d="M736,127.5H256.3v-19.3c0-7.1,5.8-12.9,12.9-12.9H723c7.1,0,12.9,5.8,12.9,12.9V127.5z"></path>
		</g>
	</g>
	<g class="st7">
		<g>
			<path class="st8" d="M296.4,95.3c-2.1,12.7-5.7,26-11.7,32.3h7.5c5.5-8.4,8.6-21,10.3-32.3H296.4z"></path>
		</g>
		<g>
			<path class="st8" d="M285.1,95.3h-8.5c-6.2,6.1-13.4,12.3-20.3,16.6v6.9C266.9,113.1,277.6,103.1,285.1,95.3z"></path>
		</g>
		<g>
			<path class="st8" d="M343,95.3c-5.3,9.8-13.7,23.5-22.4,32.3h8.2c9.4-10.8,17.2-24.9,21-32.3H343z"></path>
		</g>
		<g>
			<path class="st8" d="M401.1,95.3h-8.4c-9.4,9.3-26,24.7-40.7,32.3h11.7C379.2,117.3,394.4,102.2,401.1,95.3z"></path>
		</g>
		<g>
			<path class="st8" d="M421.9,95.3h-6.5c-3.8,8.7-12.2,23.9-27.4,32.3h10.9C411.9,117.2,418.9,102.8,421.9,95.3z"></path>
		</g>
		<g>
			<path class="st8" d="M463.7,95.3H454c-5.3,4.9-10,12.3-10,22.8v9.4h6v-9.4C450,105.7,457.9,98.8,463.7,95.3z"></path>
		</g>
		<g>
			<path class="st8" d="M483.3,95.3c-6.1,8.8-15.3,22.8-19.3,32.3h6.5c4.8-10.1,14.8-24.8,20.1-32.3H483.3z"></path>
		</g>
		<g>
			<path class="st8" d="M537,95.3h-6.5c-3,7.2-11.1,23.3-27.2,32.3h10.8C528.4,116.3,535.1,100.7,537,95.3z"></path>
		</g>
		<g>
			<path class="st8" d="M601.4,95.3c-10.2,9.5-28,24.9-42.8,32.3h11.9c16-10.2,32.4-25.3,39.6-32.3H601.4z"></path>
		</g>
		<g>
			<path class="st8" d="M614.5,95.3c-4.3,10.7-10.9,24.9-16.6,32.3h7.3c7.1-10.8,13.5-26.6,15.7-32.3H614.5z"></path>
		</g>
		<g>
			<path class="st8" d="M683.3,95.3H676c-6.9,9.4-22.7,26.5-50.6,32.3h19.8C666.9,118,678.8,102.4,683.3,95.3z"></path>
		</g>
		<g>
			<path class="st8" d="M723.8,95.3c-1.1,9.2-3.4,23.4-9.6,32.2h7c5.2-9.5,7.3-21.8,8.4-30.4C727.9,96.1,725.9,95.4,723.8,95.3z"></path>
		</g>
	</g>
</g>
<g>
	<g class="st9">
		<g>
			<path d="M206.2,384.9c6.7-0.4,28-3.8,14.7-19.8c-14.8-17.7-58.3-15.4-83.2-12.5c-7,0.8-12.7-1.4-16.9-5.2l0,0     c4.6-5.1,10.3-11.3,15.7-17.3c4.1-3.9,9.1-8,13.2-8.7c8.3-1.5,46.5,15.2,55.8,9.2c14.6-9.4-0.6-20.3-7.2-22.1c0,0-3.7-1.4-9-3.3     c0,0,0.1,0,0.1,0c1.7,0.5,3.4,1,5.1,1.4c0.9,0.2,1.7,0.5,2.6,0.7c13.8,3.8,27.6,6.9,33.1,3.4c17-11-0.8-23.4-8.4-25.5     c0,0-4.8-1.8-11.7-4.3l1.7-0.3c13.5,3.7,26.8,6.4,32.1,3c17.6-11.4-0.8-25.9-8.6-28.1c0,0-34.8-13-51-18l1-1.6     c-0.2,0.2-0.4,0.4-0.6,0.7c20-20.7,37.8-40,42.5-48.9c11.2-20.9-11.6-27.4-22.3-17.7c0,0-136.3,51.2-151.5,62.5     c-0.4,0.3-0.8,49.1-1.2,49.4V435c22.8-3.8,49.1-10.9,75.3-23.8C163.8,393.4,199.5,385.3,206.2,384.9z"></path>
		</g>
	</g>
</g>
<g>
	<path class="st10" d="M369.1,226c19.5-16.4,30.2-46.2,75.4-45.3c35.6,0.7,73.7,19.8,92.4,31.3c31.1,19.3,74.4,42.3,92.3,65.4   s93.4,15.6,13.6,57.8c-79.1,41.9-93.6,21.7-184.3,49.7c-44.4,13.7-91.7,19.5-123.6-12.8s-57.4-18.7-90.7-43   c-33.3-24.3-24.3-102.1,44.6-88.8C337.5,249.7,358.5,234.9,369.1,226z"></path>
</g>
<g>
	<path class="st11" d="M361.2,427.1c-23.6,0-47-6.8-69.9-26.4c-27.3-23.3-44.4-26.5-61-29.6c-13.8-2.5-28-5.2-47.6-19.5   c-22.5-16.4-29.7-55.2-16.1-86.4c13.5-31.1,42.4-44.8,79.1-37.7c58.4,11.2,82.7-2.8,108.3-17.6c1.6-0.9,3.3-1.9,5-2.8   c5.9-3.4,11.7-6.9,17.4-10.3c28.7-17.4,55.8-33.8,93.9-30.8c45.1,3.6,97.5,29.7,124.8,45c38.1,21.3,73.1,47.1,85.3,62.9   c6.9,8.9,21.9,15.6,36.4,22.2c19,8.6,36.9,16.7,37.3,29.1c0.4,11.2-13.5,23.8-43.4,39.7c-55.1,29.2-87,26.8-123.9,24   c-30.4-2.3-64.9-4.9-118.3,11.6c-7.8,2.4-16,5.2-23.8,7.8C417,417.6,389,427.1,361.2,427.1z M227.5,227.8   c-27.2,0-48.3,13.4-59.1,38.4c-13.2,30.4-6.3,68.1,15.5,84c19.2,14.1,32.6,16.5,46.8,19.1c16.8,3.1,34.2,6.3,61.9,30   c49,41.9,101,24.2,151.4,7.2c7.9-2.7,16-5.4,23.9-7.8c53.8-16.6,88.5-14,119-11.7c36.6,2.8,68.3,5.2,122.8-23.8   c28.8-15.3,42.7-27.7,42.4-37.9c-0.4-11.2-17.7-19.1-36.1-27.4c-14.8-6.7-30-13.5-37.2-22.8c-12-15.5-46.9-41.2-84.7-62.3   c-27.1-15.2-79.3-41.2-124-44.7c-37.4-3-64.2,13.3-92.7,30.5c-5.6,3.4-11.5,7-17.4,10.3l0,0c-1.7,0.9-3.3,1.9-4.9,2.8   c-26,15-50.5,29.2-109.7,17.8C239.1,228.3,233.1,227.8,227.5,227.8z"></path>
</g>
<g>
	<path class="st10" d="M493.9,470.3c27-14.5,47.5-42.6,105.2-41.8c35.2,0.5,124.9,42.7,109.2,90.6c-7.3,22.2-53.2,42.4-97.2,54.4   s-110.3,45-141.9,15s-58.5-6.4-91.4-29.1c-32.9-22.6-24-94.9,44-82.6C470,485.4,472.8,481.6,493.9,470.3z"></path>
</g>
<g>
	<path class="st8" d="M489.9,499.1c0,0-58-26-67.3,10.6s51.3,57.4,77.3,61c26,3.6,169.8-27.2,169.8-56.2c0-32.2-53.5-31.6-69.8-40.8   c-23.4-13.3-38.1-20-69.8,0S505.2,504.4,489.9,499.1z"></path>
</g>
<g>
	<path class="st8" d="M369.9,251.9c11.1-11.6,39.3-34.7,78.8-5.1c3.1,2.3,9.1,8.3,43.1,13c15.9,2.2,38.8,7.9,47,11.2   c19.7,7.9,44.1,34.1,18.9,56.6c-21.5,19.2-71.9,11.6-123.2,20.9c-34,6.1-68.4,6.5-96.2-11.5c-28-18.2-37.3-0.7-62.1-18.8   c-24.8-18.1-21.6-65.9,29.7-56C342.3,269.1,357,265.4,369.9,251.9z"></path>
</g>
<g>
	<path class="st12" d="M389.1,283c8.7-5.8,37.8-17.8,57.4-2.3c18.1,14.4,44.1,10.8,47.9,24.7c7.4,27.2-83.5,25.5-105.5,16.4   c-22.1-9.2-59.2-4-61.9-25.3C324.4,276.8,378.9,289.8,389.1,283z"></path>
</g>
<g>
	<g class="st9">
		<g>
			<path d="M718.1,385c-19.6-2.6-117.5-27.7-125.5-16.9c-8,10.8-24.1,8.9,7.4,25.9c14.2,7.7,72.9,39.8,123.9,46.7     c4.1,0.6,12.1,1.8,12.1,1.8v-52.2C736,390.4,727.6,386.3,718.1,385z"></path>
		</g>
	</g>
	<g class="st9">
		<g>
			<path d="M688,218.8C687.8,217.2,685.4,216.8,688,218.8L688,218.8z"></path>
		</g>
	</g>
</g>
<g>
	<g>
		<path class="st13" d="M613.7,278.4c0,0,11.3,54,19.9,61.5c7.5,6.4,19.7,0,20.3-11.3c0.3-6.4-7.6-30.6-7.6-30.6L613.7,278.4z"></path>
	</g>
	<g>
		<g>
			<path class="st14" d="M717.2,209.6c-32.1-13-45.6-0.1-48.3,4.2s-13.3-0.5-23,3.3c-11.7,4.5-4.5,14.1-15.3,13.4     c-10.7-0.6-16.3,11.1-16.3,11.1s-51.6-36.9-66.6-40.2c-15-3.3-22.2,12.6-14.3,22.7c6.1,7.8,70.6,59,79.4,68.3     c8.8,9.3,73.6,59.1,65.8,65.8c-9.7,8.3-35,2.3-44.6,1c-19.6-2.6-52.1-8.2-60.1,2.6c-8,10.8-3.8,20.9,16.6,26     c15.7,3.9,53.7,24,104.7,31c43.5,5.9,81.5,17.6,91.9,21V273.2C770.5,253.1,739.6,218.7,717.2,209.6z"></path>
		</g>
	</g>
	<g>
		<path class="st15" d="M669.7,273.4c-0.2,0-0.3,0-0.5-0.1l-53.9-30.6c-0.5-0.3-0.6-0.9-0.4-1.4c0.3-0.5,0.9-0.6,1.4-0.4l53.9,30.6    c0.5,0.3,0.6,0.9,0.4,1.4C670.4,273.2,670.1,273.4,669.7,273.4z"></path>
	</g>
	<g>
		<path class="st15" d="M686.3,246.9c-0.2,0-0.4-0.1-0.5-0.2c-13.2-8.4-46.9-15-47.2-15.1c-0.5-0.1-0.9-0.6-0.8-1.2    c0.1-0.5,0.6-0.9,1.2-0.8c1.4,0.3,34.4,6.7,47.9,15.4c0.5,0.3,0.6,0.9,0.3,1.4C687,246.7,686.7,246.9,686.3,246.9z"></path>
	</g>
	<g>
		<path class="st15" d="M708.3,229.5c-0.3,0-0.6-0.1-0.8-0.4c-2-2.8-23.7-9-36.8-12.2c-0.5-0.1-0.9-0.7-0.7-1.2    c0.1-0.5,0.7-0.9,1.2-0.7c3.6,0.9,34.8,8.7,38,13c0.3,0.4,0.2,1.1-0.2,1.4C708.7,229.5,708.5,229.5,708.3,229.5z"></path>
	</g>
</g>
<g>
	<g>
		<g class="st9">
			<g>
				<path d="M483.3,433.7C483.4,433.7,483.4,433.8,483.3,433.7C483.4,433.8,483.4,433.7,483.3,433.7z"></path>
			</g>
		</g>
		<g>
			<g class="st9">
				<g>
					<path d="M669.3,573.4c-11.6-28.5-17.9-38.6-23.2-44.3c-26.3-28.3-31.2-33.7-43.8-37.3c-2.1-0.6-9.3,0.3-12.2,2.5       c-0.7,0.5-0.9,1.2-1,1c-4.6-5.6-6.4-8.3-10.1-11.4c-11.4-9.5-20.8-6.8-27.2-2.2c-0.3,0.2-7.1-9.3-8.4-10.9       c-6.9-8.3-23.4-29.5-35.4-42.4c-7.4-8-15.7-11.8-21.8-5.7c-5.3,5.4-3.2,10.3-2.9,11c0,0.1,0,0.1,0,0.1s0,0,0-0.1       c-0.2-0.4-1.2-2.3-2.7-3.7c-6.1-6-17.6,0.9-17.4,13c0.4,22.5,28.9,72.4,54.6,126.4c25.7,54,24.6,61.9,11.5,71.9       c-16.3,12.5-57-26.3-68-37.3c-17-17.2-54-8.9-26.1,27c7.1,9.2,13.1,17.3,18.5,24.8h243.6C688.6,627.7,677.5,593.6,669.3,573.4z       "></path>
				</g>
			</g>
		</g>
	</g>
	<g>
		<g>
			<path class="st16" d="M461.3,429.7C461.4,429.7,461.4,429.8,461.3,429.7C461.4,429.8,461.4,429.7,461.3,429.7z"></path>
		</g>
		<g>
			<path class="st16" d="M647.3,569.4c-11.6-28.5-17.9-38.6-23.2-44.3c-26.3-28.3-31.2-33.7-43.8-37.3c-2.1-0.6-9.3,0.3-12.2,2.5     c-0.7,0.5-0.9,1.2-1,1c-4.6-5.6-6.4-8.3-10.1-11.4c-11.4-9.5-20.8-6.8-27.2-2.2c-0.3,0.2-7.1-9.3-8.4-10.9     c-6.9-8.3-23.4-29.5-35.4-42.4c-7.4-8-15.7-11.8-21.8-5.7c-5.3,5.4-3.2,10.3-2.9,11c0,0.1,0,0.1,0,0.1s0,0,0-0.1     c-0.2-0.4-1.2-2.3-2.7-3.7c-6.1-6-17.6,0.9-17.4,13c0.4,22.5,28.9,72.4,54.6,126.4c25.7,54,24.6,61.9,11.5,71.9     c-16.3,12.5-56-27.4-68-37.3c-20.8-17.3-54-8.9-26.1,27c24,30.9,34.7,50.3,56,71.5h220.1C686.8,689.8,662.4,606.5,647.3,569.4z"></path>
		</g>
	</g>
	<g>
		<path class="st17" d="M543.2,553.7c-0.3,0-0.6-0.2-0.8-0.4l-81.8-123c-0.3-0.5-0.2-1.1,0.3-1.4c0.5-0.3,1.1-0.2,1.4,0.3l81.8,123    c0.3,0.5,0.2,1.1-0.3,1.4C543.6,553.7,543.4,553.7,543.2,553.7z"></path>
	</g>
	<g>
		<path class="st17" d="M572.9,545.4c-0.3,0-0.7-0.2-0.9-0.5c-0.3-0.5-26.6-45.8-43.1-66.6c-0.3-0.4-0.3-1.1,0.2-1.4    c0.4-0.3,1.1-0.3,1.4,0.2c16.6,20.9,43,66.4,43.2,66.9c0.3,0.5,0.1,1.1-0.4,1.4C573.2,545.4,573.1,545.4,572.9,545.4z"></path>
	</g>
	<g>
		<path class="st17" d="M600,539.1c-0.3,0-0.7-0.2-0.9-0.5c-17.5-30.3-32.6-46.5-32.8-46.6c-0.4-0.4-0.4-1,0-1.4    c0.4-0.4,1-0.4,1.4,0c0.2,0.2,15.5,16.5,33.1,47c0.3,0.5,0.1,1.1-0.4,1.4C600.3,539.1,600.1,539.1,600,539.1z"></path>
	</g>
</g>
<g>
	<g>
		<path class="st18" d="M229.4,145.4c0,0-38.3-14.3-53.2-18.6c-14.9-4.3-28.7,7.2-28.7,7.2L47,248.7l58.3-1c0,0,13.5-14.5,25.3-27.7    c4.1-3.9,9.1-8,13.2-8.7c8.3-1.5,46.5,15.2,55.8,9.2c14.6-9.4-0.6-20.3-7.2-22.1c0,0-3.7-1.4-9-3.3c15.9,4.6,34.4,9.8,40.8,5.6    c17-11-0.8-23.4-8.4-25.5c0,0-10-3.7-21.5-7.9c3.8,1.1,7.7,2.2,11.6,3.3c13.5,3.7,26.8,6.4,32.1,3    C255.6,162.1,237.3,147.6,229.4,145.4z"></path>
	</g>
	<g>
		<g>
			<path class="st18" d="M221.3,77.5c11.2-20.9-11.6-27.4-22.3-17.7c0,0-136.3,99.7-151.5,111c-6.8,5.1-26,22.7-46.6,42.1v116.2     c26.4-0.4,73.8-5,120.7-28c36.2-17.8,71.9-25.9,78.6-26.3c6.7-0.4,28-3.8,14.7-19.8c-14.8-17.7-58.3-15.4-83.2-12.5     c-24.8,2.9-32.6-31.7-20.8-46.5C122.7,181.2,209.8,99,221.3,77.5z"></path>
		</g>
	</g>
	<g>
		<path class="st19" d="M114.8,238.4c-0.2,0-0.5-0.1-0.7-0.3c-10.9-9.9-12.9-31.4-4-42.6c4.2-5.3,17.5-18.7,34.3-35.6    c10.7-10.8,22.9-23.1,34.2-34.8c0.4-0.4,1-0.4,1.4,0c0.4,0.4,0.4,1,0,1.4c-11.3,11.7-23.5,24-34.3,34.8    c-16.1,16.2-30,30.2-34.2,35.5c-8.3,10.5-6.4,30.6,3.8,39.9c0.4,0.4,0.4,1,0.1,1.4C115.4,238.2,115.1,238.4,114.8,238.4z"></path>
	</g>
	<g>
		<path class="st19" d="M145.9,183.4c-0.2,0-0.4-0.1-0.6-0.2c-0.4-0.3-0.5-1-0.2-1.4c0.6-0.8,15-18.5,25.3-20.4    c4.3-0.8,14.1,2,25.4,5.3c3.4,1,6.9,2,10.4,2.9c0.5,0.1,0.8,0.7,0.7,1.2c-0.1,0.5-0.7,0.8-1.2,0.7c-3.5-0.9-7-1.9-10.4-2.9    c-10.6-3-20.7-5.9-24.5-5.2c-9.6,1.7-24,19.5-24.1,19.7C146.5,183.3,146.2,183.4,145.9,183.4z"></path>
	</g>
	<g>
		<path class="st19" d="M135.8,210l-1.5-1.3c0.1-0.1,0.3-0.3,0.6-0.7c10.2-12.9,13-42.6,13-42.9c0.1-0.5,0.5-1,1.1-0.9    c0.5,0.1,1,0.5,0.9,1.1c-0.1,1-2,21.1-8.6,35.6c5-5.1,11.9-10.9,17.5-11.9c4.1-0.7,13.6,2,24.6,5.1c2.6,0.8,5.4,1.5,8.1,2.3    c0.5,0.1,0.8,0.7,0.7,1.2c-0.1,0.5-0.7,0.8-1.2,0.7c-2.7-0.8-5.5-1.5-8.1-2.3c-10.3-2.9-20-5.7-23.7-5.1    c-8.3,1.5-20.2,15.3-22.8,18.4C136.2,209.5,136,209.8,135.8,210z"></path>
	</g>
</g>
<g>
	<path class="st17" d="M458,450.7c-1.7,0-3.3-0.5-4.7-1.6c-4.7-3.5-7.9-16.7-8-17.2c-0.1-0.5,0.2-1.1,0.7-1.2   c0.5-0.1,1.1,0.2,1.2,0.7c0.9,3.6,3.8,13.5,7.3,16.1c2.6,1.9,5.4,1,6.7,0.3c2.3-1.1,3.7-3,3.7-3.9c0-0.6,0.4-1,1-1s1,0.4,1,1   c0,1.9-2,4.3-4.8,5.7C460.8,450.4,459.4,450.7,458,450.7z"></path>
</g>
<g>
	<path class="st17" d="M477.7,438.4c-1.7,0-3.3-0.5-4.7-1.6c-4.7-3.5-9.2-14.5-9.4-15c-0.2-0.5,0-1.1,0.5-1.3c0.5-0.2,1.1,0,1.3,0.5   c0,0.1,4.5,11,8.8,14.2c2.6,1.9,5.4,1,6.8,0.3c2.3-1.1,3.7-3,3.7-3.9c0-0.6,0.4-1,1-1s1,0.4,1,1c0,1.9-2,4.3-4.8,5.7   C480.4,438.1,479,438.4,477.7,438.4z"></path>
</g>
<g>
	<path class="st15" d="M546.1,221.9c-1.6,0-3.3-0.4-5.2-1.3c-5.5-2.8-6.6-3.9-6.8-4.2c-0.3-0.4-0.2-1.1,0.2-1.4   c0.4-0.3,1-0.2,1.4,0.2c0.1,0.1,1.1,1.1,6.1,3.6c5.5,2.8,9.5-0.1,11.2-3.5c1.4-2.7,1.2-5.4-0.3-6.2c-0.5-0.3-0.7-0.9-0.4-1.3   c0.3-0.5,0.9-0.7,1.3-0.4c2.6,1.3,3.1,5.2,1.2,8.9C553.1,219.4,550,221.9,546.1,221.9z"></path>
</g>
<g>
	<path class="st19" d="M194,274.1c-0.4,0-0.8-0.3-1-0.7c-0.1-0.3-2.3-7.4,0.9-10.7c4.1-4.2,16-6,20.8-2c0.4,0.3,0.5,1,0.1,1.4   c-0.3,0.4-1,0.5-1.4,0.1c-4-3.3-14.7-1.7-18.2,1.9c-2,2-1,7-0.5,8.7c0.2,0.5-0.1,1.1-0.7,1.3C194.2,274.1,194.1,274.1,194,274.1z"></path>
</g>
<g>
	<path class="st21" d="M787.2,492.2c-0.6,0-1-0.4-1-1V254.3c0-0.6,0.4-1,1-1s1,0.4,1,1v236.9C788.2,491.8,787.7,492.2,787.2,492.2z"></path>
</g>
<g>
	<path class="st21" d="M1,375.3c-0.6,0-1-0.4-1-1V185.5c0-0.6,0.4-1,1-1s1,0.4,1,1v188.8C2,374.8,1.6,375.3,1,375.3z"></path>
</g>
<g>
	<path class="st21" d="M719.4,699.5H449.1c-0.6,0-1-0.4-1-1s0.4-1,1-1h270.3c0.6,0,1,0.4,1,1S720,699.5,719.4,699.5z"></path>
</g>
</svg>