<svg xmlns="http://www.w3.org/2000/svg" xmlns:xlink="http://www.w3.org/1999/xlink" id="Layer_1" x="0px" y="0px" viewBox="0 0 789.5 699.5" style="enable-background:new 0 0 789.5 699.5;" width="809px" height="718px" xml:space="preserve">
<style type="text/css">
	.st0{fill:#5C50D6;}
	.st1{fill:#81B0FF;}
	.st2{opacity:0.3;}
	.st3{fill:#FFFFFF;}
	.st4{fill:#201649;}
	.st5{fill:#FFCBBB;}
	.st6{fill:#FFFDE6;}
	.st7{opacity:0.1;}
	.st8{fill:#33419E;}
	.st9{fill:#FFEBB2;}
	.st10{fill:#F7C86D;}
	.st11{fill:#001468;}
	.st12{fill:#FFAA42;}
	.st13{clip-path:url(#SVGID_2_);}
	.st14{opacity:0.15;}
	.st15{opacity:0.24;}
	.st16{fill:#4080FE;}
	.st17{opacity:0.4;}
	.st18{fill:#231F20;}
	.st19{fill:#DD8773;}
	.st20{fill:#FCD456;}
	.st21{fill:#FFD066;}
	.st22{fill:#3350FE;}
	.st23{opacity:0.5;}
</style>
<g>
	<path class="st0" d="M254.1,112.5c-1.1,0-2.6-0.7-4.5-3.2c-1.6-2.2-3.2-5.3-4.3-8.7c-2.2-6.7-2.8-14.1,0.6-15.2   c1.1-0.4,2.9-0.1,5.3,3c1.6,2.2,3.2,5.3,4.3,8.7c2.2,6.7,2.8,14.1-0.6,15.2C254.6,112.5,254.4,112.5,254.1,112.5z M246.7,87.3   c-0.1,0-0.1,0-0.2,0c-1.3,0.4-1.7,5.7,0.7,12.6c1.1,3.2,2.5,6.1,4,8.2c1.4,1.9,2.5,2.5,3,2.3c1.3-0.4,1.7-5.7-0.7-12.6   c-1.1-3.2-2.5-6.1-4-8.2C248.3,88,247.3,87.3,246.7,87.3z"></path>
</g>
<g>
	<rect x="484.7" y="198.7" class="st0" width="254.6" height="278.5"></rect>
</g>
<g>
	<path class="st1" d="M698.8,276.4H508.3v-43.1h190.5V276.4z M510.3,274.4h186.5v-39.1H510.3V274.4z"></path>
</g>
<g>
	<path class="st1" d="M698.8,341.6H508.3v-43.1h190.5V341.6z M510.3,339.6h186.5v-39.1H510.3V339.6z"></path>
</g>
<g class="st2">
	<path class="st3" d="M788.5,53.2H247.6c-0.6,0-1-0.4-1-1s0.4-1,1-1h540.9c0.6,0,1,0.4,1,1S789,53.2,788.5,53.2z"></path>
</g>
<g>
	<path class="st3" d="M765,6c9.6,0,17.5,7.9,17.5,17.5v527.8c0,9.6-7.9,17.5-17.5,17.5H118.5c-9.6,0-17.5-7.9-17.5-17.5V23.5   c0-9.6,7.9-17.5,17.5-17.5H765 M765,0H118.5C105.5,0,95,10.5,95,23.5v527.8c0,13,10.5,23.5,23.5,23.5H765c13,0,23.5-10.5,23.5-23.5   V23.5C788.5,10.5,777.9,0,765,0L765,0z"></path>
</g>
<g>
	<path class="st4" d="M236.3,87.5c4.3-14.4-4.1-43.5-38.5-33.7c-51.5,0.7-63.6,34.7-66.9,56.2c-4,26.1-11.1,27.1-30.3,29.5   c-21.3,2.6-58.2,8.9-47.6,59.2c5.5,26.1-64.4,46.2-17.8,95.9c19.3,20.5,65.3,24,65.3,24S234.5,93.6,236.3,87.5z"></path>
</g>
<g>
	<g>
		<path class="st5" d="M648.2,30.6c-24.3,7.8-41,22.2-41,22.2l0,0c-25.1,16.4-68.1,55.9-129,96.6c-32.2,21.5-66.1,28.6-98.9,30.6    c0.4,21-3.4,46.7-1.9,67c29-0.3,67.3-2,102.9-19.1c75.7-36.3,107.9-96,148.5-131.5c19.5-17,31-45.3,31-45.3L648.2,30.6z"></path>
	</g>
	<g>
		<path class="st6" d="M277.2,181.2c-37.6,4-143.1,18.9-143.1,18.9c-21.8,4.4-53,69.7-53,69.7l43.5,35.8l21.4,126.1l127.8-3.3    c0,0,32-89.8,34-113c2.1-6.1-5.4-27.7-4.3-34.6c4.3-28.9,38.5-31,80.6-31.4c-1.5-20.3-2.3-48.5-2.6-69.4    C344.4,180.5,307.7,177.9,277.2,181.2z"></path>
	</g>
</g>
<g>
	<g>
		<path class="st0" d="M302.5,560c-2.3-52-25.3-136.5-25.3-136.5H173.5l16.8,275h125.3C313.4,683.3,305.5,626.2,302.5,560z"></path>
	</g>
</g>
<g class="st7">
	<polygon points="217.4,431.6 210.9,522.9 207.5,698.7 190.3,698.5 173.5,423.5  "></polygon>
</g>
<g>
	<g>
		<path class="st0" d="M217.3,529.5l23.6-106l-93.1-6.7c0,0-50.7,63.7-79.9,132.7c-9.5,22.3-55.5,127.2-65.1,149h131.4L217.3,529.5z    "></path>
	</g>
</g>
<g>
	<g>
		<path class="st8" d="M280.8,444.5h-95.2c-0.6,0-1-0.4-1-1s0.4-1,1-1h95.2c0.6,0,1,0.4,1,1S281.4,444.5,280.8,444.5z"></path>
	</g>
	<g>
		<path class="st8" d="M201.3,566.7c-0.1,0-0.3,0-0.4-0.1c-0.5-0.2-0.7-0.8-0.5-1.3c34.9-74.5,43.4-118.2,43.5-118.7    c0.1-0.5,0.6-0.9,1.2-0.8c0.5,0.1,0.9,0.6,0.8,1.2c-0.1,0.4-8.6,44.5-43.6,119.1C202,566.5,201.7,566.7,201.3,566.7z"></path>
	</g>
	<g>
		<path class="st8" d="M45.2,692c-0.1,0-0.3,0-0.4-0.1c-0.5-0.2-0.7-0.8-0.5-1.3c0.5-1.2,52.3-121.8,64.3-156.1    c17.6-50.3,63.9-94.9,64.3-95.4c0.4-0.4,1-0.4,1.4,0s0.4,1,0,1.4c-0.5,0.4-46.4,44.8-63.8,94.6c-12,34.4-63.8,155-64.3,156.2    C45.9,691.8,45.5,692,45.2,692z"></path>
	</g>
	<g>
		<path class="st8" d="M127,499.5c-0.4,0-0.9-0.3-1-0.8c-0.1-0.5,0.2-1.1,0.7-1.2c0.5-0.1,48.1-12.7,73.7-54.5    c0.3-0.5,0.9-0.6,1.4-0.3c0.5,0.3,0.6,0.9,0.3,1.4c-26,42.5-74.4,55.3-74.9,55.4C127.2,499.5,127.1,499.5,127,499.5z"></path>
	</g>
	<g>
		<path class="st8" d="M252.2,434.5h-11c-0.6,0-1-0.4-1-1s0.4-1,1-1h11c0.6,0,1,0.4,1,1S252.7,434.5,252.2,434.5z"></path>
	</g>
	<g>
		<path class="st8" d="M289,489.2c-0.3,0-0.6-0.2-0.8-0.5c-4.9-7.5-12.3-32.5-12.6-33.6c-0.2-0.5,0.1-1.1,0.7-1.2    c0.5-0.2,1.1,0.1,1.2,0.7c0.1,0.3,7.6,25.8,12.3,33.1c0.3,0.5,0.2,1.1-0.3,1.4C289.4,489.1,289.2,489.2,289,489.2z"></path>
	</g>
</g>
<g class="st7">
	<path d="M102,483.7c42.7,11.8,104.1-28.8,187-85.8c21.8-15,84.5-16.1,84.5-16.1s-11.5-23-40.1-21.3c-39.3,2.3-81.7,17.5-163.7,42.1   C138.2,412.1,115.9,466.1,102,483.7z"></path>
</g>
<g>
	<path class="st5" d="M116.9,215c0,0-55.1,55.2-70.5,174.1s106.7,87,267.7-8.4c22.8-13.5,36-49.5,7.4-47.9   c-12.1,0.7-24.4,5.8-38.9,10.6c-30.1,10-56.9,25-113.1,43.6c-31.2,10.3-58.9,18.7-42.1-30c12.9-37.3,31.4-93.7,33.1-109.3   C163.1,225.5,164.1,183.1,116.9,215z"></path>
</g>
<g>
	<g>
		<path class="st6" d="M161.7,247.8c2.4-22.3,5.2-70.4-41.9-38.5c0,0-41.6,43.8-63.6,129.5h82.1C150.3,303.4,160.2,261,161.7,247.8z    "></path>
	</g>
</g>
<g>
	<g>
		<path class="st9" d="M215.9,351.5c-6.5-4.3-12.6-5.2-18.4-6c-11.4-1.5-21.2-2.9-33-31.1c-8.4-20-29-20.3-48.8-20.5    c-17.2-0.2-32.5-0.4-40-12c-0.9,2.1-1.8,4.2-2.7,6.3c9.9,11.2,27.1,11.5,42.6,11.7c18.8,0.2,36.5,0.5,43.4,16.8    c13.2,31.5,25.7,33.1,37.7,34.8c5.4,0.7,10.6,1.4,15.9,5c3.5,2.3,6.8,6.2,9.8,10.6c1.9-0.8,3.7-1.5,5.6-2.3    C224.4,359.3,220.3,354.5,215.9,351.5z"></path>
	</g>
	<g>
		<path class="st9" d="M104.9,272c6.9,1.5,14.2,1.2,21.9,0.9c20.1-0.8,39.1-1.6,51.2,27.4c9.5,22.8,25.8,22.5,39,22.3    c7.5-0.1,13.9-0.2,18,3.6c12.3,11.8,21.7,40.9,21.8,41.2c0.4,1.3,1.6,2.1,2.9,2.1c0.3,0,0.6,0,0.9-0.1c1.6-0.5,2.4-2.2,1.9-3.8    c-0.4-1.3-10-30.9-23.4-43.8c-5.8-5.6-14.2-5.4-22.2-5.3c-12.5,0.2-25.4,0.5-33.4-18.6c-13.7-32.9-36.7-32-57-31.1    c-7.4,0.3-14.3,0.6-20.4-0.7c-6.2-1.3-11.6-7.3-15.9-14.1c-1.1,1.9-2.2,3.9-3.3,6C91.7,264.6,97.6,270.4,104.9,272z"></path>
	</g>
	<g>
		<path class="st9" d="M143.1,224.2c11.3,16.7,27.4,18.5,43,20.2c16.8,1.9,32.6,3.6,41.5,24.8c9.5,22.8,25.9,22.5,39,22.3    c7.5-0.1,13.9-0.2,18,3.6c9.2,8.8,16.8,27.2,20.1,36.2c1-3.9,1.8-7.5,2.3-10.6c-4.2-9.9-10.6-22.6-18.2-30    c-5.8-5.6-14.2-5.4-22.2-5.3c-12.5,0.2-25.4,0.5-33.4-18.6c-10.2-24.4-28.6-26.5-46.3-28.5c-14.9-1.7-28.9-3.2-38.7-17.6    c-7.2-10.6-13.4-16.3-18.4-19.3c-2,1-3.8,2.3-5.3,4C128.6,207.3,135,212.1,143.1,224.2z"></path>
	</g>
	<g>
		<path class="st9" d="M273.8,243.1c8.3-0.4,16.1-0.8,23.2,5.9c4.6,4.3,8.7,11,12.1,17.7c1.3-1.7,2.8-3.2,4.4-4.5    c-3.5-6.6-7.7-13.1-12.5-17.6c-9-8.4-18.9-7.9-27.7-7.5c-11.5,0.6-20.7,1.1-27.9-16.4c-1.5-3.5-3.1-6.5-4.9-9.2    c-1.5,1.2-3.2,2.3-5.1,3.3c1.6,2.4,3.1,5.1,4.4,8.2C248.9,244.3,262.2,243.7,273.8,243.1z"></path>
	</g>
	<g>
		<path class="st9" d="M185.7,372.3c-12.2,0.2-23.8,0.4-31.3-18.1c-9.6-23.9-27-25.9-43.8-27.9c-14-1.6-27.2-3.1-36.3-17.1    c-2.2-3.4-4.3-6.2-6.3-8.6c-0.8,2.2-1.6,4.4-2.4,6.7c1.2,1.6,2.4,3.3,3.7,5.3c10.7,16.3,25.9,18.1,40.6,19.8    c16.4,1.9,30.6,3.6,38.9,24.2c1.4,3.4,2.9,6.3,4.6,8.8l6.7,7.3c8.1,6.1,17.5,5.9,25.6,5.8c3-0.1,5.8-0.1,8.3,0.1    c3-1.1,6.1-2.3,9.2-3.6C198.1,372,191.8,372.1,185.7,372.3z"></path>
	</g>
	<g>
		<path class="st9" d="M302.6,207c16.8,1.9,32.6,3.6,41.5,24.8c4,9.6,9.2,15.1,14.8,18.2c7.9-0.5,16.3-0.6,25.1-0.7    c0-0.4-0.1-0.8-0.1-1.2c-0.3,0-0.6,0-0.9,0c-12.5,0.2-25.4,0.5-33.4-18.6c-10.2-24.4-28.6-26.5-46.3-28.5    c-14.9-1.7-28.9-3.2-38.7-17.6c-0.2-0.3-0.4-0.5-0.6-0.8c-2.2,0.3-4.4,0.5-6.8,0.8c0.8,1.1,1.6,2.2,2.4,3.3    C270.9,203.5,287,205.3,302.6,207z"></path>
	</g>
	<g>
		<path class="st9" d="M353.9,211.3c7.2,17.3,18.4,21.3,29.1,22.1c-0.1-2-0.2-4-0.3-6.1c-9-0.9-17.5-4.5-23.3-18.4    c-10.2-24.4-28.6-26.5-46.3-28.5c-2.5-0.3-5-0.6-7.5-0.9c-6.8,0.1-13.5,0.4-19.9,0.8c8.4,4,17.6,5,26.7,6    C329.2,188.3,345,190.1,353.9,211.3z"></path>
	</g>
</g>
<g>
	<g>
		<g>
			<g>
				<polygon class="st10" points="470.9,466.9 450.7,522.9 747.4,534.2 767.2,466.9     "></polygon>
			</g>
			<g>
				<path class="st11" d="M747.4,535.2C747.4,535.2,747.4,535.2,747.4,535.2l-296.7-11.3c-0.3,0-0.6-0.2-0.8-0.4      c-0.2-0.3-0.2-0.6-0.1-0.9l20.2-56c0.1-0.4,0.5-0.7,0.9-0.7h296.3c0.3,0,0.6,0.1,0.8,0.4c0.2,0.3,0.2,0.6,0.2,0.9l-19.8,67.3      C748.2,534.9,747.9,535.2,747.4,535.2z M452.2,522l294.5,11.2l19.2-65.2H471.6L452.2,522z"></path>
			</g>
		</g>
		<g>
			<g>
				<polygon class="st12" points="414.9,688.5 414.9,522.9 470.9,466.9 470.9,688.5     "></polygon>
			</g>
			<g>
				<path class="st11" d="M470.9,689.5h-56c-0.6,0-1-0.4-1-1V522.9c0-0.3,0.1-0.5,0.3-0.7l56-56c0.3-0.3,0.7-0.4,1.1-0.2      c0.4,0.2,0.6,0.5,0.6,0.9v221.6C471.9,689.1,471.5,689.5,470.9,689.5z M415.9,687.5h54V469.3l-54,54V687.5z"></path>
			</g>
		</g>
	</g>
</g>
<g>
	<g>
		<defs>
			<rect id="SVGID_1_" x="456.5" y="331.7" width="237.6" height="367.5"></rect>
		</defs>
		<use xlink:href="#SVGID_1_" style="overflow:visible;fill:#FFFFFF;"></use>
		<clipPath id="SVGID_2_">
			<use xlink:href="#SVGID_1_" style="overflow:visible;"></use>
		</clipPath>
		<g class="st13">
			<g class="st14">
				<path class="st3" d="M587.6,432.9c-6.4-34-44.8-74.4-74.3-101.2H407.9v67.7c30.2,17.1,58.6,34.5,84.6,52.1      c23.8,16.1,45.5,32.4,64.9,48.8C572.5,484.4,592.4,458,587.6,432.9z"></path>
			</g>
			<g class="st15">
				<path class="st3" d="M557.4,500.4c-40.6-34.5-91.8-68.2-149.5-101v302.7h216.7c21.8-24.1,37.7-59.2,15.6-103.9      C623.8,565,595.2,532.4,557.4,500.4"></path>
			</g>
		</g>
	</g>
	<g>
		<g class="st15">
			<rect x="456.5" y="331.7" class="st1" width="237.6" height="367.5"></rect>
		</g>
		<g>
			<g>
				<g>
					<g class="st14">
						<path class="st1" d="M557.4,500.4c15.1-15.9,34.9-42.4,30.2-67.5c-6.4-34-44.8-74.4-74.3-101.2h-56.8v96.6        c12.4,7.7,24.4,15.5,36,23.3C516.3,467.6,538.1,483.9,557.4,500.4z"></path>
					</g>
				</g>
				<g>
					<g class="st15">
						<path class="st1" d="M640.2,598.3c-16.4-33.2-45.1-65.9-82.8-97.9c-28.8-24.5-62.9-48.5-100.9-72.1v268.9h172.3        C648.3,673.3,660.8,640,640.2,598.3z"></path>
					</g>
				</g>
			</g>
		</g>
		<g class="st7">
			<polygon points="635.3,331.7 615.9,331.7 591.1,523.4 627,523.4    "></polygon>
		</g>
	</g>
</g>
<g>
	<g>
		
			<rect x="414.6" y="232.1" transform="matrix(5.893367e-002 -0.9983 0.9983 5.893367e-002 352.6864 971.6395)" class="st3" width="554.2" height="133.3"></rect>
	</g>
	<g>
		<g>
			
				<rect x="443.7" y="289.3" transform="matrix(5.893367e-002 -0.9983 0.9983 5.893367e-002 337.6231 953.6445)" class="st16" width="461.9" height="16.9"></rect>
		</g>
		<g class="st17">
			
				<rect x="486.1" y="296.6" transform="matrix(5.893367e-002 -0.9983 0.9983 5.893367e-002 374.4221 998.2871)" class="st1" width="461.3" height="7.9"></rect>
		</g>
	</g>
</g>
<g>
	<g>
		<g>
			<path class="st5" d="M252,184.1l-14.3,1.9l-6.4-36.9l-47.7-17.6l-9.3,62.9c2.2,17,25.1,27.9,46.6,25.1     C242.3,216.6,254.3,201.1,252,184.1z"></path>
		</g>
		<g class="st7">
			<path d="M230,144.2l3.7,18c-47-4.5-36.7-40.3-36.7-40.3L230,144.2z"></path>
		</g>
		<g>
			<path class="st5" d="M207.2,65.4c0,0,12.6-3.7,19.7,3.3c11.6,11.4,12.5,25.4,18.9,31.7c3.2,3.2,10.8,6.7,12.3,7.8     c4.7,3.3-2,7.6-6,10.8c0,0,6.8,21.9,2.9,29c-6.1,11.4-41.9,7.7-50.8,4.8c-8.9-3-21.3-23.7-19.2-46.3     C186,94.8,187.5,75.6,207.2,65.4z"></path>
		</g>
		<g>
			<g>
				
					<ellipse transform="matrix(0.8937 -0.4486 0.4486 0.8937 -21.37 116.0351)" class="st18" cx="234.2" cy="103.1" rx="1.9" ry="2.5"></ellipse>
			</g>
			<g>
				<path class="st5" d="M225.8,97.3c0,0,3.7-3.4,6.7-4.8"></path>
			</g>
		</g>
		<g>
			<path class="st4" d="M233.7,73.8c0,0-10.6-12.9-10.6-11.5c0.4,15.1,6,19.2-24.6,50.7c-3.2,3.3-11.3,7.1-9.6,18.9     c5.9,40.6,9.2,73.7-29.2,67.8c-32.2-4.9-39.1,8.3-56.1,28.1c-6.1,7.1-31.8-5.6-23.1-21c14.4-25.5,92.6-83.7,84.4-100.2     c-0.4-0.8-11.4-36.1,28-51.2C227.3,42.3,233.7,73.8,233.7,73.8z"></path>
		</g>
		<g>
			<path class="st0" d="M170.9,121c0,0-0.1,0-0.1,0c-0.5-0.1-0.9-0.6-0.9-1.1c1-8.9,16-10.8,16.6-10.9l29.7-6     c0.5-0.1,1.1,0.2,1.2,0.8c0.1,0.5-0.2,1.1-0.8,1.2l-29.8,6c-0.2,0-14.1,1.8-15,9.1C171.9,120.6,171.5,121,170.9,121z"></path>
		</g>
		<g>
			<path class="st5" d="M184.5,133.5c8.1,2.8,16.6-0.9,19.1-8.3c2.4-7.4-2.2-15.8-10.3-18.6s-16.6,0.9-19.1,8.3     C171.8,122.3,176.4,130.6,184.5,133.5z"></path>
		</g>
		<g>
			<path class="st19" d="M184.7,118.3c-0.6,0-1-0.4-1-1c0-0.9,0.5-3,2.2-4.3c1.7-1.2,4.1-1.3,7.1-0.3c0.5,0.2,0.8,0.7,0.6,1.3     c-0.2,0.5-0.7,0.8-1.3,0.6c-2.4-0.8-4.2-0.8-5.3,0c-1.3,0.9-1.4,2.6-1.4,2.7C185.7,117.9,185.3,118.3,184.7,118.3z"></path>
		</g>
	</g>
</g>
<g>
	<g>
		<g>
			<path class="st20" d="M139.7,339.7h-3.9c-0.6,0-1-0.4-1-1s0.4-1,1-1h2.5c12.2-35.7,21.1-77.5,22.5-90c0.9-8.2,3.6-33.3-5.1-43.5     c-0.4-0.4-0.3-1.1,0.1-1.4c0.4-0.4,1.1-0.3,1.4,0.1c8.3,9.7,7.1,30.3,5.5,45c-1.4,12.7-10.4,55.2-22.8,91.1L139.7,339.7z"></path>
		</g>
	</g>
	<g>
		<g>
			<path class="st20" d="M215.6,229.9c-17.9,0-35-7.2-43.6-18.9c-0.3-0.4-0.2-1.1,0.2-1.4c0.4-0.3,1.1-0.2,1.4,0.2     c9.4,12.8,30.5,20.1,50.3,17.5c12.2-1.6,22.2-6.7,29-14.6c6.4-7.5,9.2-17.1,7.9-27c-0.1-0.5,0.3-1,0.9-1.1c0.6-0.1,1,0.3,1.1,0.9     c1.4,10.5-1.6,20.6-8.3,28.6c-7.1,8.3-17.5,13.6-30.2,15.3C221.3,229.7,218.5,229.9,215.6,229.9z"></path>
		</g>
	</g>
	<g>
		<path class="st20" d="M373.9,248c-0.5,0-1-0.4-1-1l-1.6-62.8c0-0.6,0.4-1,1-1c0.5,0,1,0.4,1,1l1.6,62.8    C374.9,247.6,374.5,248,373.9,248C373.9,248,373.9,248,373.9,248z"></path>
	</g>
	<g>
		<path class="st20" d="M141.3,329.2H65.2c-0.6,0-1-0.4-1-1s0.4-1,1-1h76.1c0.6,0,1,0.4,1,1S141.9,329.2,141.3,329.2z"></path>
	</g>
</g>
<g>
	<path class="st0" d="M231.1,120.8c-5.4,0-11-3.7-13.8-9.6c-3.7-7.9-1.4-16.8,5.2-19.9c3.2-1.5,7-1.5,10.5,0.2   c3.5,1.6,6.4,4.6,8.2,8.4v0c1.8,3.8,2.3,7.9,1.3,11.7c-1,3.8-3.3,6.8-6.5,8.3C234.4,120.5,232.8,120.8,231.1,120.8z M227.4,92.1   c-1.4,0-2.8,0.3-4.1,0.9c-5.6,2.7-7.5,10.4-4.2,17.3c3.3,6.9,10.5,10.3,16.1,7.6c2.7-1.3,4.6-3.8,5.4-7c0.8-3.3,0.4-6.9-1.2-10.3v0   c-1.6-3.4-4.2-6-7.3-7.4C230.5,92.5,228.9,92.1,227.4,92.1z"></path>
</g>
<g>
	<path class="st5" d="M252,184.1l-2.3,0.3C250.5,184.3,251.3,184.2,252,184.1C252,184.1,252,184.1,252,184.1z"></path>
</g>
<g>
	<g>
		<rect x="414.9" y="522.9" class="st21" width="296.3" height="175.6"></rect>
	</g>
	<g>
		<path class="st11" d="M711.2,699.5H414.9c-0.6,0-1-0.4-1-1V522.9c0-0.6,0.4-1,1-1h296.3c0.6,0,1,0.4,1,1v175.6    C712.2,699.1,711.8,699.5,711.2,699.5z M415.9,697.5h294.3V523.9H415.9V697.5z"></path>
	</g>
</g>
<g>
	<g>
		<g>
			<g>
				<polygon class="st12" points="711.2,698.5 711.2,522.9 767.2,466.9 767.2,698.5     "></polygon>
			</g>
			<g>
				<path class="st11" d="M767.2,699.5h-56c-0.6,0-1-0.4-1-1V522.9c0-0.3,0.1-0.5,0.3-0.7l56-56c0.3-0.3,0.7-0.4,1.1-0.2      c0.4,0.2,0.6,0.5,0.6,0.9v231.6C768.2,699.1,767.8,699.5,767.2,699.5z M712.2,697.5h54V469.3l-54,54V697.5z"></path>
			</g>
		</g>
	</g>
</g>
<g>
	<path class="st5" d="M622.1,45.9c0,0,10.4-4.9,22.2-8.9c11.5-3.9,16.9-1.5,17.8,0.8c2.3,5.8-8.1,9.1-17.4,14.4   c-14.6,8.2-12.3,10.9-25.3,17C613.7,71.8,622.1,45.9,622.1,45.9z"></path>
</g>
<g>
	<path class="st22" d="M495.8,415.4H230.1c-4.3,0-7.7-3.4-7.7-7.7v-50.2c0-4.3,3.4-7.7,7.7-7.7h265.7c4.3,0,7.7,3.4,7.7,7.7v50.2   C503.5,412,500.1,415.4,495.8,415.4z"></path>
</g>
<g>
	<path class="st16" d="M495.8,408.4H230.1c-4.3,0-7.7-3.4-7.7-7.7v-48.2c0-4.3,3.4-7.7,7.7-7.7h265.7c4.3,0,7.7,3.4,7.7,7.7v48.2   C503.5,405,500.1,408.4,495.8,408.4z"></path>
</g>
<g>
	<rect x="284" y="374.5" class="st1" width="158" height="6.2"></rect>
</g>
<g class="st7">
	<g>
		<path d="M346.8,333.3c0,0-9.4-7.2-15.2-5.1c-3.8-0.8-20.9,5-32.8,11.1l1.8,4.5c0,0,5.8,26.9,14,30.3c4.9,2.1,8.8-0.5,5.8-8.5    c-2.1-5.6,5.7,14.3,12.3,12.9c5.4-1.2,3.9-8,2.4-14.2c-1.5-6.2,4.1,11.5,12.1,10c8-1.5-6.3-26.2-6.1-26.7s15.7,18.4,19.9,17.7    C365.2,364.8,372.8,357.7,346.8,333.3z"></path>
	</g>
</g>
<g>
	<g>
		<path class="st5" d="M351.4,331.7c0,0-9.4-7.2-15.2-5.1c-3.8-0.8-5.9-2.6-11,0.9c-3.3,2.3-6.7-3.1-12.7,2.4    c-2.3,2.6-5.2,1.8-8.5,2.9c-4.3,1.4-11.2,5.8-23.1,11.9h20.7c0,0,9.4,23.3,17.6,26.8c4.9,2.1,8.8-0.5,5.8-8.5    c-2.1-5.6,5.7,14.3,12.3,12.9c5.4-1.2,3.9-8,2.4-14.2c-1.5-6.2,4.1,11.5,12.1,10s-6.3-26.2-6.1-26.7c0.1-0.6,15.7,18.4,19.9,17.7    S377.4,356,351.4,331.7z"></path>
	</g>
	<g>
		<path class="st19" d="M324.7,363.3c-0.4,0-0.7-0.2-0.9-0.6l-14.4-29.4c-0.2-0.5,0-1.1,0.5-1.3c0.5-0.2,1.1,0,1.3,0.5l14.4,29.4    c0.2,0.5,0,1.1-0.5,1.3C325,363.3,324.8,363.3,324.7,363.3z"></path>
	</g>
	<g>
		<path class="st19" d="M339.5,362.3c-0.4,0-0.7-0.2-0.9-0.6l-14.9-30.5c-0.2-0.5,0-1.1,0.5-1.3c0.5-0.2,1.1,0,1.3,0.5l14.9,30.5    c0.2,0.5,0,1.1-0.5,1.3C339.8,362.3,339.7,362.3,339.5,362.3z"></path>
	</g>
	<g>
		<path class="st19" d="M346,347.1c-0.4,0-0.7-0.2-0.9-0.5l-8.5-15.2c-0.3-0.5-0.1-1.1,0.4-1.4c0.5-0.3,1.1-0.1,1.4,0.4l8.5,15.2    c0.3,0.5,0.1,1.1-0.4,1.4C346.4,347,346.2,347.1,346,347.1z"></path>
	</g>
</g>
<g class="st7">
	<polygon points="56.1,338.7 133.9,338.7 130.6,348.3  "></polygon>
</g>
<g>
	<path class="st19" d="M622.4,45.3c-0.4,0-0.8-0.3-1-0.7c-0.2-0.5,0.1-1.1,0.6-1.3l15.3-4.9c0.5-0.2,1.1,0.1,1.3,0.6   c0.2,0.5-0.1,1.1-0.6,1.3l-15.3,4.9C622.6,45.3,622.5,45.3,622.4,45.3z"></path>
</g>
<g>
	<path class="st19" d="M618.2,75.8c-0.4,0-0.8-0.2-0.9-0.6c-0.2-0.5,0-1.1,0.6-1.3c12.6-5.1,20.4-18.9,20.5-19   c0.3-0.5,0.9-0.7,1.4-0.4s0.7,0.9,0.4,1.4c-0.3,0.6-8.3,14.5-21.5,19.9C618.5,75.8,618.4,75.8,618.2,75.8z"></path>
</g>
<g class="st2">
	<g>
		<circle class="st3" cx="142.2" cy="30.8" r="5.6"></circle>
	</g>
	<g>
		<circle class="st3" cx="166.8" cy="30.8" r="5.6"></circle>
	</g>
	<g>
		<circle class="st3" cx="191.4" cy="30.8" r="5.6"></circle>
	</g>
</g>
<g>
	<path class="st0" d="M240.2,99.6c-0.2,0-0.3,0-0.5-0.1c-0.5-0.3-0.6-0.9-0.4-1.4c0.1-0.2,1.4-2.4,3.4-2.9c0.9-0.2,1.7,0,2.5,0.5   c0.5,0.3,0.6,0.9,0.3,1.4c-0.3,0.5-0.9,0.6-1.4,0.3c-0.3-0.2-0.6-0.3-0.9-0.2c-0.9,0.2-1.9,1.5-2.1,1.9   C240.9,99.4,240.6,99.6,240.2,99.6z"></path>
</g>
<g>
	<path class="st19" d="M249.1,128c-0.3-0.2-0.6-0.2-1-0.2c-1.1,0-2.1,0.7-3.1,0.8c-0.3,0-0.6,0-0.9,0c-2.8,0-3.7-1.3-5.3-1.3   c-0.3,0-0.7,0.1-1,0.2c-1.2,0.4-1.7,2-1,3.6c1.1,2.5,5.2,5.2,8.5,5.2c1.7,0,3.2-0.7,4-2.6C250.5,130.8,249.7,128.4,249.1,128z"></path>
	<g>
		<path class="st5" d="M243.8,133.3c0,0-3.1-0.9-4.2-2.2S244.7,129.7,243.8,133.3z"></path>
	</g>
</g>
<g class="st23">
	<g>
		<path class="st3" d="M499.8,650h-41.3v-41.3h41.3V650z M460.4,648h37.3v-37.3h-37.3V648z"></path>
	</g>
	<g>
		<path class="st3" d="M589.3,650h-51.2l25.6-42.3L589.3,650z M541.7,648h44.1l-22-36.4L541.7,648z"></path>
	</g>
	<g>
		<path class="st3" d="M646.4,651.4c-12.1,0-22-9.9-22-22s9.9-22,22-22s22,9.9,22,22S658.5,651.4,646.4,651.4z M646.4,609.4    c-11,0-20,9-20,20s9,20,20,20s20-9,20-20S657.4,609.4,646.4,609.4z"></path>
	</g>
</g>
<g>
	<path class="st11" d="M788.5,699.5H1c-0.6,0-1-0.4-1-1s0.4-1,1-1h787.5c0.6,0,1,0.4,1,1S789,699.5,788.5,699.5z"></path>
</g>
</svg>