<svg xmlns="http://www.w3.org/2000/svg" xmlns:xlink="http://www.w3.org/1999/xlink" id="Layer_1" x="0px" y="0px" viewBox="0 0 787.4 668" style="enable-background:new 0 0 787.4 668;" width="808px" height="686px" xml:space="preserve">
<style type="text/css">
	.st0{fill:#4F53DA;}
	.st1{opacity:0.3;}
	.st2{fill:none;}
	.st3{fill:#81B0FF;}
	.st4{opacity:0.1;}
	.st5{fill:#231F20;}
	.st6{fill:#FFFFFF;}
	.st7{opacity:0.24;}
	.st8{fill:#FFD0BB;}
	.st9{fill:#FA902C;}
	.st10{fill:#4467B0;}
	.st11{fill:#CF736D;}
	.st12{fill:#FFA990;}
	.st13{fill:#FFDF81;}
	.st14{fill:#FFAA03;}
	.st15{fill:#33419E;}
	.st16{clip-path:url(#SVGID_2_);}
	.st17{fill:#E2E5E8;}
	.st18{fill:#8D9DFC;}
	.st19{fill:#97A1FF;}
	.st20{fill:#FFEBB2;}
	.st21{fill:#F78B73;}
	.st22{opacity:0.38;}
	.st23{opacity:0.15;}
	.st24{opacity:0.6;}
	.st25{fill:#F76E5D;}
	.st26{opacity:0.2;}
</style>
<g>
	<path class="st0" d="M774.5,614.8H229.3c-7.1,0-12.9-5.8-12.9-12.9V12.9c0-7.1,5.8-12.9,12.9-12.9h545.2c7.1,0,12.9,5.8,12.9,12.9   v588.9C787.4,609,781.6,614.8,774.5,614.8z"></path>
</g>
<g class="st1">
	<g>
		<path class="st2" d="M246,0h-16.7c-7.1,0-12.9,5.8-12.9,12.9v35.4C232.9,36.3,241.5,16,246,0z"></path>
	</g>
	<g>
		<path class="st2" d="M753.2,563.7c-9.1,17.3-25.5,35.9-40.7,51.1h61.9c7.1,0,12.9-5.8,12.9-12.9V507    C780.3,516.4,769,533.5,753.2,563.7z"></path>
	</g>
	<g>
		<path class="st3" d="M226.7,107c-1.5,0.8-2,2.6-1.2,4.1c0.5,1,1.6,1.6,2.7,1.6c0.5,0,1-0.1,1.4-0.4c43.7-23.2,63.9-61.1,73.2-88.9    c2.8-8.4,4.8-16.3,6.2-23.4h-6.1c-1.4,6.7-3.2,14-5.8,21.7C287.9,48.4,268.5,84.8,226.7,107z"></path>
	</g>
	<g>
		<path class="st3" d="M343.8,73.5c1.7,0,3-1.3,3-3c0-12.4,30.6-48.6,50.6-70.5h-8.1c-18.7,20.6-48.5,55.9-48.5,70.5    C340.8,72.1,342.2,73.5,343.8,73.5z"></path>
	</g>
	<g>
		<path class="st3" d="M392.1,41.7c-8.2,24-11.2,38.4-8.7,43c0.7,1.4,1.8,1.8,2.3,2c0.3,0.1,0.5,0.1,0.8,0.1c1.3,0,2.5-0.9,2.9-2.2    c0.3-1.1,0-2.1-0.7-2.9c-0.3-1.3-1-8.7,9.1-38.1c6.8-19.7,21.8-33.8,37.7-43.6h-10.9C408.6,11.6,397.5,25.8,392.1,41.7z"></path>
	</g>
	<g>
		<path class="st3" d="M432,70.1c-0.8,1.5-0.2,3.3,1.3,4c0.4,0.2,0.9,0.3,1.4,0.3c1.1,0,2.1-0.6,2.7-1.6    c14.8-29.2,52.3-58,73.9-72.8h-10.6C478.3,16.1,446,42.5,432,70.1z"></path>
	</g>
	<g>
		<path class="st3" d="M510.2,90.3c0.3,1.5,1.5,2.5,3,2.5c0.2,0,0.3,0,0.5,0c1.6-0.3,2.7-1.8,2.4-3.5c-4.5-25.6,31.7-65.1,57.1-89.3    h-8.7C538.7,25.2,505.6,63.5,510.2,90.3z"></path>
	</g>
	<g>
		<path class="st3" d="M547.8,65.4c-0.5,1.6,0.3,3.3,1.9,3.8c0.3,0.1,0.6,0.2,1,0.2c1.2,0,2.4-0.8,2.8-2c8.9-26,54.8-53.1,82.5-67.4    H623C594.6,15.5,556.3,40.4,547.8,65.4z"></path>
	</g>
	<g>
		<path class="st3" d="M701.8,129.7c-23.6,58.8-47.1,74.2-47.3,74.4c-1.4,0.9-1.8,2.7-1,4.1c0.6,0.9,1.5,1.4,2.5,1.4    c0.5,0,1.1-0.1,1.6-0.5c1-0.6,25.3-16.3,49.7-77.2c23.4-58.2,62.9-86.2,80.1-96.1v-6.9c-6.1,3.3-16.3,9.4-28.1,19.5    C742.1,63,718.1,89,701.8,129.7z"></path>
	</g>
	<g>
		<path class="st3" d="M705.2,253.1c-39.2,29.6-49.1,31.4-49.5,31.5c0.1,0,0.1,0,0.1,0l0.4,6c1-0.1,11.4-1.6,52.6-32.7    c30.6-23.2,62.7-114.5,78.6-164.8V72.5C775.1,113.4,738.3,228,705.2,253.1z"></path>
	</g>
	<g>
		<path class="st3" d="M710.9,327.5c-38.7,29.2-61.8,30.1-62,30.1c-1.7,0-3,1.4-3,3c0,1.6,1.4,3,3,3c0,0,0,0,0,0    c1,0,25.1-0.7,65.5-31.3c23.7-17.9,44.9-54.2,62.9-107.7c3.9-11.5,7.2-22.6,9.9-32.6v-24.3C778.1,207,753,295.7,710.9,327.5z"></path>
	</g>
	<g>
		<path class="st3" d="M679.3,480.9c-1.3,1-1.6,2.9-0.6,4.2c0.6,0.8,1.5,1.2,2.4,1.2c0.6,0,1.3-0.2,1.8-0.6    c1.4-1,33.6-26.5,54.2-100.3c8.9-31.9,33.9-62.9,50.2-80.5V296c-16.2,16.8-45.8,51.2-56,87.8C711.4,455.4,679.6,480.7,679.3,480.9    z"></path>
	</g>
	<g>
		<path class="st3" d="M674.8,585.6c-1.6,0.3-2.7,1.9-2.3,3.5c0.3,1.4,1.5,2.4,2.9,2.4c0.2,0,0.4,0,0.6-0.1    c36.5-7.4,86.4-81.2,111.4-121.8v-11.6C765.1,495,711.4,578.1,674.8,585.6z"></path>
	</g>
	<g>
		<path class="st3" d="M753.2,563.7c15.8-30.2,27.1-47.3,34.2-56.7v-9.7c-6.6,7.8-19.5,25.5-39.5,63.6    c-9.5,18.2-27.9,38.3-44.1,53.9h8.6C727.8,599.6,744.2,581,753.2,563.7z"></path>
	</g>
	<g>
		<path class="st3" d="M666,44.5c-12.7,33.7-28.2,42.6-28.3,42.7c-1.5,0.8-2,2.6-1.2,4.1c0.5,1,1.6,1.6,2.6,1.6c0.5,0,1-0.1,1.4-0.4    c0.7-0.4,17.4-9.8,31-45.9c7.7-20.3,34.1-36.7,54-46.6h-13.1C693.8,10.5,673.1,25.7,666,44.5z"></path>
	</g>
	<g>
		<path class="st3" d="M248.1,13.1c1.7-4.5,3-9,4.1-13.1H246c-4.4,16-13.1,36.3-29.6,48.4v7.2C230,47,240.8,32.6,248.1,13.1z"></path>
	</g>
</g>
<g class="st4">
	<path class="st5" d="M726.1,614.8H155V86.1c0-7.1,5.8-12.9,12.9-12.9h545.2c7.1,0,12.9,5.8,12.9,12.9V614.8z"></path>
</g>
<g>
	<path class="st6" d="M678.1,668H132.9c-7.1,0-12.9-5.8-12.9-12.9V66.1c0-7.1,5.8-12.9,12.9-12.9h545.2c7.1,0,12.9,5.8,12.9,12.9   V655C691.1,662.2,685.3,668,678.1,668z"></path>
</g>
<g class="st7">
	<path class="st3" d="M120,620.2h571.1V655c0,7.1-5.8,12.9-12.9,12.9H132.9c-7.1,0-12.9-5.8-12.9-12.9V620.2z"></path>
</g>
<g>
	<path class="st8" d="M691.1,89.8H120V66.1c0-7.1,5.8-12.9,12.9-12.9h545.2c7.1,0,12.9,5.8,12.9,12.9V89.8z"></path>
</g>
<g class="st7">
	<g>
		<rect x="184.9" y="130.8" class="st3" width="210.3" height="18.2"></rect>
	</g>
	<g>
		<rect x="184.9" y="181.1" class="st3" width="210.1" height="8.6"></rect>
	</g>
	<g>
		<rect x="184.9" y="214" class="st3" width="210.1" height="8.6"></rect>
	</g>
	<g>
		<rect x="184.9" y="246.9" class="st3" width="210.1" height="8.6"></rect>
	</g>
</g>
<g>
	<g>
		<circle class="st9" cx="153" cy="71.5" r="5.1"></circle>
	</g>
	<g>
		<circle class="st9" cx="175.3" cy="71.5" r="5.1"></circle>
	</g>
	<g>
		<circle class="st9" cx="197.6" cy="71.5" r="5.1"></circle>
	</g>
</g>
<g>
	<rect x="120" y="331.8" class="st6" width="571.1" height="173.4"></rect>
</g>
<g>
	<polygon class="st10" points="35.8,570 120,523.7 120,331.8 35.8,378.1  "></polygon>
</g>
<g>
	<rect x="35.8" y="378.1" class="st8" width="571.1" height="210.4"></rect>
</g>
<g>
	<polygon class="st11" points="691.1,331.8 120,331.8 35.8,378.1 606.8,378.1  "></polygon>
</g>
<g>
	<rect x="77.9" y="454.8" class="st6" width="241.3" height="39.5"></rect>
</g>
<g>
	<rect x="332.2" y="454.8" class="st6" width="241.3" height="39.5"></rect>
</g>
<g>
	<rect x="176.3" y="418.4" class="st12" width="290" height="11.1"></rect>
</g>
<g>
	<rect x="395.5" y="313.5" class="st13" width="260.6" height="64.6"></rect>
</g>
<g>
	<path class="st14" d="M613.5,349.6h-62.9c-0.6,0-1-0.4-1-1s0.4-1,1-1h62.9c13.3,0,25.6-7.1,32.3-18.6l7.4-12.7   c0.3-0.5,0.9-0.6,1.4-0.4c0.5,0.3,0.6,0.9,0.4,1.4l-7.4,12.7C640.5,342.1,627.5,349.6,613.5,349.6z"></path>
</g>
<g>
	<path class="st15" d="M423.6,373.2H102.9c-0.6,0-1-0.4-1-1v-84.6c0-0.6,0.4-1,1-1h320.7c0.6,0,1,0.4,1,1v84.6   C424.6,372.7,424.2,373.2,423.6,373.2z M103.9,371.2h318.7v-82.6H103.9V371.2z"></path>
</g>
<g>
	<path class="st15" d="M312.6,379.1c-0.1,0-0.2,0-0.4-0.1l-49-18.8l-49,18.8c-0.3,0.1-0.7,0.1-1-0.2l-111-90.5l1.3-1.5L214,376.9   l48.9-18.7c0.2-0.1,0.5-0.1,0.7,0l48.9,18.7L423,286.8l1.3,1.5l-111,90.5C313.1,379,312.9,379.1,312.6,379.1z"></path>
</g>
<g>
	<defs>
		<rect id="SVGID_1_" x="275.5" y="304.2" width="275.1" height="73.9"></rect>
	</defs>
	<clipPath id="SVGID_2_">
		<use xlink:href="#SVGID_1_" style="overflow:visible;"></use>
	</clipPath>
	<g class="st16">
		<g>
			<rect x="275.9" y="304.2" class="st17" width="274.7" height="192.5"></rect>
		</g>
		<g>
			<rect x="275.9" y="304.2" class="st18" width="274.7" height="192.5"></rect>
		</g>
		<g>
			<polygon class="st19" points="275.9,477.9 413.3,367.5 550.6,477.9 550.6,496.3 275.9,496.3    "></polygon>
		</g>
		<g class="st4">
			<polygon class="st5" points="550.6,326.3 419,440.7 275.9,317.1 275.9,303.7 550.6,303.7    "></polygon>
		</g>
		<g>
			<polygon class="st19" points="550.6,313.4 413.3,423.7 275.9,313.4 275.9,304.2 550.6,304.2    "></polygon>
		</g>
	</g>
</g>
<g>
	<rect x="77.9" y="331.8" class="st13" width="285.6" height="46.3"></rect>
</g>
<g class="st4">
	<polygon class="st5" points="329.2,378.1 117.3,378.1 77.9,331.8 363.4,331.8 363.4,341.1  "></polygon>
</g>
<g>
	<polygon class="st20" points="317.2,378.1 124.2,378.1 77.9,331.8 363.4,331.8  "></polygon>
</g>
<g>
	<polygon class="st21" points="606.8,588.5 691.1,542.2 691.1,331.8 606.8,378.1  "></polygon>
</g>
<g class="st22">
	<g>
		<rect x="534.2" y="641.4" class="st3" width="94.9" height="5.8"></rect>
	</g>
	<g>
		<rect x="184.9" y="641.4" class="st3" width="59.6" height="5.8"></rect>
	</g>
	<g>
		<rect x="269.5" y="641.4" class="st3" width="59.6" height="5.8"></rect>
	</g>
</g>
<g>
	<path class="st15" d="M604.8,380.1v206.4H37.8V380.1H604.8 M606.8,378.1H35.8v210.4h571.1V378.1L606.8,378.1z"></path>
</g>
<g>
	<g class="st7">
		<rect x="434.7" y="130.8" class="st3" width="194.4" height="124.7"></rect>
	</g>
	<g>
		<g>
			<g>
				<g class="st23">
					<path class="st3" d="M497.6,236.6c8.4-12.5,17-23.9,25.6-34.1c-8.4-7.9-22.2-18.3-35.4-15.8c-17.9,3.4-39.1,23.5-53.1,39v29.8       h50.7C489.4,248.9,493.5,242.6,497.6,236.6z"></path>
				</g>
			</g>
			<g>
				<g class="st7">
					<path class="st3" d="M629.1,167.3c-12.6-11.4-31-19.8-54.5-8.2c-17.4,8.6-34.6,23.6-51.4,43.4c-12.8,15.1-25.5,33-37.9,53       h143.7V167.3z"></path>
				</g>
			</g>
		</g>
	</g>
	<g class="st24">
		<circle class="st6" cx="464.8" cy="158.7" r="13.9"></circle>
	</g>
</g>
<g>
	<g>
		<path class="st25" d="M410.8,554.8H240c-5.5,0-10-4.5-10-10v-21.7c0-5.5,4.5-10,10-10h170.8c5.5,0,10,4.5,10,10v21.7    C420.8,550.3,416.4,554.8,410.8,554.8z"></path>
	</g>
	<g class="st26">
		<rect x="275" y="531" class="st6" width="100.8" height="6"></rect>
	</g>
</g>
<g>
	<path class="st0" d="M120.3,486.3c-9,0-21.6-3.3-42.8-13.2c-51.1-23.9-71.1,9.7-71.9,11.1c-0.8,1.4-2.7,1.9-4.1,1.1   c-1.4-0.8-1.9-2.6-1.1-4.1c0.2-0.4,5.9-10.3,18.7-16.9c11.7-6,31.7-10.3,60.9,3.3c36.7,17.2,45.3,13.2,56.1,8.2   c5.1-2.4,10.8-5,19.7-6.1c12.7-1.6,26.4,0.8,39.6,3.1c16.3,2.8,31.7,5.5,43.1,0.4c1.5-0.7,3.3,0,4,1.5c0.7,1.5,0,3.3-1.5,4   c-13.1,5.8-29.4,3-46.6,0c-12.8-2.2-26-4.5-37.8-3c-8,1-13,3.4-17.9,5.6C133,484,127.9,486.3,120.3,486.3z"></path>
</g>
</svg>