<?xml version="1.0" encoding="utf-8"?>
<!-- Generator: Adobe Illustrator 19.1.0, SVG Export Plug-In . SVG Version: 6.00 Build 0)  -->
<svg version="1.1" id="Layer_1" xmlns="http://www.w3.org/2000/svg" xmlns:xlink="http://www.w3.org/1999/xlink" x="0px" y="0px"
	 viewBox="1482 -800.2 1600 1325.7" style="enable-background:new 1482 -800.2 1600 1325.7;" width="1600px" height="1326px" xml:space="preserve">
<style type="text/css">
	.st0{fill:none;}
	.st1{fill:#DFDFDF;}
	.st2{fill:#BCBCBC;}
	.st3{fill:none;stroke:#BCBCBC;stroke-miterlimit:10;}
	.st4{fill:#5D5EF4;}
</style>
<rect x="1482" y="-800.2" class="st0" width="1600" height="1325.7"/>
<rect x="1482" y="394.4" class="st1" width="1600" height="131.1"/>
<g>
	<g>
		<path d="M1899.5-696.1h6.8v30.8h-6.8V-696.1z"/>
		<path d="M1913.5-688.9h6.7v3.3c1.5-2,3.6-3.8,7-3.8c3.1,0,5.4,1.4,6.6,3.7c2.1-2.4,4.5-3.7,7.7-3.7c5,0,8,3,8,8.7v15.4h-6.7v-13.2
			c0-3.2-1.4-4.8-3.9-4.8s-4,1.6-4,4.8v13.2h-6.7v-13.2c0-3.2-1.4-4.8-3.9-4.8s-4,1.6-4,4.8v13.2h-6.7L1913.5-688.9L1913.5-688.9z"
			/>
		<path d="M1955.5-688.9h6.7v3.4c1.6-2.2,3.9-3.8,7.3-3.8c5.5,0,10.7,4.3,10.7,12.2v0.1c0,7.9-5.1,12.2-10.7,12.2
			c-3.6,0-5.8-1.6-7.3-3.5v10.1h-6.7V-688.9z M1973.6-677.1L1973.6-677.1c0-4-2.6-6.6-5.8-6.6c-3.1,0-5.7,2.6-5.7,6.5v0.1
			c0,3.9,2.6,6.5,5.7,6.5C1971-670.6,1973.6-673.1,1973.6-677.1z"/>
		<path d="M1984-672.1L1984-672.1c0-5.2,3.9-7.6,9.5-7.6c2.4,0,4.1,0.4,5.8,1v-0.5c0-2.8-1.7-4.3-5.1-4.3c-2.6,0-4.4,0.5-6.5,1.3
			l-1.7-5.1c2.6-1.1,5.1-1.9,9.2-1.9c3.7,0,6.3,1,8,2.6c1.8,1.8,2.6,4.4,2.6,7.5v13.7h-6.5v-2.6c-1.6,1.8-3.9,3-7.1,3
			C1987.7-664.9,1984-667.4,1984-672.1z M1999.4-673.7v-1.2c-1.1-0.5-2.6-0.9-4.3-0.9c-2.9,0-4.6,1.1-4.6,3.3v0.1
			c0,1.8,1.5,2.9,3.7,2.9C1997.3-669.5,1999.4-671.2,1999.4-673.7z"/>
		<path d="M2010.6-677L2010.6-677c0-6.8,5.1-12.4,12.4-12.4c4.4,0,7.2,1.5,9.4,4l-4.1,4.4c-1.5-1.6-3-2.6-5.4-2.6
			c-3.3,0-5.7,2.9-5.7,6.4v0.1c0,3.6,2.3,6.5,6,6.5c2.2,0,3.8-1,5.4-2.5l3.9,4c-2.3,2.5-4.9,4.3-9.6,4.3
			C2015.8-664.8,2010.6-670.3,2010.6-677z"/>
		<path d="M2038.2-672v-11.2h-2.8v-5.7h2.8v-6h6.7v6h5.5v5.7h-5.5v10.1c0,1.5,0.7,2.3,2.2,2.3c1.2,0,2.3-0.3,3.3-0.8v5.4
			c-1.4,0.8-3,1.4-5.3,1.4C2040.9-664.9,2038.2-666.6,2038.2-672z"/>
		<path d="M2067.8-677L2067.8-677c0-6.9,5.5-12.4,12.8-12.4s12.7,5.4,12.7,12.2v0.1c0,6.8-5.5,12.3-12.8,12.3
			S2067.8-670.2,2067.8-677z M2086.7-677L2086.7-677c0-3.6-2.5-6.6-6.2-6.6c-3.8,0-6.1,2.9-6.1,6.4v0.1c0,3.5,2.5,6.5,6.2,6.5
			C2084.4-670.6,2086.7-673.5,2086.7-677z"/>
		<path d="M2099.5-683.2h-2.8v-5.5h2.8v-1.5c0-2.6,0.7-4.5,1.9-5.7c1.2-1.2,3-1.8,5.4-1.8c2.1,0,3.5,0.3,4.8,0.7v5.5
			c-1-0.4-1.9-0.6-3-0.6c-1.5,0-2.4,0.8-2.4,2.6v0.9h5.4v5.5h-5.3v17.9h-6.7v-18H2099.5L2099.5-683.2z"/>
		<path d="M2129.5-696.1h6.2l14.4,19v-19h6.7v30.8h-5.8l-14.9-19.6v19.6h-6.7L2129.5-696.1L2129.5-696.1z"/>
		<path d="M2163.6-673.7V-689h6.7v13.2c0,3.2,1.5,4.8,4,4.8c2.6,0,4.2-1.6,4.2-4.8V-689h6.7v23.6h-6.7v-3.3c-1.5,2-3.5,3.8-6.9,3.8
			C2166.6-664.9,2163.6-668.2,2163.6-673.7z"/>
		<path d="M2191.4-688.9h6.7v3.3c1.5-2,3.6-3.8,7-3.8c3.1,0,5.4,1.4,6.6,3.7c2.1-2.4,4.5-3.7,7.7-3.7c5,0,8,3,8,8.7v15.4h-6.7v-13.2
			c0-3.2-1.4-4.8-3.9-4.8s-4,1.6-4,4.8v13.2h-6.7v-13.2c0-3.2-1.4-4.8-3.9-4.8s-4,1.6-4,4.8v13.2h-6.7L2191.4-688.9L2191.4-688.9z"
			/>
		<path d="M2240.2-668.4v3.1h-6.7v-32.1h6.7v11.9c1.6-2.2,3.9-3.8,7.3-3.8c5.5,0,10.7,4.3,10.7,12.2v0.1c0,7.9-5.1,12.2-10.7,12.2
			C2243.9-664.9,2241.7-666.5,2240.2-668.4z M2251.6-677.1L2251.6-677.1c0-4-2.6-6.6-5.8-6.6c-3.1,0-5.7,2.6-5.7,6.5v0.1
			c0,3.9,2.6,6.5,5.7,6.5C2248.9-670.6,2251.6-673.1,2251.6-677.1z"/>
		<path d="M2262.2-677L2262.2-677c0-6.8,4.8-12.4,11.7-12.4c7.9,0,11.5,6.1,11.5,12.8c0,0.5,0,1.1-0.1,1.8h-16.4
			c0.7,3,2.8,4.6,5.8,4.6c2.2,0,3.9-0.7,5.7-2.4l3.8,3.4c-2.2,2.7-5.4,4.4-9.6,4.4C2267.5-664.8,2262.2-669.8,2262.2-677z
			 M2278.9-679c-0.4-3-2.2-5-5-5c-2.8,0-4.6,2-5.1,5H2278.9z"/>
		<path d="M2290.6-688.9h6.7v4.8c1.4-3.3,3.6-5.4,7.5-5.2v7h-0.4c-4.4,0-7.2,2.7-7.2,8.3v8.7h-6.7L2290.6-688.9L2290.6-688.9z"/>
		<path d="M2321.5-677L2321.5-677c0-6.9,5.5-12.4,12.8-12.4s12.7,5.4,12.7,12.2v0.1c0,6.8-5.5,12.3-12.8,12.3
			S2321.5-670.2,2321.5-677z M2340.4-677L2340.4-677c0-3.6-2.5-6.6-6.2-6.6c-3.8,0-6.1,2.9-6.1,6.4v0.1c0,3.5,2.5,6.5,6.2,6.5
			C2338.1-670.6,2340.4-673.5,2340.4-677z"/>
		<path d="M2353.2-683.2h-2.8v-5.5h2.8v-1.5c0-2.6,0.7-4.5,1.9-5.7c1.2-1.2,3-1.8,5.4-1.8c2.1,0,3.5,0.3,4.8,0.7v5.5
			c-1-0.4-1.9-0.6-3-0.6c-1.5,0-2.4,0.8-2.4,2.6v0.9h5.4v5.5h-5.3v17.9h-6.7v-18H2353.2L2353.2-683.2z"/>
		<path d="M2383.2-696.1h6.8v24.6h15.4v6.2h-22.1v-30.8L2383.2-696.1L2383.2-696.1z"/>
		<path d="M2408.5-672.1L2408.5-672.1c0-5.2,3.9-7.6,9.5-7.6c2.4,0,4.1,0.4,5.8,1v-0.5c0-2.8-1.7-4.3-5.1-4.3
			c-2.6,0-4.4,0.5-6.5,1.3l-1.7-5.1c2.6-1.1,5.1-1.9,9.2-1.9c3.7,0,6.3,1,8,2.6c1.8,1.8,2.6,4.4,2.6,7.5v13.7h-6.5v-2.6
			c-1.6,1.8-3.9,3-7.1,3C2412.2-664.9,2408.5-667.4,2408.5-672.1z M2423.9-673.7v-1.2c-1.1-0.5-2.6-0.9-4.3-0.9
			c-2.9,0-4.6,1.1-4.6,3.3v0.1c0,1.8,1.5,2.9,3.7,2.9C2421.8-669.5,2423.9-671.2,2423.9-673.7z"/>
		<path d="M2436.2-688.9h6.7v3.3c1.5-2,3.5-3.8,6.9-3.8c5.1,0,8,3.3,8,8.8v15.3h-6.7v-13.2c0-3.2-1.5-4.8-4-4.8
			c-2.6,0-4.2,1.6-4.2,4.8v13.2h-6.7L2436.2-688.9L2436.2-688.9z"/>
		<path d="M2462.8-677.1L2462.8-677.1c0-8,5.1-12.3,10.7-12.3c3.6,0,5.8,1.6,7.3,3.5v-11.6h6.7v32.1h-6.7v-3.4
			c-1.6,2.2-3.9,3.8-7.3,3.8C2468-664.9,2462.8-669.2,2462.8-677.1z M2481-677.1L2481-677.1c0-4-2.6-6.6-5.7-6.6s-5.8,2.6-5.8,6.5
			v0.1c0,3.9,2.6,6.5,5.8,6.5C2478.4-670.6,2481-673.2,2481-677.1z"/>
		<path d="M2493.9-697.5h7v5.9h-7V-697.5z M2494.1-688.9h6.7v23.6h-6.7V-688.9z"/>
		<path d="M2507.3-688.9h6.7v3.3c1.5-2,3.5-3.8,6.9-3.8c5.1,0,8,3.3,8,8.8v15.3h-6.7v-13.2c0-3.2-1.5-4.8-4-4.8
			c-2.6,0-4.2,1.6-4.2,4.8v13.2h-6.7L2507.3-688.9L2507.3-688.9z"/>
		<path d="M2535-660.7l2.3-5c2.4,1.4,4.8,2.2,8,2.2c4.6,0,6.7-2.2,6.7-6.4v-1.1c-2,2.4-4.1,3.8-7.7,3.8c-5.5,0-10.5-4-10.5-11v-0.1
			c0-7,5.1-11,10.5-11c3.7,0,5.8,1.5,7.6,3.5v-3.1h6.7v18.3c0,4.2-1,7.3-3,9.3c-2.2,2.2-5.6,3.2-10.2,3.2
			C2541.6-658.2,2538-659.1,2535-660.7z M2552-678.3L2552-678.3c0-3.3-2.5-5.5-5.8-5.5s-5.7,2.2-5.7,5.5v0.1c0,3.3,2.5,5.5,5.7,5.5
			C2549.5-672.8,2552-675.1,2552-678.3z"/>
		<path d="M2578.9-696.1h12.6c7.3,0,11.8,4.4,11.8,10.6v0.1c0,7.1-5.5,10.8-12.5,10.8h-5.1v9.2h-6.8V-696.1z M2591.1-680.6
			c3.4,0,5.4-2,5.4-4.7v-0.1c0-3-2.1-4.7-5.5-4.7h-5.2v9.4L2591.1-680.6L2591.1-680.6L2591.1-680.6z"/>
		<path d="M2606-672.1L2606-672.1c0-5.2,3.9-7.6,9.5-7.6c2.4,0,4.1,0.4,5.8,1v-0.5c0-2.8-1.7-4.3-5.1-4.3c-2.6,0-4.4,0.5-6.5,1.3
			l-1.7-5.1c2.6-1.1,5.1-1.9,9.2-1.9c3.7,0,6.3,1,8,2.6c1.8,1.8,2.6,4.4,2.6,7.5v13.7h-6.5v-2.6c-1.6,1.8-3.9,3-7.1,3
			C2609.7-664.9,2606-667.4,2606-672.1z M2621.4-673.7v-1.2c-1.1-0.5-2.6-0.9-4.3-0.9c-2.9,0-4.6,1.1-4.6,3.3v0.1
			c0,1.8,1.5,2.9,3.7,2.9C2619.3-669.5,2621.4-671.2,2621.4-673.7z"/>
		<path d="M2633.8-660.7l2.3-5c2.4,1.4,4.8,2.2,8,2.2c4.6,0,6.7-2.2,6.7-6.4v-1.1c-2,2.4-4.1,3.8-7.7,3.8c-5.5,0-10.5-4-10.5-11
			v-0.1c0-7,5.1-11,10.5-11c3.7,0,5.8,1.5,7.6,3.5v-3.1h6.7v18.3c0,4.2-1,7.3-3,9.3c-2.2,2.2-5.6,3.2-10.2,3.2
			C2640.4-658.2,2636.8-659.1,2633.8-660.7z M2650.8-678.3L2650.8-678.3c0-3.3-2.5-5.5-5.8-5.5s-5.7,2.2-5.7,5.5v0.1
			c0,3.3,2.5,5.5,5.7,5.5C2648.3-672.8,2650.8-675.1,2650.8-678.3z"/>
		<path d="M2662.5-677L2662.5-677c0-6.8,4.8-12.4,11.7-12.4c7.9,0,11.5,6.1,11.5,12.8c0,0.5,0,1.1-0.1,1.8h-16.4
			c0.7,3,2.8,4.6,5.8,4.6c2.2,0,3.9-0.7,5.7-2.4l3.8,3.4c-2.2,2.7-5.4,4.4-9.6,4.4C2667.7-664.8,2662.5-669.8,2662.5-677z
			 M2679.1-679c-0.4-3-2.2-5-5-5s-4.6,2-5.1,5H2679.1z"/>
		<path d="M2688.9-668.5l2.9-4.4c2.6,1.8,5.2,2.8,7.4,2.8c1.9,0,2.8-0.7,2.8-1.8v-0.1c0-1.5-2.3-1.9-4.9-2.7c-3.3-1-7-2.5-7-7.1
			v-0.1c0-4.8,3.9-7.5,8.6-7.5c3,0,6.2,1,8.8,2.7l-2.6,4.6c-2.3-1.4-4.7-2.2-6.4-2.2c-1.6,0-2.5,0.7-2.5,1.6v0.1
			c0,1.3,2.2,1.9,4.8,2.8c3.3,1.1,7.1,2.7,7.1,7v0.1c0,5.2-3.9,7.6-9,7.6C2695.8-664.9,2692.1-666,2688.9-668.5z"/>
		<path d="M2725.4-677L2725.4-677c0-6.9,5.5-12.4,12.8-12.4s12.7,5.4,12.7,12.2v0.1c0,6.8-5.5,12.3-12.8,12.3
			C2730.8-664.8,2725.4-670.2,2725.4-677z M2744.3-677L2744.3-677c0-3.6-2.5-6.6-6.2-6.6c-3.8,0-6.1,2.9-6.1,6.4v0.1
			c0,3.5,2.5,6.5,6.2,6.5C2742-670.6,2744.3-673.5,2744.3-677z"/>
		<path d="M2756-688.9h6.7v3.3c1.5-2,3.5-3.8,6.9-3.8c5.1,0,8,3.3,8,8.8v15.3h-6.7v-13.2c0-3.2-1.5-4.8-4-4.8
			c-2.6,0-4.2,1.6-4.2,4.8v13.2h-6.7V-688.9L2756-688.9z"/>
		<path d="M2161.9-636.1h6.8v24.6h15.3v6.2h-22.1L2161.9-636.1L2161.9-636.1z"/>
		<path d="M2187-617L2187-617c0-6.8,4.8-12.4,11.7-12.4c7.9,0,11.5,6.1,11.5,12.8c0,0.5,0,1.1-0.1,1.8h-16.4c0.7,3,2.8,4.6,5.8,4.6
			c2.2,0,3.9-0.7,5.7-2.4l3.8,3.4c-2.2,2.7-5.4,4.4-9.6,4.4C2192.3-604.8,2187-609.8,2187-617z M2203.7-619c-0.4-3-2.2-5-5-5
			s-4.6,2-5.1,5H2203.7z"/>
		<path d="M2214-612.1L2214-612.1c0-5.2,3.9-7.6,9.5-7.6c2.4,0,4.1,0.4,5.8,1v-0.5c0-2.8-1.7-4.3-5.1-4.3c-2.6,0-4.4,0.5-6.5,1.3
			l-1.7-5.1c2.6-1.1,5.1-1.9,9.2-1.9c3.7,0,6.3,1,8,2.6c1.8,1.8,2.6,4.4,2.6,7.5v13.7h-6.5v-2.6c-1.6,1.8-3.9,3-7.1,3
			C2217.6-604.9,2214-607.4,2214-612.1z M2229.3-613.7v-1.2c-1.1-0.5-2.6-0.9-4.3-0.9c-2.9,0-4.6,1.1-4.6,3.3v0.1
			c0,1.8,1.5,2.9,3.7,2.9C2227.2-609.5,2229.3-611.2,2229.3-613.7z"/>
		<path d="M2240.6-617.1L2240.6-617.1c0-8,5.1-12.3,10.7-12.3c3.6,0,5.8,1.6,7.3,3.5v-11.6h6.7v32.1h-6.7v-3.4
			c-1.6,2.2-3.9,3.8-7.3,3.8C2245.8-604.9,2240.6-609.2,2240.6-617.1z M2258.8-617.1L2258.8-617.1c0-4-2.6-6.6-5.7-6.6
			s-5.8,2.6-5.8,6.5v0.1c0,3.9,2.6,6.5,5.8,6.5C2256.2-610.6,2258.8-613.2,2258.8-617.1z"/>
		<path d="M2284.3-620.6L2284.3-620.6c0-8.8,6.8-16,16.2-16c5.5,0,8.9,1.5,12.1,4.2l-4.3,5.1c-2.4-2-4.5-3.1-8.1-3.1
			c-4.9,0-8.8,4.4-8.8,9.6v0.1c0,5.6,3.9,9.8,9.3,9.8c2.5,0,4.7-0.6,6.4-1.8v-4.5h-6.8v-5.9h13.4v13.4c-3.2,2.7-7.5,4.9-13.2,4.9
			C2290.9-604.8,2284.3-611.5,2284.3-620.6z"/>
		<path d="M2318.6-617L2318.6-617c0-6.8,4.8-12.4,11.7-12.4c7.9,0,11.5,6.1,11.5,12.8c0,0.5,0,1.1-0.1,1.8h-16.4
			c0.7,3,2.8,4.6,5.8,4.6c2.2,0,3.9-0.7,5.7-2.4l3.8,3.4c-2.2,2.7-5.4,4.4-9.6,4.4C2323.8-604.8,2318.6-609.8,2318.6-617z
			 M2335.2-619c-0.4-3-2.2-5-5-5s-4.6,2-5.1,5H2335.2z"/>
		<path d="M2346.9-628.9h6.7v3.3c1.5-2,3.5-3.8,6.9-3.8c5.1,0,8,3.3,8,8.8v15.3h-6.7v-13.2c0-3.2-1.5-4.8-4-4.8
			c-2.6,0-4.2,1.6-4.2,4.8v13.2h-6.7L2346.9-628.9L2346.9-628.9z"/>
		<path d="M2373.4-617L2373.4-617c0-6.8,4.8-12.4,11.7-12.4c7.9,0,11.5,6.1,11.5,12.8c0,0.5,0,1.1-0.1,1.8H2380
			c0.7,3,2.8,4.6,5.8,4.6c2.2,0,3.9-0.7,5.7-2.4l3.8,3.4c-2.2,2.7-5.4,4.4-9.6,4.4C2378.6-604.8,2373.4-609.8,2373.4-617z M2390-619
			c-0.4-3-2.2-5-5-5s-4.6,2-5.1,5H2390z"/>
		<path d="M2401.7-628.9h6.7v4.8c1.4-3.3,3.6-5.4,7.5-5.2v7h-0.4c-4.4,0-7.2,2.7-7.2,8.3v8.7h-6.7L2401.7-628.9L2401.7-628.9z"/>
		<path d="M2417.8-612.1L2417.8-612.1c0-5.2,3.9-7.6,9.5-7.6c2.4,0,4.1,0.4,5.8,1v-0.5c0-2.8-1.7-4.3-5.1-4.3
			c-2.6,0-4.4,0.5-6.5,1.3l-1.7-5.1c2.6-1.1,5.1-1.9,9.2-1.9c3.7,0,6.3,1,8,2.6c1.8,1.8,2.6,4.4,2.6,7.5v13.7h-6.6v-2.6
			c-1.6,1.8-3.9,3-7.1,3C2421.5-604.9,2417.8-607.4,2417.8-612.1z M2433.2-613.7v-1.2c-1.1-0.5-2.6-0.9-4.3-0.9
			c-2.9,0-4.6,1.1-4.6,3.3v0.1c0,1.8,1.5,2.9,3.7,2.9C2431.1-609.5,2433.2-611.2,2433.2-613.7z"/>
		<path d="M2446.4-612v-11.2h-2.8v-5.7h2.8v-6h6.7v6h5.5v5.7h-5.5v10.1c0,1.5,0.7,2.3,2.2,2.3c1.2,0,2.3-0.3,3.3-0.8v5.4
			c-1.4,0.8-3,1.4-5.3,1.4C2449.2-604.9,2446.4-606.6,2446.4-612z"/>
		<path d="M2463.9-637.5h7v5.9h-7V-637.5z M2464.1-628.9h6.7v23.6h-6.7V-628.9z"/>
		<path d="M2476.1-617L2476.1-617c0-6.9,5.5-12.4,12.8-12.4c7.3,0,12.7,5.4,12.7,12.2v0.1c0,6.8-5.5,12.3-12.8,12.3
			C2481.5-604.8,2476.1-610.2,2476.1-617z M2495-617L2495-617c0-3.6-2.5-6.6-6.2-6.6c-3.8,0-6.1,2.9-6.1,6.4v0.1
			c0,3.5,2.5,6.5,6.2,6.5C2492.8-610.6,2495-613.5,2495-617z"/>
		<path d="M2506.7-628.9h6.7v3.3c1.5-2,3.5-3.8,6.9-3.8c5.1,0,8,3.3,8,8.8v15.3h-6.7v-13.2c0-3.2-1.5-4.8-4-4.8
			c-2.6,0-4.2,1.6-4.2,4.8v13.2h-6.7L2506.7-628.9L2506.7-628.9z"/>
	</g>
</g>
<g>
	<g>
		<path d="M2193.1,453.9h4.2v20h12.5v3.8h-16.7V453.9z"/>
		<path d="M2224.3,453.7h3.9l10.5,24h-4.4l-2.4-5.7h-11.3l-2.4,5.7h-4.3L2224.3,453.7z M2230.3,468.2l-4.1-9.5l-4.1,9.5H2230.3z"/>
		<path d="M2244.5,453.9h3.9l12.7,16.5v-16.5h4.1v23.8h-3.5l-13.1-16.9v16.9h-4.1V453.9L2244.5,453.9z"/>
		<path d="M2273,453.9h8.9c7.5,0,12.6,5.1,12.6,11.8v0.1c0,6.7-5.2,11.9-12.6,11.9h-8.9V453.9z M2281.9,473.9c5,0,8.3-3.4,8.3-8
			v-0.1c0-4.7-3.3-8.1-8.3-8.1h-4.7v16.2L2281.9,473.9L2281.9,473.9z"/>
		<path d="M2301.5,453.9h4.2v23.8h-4.2V453.9z"/>
		<path d="M2313.8,453.9h3.9l12.8,16.5v-16.5h4.1v23.8h-3.6l-13.1-16.9v16.9h-4.1L2313.8,453.9L2313.8,453.9z"/>
		<path d="M2341.3,465.8L2341.3,465.8c0-6.7,5.1-12.4,12.3-12.4c4.1,0,6.7,1.2,9.1,3.2l-2.7,3.2c-1.8-1.6-3.6-2.5-6.7-2.5
			c-4.4,0-7.7,3.8-7.7,8.4v0.1c0,4.9,3.2,8.5,8.1,8.5c2.2,0,4.3-0.7,5.7-1.8V468h-6.1v-3.6h10.1v10c-2.3,2-5.7,3.7-9.9,3.7
			C2346.2,478.1,2341.3,472.8,2341.3,465.8z"/>
		<path d="M2382.6,453.9h9.4c5.5,0,9,3.2,9,8v0.1c0,5.3-4.3,8.1-9.5,8.1h-4.7v7.6h-4.2V453.9L2382.6,453.9z M2391.6,466.2
			c3.2,0,5.1-1.8,5.1-4.3v-0.1c0-2.8-2-4.3-5.1-4.3h-4.9v8.6L2391.6,466.2L2391.6,466.2z"/>
		<path d="M2413.1,453.7h3.9l10.5,24h-4.5l-2.4-5.7h-11.3l-2.4,5.7h-4.3L2413.1,453.7z M2419,468.2l-4.1-9.5l-4.1,9.5H2419z"/>
		<path d="M2430.7,465.8L2430.7,465.8c0-6.7,5.1-12.4,12.3-12.4c4.1,0,6.7,1.2,9.1,3.2l-2.7,3.2c-1.8-1.6-3.6-2.5-6.7-2.5
			c-4.4,0-7.7,3.8-7.7,8.4v0.1c0,4.9,3.2,8.5,8.1,8.5c2.2,0,4.3-0.7,5.7-1.8V468h-6.1v-3.6h10.1v10c-2.3,2-5.7,3.7-9.9,3.7
			C2435.6,478.1,2430.7,472.8,2430.7,465.8z"/>
		<path d="M2460.1,453.9h17.6v3.7h-13.5v6.2h11.9v3.7h-11.9v6.4h13.6v3.7H2460L2460.1,453.9L2460.1,453.9z"/>
		<path d="M2483,474.2l2.5-3c2.3,2,4.6,3.1,7.5,3.1c2.6,0,4.2-1.2,4.2-3v-0.1c0-1.7-1-2.6-5.4-3.6c-5.1-1.2-7.9-2.7-7.9-7.1v-0.1
			c0-4.1,3.4-6.9,8.1-6.9c3.5,0,6.2,1.1,8.6,3l-2.2,3.2c-2.1-1.6-4.3-2.4-6.5-2.4c-2.4,0-3.9,1.3-3.9,2.8v0.1c0,1.8,1.1,2.7,5.6,3.7
			c5,1.2,7.6,3,7.6,7v0.1c0,4.5-3.5,7.1-8.5,7.1C2489.3,478,2485.8,476.7,2483,474.2z"/>
	</g>
</g>
<g>
	<rect x="1482" y="-800.2" class="st2" width="131.1" height="1325.7"/>
	<g>
		<g>
			<path d="M1541.5,41.6v-3.9L1558,25h-16.5v-4.2h23.8v3.5l-16.9,13.1h16.9v4.1h-23.8V41.6z"/>
			<path d="M1541.5,13V-4.6h3.7V8.8h6.2V-3.1h3.7V8.8h6.4V-4.8h3.7V13L1541.5,13L1541.5,13z"/>
			<path d="M1541.5-9.6v-4.6l17.6-5.7l-17.7-5.8v-3.5l17.7-5.8l-17.6-5.7v-4.4l24,8.3v3.6l-17.1,5.8l17.1,5.8v3.6L1541.5-9.6z"/>
			<path d="M1541.5-63v-4.2h20v-12.5h3.8V-63H1541.5z"/>
			<path d="M1541.5-85.8v-17.6h3.7v13.5h6.2v-11.9h3.7v11.9h6.4v-13.6h3.7v17.8L1541.5-85.8L1541.5-85.8L1541.5-85.8z"/>
			<path d="M1541.3-118.7v-3.9l24-10.5v4.4l-5.7,2.4v11.3l5.7,2.4v4.3L1541.3-118.7z M1555.8-124.7l-9.5,4.1l9.5,4.1V-124.7z"/>
			<path d="M1541.5-138.8v-8.9c0-7.5,5.1-12.6,11.8-12.6h0.1c6.7,0,11.9,5.2,11.9,12.6v8.9H1541.5z M1561.4-147.7c0-5-3.4-8.3-8-8.3
				h-0.1c-4.7,0-8.1,3.3-8.1,8.3v4.7h16.2V-147.7z"/>
			<path d="M1561.8-165.2l-3-2.5c2-2.3,3.1-4.6,3.1-7.5c0-2.6-1.2-4.2-3-4.2h-0.1c-1.7,0-2.6,1-3.6,5.4c-1.2,5.1-2.7,7.9-7.1,7.9
				h-0.1c-4.1,0-6.9-3.4-6.9-8.1c0-3.5,1.1-6.2,3-8.6l3.2,2.2c-1.6,2.1-2.4,4.3-2.4,6.5c0,2.4,1.3,3.9,2.8,3.9h0.1
				c1.8,0,2.7-1.1,3.7-5.6c1.2-5,3-7.6,7-7.6h0.1c4.5,0,7.1,3.5,7.1,8.5C1565.6-171.5,1564.3-168,1561.8-165.2z"/>
			<path d="M1541.5-202.4v-4.2h23.8v4.2H1541.5z"/>
			<path d="M1541.5-214.6v-3.9l16.4-12.7h-16.4v-4.1h23.8v3.5l-16.9,13.1h16.9v4.1H1541.5z"/>
			<path d="M1541.5-243.2v-8.9c0-7.5,5.1-12.6,11.8-12.6h0.1c6.7,0,11.9,5.2,11.9,12.6v8.9H1541.5z M1561.4-252c0-5-3.4-8.3-8-8.3
				h-0.1c-4.7,0-8.1,3.3-8.1,8.3v4.7h16.2V-252z"/>
			<path d="M1541.5-271.4V-289h3.7v13.5h6.2v-11.9h3.7v11.9h6.4v-13.6h3.7v17.8L1541.5-271.4L1541.5-271.4z"/>
			<path d="M1553.2-302.8l-11.7,8.3v-4.9l8.5-5.9l-8.5-5.9v-4.8l11.6,8.3l12.2-8.6v4.9l-9,6.3l9,6.3v4.8L1553.2-302.8z"/>
		</g>
	</g>
</g>
<g>
	<g>
		<path class="st2" d="M1846.7,288.6l-3.7,1l-0.8-2.9l5.5-1.7h2.5v20.4h-3.5V288.6z"/>
		<path class="st2" d="M1864.9,301.2v-8.1h-1.9v-3h1.9v-4.2h3.5v4.2h4.1v3h-4.1v7.5c0,1.4,0.7,1.9,1.9,1.9c0.8,0,1.5-0.2,2.2-0.5
			v2.9c-0.9,0.5-1.9,0.8-3.2,0.8C1866.8,305.7,1864.9,304.5,1864.9,301.2z"/>
		<path class="st2" d="M1875,297.8L1875,297.8c0-4.4,3.5-8.1,8.2-8.1s8.2,3.6,8.2,7.9v0.1c0,4.4-3.5,8-8.2,8
			C1878.4,305.8,1875,302.2,1875,297.8z M1887.8,297.8L1887.8,297.8c0-2.8-1.9-5-4.7-5s-4.6,2.2-4.6,4.9v0.1c0,2.7,1.9,4.9,4.7,4.9
			S1887.8,300.5,1887.8,297.8z"/>
		<path class="st2" d="M1903,302.6l2.2-2.6c1.6,1.5,3.3,2.4,5.2,2.4c2.4,0,4-1.4,4-3.5v-0.1c0-2.1-1.7-3.4-4.2-3.4
			c-1.5,0-2.7,0.4-3.7,0.9l-2.1-1.4l0.6-9.9h12.1v3.2h-9l-0.3,4.8c1-0.3,1.9-0.6,3.2-0.6c3.9,0,7,2.1,7,6.4v0.1c0,4.1-3,6.9-7.5,6.9
			C1907.4,305.8,1904.9,304.5,1903,302.6z"/>
	</g>
</g>
<g>
	<g>
		<path class="st2" d="M1682.2-489c-1.5-1.6-2.5-3.7-2.5-7.8v-0.1c0-6.2,3-11.1,8.7-11.1c2.6,0,4.4,0.8,6.2,2.3l-1.9,2.8
			c-1.4-1.1-2.6-1.8-4.4-1.8c-3,0-4.7,2.7-4.9,6.4c1.1-1,2.5-2,4.8-2c3.9,0,7.1,2.3,7.1,6.4v0.1c0,4-3.3,6.9-7.5,6.9
			C1685.4-486.9,1683.6-487.6,1682.2-489z M1691.8-493.6L1691.8-493.6c0-2.1-1.6-3.6-4.1-3.6s-4.1,1.6-4.1,3.6v0.1
			c0,2.1,1.7,3.7,4.2,3.7C1690.3-489.9,1691.8-491.5,1691.8-493.6z"/>
		<path class="st2" d="M1698.9-497.3L1698.9-497.3c0-5.9,3.5-10.6,8.9-10.6c5.3,0,8.8,4.6,8.8,10.4v0.1c0,5.8-3.5,10.5-8.9,10.5
			C1702.4-486.9,1698.9-491.5,1698.9-497.3z M1712.9-497.3L1712.9-497.3c0-4.1-2.1-7.3-5.2-7.3s-5.1,3.2-5.1,7.2v0.1
			c0,4,2,7.3,5.2,7.3C1710.9-490.1,1712.9-493.3,1712.9-497.3z"/>
		<path class="st2" d="M1720.1-497.3L1720.1-497.3c0-5.9,3.5-10.6,8.9-10.6c5.3,0,8.8,4.6,8.8,10.4v0.1c0,5.8-3.5,10.5-8.9,10.5
			S1720.1-491.5,1720.1-497.3z M1734.1-497.3L1734.1-497.3c0-4.1-2.1-7.3-5.2-7.3s-5.1,3.2-5.1,7.2v0.1c0,4,2,7.3,5.2,7.3
			C1732.1-490.1,1734.1-493.3,1734.1-497.3z"/>
	</g>
</g>
<g>
	<g>
		<path class="st2" d="M1680.4-365.6l2.2-2.6c1.6,1.5,3.3,2.4,5.2,2.4c2.4,0,4-1.4,4-3.5v-0.1c0-2.1-1.7-3.4-4.2-3.4
			c-1.5,0-2.7,0.4-3.7,0.9l-2.1-1.4l0.6-9.9h12.1v3.2h-9l-0.3,4.8c1-0.3,1.9-0.6,3.2-0.6c3.9,0,7,2.1,7,6.4v0.1c0,4.1-3,6.9-7.5,6.9
			C1684.8-362.5,1682.4-363.8,1680.4-365.6z"/>
		<path class="st2" d="M1698.9-373L1698.9-373c0-5.9,3.5-10.6,8.9-10.6c5.3,0,8.8,4.6,8.8,10.4v0.1c0,5.8-3.5,10.5-8.9,10.5
			C1702.4-362.5,1698.9-367.2,1698.9-373z M1712.9-373L1712.9-373c0-4.1-2.1-7.3-5.2-7.3s-5.1,3.2-5.1,7.2v0.1c0,4,2,7.3,5.2,7.3
			C1710.9-365.7,1712.9-369,1712.9-373z"/>
		<path class="st2" d="M1720.1-373L1720.1-373c0-5.9,3.5-10.6,8.9-10.6c5.3,0,8.8,4.6,8.8,10.4v0.1c0,5.8-3.5,10.5-8.9,10.5
			C1723.5-362.5,1720.1-367.2,1720.1-373z M1734.1-373L1734.1-373c0-4.1-2.1-7.3-5.2-7.3s-5.1,3.2-5.1,7.2v0.1c0,4,2,7.3,5.2,7.3
			C1732.1-365.7,1734.1-369,1734.1-373z"/>
	</g>
</g>
<g>
	<g>
		<path class="st2" d="M1689.3-243.1h-10.2l-0.7-2.6l11.3-13.3h3v13h2.9v2.9h-2.9v4.6h-3.4L1689.3-243.1L1689.3-243.1z M1689.3-246
			v-8l-6.7,8H1689.3z"/>
		<path class="st2" d="M1698.9-248.6L1698.9-248.6c0-5.9,3.5-10.6,8.9-10.6c5.3,0,8.8,4.6,8.8,10.4v0.1c0,5.8-3.5,10.5-8.9,10.5
			C1702.4-238.2,1698.9-242.8,1698.9-248.6z M1712.9-248.6L1712.9-248.6c0-4.1-2.1-7.3-5.2-7.3s-5.1,3.2-5.1,7.2v0.1
			c0,4,2,7.3,5.2,7.3C1710.9-241.4,1712.9-244.6,1712.9-248.6z"/>
		<path class="st2" d="M1720.1-248.6L1720.1-248.6c0-5.9,3.5-10.6,8.9-10.6c5.3,0,8.8,4.6,8.8,10.4v0.1c0,5.8-3.5,10.5-8.9,10.5
			S1720.1-242.8,1720.1-248.6z M1734.1-248.6L1734.1-248.6c0-4.1-2.1-7.3-5.2-7.3s-5.1,3.2-5.1,7.2v0.1c0,4,2,7.3,5.2,7.3
			C1732.1-241.4,1734.1-244.6,1734.1-248.6z"/>
	</g>
</g>
<g>
	<g>
		<path class="st2" d="M1680.4-117.4l2.5-2.3c1.5,1.7,3.1,2.7,5.3,2.7c2,0,3.5-1.2,3.5-3.1v-0.1c0-2-1.8-3.1-4.7-3.1h-1.7l-0.6-2.2
			l5.5-5.8h-8.8v-3.1h13.6v2.7l-5.7,5.8c3.1,0.4,6,1.9,6,5.7v0.1c0,3.7-2.9,6.4-7.1,6.4C1684.7-113.8,1682.1-115.3,1680.4-117.4z"/>
		<path class="st2" d="M1698.9-124.3L1698.9-124.3c0-5.9,3.5-10.6,8.9-10.6c5.3,0,8.8,4.6,8.8,10.4v0.1c0,5.8-3.5,10.5-8.9,10.5
			C1702.4-113.8,1698.9-118.5,1698.9-124.3z M1712.9-124.3L1712.9-124.3c0-4.1-2.1-7.3-5.2-7.3s-5.1,3.2-5.1,7.2v0.1
			c0,4,2,7.3,5.2,7.3C1710.9-117.1,1712.9-120.3,1712.9-124.3z"/>
		<path class="st2" d="M1720.1-124.3L1720.1-124.3c0-5.9,3.5-10.6,8.9-10.6c5.3,0,8.8,4.6,8.8,10.4v0.1c0,5.8-3.5,10.5-8.9,10.5
			C1723.5-113.8,1720.1-118.5,1720.1-124.3z M1734.1-124.3L1734.1-124.3c0-4.1-2.1-7.3-5.2-7.3s-5.1,3.2-5.1,7.2v0.1
			c0,4,2,7.3,5.2,7.3C1732.1-117.1,1734.1-120.3,1734.1-124.3z"/>
	</g>
</g>
<g>
	<g>
		<path class="st2" d="M1680.8,7.3l7-5.9c2.8-2.3,3.8-3.7,3.8-5.5c0-2-1.4-3.2-3.3-3.2s-3.1,1-4.7,3l-2.5-2c1.9-2.7,3.9-4.3,7.5-4.3
			c4,0,6.7,2.4,6.7,6.1v0.1c0,3.2-1.7,4.9-5.3,7.9l-4.2,3.5h9.7v3.1h-14.7V7.3z"/>
		<path class="st2" d="M1698.9,0.1L1698.9,0.1c0-5.9,3.5-10.6,8.9-10.6c5.3,0,8.8,4.6,8.8,10.4V0c0,5.8-3.5,10.5-8.9,10.5
			C1702.4,10.5,1698.9,5.9,1698.9,0.1z M1712.9,0.1L1712.9,0.1c0-4.1-2.1-7.3-5.2-7.3s-5.1,3.2-5.1,7.2v0.1c0,4,2,7.3,5.2,7.3
			C1710.9,7.3,1712.9,4.1,1712.9,0.1z"/>
		<path class="st2" d="M1720.1,0.1L1720.1,0.1c0-5.9,3.5-10.6,8.9-10.6c5.3,0,8.8,4.6,8.8,10.4V0c0,5.8-3.5,10.5-8.9,10.5
			C1723.5,10.5,1720.1,5.9,1720.1,0.1z M1734.1,0.1L1734.1,0.1c0-4.1-2.1-7.3-5.2-7.3s-5.1,3.2-5.1,7.2v0.1c0,4,2,7.3,5.2,7.3
			C1732.1,7.3,1734.1,4.1,1734.1,0.1z"/>
	</g>
</g>
<g>
	<g>
		<path class="st2" d="M1690.8,117.7l-3.7,1l-0.8-2.9l5.5-1.7h2.5v20.4h-3.5V117.7z"/>
		<path class="st2" d="M1698.9,124.4L1698.9,124.4c0-5.9,3.5-10.6,8.9-10.6c5.3,0,8.8,4.6,8.8,10.4v0.1c0,5.8-3.5,10.5-8.9,10.5
			C1702.4,134.8,1698.9,130.2,1698.9,124.4z M1712.9,124.4L1712.9,124.4c0-4.1-2.1-7.3-5.2-7.3s-5.1,3.2-5.1,7.2v0.1
			c0,4,2,7.3,5.2,7.3C1710.9,131.6,1712.9,128.4,1712.9,124.4z"/>
		<path class="st2" d="M1720.1,124.4L1720.1,124.4c0-5.9,3.5-10.6,8.9-10.6c5.3,0,8.8,4.6,8.8,10.4v0.1c0,5.8-3.5,10.5-8.9,10.5
			S1720.1,130.2,1720.1,124.4z M1734.1,124.4L1734.1,124.4c0-4.1-2.1-7.3-5.2-7.3s-5.1,3.2-5.1,7.2v0.1c0,4,2,7.3,5.2,7.3
			C1732.1,131.6,1734.1,128.4,1734.1,124.4z"/>
	</g>
</g>
<g>
	<g>
		<path class="st2" d="M1720.1,248.7L1720.1,248.7c0-5.9,3.5-10.6,8.9-10.6c5.3,0,8.8,4.6,8.8,10.4v0.1c0,5.8-3.5,10.5-8.9,10.5
			C1723.5,259.2,1720.1,254.5,1720.1,248.7z M1734.1,248.7L1734.1,248.7c0-4.1-2.1-7.3-5.2-7.3s-5.1,3.2-5.1,7.2v0.1
			c0,4,2,7.3,5.2,7.3C1732.1,256,1734.1,252.7,1734.1,248.7z"/>
	</g>
</g>
<g>
	<g>
		<path class="st2" d="M2049.7,303.6c-1.5-1.6-2.5-3.7-2.5-7.8v-0.1c0-6.2,3-11.1,8.7-11.1c2.6,0,4.4,0.8,6.2,2.3l-1.9,2.8
			c-1.4-1.1-2.6-1.8-4.4-1.8c-3,0-4.7,2.7-4.9,6.4c1.1-1,2.5-2,4.8-2c3.9,0,7.1,2.3,7.1,6.4v0.1c0,4-3.3,6.9-7.5,6.9
			C2052.9,305.8,2051.1,305,2049.7,303.6z M2059.3,299L2059.3,299c0-2.1-1.6-3.6-4.1-3.6s-4.1,1.6-4.1,3.6v0.1
			c0,2.1,1.7,3.7,4.2,3.7C2057.8,302.7,2059.3,301.1,2059.3,299z"/>
		<path class="st2" d="M2076.5,301.2v-8.1h-1.9v-3h1.9v-4.2h3.5v4.2h4.1v3h-4.1v7.5c0,1.4,0.7,1.9,1.9,1.9c0.8,0,1.5-0.2,2.2-0.5
			v2.9c-0.9,0.5-1.9,0.8-3.2,0.8C2078.3,305.7,2076.5,304.5,2076.5,301.2z"/>
		<path class="st2" d="M2086.6,297.8L2086.6,297.8c0-4.4,3.5-8.1,8.2-8.1c4.7,0,8.2,3.6,8.2,7.9v0.1c0,4.4-3.5,8-8.2,8
			C2090,305.8,2086.6,302.2,2086.6,297.8z M2099.4,297.8L2099.4,297.8c0-2.8-1.9-5-4.7-5c-2.8,0-4.6,2.2-4.6,4.9v0.1
			c0,2.7,1.9,4.9,4.7,4.9S2099.4,300.5,2099.4,297.8z"/>
		<path class="st2" d="M2118.4,288.6l-3.7,1l-0.8-2.9l5.5-1.7h2.5v20.5h-3.5V288.6z"/>
		<path class="st2" d="M2126.5,295.3L2126.5,295.3c0-5.9,3.5-10.6,8.9-10.6c5.3,0,8.8,4.6,8.8,10.4v0.1c0,5.8-3.5,10.5-8.9,10.5
			C2130,305.8,2126.5,301.1,2126.5,295.3z M2140.5,295.3L2140.5,295.3c0-4.1-2.1-7.3-5.2-7.3s-5.1,3.2-5.1,7.2v0.1
			c0,4,2,7.3,5.2,7.3C2138.6,302.6,2140.5,299.3,2140.5,295.3z"/>
	</g>
</g>
<g>
	<g>
		<path class="st2" d="M2264.7,288.6l-3.7,1l-0.8-2.9l5.5-1.7h2.5v20.5h-3.5V288.6z"/>
		<path class="st2" d="M2276.3,288.6l-3.7,1l-0.8-2.9l5.5-1.7h2.5v20.5h-3.5V288.6z"/>
		<path class="st2" d="M2294.6,301.2v-8.1h-1.9v-3h1.9v-4.2h3.5v4.2h4.1v3h-4.1v7.5c0,1.4,0.7,1.9,1.9,1.9c0.8,0,1.5-0.2,2.2-0.5
			v2.9c-0.9,0.5-1.9,0.8-3.2,0.8C2296.4,305.7,2294.6,304.5,2294.6,301.2z"/>
		<path class="st2" d="M2304.6,297.8L2304.6,297.8c0-4.4,3.5-8.1,8.2-8.1c4.7,0,8.2,3.6,8.2,7.9v0.1c0,4.4-3.5,8-8.2,8
			C2308.1,305.8,2304.6,302.2,2304.6,297.8z M2317.4,297.8L2317.4,297.8c0-2.8-1.9-5-4.7-5c-2.8,0-4.6,2.2-4.6,4.9v0.1
			c0,2.7,1.9,4.9,4.7,4.9S2317.4,300.5,2317.4,297.8z"/>
		<path class="st2" d="M2336.4,288.6l-3.7,1l-0.8-2.9l5.5-1.7h2.5v20.5h-3.5V288.6z"/>
		<path class="st2" d="M2344.3,302.6l2.2-2.6c1.6,1.5,3.3,2.4,5.2,2.4c2.4,0,4-1.4,4-3.5v-0.1c0-2.1-1.7-3.4-4.2-3.4
			c-1.5,0-2.7,0.4-3.7,0.9l-2.1-1.4l0.6-9.9h12.1v3.2h-9.1l-0.3,4.8c1-0.3,1.9-0.6,3.2-0.6c3.9,0,7,2.1,7,6.4v0.1
			c0,4.1-3,6.9-7.5,6.9C2348.6,305.8,2346.2,304.5,2344.3,302.6z"/>
	</g>
</g>
<g>
	<g>
		<path class="st2" d="M2468,288.6l-3.7,1l-0.8-2.9l5.5-1.7h2.5v20.5h-3.5V288.6z"/>
		<path class="st2" d="M2478.6,303.6c-1.5-1.6-2.5-3.7-2.5-7.8v-0.1c0-6.2,3-11.1,8.7-11.1c2.6,0,4.4,0.8,6.2,2.3l-1.9,2.8
			c-1.4-1.1-2.6-1.8-4.4-1.8c-3,0-4.7,2.7-4.9,6.4c1.1-1,2.5-2,4.8-2c3.9,0,7.1,2.3,7.1,6.4v0.1c0,4-3.3,6.9-7.5,6.9
			C2481.7,305.8,2479.9,305,2478.6,303.6z M2488.2,299L2488.2,299c0-2.1-1.6-3.6-4.1-3.6s-4.1,1.6-4.1,3.6v0.1
			c0,2.1,1.7,3.7,4.2,3.7C2486.7,302.7,2488.2,301.1,2488.2,299z"/>
		<path class="st2" d="M2505.4,301.2v-8.1h-1.9v-3h1.9v-4.2h3.5v4.2h4.1v3h-4.1v7.5c0,1.4,0.7,1.9,1.9,1.9c0.8,0,1.5-0.2,2.2-0.5
			v2.9c-0.9,0.5-1.9,0.8-3.2,0.8C2507.2,305.7,2505.4,304.5,2505.4,301.2z"/>
		<path class="st2" d="M2515.4,297.8L2515.4,297.8c0-4.4,3.5-8.1,8.2-8.1c4.7,0,8.2,3.6,8.2,7.9v0.1c0,4.4-3.5,8-8.2,8
			C2518.9,305.8,2515.4,302.2,2515.4,297.8z M2528.3,297.8L2528.3,297.8c0-2.8-1.9-5-4.7-5c-2.8,0-4.6,2.2-4.6,4.9v0.1
			c0,2.7,1.9,4.9,4.7,4.9C2526.5,302.7,2528.3,300.5,2528.3,297.8z"/>
		<path class="st2" d="M2543.5,302.6l7-5.9c2.8-2.3,3.8-3.7,3.8-5.5c0-2-1.4-3.2-3.3-3.2s-3.1,1-4.7,3l-2.5-2
			c1.9-2.7,3.9-4.3,7.5-4.3c4,0,6.7,2.4,6.7,6.1v0.1c0,3.2-1.7,4.9-5.3,7.9l-4.2,3.5h9.7v3.1h-14.7V302.6z"/>
		<path class="st2" d="M2561.7,295.3L2561.7,295.3c0-5.9,3.5-10.6,8.9-10.6c5.3,0,8.8,4.6,8.8,10.4v0.1c0,5.8-3.5,10.5-8.9,10.5
			C2565.2,305.8,2561.7,301.1,2561.7,295.3z M2575.7,295.3L2575.7,295.3c0-4.1-2.1-7.3-5.2-7.3s-5.1,3.2-5.1,7.2v0.1
			c0,4,2,7.3,5.2,7.3C2573.8,302.6,2575.7,299.3,2575.7,295.3z"/>
	</g>
</g>
<g>
	<g>
		<path class="st2" d="M2681.3,302.6l7-5.9c2.8-2.3,3.8-3.7,3.8-5.5c0-2-1.4-3.2-3.3-3.2s-3.1,1-4.7,3l-2.5-2
			c1.9-2.7,3.9-4.3,7.5-4.3c4,0,6.7,2.4,6.7,6.1v0.1c0,3.2-1.7,4.9-5.3,7.9l-4.2,3.5h9.7v3.1h-14.7V302.6z"/>
		<path class="st2" d="M2702.9,288.6l-3.7,1l-0.8-2.9l5.5-1.7h2.5v20.5h-3.5V288.6z"/>
		<path class="st2" d="M2721.2,301.2v-8.1h-1.9v-3h1.9v-4.2h3.5v4.2h4.1v3h-4.1v7.5c0,1.4,0.7,1.9,1.9,1.9c0.8,0,1.5-0.2,2.2-0.5
			v2.9c-0.9,0.5-1.9,0.8-3.2,0.8C2723,305.7,2721.2,304.5,2721.2,301.2z"/>
		<path class="st2" d="M2731.2,297.8L2731.2,297.8c0-4.4,3.5-8.1,8.2-8.1s8.2,3.6,8.2,7.9v0.1c0,4.4-3.5,8-8.2,8
			C2734.7,305.8,2731.2,302.2,2731.2,297.8z M2744,297.8L2744,297.8c0-2.8-1.9-5-4.7-5s-4.6,2.2-4.6,4.9v0.1c0,2.7,1.9,4.9,4.7,4.9
			S2744,300.5,2744,297.8z"/>
		<path class="st2" d="M2769.8,300.9h-10.2l-0.7-2.6l11.3-13.3h3v13h2.9v2.9h-2.9v4.6h-3.4L2769.8,300.9L2769.8,300.9z
			 M2769.8,297.9v-8l-6.7,8H2769.8z"/>
		<path class="st2" d="M2779.4,295.3L2779.4,295.3c0-5.9,3.5-10.6,8.9-10.6c5.3,0,8.8,4.6,8.8,10.4v0.1c0,5.8-3.5,10.5-8.9,10.5
			S2779.4,301.1,2779.4,295.3z M2793.4,295.3L2793.4,295.3c0-4.1-2.1-7.3-5.2-7.3c-3.1,0-5.1,3.2-5.1,7.2v0.1c0,4,2,7.3,5.2,7.3
			C2791.5,302.5,2793.4,299.3,2793.4,295.3z"/>
	</g>
</g>
<g>
	<g>
		<path class="st2" d="M2895.1,295.3L2895.1,295.3c0-5.8,4.4-10.6,10.6-10.6s10.6,4.7,10.6,10.4v0.1c0,5.7-4.4,10.5-10.6,10.5
			S2895.1,301,2895.1,295.3z M2912.6,295.3L2912.6,295.3c0-4-2.9-7.3-6.9-7.3s-6.8,3.2-6.8,7.2v0.1c0,3.9,2.9,7.2,6.9,7.2
			S2912.6,299.3,2912.6,295.3z"/>
		<path class="st2" d="M2919,290.1h3.8l4.1,11.3l4.1-11.3h3.7l-6.3,15.4h-3.2L2919,290.1z"/>
		<path class="st2" d="M2936.1,297.8L2936.1,297.8c0-4.4,3.1-8,7.5-8c4.9,0,7.3,3.8,7.3,8.2c0,0.3,0,0.6-0.1,1h-11.3
			c0.4,2.5,2.1,3.9,4.4,3.9c1.7,0,2.9-0.6,4.1-1.8l2.1,1.8c-1.5,1.7-3.5,2.9-6.3,2.9C2939.5,305.8,2936.1,302.5,2936.1,297.8z
			 M2947.4,296.7c-0.2-2.3-1.6-4-3.9-4c-2.1,0-3.7,1.7-4,4H2947.4z"/>
		<path class="st2" d="M2954.6,290.1h3.5v3.5c1-2.3,2.7-3.9,5.4-3.7v3.7h-0.2c-3.1,0-5.2,2-5.2,6.1v5.8h-3.5V290.1L2954.6,290.1z"/>
		<path class="st2" d="M2985.3,300.9h-10.2l-0.7-2.6l11.3-13.3h3v13h2.9v2.9h-2.9v4.6h-3.4L2985.3,300.9L2985.3,300.9z
			 M2985.3,297.9v-8l-6.7,8H2985.3z"/>
		<path class="st2" d="M2994.9,295.3L2994.9,295.3c0-5.9,3.5-10.6,8.9-10.6c5.3,0,8.8,4.6,8.8,10.4v0.1c0,5.8-3.5,10.5-8.9,10.5
			C2998.4,305.8,2994.9,301.1,2994.9,295.3z M3008.9,295.3L3008.9,295.3c0-4.1-2.1-7.3-5.2-7.3c-3.1,0-5.1,3.2-5.1,7.2v0.1
			c0,4,2,7.3,5.2,7.3S3008.9,299.3,3008.9,295.3z"/>
	</g>
</g>
<g>
	<polyline class="st3" points="3009.8,249.8 1773.8,249.8 1773.8,-496.2 3009.8,-496.2 	"/>
	<g>
		<line class="st3" x1="1881.2" y1="249.8" x2="1881.2" y2="-496.2"/>
		<line class="st3" x1="2095.7" y1="249.8" x2="2095.7" y2="-496.2"/>
		<line class="st3" x1="2310.2" y1="249.8" x2="2310.2" y2="-496.2"/>
		<line class="st3" x1="2524.8" y1="249.8" x2="2524.8" y2="-496.2"/>
		<line class="st3" x1="2739.3" y1="249.8" x2="2739.3" y2="-496.2"/>
		<line class="st3" x1="2953.8" y1="249.8" x2="2953.8" y2="-496.2"/>
	</g>
	<g>
		<line class="st3" x1="1773.8" y1="125.5" x2="3009.8" y2="125.5"/>
		<line class="st3" x1="1773.8" y1="1.2" x2="3009.8" y2="1.2"/>
		<line class="st3" x1="1773.8" y1="-123.2" x2="3009.8" y2="-123.2"/>
		<line class="st3" x1="1773.8" y1="-247.5" x2="3009.8" y2="-247.5"/>
		<line class="st3" x1="1773.8" y1="-371.9" x2="3009.8" y2="-371.9"/>
	</g>
	<g>
		<path class="st4" d="M2096.8,132.5h-215.6c-3.9,0-7-3.1-7-7s3.1-7,7-7h213.4L2308.8,49l213.6-23.3l212-136.1l213.8-295.9
			c2.3-3.1,6.6-3.8,9.8-1.6c3.1,2.3,3.8,6.6,1.6,9.8L2744.3-100l-1.1,0.7L2527.3,39.3l-215.5,23.5L2096.8,132.5z"/>
	</g>
</g>
</svg>
