<?xml version="1.0" encoding="utf-8"?>
<!-- Generator: Adobe Illustrator 19.1.0, SVG Export Plug-In . SVG Version: 6.00 Build 0)  -->
<svg version="1.1" id="Layer_1" xmlns="http://www.w3.org/2000/svg" xmlns:xlink="http://www.w3.org/1999/xlink" x="0px" y="0px"
	 viewBox="988.2 -744 1599.6 1537" style="enable-background:new 988.2 -744 1599.6 1537;" width="1600px" height="1537px" xml:space="preserve">
<style type="text/css">
	.st0{fill:none;}
	.st1{opacity:5.000000e-002;enable-background:new    ;}
	.st2{fill:#FFFFFF;stroke:#E8E8E8;stroke-miterlimit:10;}
	.st3{fill:#E2E2E2;}
	.st4{fill:#F6F6F6;}
	.st5{fill:#F2F2F2;}
	.st6{fill:#5D5EF4;}
	.st7{fill:#FFFFFF;}
	.st8{fill:none;stroke:#E8E8E8;stroke-miterlimit:10;}
	.st9{fill:#DDDDDD;}
</style>
<rect x="988.2" y="-744" class="st0" width="1599.6" height="1537"/>
<g>
	<g>
		<path d="M1414.5-639.7h6.8v24.7h15.4v6.2h-22.1L1414.5-639.7L1414.5-639.7z"/>
		<path d="M1439.8-615.6L1439.8-615.6c0-5.2,3.9-7.6,9.5-7.6c2.4,0,4.1,0.4,5.8,1v-0.4c0-2.8-1.7-4.3-5.1-4.3
			c-2.6,0-4.4,0.5-6.5,1.3l-1.7-5.1c2.6-1.1,5.1-1.9,9.2-1.9c3.7,0,6.3,1,8,2.6c1.8,1.8,2.6,4.4,2.6,7.5v13.7h-6.5v-2.6
			c-1.6,1.8-3.9,3-7.1,3C1443.5-608.4,1439.8-611,1439.8-615.6z M1455.2-617.2v-1.2c-1.1-0.5-2.6-0.9-4.3-0.9
			c-2.9,0-4.6,1.1-4.6,3.3v0.1c0,1.8,1.5,2.9,3.7,2.9C1453-613,1455.2-614.8,1455.2-617.2z"/>
		<path d="M1467.5-632.4h6.7v3.3c1.5-2,3.5-3.8,6.9-3.8c5.1,0,8,3.3,8,8.8v15.3h-6.7V-622c0-3.2-1.5-4.8-4-4.8
			c-2.6,0-4.2,1.6-4.2,4.8v13.2h-6.7V-632.4L1467.5-632.4z"/>
		<path d="M1494.1-620.6L1494.1-620.6c0-8,5.1-12.3,10.7-12.3c3.6,0,5.8,1.6,7.3,3.5V-641h6.7v32.1h-6.7v-3.4
			c-1.6,2.2-3.9,3.8-7.3,3.8C1499.3-608.4,1494.1-612.7,1494.1-620.6z M1512.2-620.6L1512.2-620.6c0-4-2.6-6.6-5.7-6.6
			c-3.1,0-5.8,2.6-5.8,6.5v0.1c0,3.9,2.6,6.5,5.8,6.5C1509.6-614.1,1512.2-616.7,1512.2-620.6z"/>
		<path d="M1525.2-641h7v5.9h-7V-641z M1525.3-632.4h6.7v23.6h-6.7V-632.4z"/>
		<path d="M1538.5-632.4h6.7v3.3c1.5-2,3.5-3.8,6.9-3.8c5.1,0,8,3.3,8,8.8v15.3h-6.7V-622c0-3.2-1.5-4.8-4-4.8
			c-2.6,0-4.2,1.6-4.2,4.8v13.2h-6.7L1538.5-632.4L1538.5-632.4z"/>
		<path d="M1566.3-604.2l2.3-5c2.4,1.4,4.8,2.2,8,2.2c4.6,0,6.7-2.2,6.7-6.4v-1.1c-2,2.4-4.1,3.8-7.7,3.8c-5.5,0-10.5-4-10.5-11
			v-0.1c0-7,5.1-11,10.5-11c3.7,0,5.8,1.5,7.6,3.5v-3.1h6.7v18.3c0,4.2-1,7.3-3,9.3c-2.2,2.2-5.6,3.2-10.2,3.2
			C1572.9-601.7,1569.3-602.6,1566.3-604.2z M1583.3-621.8L1583.3-621.8c0-3.3-2.5-5.5-5.8-5.5s-5.7,2.2-5.7,5.5v0.1
			c0,3.3,2.5,5.5,5.7,5.5C1580.8-616.3,1583.3-618.6,1583.3-621.8z"/>
		<path d="M1610.1-639.7h12.6c7.3,0,11.8,4.4,11.8,10.6v0.1c0,7.1-5.5,10.8-12.5,10.8h-5.1v9.2h-6.8V-639.7z M1622.3-624.1
			c3.4,0,5.4-2,5.4-4.7v-0.1c0-3-2.1-4.7-5.5-4.7h-5.2v9.4L1622.3-624.1L1622.3-624.1z"/>
		<path d="M1637.2-615.6L1637.2-615.6c0-5.2,3.9-7.6,9.5-7.6c2.4,0,4.1,0.4,5.8,1v-0.4c0-2.8-1.7-4.3-5.1-4.3
			c-2.6,0-4.4,0.5-6.5,1.3l-1.7-5.1c2.6-1.1,5.1-1.9,9.2-1.9c3.7,0,6.3,1,8,2.6c1.8,1.8,2.6,4.4,2.6,7.5v13.7h-6.5v-2.6
			c-1.6,1.8-3.9,3-7.1,3C1640.8-608.4,1637.2-611,1637.2-615.6z M1652.5-617.2v-1.2c-1.1-0.5-2.6-0.9-4.3-0.9
			c-2.9,0-4.6,1.1-4.6,3.3v0.1c0,1.8,1.5,2.9,3.7,2.9C1650.4-613,1652.5-614.8,1652.5-617.2z"/>
		<path d="M1665-604.2l2.3-5c2.4,1.4,4.8,2.2,8,2.2c4.6,0,6.7-2.2,6.7-6.4v-1.1c-2,2.4-4.1,3.8-7.7,3.8c-5.5,0-10.5-4-10.5-11v-0.1
			c0-7,5.1-11,10.5-11c3.7,0,5.8,1.5,7.6,3.5v-3.1h6.7v18.3c0,4.2-1,7.3-3,9.3c-2.2,2.2-5.6,3.2-10.2,3.2
			C1671.6-601.7,1668-602.6,1665-604.2z M1682-621.8L1682-621.8c0-3.3-2.5-5.5-5.8-5.5s-5.7,2.2-5.7,5.5v0.1c0,3.3,2.5,5.5,5.7,5.5
			C1679.5-616.3,1682-618.6,1682-621.8z"/>
		<path d="M1693.6-620.5L1693.6-620.5c0-6.8,4.8-12.4,11.7-12.4c7.9,0,11.5,6.1,11.5,12.8c0,0.5,0,1.1-0.1,1.8h-16.4
			c0.7,3,2.8,4.6,5.8,4.6c2.2,0,3.9-0.7,5.7-2.4l3.8,3.4c-2.2,2.7-5.4,4.4-9.6,4.4C1698.9-608.3,1693.6-613.3,1693.6-620.5z
			 M1710.3-622.5c-0.4-3-2.2-5-5-5s-4.6,2-5.1,5H1710.3z"/>
		<path d="M1720.1-612l2.9-4.4c2.6,1.8,5.2,2.8,7.4,2.8c1.9,0,2.8-0.7,2.8-1.8v-0.1c0-1.5-2.3-1.9-4.9-2.7c-3.3-1-7-2.5-7-7.1v-0.1
			c0-4.8,3.9-7.5,8.6-7.5c3,0,6.2,1,8.8,2.7l-2.6,4.6c-2.3-1.4-4.7-2.2-6.4-2.2c-1.6,0-2.5,0.7-2.5,1.6v0.1c0,1.3,2.2,1.9,4.8,2.8
			c3.3,1.1,7.1,2.7,7.1,7v0.1c0,5.2-3.9,7.6-9,7.6C1726.9-608.4,1723.2-609.5,1720.1-612z"/>
		<path d="M1758.4-639.7h6.8v12.2h12.5v-12.2h6.8v30.8h-6.8v-12.4h-12.5v12.4h-6.8V-639.7z"/>
		<path d="M1789.9-615.6L1789.9-615.6c0-5.2,3.9-7.6,9.5-7.6c2.4,0,4.1,0.4,5.8,1v-0.4c0-2.8-1.7-4.3-5.1-4.3
			c-2.6,0-4.4,0.5-6.5,1.3l-1.7-5.1c2.6-1.1,5.1-1.9,9.2-1.9c3.7,0,6.3,1,8,2.6c1.8,1.8,2.6,4.4,2.6,7.5v13.7h-6.5v-2.6
			c-1.6,1.8-3.9,3-7.1,3C1793.6-608.4,1789.9-611,1789.9-615.6z M1805.3-617.2v-1.2c-1.1-0.5-2.6-0.9-4.3-0.9
			c-2.9,0-4.6,1.1-4.6,3.3v0.1c0,1.8,1.5,2.9,3.7,2.9C1803.2-613,1805.3-614.8,1805.3-617.2z"/>
		<path d="M1814.6-632.4h7.1l5.3,15.8l5.3-15.8h7l-9.3,23.8h-6.1L1814.6-632.4z"/>
		<path d="M1840.9-620.5L1840.9-620.5c0-6.8,4.8-12.4,11.7-12.4c7.9,0,11.5,6.1,11.5,12.8c0,0.5,0,1.1-0.1,1.8h-16.4
			c0.7,3,2.8,4.6,5.8,4.6c2.2,0,3.9-0.7,5.7-2.4l3.8,3.4c-2.2,2.7-5.4,4.4-9.6,4.4C1846.1-608.3,1840.9-613.3,1840.9-620.5z
			 M1857.5-622.5c-0.4-3-2.2-5-5-5s-4.6,2-5.1,5H1857.5z"/>
		<path d="M1881.2-615.6L1881.2-615.6c0-5.2,3.9-7.6,9.5-7.6c2.4,0,4.1,0.4,5.8,1v-0.4c0-2.8-1.7-4.3-5.1-4.3
			c-2.6,0-4.4,0.5-6.5,1.3l-1.7-5.1c2.6-1.1,5.1-1.9,9.2-1.9c3.7,0,6.3,1,8,2.6c1.8,1.8,2.6,4.4,2.6,7.5v13.7h-6.5v-2.6
			c-1.6,1.8-3.9,3-7.1,3C1884.9-608.4,1881.2-611,1881.2-615.6z M1896.6-617.2v-1.2c-1.1-0.5-2.6-0.9-4.3-0.9
			c-2.9,0-4.6,1.1-4.6,3.3v0.1c0,1.8,1.5,2.9,3.7,2.9C1894.5-613,1896.6-614.8,1896.6-617.2z"/>
		<path d="M1920.9-613.4l4-4.8c2.8,2.3,5.7,3.7,9.2,3.7c2.8,0,4.4-1.1,4.4-2.9v-0.1c0-1.7-1.1-2.6-6.2-3.9
			c-6.2-1.6-10.2-3.3-10.2-9.4v-0.1c0-5.6,4.5-9.3,10.8-9.3c4.5,0,8.3,1.4,11.4,3.9l-3.5,5.1c-2.7-1.9-5.4-3-8-3s-4,1.2-4,2.7v0.1
			c0,2,1.3,2.7,6.6,4c6.2,1.6,9.8,3.9,9.8,9.2v0.1c0,6.1-4.7,9.5-11.3,9.5C1929.3-608.4,1924.6-610,1920.9-613.4z"/>
		<path d="M1950.8-641h7v5.9h-7V-641z M1951-632.4h6.7v23.6h-6.7V-632.4z"/>
		<path d="M1964.2-632.4h6.7v3.3c1.5-2,3.5-3.8,6.9-3.8c5.1,0,8,3.3,8,8.8v15.3h-6.7V-622c0-3.2-1.5-4.8-4-4.8
			c-2.6,0-4.2,1.6-4.2,4.8v13.2h-6.7L1964.2-632.4L1964.2-632.4z"/>
		<path d="M1991.9-604.2l2.3-5c2.4,1.4,4.8,2.2,8,2.2c4.6,0,6.7-2.2,6.7-6.4v-1.1c-2,2.4-4.1,3.8-7.7,3.8c-5.5,0-10.5-4-10.5-11
			v-0.1c0-7,5.1-11,10.5-11c3.7,0,5.8,1.5,7.6,3.5v-3.1h6.7v18.3c0,4.2-1,7.3-3,9.3c-2.2,2.2-5.6,3.2-10.2,3.2
			C1998.5-601.7,1994.9-602.6,1991.9-604.2z M2008.9-621.8L2008.9-621.8c0-3.3-2.5-5.5-5.8-5.5s-5.7,2.2-5.7,5.5v0.1
			c0,3.3,2.5,5.5,5.7,5.5C2006.4-616.3,2008.9-618.6,2008.9-621.8z"/>
		<path d="M2022-641h6.7v32.1h-6.7V-641z"/>
		<path d="M2034-620.5L2034-620.5c0-6.8,4.8-12.4,11.7-12.4c7.9,0,11.5,6.1,11.5,12.8c0,0.5,0,1.1-0.1,1.8h-16.4
			c0.7,3,2.8,4.6,5.8,4.6c2.2,0,3.9-0.7,5.7-2.4l3.8,3.4c-2.2,2.7-5.4,4.4-9.6,4.4C2039.3-608.3,2034-613.3,2034-620.5z
			 M2050.7-622.5c-0.4-3-2.2-5-5-5s-4.6,2-5.1,5H2050.7z"/>
		<path d="M2075.1-624.2L2075.1-624.2c0-8.8,6.6-16,16.1-16c5.8,0,9.3,1.9,12.1,4.8l-4.3,5c-2.4-2.2-4.8-3.5-7.9-3.5
			c-5.2,0-8.9,4.3-8.9,9.6v0.1c0,5.3,3.7,9.7,8.9,9.7c3.5,0,5.7-1.4,8.1-3.6l4.3,4.4c-3.2,3.4-6.7,5.5-12.6,5.5
			C2081.9-608.3,2075.1-615.3,2075.1-624.2z"/>
		<path d="M2116.4-633.4h-9.4v-6.2h25.5v6.2h-9.4v24.6h-6.8v-24.6H2116.4z"/>
		<path d="M2144.5-639.9h6.2l13.2,31h-7.1l-2.8-6.9h-13l-2.8,6.9h-6.9L2144.5-639.9z M2151.6-621.8l-4.1-10l-4.1,10H2151.6
			L2151.6-621.8z"/>
	</g>
</g>
<g>
	<g>
		<path class="st1" d="M2413.3,689H1142.7c-5.2,0-9.4-4.2-9.4-9.4V-475.7c0-6.3,5.1-11.5,11.5-11.5h1266.4c6.3,0,11.5,5.1,11.5,11.5
			V679.7C2422.6,684.8,2418.4,689,2413.3,689z"/>
		<path class="st2" d="M2423.3,669H1152.7c-5.2,0-9.4-4.2-9.4-9.4V-495.7c0-6.3,5.1-11.5,11.5-11.5h1266.4c6.3,0,11.5,5.1,11.5,11.5
			V659.7C2432.6,664.8,2428.4,669,2423.3,669z"/>
		<path class="st3" d="M2432.6-442H1143.4v-55.8c0-5.2,4.2-9.4,9.4-9.4h1270.6c5.2,0,9.4,4.2,9.4,9.4L2432.6-442L2432.6-442z"/>
	</g>
	<g>
		<g>
			<ellipse class="st4" cx="1267.1" cy="-474.6" rx="9" ry="9.3"/>
			<ellipse class="st4" cx="1230.5" cy="-474.6" rx="9" ry="9.3"/>
			<ellipse class="st4" cx="1194" cy="-474.6" rx="9" ry="9.3"/>
		</g>
	</g>
</g>
<g>
	<rect x="1255" y="-226.8" class="st5" width="352.3" height="16.7"/>
	<rect x="1255" y="-269.6" class="st5" width="512.9" height="16.7"/>
	<rect x="1255" y="-352.2" class="st5" width="512.9" height="29"/>
</g>
<g>
	<path class="st6" d="M1768.5,34.6h-507.1c-3.5,0-6.4-2.8-6.4-6.4v-61.4c0-3.5,2.8-6.4,6.4-6.4h507.2c3.5,0,6.4,2.8,6.4,6.4v61.5
		C1774.9,31.8,1772.1,34.6,1768.5,34.6z"/>
	<g>
		<g>
			<path class="st7" d="M1487.6-1.9L1487.6-1.9c0-5.6,4.2-10.2,10.2-10.2c3.7,0,5.9,1.2,7.7,3l-2.7,3.2c-1.5-1.4-3.1-2.2-5-2.2
				c-3.3,0-5.7,2.7-5.7,6.1v0.1c0,3.4,2.3,6.2,5.7,6.2c2.2,0,3.6-0.9,5.2-2.3l2.7,2.8c-2,2.2-4.3,3.5-8,3.5
				C1491.9,8.2,1487.6,3.7,1487.6-1.9z"/>
			<path class="st7" d="M1514.4-7.8h-6v-4h16.2v4h-6V7.8h-4.3L1514.4-7.8L1514.4-7.8z"/>
			<path class="st7" d="M1532.9-11.9h4l8.4,19.7h-4.5l-1.8-4.4h-8.3l-1.8,4.4h-4.4L1532.9-11.9z M1537.4-0.4l-2.6-6.4l-2.6,6.4
				H1537.4z"/>
		</g>
	</g>
</g>
<line class="st8" x1="1143.3" y1="119.9" x2="2432.5" y2="119.9"/>
<line class="st8" x1="1143.4" y1="594.2" x2="2432.6" y2="594.2"/>
<g>
	<path class="st5" d="M2312.5,34.6h-391c-4.7,0-8.5-3.8-8.5-8.5v-369.9c0-4.7,3.8-8.5,8.5-8.5h391c4.7,0,8.5,3.8,8.5,8.5V26.1
		C2321,30.8,2317.2,34.6,2312.5,34.6z"/>
	<g>
		<g>
			<path class="st9" d="M2235.7-70.2h-237.5v-177.6h237.5V-70.2z M2000.2-72.2h233.5v-173.6h-233.5V-72.2L2000.2-72.2z"/>
		</g>
		<g>
			<path class="st9" d="M2235.7-70.2h-237.5v-177.6h237.5V-70.2z M2000.2-72.2h233.5v-173.6h-233.5V-72.2L2000.2-72.2z"/>
		</g>
		<g>
			<polygon class="st9" points="2068.3,-70.4 2066.9,-71.9 2198.2,-203.1 2235.4,-166 2234,-164.6 2198.2,-200.3 			"/>
		</g>
		<g>
			<polygon class="st9" points="2000.2,-70.1 1998.8,-71.5 2094.7,-167.4 2129.3,-132.9 2127.9,-131.4 2094.7,-164.6 			"/>
		</g>
		<g>
			<path class="st9" d="M2049.2-177.9c-10.7,0-19.4-8.7-19.4-19.4s8.7-19.4,19.4-19.4c10.7,0,19.4,8.7,19.4,19.4
				C2068.6-186.6,2059.9-177.9,2049.2-177.9z M2049.2-214.7c-9.6,0-17.4,7.8-17.4,17.4c0,9.6,7.8,17.4,17.4,17.4
				c9.6,0,17.4-7.8,17.4-17.4S2058.8-214.7,2049.2-214.7z"/>
		</g>
	</g>
</g>
<g>
	<g>
		<path class="st6" d="M1768.5-136.1c1.3,0,2.4,1.1,2.4,2.4v61.5c0,1.3-1.1,2.4-2.4,2.4h-507.1c-1.3,0-2.4-1.1-2.4-2.4v-61.5
			c0-1.3,1.1-2.4,2.4-2.4H1768.5 M1768.5-140.1h-507.1c-3.5,0-6.4,2.8-6.4,6.4v61.5c0,3.5,2.8,6.4,6.4,6.4h507.2
			c3.5,0,6.4-2.8,6.4-6.4v-61.5C1774.9-137.2,1772.1-140.1,1768.5-140.1L1768.5-140.1z"/>
	</g>
</g>
<g>
	<path class="st6" d="M2314.6,504.4h-473.5v-74.2h473.5c3.5,0,6.4,2.8,6.4,6.4v61.5C2321,501.6,2318.2,504.4,2314.6,504.4z"/>
	<g>
		<g>
			<path class="st7" d="M2053.6,467.9L2053.6,467.9c0-5.6,4.2-10.2,10.2-10.2c3.7,0,5.9,1.2,7.7,3l-2.7,3.2c-1.5-1.4-3.1-2.2-5-2.2
				c-3.3,0-5.7,2.7-5.7,6.1v0.1c0,3.4,2.3,6.2,5.7,6.2c2.2,0,3.6-0.9,5.2-2.3l2.7,2.8c-2,2.2-4.3,3.5-8,3.5
				C2057.9,478,2053.6,473.5,2053.6,467.9z"/>
			<path class="st7" d="M2080.4,462h-6v-4h16.2v4h-6v15.6h-4.3V462H2080.4z"/>
			<path class="st7" d="M2098.9,457.9h4l8.4,19.7h-4.5l-1.8-4.4h-8.3l-1.8,4.4h-4.4L2098.9,457.9z M2103.4,469.4l-2.6-6.4l-2.6,6.4
				H2103.4z"/>
		</g>
	</g>
</g>
<g>
	<g>
		<path class="st6" d="M1941.8,434.2c1.3,0,2.4,1.1,2.4,2.4v61.5c0,1.3-1.1,2.4-2.4,2.4h-680.4c-1.3,0-2.4-1.1-2.4-2.4v-61.5
			c0-1.3,1.1-2.4,2.4-2.4H1941.8 M1941.8,430.2h-680.4c-3.5,0-6.4,2.8-6.4,6.4v61.5c0,3.5,2.8,6.4,6.4,6.4h680.3
			c3.5,0,6.4-2.8,6.4-6.4v-61.5C1948.1,433,1945.3,430.2,1941.8,430.2L1941.8,430.2z"/>
	</g>
</g>
<g>
	<rect x="1492.4" y="333.7" class="st5" width="591.3" height="16.7"/>
	<rect x="1357.6" y="291" class="st5" width="860.8" height="16.7"/>
	<rect x="1357.6" y="208.4" class="st5" width="860.8" height="29"/>
</g>
</svg>
