<?xml version="1.0" encoding="utf-8"?>
<!-- Generator: Adobe Illustrator 19.1.0, SVG Export Plug-In . SVG Version: 6.00 Build 0)  -->
<svg version="1.1" id="Layer_1" xmlns="http://www.w3.org/2000/svg" xmlns:xlink="http://www.w3.org/1999/xlink" x="0px" y="0px"
	 viewBox="0 0 787.9 881.5" style="enable-background:new 0 0 787.9 881.5;" width="808px" height="904px" xml:space="preserve">
<style type="text/css">
	.st0{opacity:0.25;}
	.st1{fill:#FFFFFF;}
	.st2{fill:#B2B2FA;}
	.st3{fill:#5D5DF4;}
	.st4{fill:#E2F2FD;}
	.st5{opacity:0.4;}
	.st6{fill:#4ECFE0;}
	.st7{fill:#7FDDE9;}
	.st8{opacity:0.39;}
	.st9{fill:#00BCC1;}
	.st10{opacity:0.9;}
	.st11{opacity:0.1;}
	.st12{fill:#231F20;}
	.st13{opacity:0.24;}
	.st14{fill:#C480FF;}
	.st15{fill:#342191;}
	.st16{fill:#009587;}
	.st17{fill:#00BEA4;}
	.st18{opacity:0.2;}
	.st19{fill:#FDB595;}
	.st20{fill:#B066FF;}
	.st21{fill:none;}
	.st22{fill:#9346F7;}
	.st23{fill:#CE783F;}
	.st24{opacity:0.42;}
	.st25{fill:#81B0FF;}
	.st26{fill:#2A3337;}
	.st27{fill:#64FFD9;}
</style>
<g class="st0">
	<path class="st1" d="M107.9,131c0,0,167.3,0,213.1,0c45.2,0,25.6-45.9-3.6-47.3c-29.2-1.5-64.9-28.4-91-28.4
		c-37.6,0-32.6,33.3-70.6,23.1c-17.2-4.6-27.5,5.5-37.1,16.8c-10.4,12.2-19.1,8.7-24.8,17C86.7,122.6,98,131,107.9,131z"/>
</g>
<g>
	<path class="st2" d="M286.9,106H63.6c-18.8,0-32.4-3.7-37.4-10.2c-2-2.7-2.6-5.7-1.7-9.1c1.7-6.5,7.5-7.9,14.8-9.8
		c8.1-2,18.3-4.5,28.6-14.6c20.3-19.7,39.9-15,58.7-10.5l0.4,0.1c22,5.3,29.8-0.2,38.9-6.5c7.8-5.5,16.7-11.6,36-11.6c0,0,0,0,0,0
		c14.4,0,25.3,6.6,36.9,13.5c11.4,6.9,23.2,14,39,14.7C298,62.9,315.5,79,315.2,91C315.1,95.5,312.2,106,286.9,106z M101.7,49.9
		c-10.6,0-21.4,3.2-32.4,13.9C58.5,74.2,47.7,76.9,39.7,78.8c-7.2,1.8-11.9,3-13.4,8.3c-0.7,2.8-0.3,5.2,1.4,7.4
		c4.5,5.9,17.9,9.4,35.8,9.4h223.3c16.6,0,26.2-4.8,26.4-13.1c0.3-11.1-16.4-26-35.4-26.9c-16.4-0.7-28.4-8-40-15
		c-11.3-6.8-22-13.2-35.8-13.2c0,0,0,0,0,0c-18.7,0-26.9,5.7-34.9,11.3c-9.1,6.3-17.7,12.3-40.5,6.8l-0.4-0.1
		C118.1,51.9,109.9,49.9,101.7,49.9z"/>
</g>
<g>
	<path class="st3" d="M774.9,881.5H223.8c-7.1,0-12.9-5.8-12.9-12.9V12.9c0-7.1,5.8-12.9,12.9-12.9h551.1c7.1,0,12.9,5.8,12.9,12.9
		v855.6C787.9,875.7,782.1,881.5,774.9,881.5z"/>
</g>
<g>
	<g>
		<path class="st4" d="M146.2,871.8c0.2-1.7,3.2-40.4,2.9-44.4c-0.4-4.1,2.9-9.8,2.2-15.5c-1-8.3-2.3-18.1-3.9-28.9H56.5
			c1.7,15.8,1.4,29.3-1.9,38.9C52.3,828.7,146.2,871.8,146.2,871.8z"/>
	</g>
</g>
<g class="st5">
	<g>
		<rect x="67.2" y="783.1" class="st6" width="2" height="38.9"/>
	</g>
	<g>
		<rect x="84.7" y="783.1" class="st6" width="2" height="38.9"/>
	</g>
	<g>
		
			<rect x="84.2" y="801.9" transform="matrix(3.781663e-002 0.9993 -0.9993 3.781663e-002 902.3807 668.623)" class="st6" width="39.7" height="2"/>
	</g>
	<g>
		
			<rect x="102.4" y="801.9" transform="matrix(7.964663e-002 0.9968 -0.9968 7.964663e-002 912.9279 617.0184)" class="st6" width="39.8" height="2"/>
	</g>
	<g>
		
			<rect x="121.5" y="800.6" transform="matrix(0.1027 0.9947 -0.9947 0.1027 923.1732 579.9111)" class="st6" width="37.3" height="2"/>
	</g>
</g>
<g>
	<g>
		<path class="st7" d="M152.8,826.6c-0.4-4.1-0.9-9-1.6-14.6l-22,10H54.6c-2.3,6.7-6.1,11.6-11.8,14.1C12.5,849.2,3.1,862.9,1,871.7
			c-0.5,2.1-0.7,8.2-0.6,8.7h157.5C158.1,878.7,153.1,830.6,152.8,826.6z"/>
	</g>
</g>
<g>
	<path class="st6" d="M0.4,881.5h157.5c0.1-0.5-0.3-5.2-0.9-11.8l-155.6,0C0.1,875.5,0.4,880.6,0.4,881.5z"/>
</g>
<g>
	<path class="st1" d="M114.9,856.7c-7,0-12.7-5.7-12.7-12.7s5.7-12.7,12.7-12.7s12.7,5.7,12.7,12.7S121.9,856.7,114.9,856.7z
		 M114.9,833.4c-5.9,0-10.7,4.8-10.7,10.7s4.8,10.7,10.7,10.7s10.7-4.8,10.7-10.7S120.8,833.4,114.9,833.4z"/>
</g>
<g>
	<path class="st1" d="M132.8,869.7l-2-0.2c2.2-24,16.4-33,22.9-33.7l0.2,2C148.2,838.4,134.8,847.3,132.8,869.7z"/>
</g>
<g>
	<path class="st1" d="M51.6,841.5c-0.1,0-0.3,0-0.4-0.1l-10-5c-0.5-0.2-0.7-0.8-0.5-1.3c0.2-0.5,0.8-0.7,1.3-0.5l10,5
		c0.5,0.2,0.7,0.8,0.5,1.3C52.3,841.3,52,841.5,51.6,841.5z"/>
</g>
<g>
	<path class="st1" d="M59.7,835.7c-0.1,0-0.3,0-0.4-0.1l-10-5c-0.5-0.2-0.7-0.8-0.5-1.3c0.2-0.5,0.8-0.7,1.3-0.5l10,5
		c0.5,0.2,0.7,0.8,0.5,1.3C60.4,835.5,60,835.7,59.7,835.7z"/>
</g>
<g class="st8">
	<rect x="8.2" y="874.5" class="st9" width="77.5" height="2"/>
</g>
<g class="st10">
	<path class="st1" d="M774.9,881.5H223.8c-7.1,0-12.9-5.8-12.9-12.9V12.9c0-7.1,5.8-12.9,12.9-12.9h551.1c7.1,0,12.9,5.8,12.9,12.9
		v855.6C787.9,875.7,782.1,881.5,774.9,881.5z"/>
</g>
<g class="st11">
	<rect x="207.8" y="601.5" class="st12" width="523.1" height="206.9"/>
</g>
<g class="st13">
	<rect x="281.7" y="471" class="st14" width="436.1" height="288.8"/>
</g>
<g>
	<path class="st15" d="M787.9,39.6h-577V12.9c0-7.1,5.8-12.9,12.9-12.9h551.1c7.1,0,12.9,5.8,12.9,12.9V39.6z"/>
</g>
<g>
	<rect x="164.7" y="577.5" class="st1" width="580.9" height="206.9"/>
</g>
<g>
	<path class="st16" d="M606.3,431.9H392.5c-5.5,0-10-4.5-10-10V390c0-5.5,4.5-10,10-10h213.8c5.5,0,10,4.5,10,10v31.9
		C616.3,427.4,611.8,431.9,606.3,431.9z"/>
</g>
<g>
	<path class="st17" d="M606.3,425.9H392.5c-5.5,0-10-4.5-10-10V384c0-5.5,4.5-10,10-10h213.8c5.5,0,10,4.5,10,10v31.9
		C616.3,421.4,611.8,425.9,606.3,425.9z"/>
</g>
<g class="st11">
	<g>
		<path class="st12" d="M452.6,374h-55.8c-7.9,0-14.3,6.4-14.3,14.3v23.2c0,7.9,6.4,14.3,14.3,14.3h28c2.1-10.6,5.1-22.8,7.1-29.2
			C435.8,384.1,444.2,380,452.6,374z"/>
	</g>
</g>
<g>
	<rect x="281" y="108.9" class="st14" width="273.4" height="28.4"/>
</g>
<g>
	<rect x="575.6" y="108.9" class="st14" width="142.1" height="28.4"/>
</g>
<g class="st13">
	<rect x="281" y="191.5" class="st14" width="436.8" height="11.8"/>
</g>
<g class="st13">
	<rect x="281" y="245.3" class="st14" width="436.8" height="11.8"/>
</g>
<g class="st13">
	<rect x="281" y="299.2" class="st14" width="436.8" height="11.8"/>
</g>
<g>
	<rect x="209.2" y="626.1" class="st14" width="431.7" height="16.4"/>
</g>
<g>
	<g>
		<path class="st14" d="M533.9,681.2c4.4,0,8,3.6,8,8v30.6c0,4.4-3.6,8-8,8h-328v-46.6H533.9 M533.9,679.2h-330v50.6h330
			c5.5,0,10-4.5,10-10v-30.6C543.9,683.7,539.4,679.2,533.9,679.2L533.9,679.2z"/>
	</g>
</g>
<g>
	<path class="st17" d="M697.1,729.8H503.7v-50.6h193.4c5.5,0,10,4.5,10,10v30.6C707.1,725.3,702.6,729.8,697.1,729.8z"/>
</g>
<g>
	<g>
		<path class="st15" d="M249.9,467.8C0.5,486.7,8.4,508.1,12.1,573.3c3.2,56,33.2,206.2,33.8,211.8h101.7
			c-10.8-76.3-34.3-207.6-34.3-207.6s171.2,0,205.8,0c35.4,0,45.7-64.3,45.7-64.3S350.5,460.2,249.9,467.8z"/>
	</g>
	<g class="st18">
		<path class="st12" d="M199.8,577l-92.3-86.9l-3.9-9.3c-0.7-0.3,0.5-2.2-0.3-2.4l-17.7,3.8l47.7,95.1L199.8,577z"/>
	</g>
	<g class="st18">
		<path class="st12" d="M19.4,563.1c28.9,64.3,82.5,183.4,115.8,222c0,0,8.8,0,12.3,0L128.9,663L19.4,563.1z"/>
	</g>
</g>
<g>
	<g>
		<path class="st15" d="M200.9,454.3c0,0-170.9-22.2-192.5,12.8c-19.3,31.1-4.5,72.6,34.7,137.2c23.1,38,49.8,76.9,73.1,108.8
			c24.6,33.6,54.3,52.3,56.9,65.1c5,25.1,68.8-45.4,68.8-45.4l-44.8-90.5l-91.7-148.7c-1.2-2-0.2-4.6,2-5.2
			c13.7-3.9,58.8-15,129.4-17.1C322.5,468.7,200.9,454.3,200.9,454.3z"/>
	</g>
	<g>
		<path class="st15" d="M12,546c7.3,17,13.6,32.2,30.2,61.6c23,40.5,44.4,78.3,67.8,110.2l5.7-5.3"/>
	</g>
	<g>
		<g>
			<path class="st4" d="M163,786.2c5,25.1-11.6,48.2,14.4,69.8c2,1.7,79-117.5,79-117.5l-59.3-96.2l-80.9,70.8
				C140.8,746.7,160.4,773.3,163,786.2z"/>
		</g>
	</g>
	<g class="st5">
		<g>
			
				<rect x="175.2" y="676.4" transform="matrix(0.494 0.8695 -0.8695 0.494 691.8898 165.9154)" class="st7" width="56.4" height="2"/>
		</g>
		<g>
			
				<rect x="158.4" y="690.8" transform="matrix(0.4971 0.8677 -0.8677 0.4971 696.0923 182.4647)" class="st7" width="64.4" height="2"/>
		</g>
		<g>
			
				<rect x="125" y="722.9" transform="matrix(0.5258 0.8506 -0.8506 0.5258 692.8708 205.0503)" class="st7" width="75" height="2"/>
		</g>
		<g>
			
				<rect x="141.6" y="706.9" transform="matrix(0.5059 0.8626 -0.8626 0.5059 697.8811 197.4571)" class="st7" width="69.9" height="2"/>
		</g>
		<g>
			
				<rect x="110.9" y="736.5" transform="matrix(0.5482 0.8363 -0.8363 0.5482 684.7072 207.3554)" class="st7" width="79" height="2"/>
		</g>
	</g>
	<g>
		<g>
			<path class="st7" d="M162,782.8c0.4,1.2,0.8,2.4,1,3.4c5,25.1-11.6,48.2,14.4,69.8c2,1.7,79-117.5,79-117.5l-34.3-55.6l-7.8,23.5
				L162,782.8z"/>
		</g>
	</g>
	<g>
		<polygon class="st6" points="259.7,743.8 180.7,859.3 172.1,851 252.9,732.8 		"/>
	</g>
	<g>
		<g>
			<path class="st1" d="M210.3,762.4c-2.5,0-5-0.7-7.1-2.2c-5.8-3.9-7.2-11.8-3.3-17.6c1.9-2.8,4.8-4.7,8.1-5.3
				c3.3-0.6,6.7,0.1,9.5,2l0,0c2.8,1.9,4.7,4.8,5.3,8.1c0.6,3.3-0.1,6.7-2,9.5C218.3,760.4,214.3,762.4,210.3,762.4z M210.3,739
				c-3.4,0-6.8,1.6-8.8,4.6c-3.3,4.9-2.1,11.5,2.8,14.8c4.9,3.3,11.5,2.1,14.8-2.8c1.6-2.4,2.2-5.2,1.7-8c-0.5-2.8-2.1-5.2-4.5-6.8
				l0,0C214.5,739.6,212.4,739,210.3,739z"/>
		</g>
		<g>
			<path class="st1" d="M237.6,754.7c-11-13.2-12-26-10.9-34.5c1.2-9.6,5.5-16.3,7.5-17.7l1.2,1.6c-1.5,1.1-5.5,7.3-6.6,16.4
				c-1,8-0.1,20.3,10.5,32.9L237.6,754.7z"/>
		</g>
		<g>
			<path class="st1" d="M164.7,803.4c-0.3,0-0.6-0.2-0.8-0.5c-0.3-0.5-0.2-1.1,0.3-1.4l9.3-6.1c0.5-0.3,1.1-0.2,1.4,0.3
				c0.3,0.5,0.2,1.1-0.3,1.4l-9.3,6.1C165.1,803.3,164.9,803.4,164.7,803.4z"/>
		</g>
		<g>
			<path class="st1" d="M163.8,793.5c-0.3,0-0.6-0.2-0.8-0.5c-0.3-0.5-0.2-1.1,0.3-1.4l9.3-6.1c0.5-0.3,1.1-0.2,1.4,0.3
				c0.3,0.5,0.2,1.1-0.3,1.4l-9.3,6.1C164.2,793.5,164,793.5,163.8,793.5z"/>
		</g>
	</g>
</g>
<g>
	<g>
		<path class="st19" d="M197.1,642.3l-80.9,70.8c3.7,5.1,10.3,14.1,13.7,18.8c14.7-15.7,60-62.6,74.4-77.7L197.1,642.3z"/>
	</g>
</g>
<g>
	<path class="st19" d="M446.4,290.4c0,0,116.8,2.2,144.6,18c27.9,15.7,48.3,59.5-78,66l-98.8-6.3L446.4,290.4z"/>
</g>
<g>
	<path class="st19" d="M185.7,364.6L164.9,411l32.4,37.3c0,0,15.2-10.2,15.7-12.4c0.5-2.1,30.2-69,30.2-69L185.7,364.6z"/>
</g>
<g>
	<path class="st20" d="M181.3,371.4c0,0,29.3-86.4,79-86.4c82.7,0,201.5,0,201.5,0v78.6c0,0-57.5-4.5-68.2,26.7
		c-2.1,6.3-5.1,15.5-7.1,26.6c-8.5,45.2-21.8,111.7-21.8,111.7l-160.7-73.9l20.2-66.8L181.3,371.4z"/>
</g>
<g class="st18">
	<g>
		<path class="st21" d="M359.3,501.3c2,0,3.6-1.6,3.6-3.6c0-2-1.6-3.6-3.6-3.6c-2,0-3.6,1.6-3.6,3.6
			C355.7,499.7,357.3,501.3,359.3,501.3z"/>
	</g>
	<g>
		<path class="st21" d="M331.3,444.6c-2,0-3.6,1.6-3.6,3.6c0,2,1.6,3.6,3.6,3.6s3.6-1.6,3.6-3.6C335,446.3,333.3,444.6,331.3,444.6z
			"/>
	</g>
	<g>
		<path class="st21" d="M276.4,455.9c-2,0-3.6,1.6-3.6,3.6c0,2,1.6,3.6,3.6,3.6s3.6-1.6,3.6-3.6C280,457.5,278.3,455.9,276.4,455.9z
			"/>
	</g>
	<g>
		<path class="st21" d="M370.5,365.1c-2,0-3.6,1.6-3.6,3.6c0,2,1.6,3.6,3.6,3.6s3.6-1.6,3.6-3.6
			C374.2,366.8,372.5,365.1,370.5,365.1z"/>
	</g>
	<g>
		<path class="st21" d="M325.7,348.3c-2,0-3.6,1.6-3.6,3.6c0,2,1.6,3.6,3.6,3.6s3.6-1.6,3.6-3.6
			C329.3,349.9,327.7,348.3,325.7,348.3z"/>
	</g>
	<g>
		<path class="st21" d="M276.4,412.9c-2,0-3.6,1.6-3.6,3.6s1.6,3.6,3.6,3.6s3.6-1.6,3.6-3.6S278.3,412.9,276.4,412.9z"/>
	</g>
	<g>
		<path class="st21" d="M211.3,355.4c-2,0-3.6,1.6-3.6,3.6s1.6,3.6,3.6,3.6s3.6-1.6,3.6-3.6S213.3,355.4,211.3,355.4z"/>
	</g>
	<g>
		<path class="st21" d="M276.4,311.7c2,0,3.6-1.6,3.6-3.6c0-2-1.6-3.6-3.6-3.6s-3.6,1.6-3.6,3.6
			C272.7,310.1,274.4,311.7,276.4,311.7z"/>
	</g>
	<g>
		<path class="st21" d="M211.3,366.6c-4.2,0-7.6-3.4-7.6-7.6s3.4-7.6,7.6-7.6s7.6,3.4,7.6,7.6S215.5,366.6,211.3,366.6z
			 M276.4,300.5c4.2,0,7.6,3.4,7.6,7.6s-3.4,7.6-7.6,7.6s-7.6-3.4-7.6-7.6S272.1,300.5,276.4,300.5z M251.3,457.2l-3.9-0.7l1.5-8.8
			l-11-1.2l1.9-10.9l-11-1.2l1.9-10.9l-8.8-1l0.4-4l13.1,1.5l-1.9,10.9l11,1.2l-1.9,10.9l11,1.2L251.3,457.2z M276.4,467.1
			c-4.2,0-7.6-3.4-7.6-7.6s3.4-7.6,7.6-7.6s7.6,3.4,7.6,7.6S280.6,467.1,276.4,467.1z M276.4,424.1c-4.2,0-7.6-3.4-7.6-7.6
			s3.4-7.6,7.6-7.6s7.6,3.4,7.6,7.6S280.6,424.1,276.4,424.1z M289.7,369.6l-10.4-3.5l-2.9,10.6l-10.4-3.5l-2.9,10.6l-12.5-4.2
			l1.3-3.8l8.4,2.9l2.9-10.6l10.4,3.5l2.9-10.6l10.4,3.5l2.3-8.6l3.9,1L289.7,369.6z M303.2,331.1l-11.6-6.2l1.9-3.5l7.8,4.2l4.6-10
			l9.7,5.2l4.6-10l9.7,5.2l3.7-8.1l3.6,1.7l-5.5,12l-9.7-5.2l-4.6,10l-9.7-5.2L303.2,331.1z M333.3,351.9c0,4.2-3.4,7.6-7.6,7.6
			s-7.6-3.4-7.6-7.6s3.4-7.6,7.6-7.6S333.3,347.7,333.3,351.9z M331.3,455.9c-4.2,0-7.6-3.4-7.6-7.6s3.4-7.6,7.6-7.6
			s7.6,3.4,7.6,7.6S335.5,455.9,331.3,455.9z M341.4,415.8l-0.5-8.9l-10.9,1.3l-0.7-11l-10.9,1.3l-0.7-11l-8.8,1.1l-0.5-4l13.1-1.6
			l0.7,11l10.9-1.3l0.7,11l10.9-1.3l0.8,13.1L341.4,415.8z M359.3,490c4.2,0,7.6,3.4,7.6,7.6s-3.4,7.6-7.6,7.6s-7.6-3.4-7.6-7.6
			S355.1,490,359.3,490z M370.5,376.4c-4.2,0-7.6-3.4-7.6-7.6s3.4-7.6,7.6-7.6s7.6,3.4,7.6,7.6S374.7,376.4,370.5,376.4z
			 M384.5,301.8c0-4.2,3.4-7.6,7.6-7.6s7.6,3.4,7.6,7.6s-3.4,7.6-7.6,7.6S384.5,306,384.5,301.8z M419.2,359.9l-0.5-8.9l-10.9,1.3
			l-0.7-11l-10.9,1.3l-0.7-11l-8.8,1.1l-0.5-4l13.1-1.6l0.7,11l10.9-1.3l0.7,11l10.9-1.3l0.8,13.1L419.2,359.9z"/>
	</g>
	<g>
		<path class="st21" d="M392.1,305.4c2,0,3.6-1.6,3.6-3.6c0-2-1.6-3.6-3.6-3.6s-3.6,1.6-3.6,3.6
			C388.5,303.8,390.1,305.4,392.1,305.4z"/>
	</g>
	<g>
		<polygon class="st1" points="333.7,403.7 333,392.7 322.1,394.1 321.5,383.1 308.4,384.7 308.9,388.7 317.7,387.6 318.4,398.6 
			329.3,397.2 330,408.2 340.9,406.9 341.4,415.8 345.4,415.5 344.6,402.4 		"/>
	</g>
	<g>
		<polygon class="st1" points="320.9,314.3 331.6,316.6 333.6,303.6 329.6,303 328.3,311.8 317.5,309.5 315.9,320.4 305.1,318.1 
			303.5,329 294.8,327.2 294,331.1 306.9,333.8 308.5,322.9 319.2,325.2 		"/>
	</g>
	<g>
		<polygon class="st1" points="305.1,496.9 309.6,486.8 319.3,492 324.7,480 321.1,478.3 317.4,486.4 307.7,481.3 303.2,491.3 
			293.4,486.2 289.9,494.1 293.5,495.8 295.3,491.7 		"/>
	</g>
	<g>
		<path class="st1" d="M224,317.4l10.9-1.3l0.7,11l10.9-1.3l0.5,8.9l4-0.2l-0.8-13.1l-10.9,1.3l-0.7-11l-10.9,1.3l-0.7-11l-4.4,0.5
			c-1.5,1.5-3,3-4.5,4.6l5.2-0.6L224,317.4z"/>
	</g>
	<g>
		<path class="st1" d="M368.1,463.6l-9.6-5.4l-5.7,11.9l3.6,1.7l3.9-8l9.6,5.4l4.8-9.9l3.6,2c0.3-1.4,0.5-2.8,0.8-4.1l-6.1-3.4
			L368.1,463.6z"/>
	</g>
	<g>
		<polygon class="st1" points="411.5,347.9 410.9,336.9 399.9,338.3 399.3,327.3 386.2,328.9 386.7,332.8 395.5,331.8 396.2,342.8 
			407.1,341.4 407.8,352.4 418.7,351.1 419.2,359.9 423.2,359.7 422.4,346.6 		"/>
	</g>
	<g>
		<path class="st1" d="M422.7,289.2l0.4,11l-8.9-0.3l-0.1,4l13.1,0.4l-0.4-11l11,0.3l-0.3-8.6c-1.3,0-2.6,0-4,0l0.2,4.5L422.7,289.2
			z"/>
	</g>
	<g>
		<polygon class="st1" points="286.9,364.4 276.5,360.9 273.6,371.5 263.2,368 260.3,378.6 251.9,375.8 250.6,379.5 263.1,383.8 
			265.9,373.1 276.4,376.7 279.3,366 289.7,369.6 293.1,356.9 289.3,355.8 		"/>
	</g>
	<g>
		<polygon class="st1" points="244.6,432.1 233.6,430.9 235.5,420 222.5,418.6 222,422.6 230.9,423.5 228.9,434.4 239.9,435.6 
			238,446.5 248.9,447.7 247.4,456.5 251.3,457.2 253.6,444.2 242.6,443 		"/>
	</g>
	<g>
		<path class="st1" d="M325.7,344.3c-4.2,0-7.6,3.4-7.6,7.6s3.4,7.6,7.6,7.6s7.6-3.4,7.6-7.6S329.9,344.3,325.7,344.3z M325.7,355.5
			c-2,0-3.6-1.6-3.6-3.6c0-2,1.6-3.6,3.6-3.6s3.6,1.6,3.6,3.6C329.3,353.9,327.7,355.5,325.7,355.5z"/>
	</g>
	<g>
		<path class="st1" d="M370.5,361.1c-4.2,0-7.6,3.4-7.6,7.6s3.4,7.6,7.6,7.6s7.6-3.4,7.6-7.6S374.7,361.1,370.5,361.1z M370.5,372.4
			c-2,0-3.6-1.6-3.6-3.6c0-2,1.6-3.6,3.6-3.6s3.6,1.6,3.6,3.6C374.2,370.8,372.5,372.4,370.5,372.4z"/>
	</g>
	<g>
		<path class="st1" d="M359.3,505.3c4.2,0,7.6-3.4,7.6-7.6s-3.4-7.6-7.6-7.6s-7.6,3.4-7.6,7.6S355.1,505.3,359.3,505.3z M359.3,494
			c2,0,3.6,1.6,3.6,3.6c0,2-1.6,3.6-3.6,3.6c-2,0-3.6-1.6-3.6-3.6C355.7,495.7,357.3,494,359.3,494z"/>
	</g>
	<g>
		<path class="st1" d="M392.1,309.4c4.2,0,7.6-3.4,7.6-7.6s-3.4-7.6-7.6-7.6s-7.6,3.4-7.6,7.6S387.9,309.4,392.1,309.4z
			 M392.1,298.2c2,0,3.6,1.6,3.6,3.6c0,2-1.6,3.6-3.6,3.6s-3.6-1.6-3.6-3.6C388.5,299.8,390.1,298.2,392.1,298.2z"/>
	</g>
	<g>
		<path class="st1" d="M276.4,408.9c-4.2,0-7.6,3.4-7.6,7.6s3.4,7.6,7.6,7.6s7.6-3.4,7.6-7.6S280.6,408.9,276.4,408.9z M276.4,420.1
			c-2,0-3.6-1.6-3.6-3.6s1.6-3.6,3.6-3.6s3.6,1.6,3.6,3.6S278.3,420.1,276.4,420.1z"/>
	</g>
	<g>
		<path class="st1" d="M331.3,440.6c-4.2,0-7.6,3.4-7.6,7.6s3.4,7.6,7.6,7.6s7.6-3.4,7.6-7.6S335.5,440.6,331.3,440.6z M331.3,451.9
			c-2,0-3.6-1.6-3.6-3.6c0-2,1.6-3.6,3.6-3.6s3.6,1.6,3.6,3.6C335,450.3,333.3,451.9,331.3,451.9z"/>
	</g>
	<g>
		<path class="st1" d="M276.4,451.9c-4.2,0-7.6,3.4-7.6,7.6s3.4,7.6,7.6,7.6s7.6-3.4,7.6-7.6S280.6,451.9,276.4,451.9z M276.4,463.1
			c-2,0-3.6-1.6-3.6-3.6c0-2,1.6-3.6,3.6-3.6s3.6,1.6,3.6,3.6C280,461.5,278.3,463.1,276.4,463.1z"/>
	</g>
	<g>
		<path class="st1" d="M276.4,315.7c4.2,0,7.6-3.4,7.6-7.6s-3.4-7.6-7.6-7.6s-7.6,3.4-7.6,7.6S272.1,315.7,276.4,315.7z
			 M276.4,304.5c2,0,3.6,1.6,3.6,3.6c0,2-1.6,3.6-3.6,3.6s-3.6-1.6-3.6-3.6C272.7,306.1,274.4,304.5,276.4,304.5z"/>
	</g>
	<g>
		<path class="st1" d="M211.3,351.4c-4.2,0-7.6,3.4-7.6,7.6s3.4,7.6,7.6,7.6s7.6-3.4,7.6-7.6S215.5,351.4,211.3,351.4z M211.3,362.6
			c-2,0-3.6-1.6-3.6-3.6s1.6-3.6,3.6-3.6s3.6,1.6,3.6,3.6S213.3,362.6,211.3,362.6z"/>
	</g>
</g>
<g>
	<g>
		<path class="st22" d="M450.4,350.2c-0.6,0-1-0.4-1-1v-61c0-0.6,0.4-1,1-1s1,0.4,1,1v61C451.4,349.8,451,350.2,450.4,350.2z"/>
	</g>
	<g>
		<path class="st22" d="M327.9,327.9c-24.3,0-44.1-18.7-44.1-41.8c0-0.6,0.4-1,1-1s1,0.4,1,1c0,21.9,18.9,39.8,42.1,39.8
			s42.1-17.8,42.1-39.8c0-0.6,0.4-1,1-1s1,0.4,1,1C372.1,309.1,352.3,327.9,327.9,327.9z"/>
	</g>
	<g>
		<path class="st22" d="M228,377.8c-0.1,0-0.2,0-0.4-0.1l-37.6-14.1c-0.5-0.2-0.8-0.8-0.6-1.3c0.2-0.5,0.8-0.8,1.3-0.6l37.6,14.1
			c0.5,0.2,0.8,0.8,0.6,1.3C228.8,377.5,228.4,377.8,228,377.8z"/>
	</g>
	<g>
		<path class="st22" d="M364.8,512.7c-0.1,0-0.2,0-0.4-0.1l-103.9-40.8c-0.5-0.2-0.8-0.8-0.6-1.3c0.2-0.5,0.8-0.8,1.3-0.6
			l103.9,40.8c0.5,0.2,0.8,0.8,0.6,1.3C365.6,512.4,365.2,512.7,364.8,512.7z"/>
	</g>
	<g>
		<path class="st22" d="M224.7,387.6c-0.1,0-0.2,0-0.3-0.1c-0.5-0.2-0.8-0.7-0.6-1.3l14.3-42c0.2-0.5,0.7-0.8,1.3-0.6
			c0.5,0.2,0.8,0.7,0.6,1.3l-14.3,42C225.5,387.3,225.2,387.6,224.7,387.6z"/>
	</g>
</g>
<g>
	<g>
		<path class="st19" d="M575.6,315.5c0,0-146.9,9.8-175.2,39.6c-10.5,11.1-21.4,22.6-27.2,33.6c-5.1,9.7-12.9,32.8-10.2,35
			c7.8,6.6,15.5-13.3,19.6-23.4c-2.9,8-6.2,23.1-5.8,32.2c0.3,7,4.3,8.3,8.5,7c2.6,3.8,7.8,0.3,9.5-5.8c0.9-3.1,3.9-12,6.8-19.4
			c-1.5,8.3-0.9,14.9,4.4,14.4c6.9-0.7,9.7-32.6,21.4-44.1c1.6-1.6,5.4-4,6.9-4.5c8.8-3.2,20.8-5.8,35.2-5.8c41.5,0,67.6-0.4,82.3,0
			C607.3,375.6,642,319.1,575.6,315.5z"/>
	</g>
	<g>
		<path class="st23" d="M385.4,440.5c-0.3,0-0.6-0.2-0.8-0.4c-0.6-0.9-1.1-2.2-1.4-3.7c-1-5.5,1.8-20,6.1-31.7
			c5.6-15.3,13.4-28.2,13.5-28.4c0.3-0.5,0.9-0.6,1.4-0.3c0.5,0.3,0.6,0.9,0.3,1.4c-0.1,0.1-7.8,12.9-13.3,28
			c-4.1,11.3-6.9,25.6-6,30.7c0.2,1.2,0.6,2.2,1.1,2.9c0.3,0.5,0.2,1.1-0.3,1.4C385.7,440.5,385.5,440.5,385.4,440.5z"/>
	</g>
	<g>
		<path class="st23" d="M401.5,416.3c-0.1,0-0.1,0-0.2,0c-0.5-0.1-0.9-0.6-0.8-1.1c1.9-12.3,8.4-28.2,10.6-31.7
			c0.3-0.5,0.9-0.6,1.4-0.3c0.5,0.3,0.6,0.9,0.3,1.4c-2.1,3.2-8.4,19-10.3,30.9C402.4,416,402,416.3,401.5,416.3z"/>
	</g>
	<g>
		<path class="st23" d="M381,405.3c-0.1,0-0.1,0-0.2,0c-0.5-0.1-0.9-0.6-0.8-1.2c0.1-0.7,3.1-17.2,14.9-30.7c0.4-0.4,1-0.5,1.4-0.1
			c0.4,0.4,0.5,1,0.1,1.4C385,387.8,382,404.3,382,404.5C381.9,405,381.5,405.3,381,405.3z"/>
	</g>
	<g>
		<path class="st23" d="M465.8,331c-0.5,0-0.9-0.3-1-0.8c-0.1-0.5,0.2-1.1,0.7-1.2c5.8-1.4,11.2-2.7,16.3-3.9
			c40.4-9.6,58.8-14,93.8-10.6c0.5,0.1,1,0.5,0.9,1.1c-0.1,0.5-0.6,1-1.1,0.9c-34.7-3.4-53,1-93.2,10.6c-5.1,1.2-10.5,2.5-16.3,3.9
			C466,331,465.9,331,465.8,331z"/>
	</g>
</g>
<g>
	<g>
		<g>
			<path class="st19" d="M206,442.1l-6.2-46.8l-18.7-5.6c-16.3-44.9-29.2-113.2-29.2-113.2s-4.8-55.5-9.7-63.9
				c-4.9-8.4-14.8-24.8-17.1-28.6s-10.8-3-6.7,7.1c4.1,10.1,11.3,24.3,11.3,24.3s-5.4-5.4-9.7-2.1c-1.9,1.4-1.8,5.5-1.8,5.5
				s-3.9-3-6.9-0.9c-3,2.1-2.8,3.1-2.8,3.1s-5.4-0.2-7,1.4c-1.6,1.7-4.8,8.7-7,14.8c-1.8,4.9-2.9,8.7,1.9,7.7
				c4.8-0.9,10.6-8.2,10.6-8.2s-2.9,26.6-0.8,33.1s3.2,84,8.6,111c9.1,45.7,30.4,71.9,47.9,75.4C165.3,457.1,184.6,460.8,206,442.1z
				"/>
		</g>
		<g>
			<path class="st19" d="M108.2,221.4c0,0-5.2,18.4-5,21.6c0.2,3.1,4.6,3.4,7.8-0.1c3.2-3.6,4.6-11.2,4.6-11.2l2.4-12.8"/>
			<path class="st23" d="M106.1,246.4c-0.5,0-1-0.1-1.4-0.2c-1.4-0.5-2.3-1.6-2.4-3.1c-0.2-3.2,4.5-20,5-21.9
				c0.2-0.5,0.7-0.8,1.2-0.7c0.5,0.2,0.8,0.7,0.7,1.2c-2.1,7.3-5.1,19.1-5,21.2c0.1,0.7,0.4,1.2,1,1.4c1.1,0.4,3.2-0.1,5-2.1
				c3-3.3,4.4-10.6,4.4-10.7l2.4-12.8c0.1-0.5,0.6-0.9,1.2-0.8c0.5,0.1,0.9,0.6,0.8,1.2l-2.4,12.8c-0.1,0.3-1.5,8-4.9,11.7
				C110.1,245.3,108,246.4,106.1,246.4z"/>
		</g>
		<g>
			<path class="st23" d="M119.4,245.4c-0.2,0-0.4,0-0.6,0c-4.8-0.7-5.2-10-5.2-11.1c0-0.6,0.4-1,1-1c0.5,0,1,0.4,1,1
				c0.1,2.3,0.8,8.8,3.5,9.2c1,0.1,2.2-0.4,3.3-1.4c1.6-1.4,6.7-7.3,6.2-23.8l0-2.8c0-0.6,0.4-1,1-1c0,0,0,0,0,0c0.5,0,1,0.4,1,1
				l0,2.8c0.5,16.9-4.6,23.3-6.9,25.3C122.3,244.7,120.8,245.4,119.4,245.4z"/>
		</g>
		<g>
			<path class="st19" d="M144.7,233.8c0,0-11.9-6.8-15.1-7.8c-2.4-0.8-15.5-2.2-18.1-0.4c-1.8,1.2-3.9,5.6,4.3,9.3
				c8.2,3.7,12.2,5.8,12.2,5.8s5.1,16.8,10.1,21.6"/>
			<path class="st23" d="M138.1,263.3c-0.2,0-0.5-0.1-0.7-0.3c-4.7-4.6-9.4-19-10.2-21.7c-1.2-0.6-5.1-2.5-11.8-5.6
				c-5.1-2.3-6.3-4.9-6.5-6.7c-0.2-2,1-3.6,2-4.3c3.1-2.1,16.6-0.5,19,0.2c3.3,1.1,14.8,7.6,15.3,7.9c0.5,0.3,0.6,0.9,0.4,1.4
				c-0.3,0.5-0.9,0.6-1.4,0.4c-0.1-0.1-11.8-6.8-14.9-7.7c-2.6-0.8-15.1-2-17.3-0.5c-0.6,0.4-1.3,1.4-1.2,2.5c0.2,1.7,2,3.5,5.3,5
				c8.1,3.7,12.2,5.8,12.2,5.8l0.4,0.2l0.1,0.4c0.1,0.2,5.1,16.6,9.8,21.2c0.4,0.4,0.4,1,0,1.4C138.6,263.2,138.3,263.3,138.1,263.3
				z"/>
		</g>
	</g>
</g>
<g class="st24">
	<g>
		<path class="st25" d="M109.9,719.3l-0.7-0.9C86,686.6,64.6,649,42,609.1l-0.6-1c-15.7-27.6-22.2-42.7-29-58.7l-1.3-3
			c-0.2-0.5,0-1.1,0.5-1.3c0.5-0.2,1.1,0,1.3,0.5l1.3,3c6.8,15.9,13.3,30.9,28.9,58.5l0.6,1c22.4,39.5,43.6,76.7,66.4,108.2l4.8-4.5
			c0.4-0.4,1-0.4,1.4,0c0.4,0.4,0.4,1,0,1.4L109.9,719.3z"/>
	</g>
	<g>
		<path class="st25" d="M156.3,577.2c-0.3,0-0.7-0.2-0.9-0.5L106.3,497c-1.4-2.3-1.9-4.8-1.2-7c0.7-2.5,2.6-4.6,5.7-6.1
			c20.4-10.5,52.5-16.5,95.2-17.8c0.5,0,1,0.4,1,1c0,0.6-0.4,1-1,1c-42.4,1.3-74.2,7.2-94.3,17.5c-2.6,1.3-4.1,3-4.7,4.9
			c-0.6,2.2,0.2,4.2,1,5.4l49.1,79.7c0.3,0.5,0.1,1.1-0.3,1.4C156.7,577.1,156.5,577.2,156.3,577.2z"/>
	</g>
</g>
<g>
	<g>
		<circle class="st7" cx="246.6" cy="19.8" r="5.5"/>
	</g>
	<g>
		<circle class="st7" cx="270.7" cy="19.8" r="5.5"/>
	</g>
	<g>
		<circle class="st7" cx="294.7" cy="19.8" r="5.5"/>
	</g>
</g>
<g>
	<g>
		<polygon class="st3" points="137.4,742.3 210.1,663.5 212.8,667.9 140.4,746.5 		"/>
	</g>
</g>
<g>
	<g>
		<path class="st26" d="M329.6,187.7c0,0,3.8-9.8,1.3-17.9s-9.7-10.3-27.2-7.1c-18.8,3.5-22.3,0.9-35.3,14.2
			c-6.9,7-9.7,19.4-7.1,35.5c2.6,15.5,19.6,35.5,30.9,37.2c11.3,1.7,1.8-15.7-2.9-19.9C284.5,225.5,329.6,187.7,329.6,187.7z"/>
	</g>
	<g>
		<path class="st19" d="M351.5,285c-4.3-35-11.5-54-11.5-54s-43-18.9-48.7,5.3l11.3,48.7h-9.1c0,18.5,15.9,33.5,35.5,33.5
			c19.6,0,35.5-15,35.5-33.5H351.5z"/>
	</g>
	<g class="st11">
		<g>
			<path class="st12" d="M301.7,230.2l4.7,15.2c3.6,5.5,13.3,26.9,42,18.9c-3.6-18.9-8.4-33.2-8.4-33.2S307.4,206,301.7,230.2z"/>
		</g>
	</g>
	<g>
		<path class="st19" d="M323.8,176.1c0,0,42.5,34.1,30.9,65.6c-11.4,31.2-57.8,6.3-65.1-6.3c-5.4-3-12.6-12.9-17.1-23.4
			c-4-9.2,1.7-18.2,5.2-23.8C285.2,176.2,323.8,176.1,323.8,176.1z"/>
	</g>
	<g>
		<path class="st26" d="M287.7,218.9c0,0,2.6-0.6,2.6-5.7c0-5-7.8-20.7-3.9-22.6c3.9-1.9,34.8-7,40.9-15.7c6.1-8.6-7.3-9.9-7.3-9.9
			l-32.2,4.6l-20.9,24.4c0,0,2.6,19.5,4.3,26.8S284.1,222.5,287.7,218.9z"/>
	</g>
	<g>
		<path class="st23" d="M337.4,225.4c-0.4,0-0.8-0.3-0.9-0.7c-0.2-0.5,0.1-1.1,0.6-1.3c0.1,0,2.2-0.9,2.4-4.5
			c0.2-2.7-8.2-11.8-14.2-17.5c-0.4-0.4-0.4-1,0-1.4c0.4-0.4,1-0.4,1.4,0c2.5,2.4,15.2,14.5,14.8,19.1c-0.3,4.9-3.6,6.2-3.8,6.2
			C337.6,225.4,337.5,225.4,337.4,225.4z"/>
	</g>
	<g>
		<path class="st19" d="M290.7,217c0,0-17.3-6-19.6,6.6c-2.3,12.7,11.7,19.7,22,15.2C299.2,236.2,290.7,217,290.7,217z"/>
	</g>
	<g>
		<path class="st23" d="M283.3,231.5c-0.1,0-0.3,0-0.4-0.1c-4-1.9-4.3-3.8-3.8-5.1c1-2.6,6.3-4.1,9.4-3.2c0.5,0.2,0.8,0.7,0.7,1.2
			c-0.2,0.5-0.7,0.8-1.2,0.7c-2.4-0.7-6.5,0.6-7,2c-0.3,0.7,0.8,1.7,2.8,2.6c0.5,0.2,0.7,0.8,0.5,1.3
			C284,231.3,283.6,231.5,283.3,231.5z"/>
	</g>
	<g>
		<path class="st26" d="M306.7,204.2c-0.4,0-0.9-0.2-1.2-0.6c-0.5-0.6-0.4-1.6,0.2-2.1c4.4-3.5,9.3-5.7,9.5-5.7c0.8-0.3,1.6,0,2,0.8
			c0.3,0.8,0,1.6-0.8,2c0,0-4.7,2.1-8.8,5.3C307.3,204.1,307,204.2,306.7,204.2z"/>
	</g>
	<g>
		<path class="st26" d="M326,193.7c-0.5,0-1-0.3-1.3-0.8c-0.4-0.7-0.2-1.6,0.6-2c0.1-0.1,2.6-1.5,5.7-2.6c0.8-0.3,1.6,0.1,1.9,0.9
			c0.3,0.8-0.1,1.6-0.9,1.9c-2.9,1.1-5.3,2.4-5.3,2.4C326.5,193.6,326.3,193.7,326,193.7z"/>
	</g>
	<g>
		
			<ellipse transform="matrix(0.9013 -0.4333 0.4333 0.9013 -59.313 158.2835)" class="st26" cx="317.6" cy="209.3" rx="2.1" ry="2.4"/>
	</g>
	<g>
		
			<ellipse transform="matrix(0.9013 -0.4333 0.4333 0.9013 -53.2607 164.9218)" class="st26" cx="335.2" cy="199.3" rx="2.1" ry="2.4"/>
	</g>
	<g>
		<path class="st26" d="M331.9,234.1c-3,0-5.6-1.7-6.8-2.9c-0.4-0.4-0.4-1,0-1.4c0.4-0.4,1-0.4,1.4,0c0.2,0.2,4.2,4.1,8.8,1.3
			c0.5-0.3,1.1-0.1,1.4,0.3s0.1,1.1-0.3,1.4C334.8,233.7,333.3,234.1,331.9,234.1z"/>
	</g>
</g>
<g>
	<rect x="210.9" y="837" class="st15" width="577" height="2"/>
</g>
<g>
	<rect x="545.4" y="701.6" class="st27" width="120" height="7.1"/>
</g>
<g>
	<rect x="439.3" y="396.4" class="st27" width="120" height="7.1"/>
</g>
<g>
	<g>
		<path class="st17" d="M483,694c-0.5-0.4-1.2-0.7-1.9-0.7h-25.9c-0.7,0-1.4,0.3-1.9,0.7l14.8,11.8L483,694z"/>
	</g>
	<g>
		<path class="st17" d="M468.2,708.4l-15.8-12.6c0,0.1,0,0.3,0,0.4v16.5c0,1.6,1.3,2.9,2.9,2.9h25.9c1.6,0,2.9-1.3,2.9-2.9v-16.5
			c0-0.1,0-0.3,0-0.4L468.2,708.4z"/>
	</g>
</g>
<g class="st11">
	<polygon class="st12" points="182.5,371.8 224.2,387.9 220.9,399 	"/>
</g>
<g>
	<path class="st23" d="M187.5,434.8c-0.1,0-0.3,0-0.4-0.1c-0.5-0.2-0.7-0.8-0.5-1.3c8.3-17.2-7.4-47.2-7.6-47.5
		c-0.3-0.5-0.1-1.1,0.4-1.4c0.5-0.3,1.1-0.1,1.4,0.4c0.7,1.3,16.3,31.2,7.6,49.3C188.2,434.6,187.9,434.8,187.5,434.8z"/>
</g>
</svg>
