<?xml version="1.0" encoding="utf-8"?>
<!-- Generator: Adobe Illustrator 19.1.0, SVG Export Plug-In . SVG Version: 6.00 Build 0)  -->
<svg version="1.1" id="Layer_1" xmlns="http://www.w3.org/2000/svg" xmlns:xlink="http://www.w3.org/1999/xlink" x="0px" y="0px"
	 viewBox="988 -82.4 1600 875.8" style="enable-background:new 988 -82.4 1600 875.8;" width="1600px" height="875px" xml:space="preserve">
<style type="text/css">
	.st0{fill:none;}
	.st1{opacity:5.000000e-002;enable-background:new    ;}
	.st2{fill:#FFFFFF;stroke:#E8E8E8;stroke-miterlimit:10;}
	.st3{fill:#E2E2E2;stroke:#E2E2E2;stroke-miterlimit:10;}
	.st4{fill:#F6F6F6;}
	.st5{fill:#5D5EF4;}
	.st6{fill:#FFFFFF;}
	.st7{fill:#F2F2F2;}
</style>
<rect x="988" y="-82.4" class="st0" width="1600" height="874.6"/>
<g>
	<g>
		<path class="st1" d="M2422.8,792.2H1133.2V43.1c0-6.3,5.1-11.5,11.5-11.5h1266.7c6.3,0,11.5,5.1,11.5,11.5L2422.8,792.2
			L2422.8,792.2z"/>
		<path class="st2" d="M2432.8,792.9H1143.2V33.1c0-6.3,5.1-11.5,11.5-11.5h1266.7c6.3,0,11.5,5.1,11.5,11.5L2432.8,792.9
			L2432.8,792.9z"/>
		<path class="st3" d="M2432.8,86.8H1143.2V31c0-5.2,4.2-9.4,9.4-9.4h1270.9c5.2,0,9.4,4.2,9.4,9.4L2432.8,86.8L2432.8,86.8z"/>
	</g>
	<g>
		<g>
			<ellipse class="st4" cx="1267" cy="54.2" rx="9" ry="9.3"/>
			<ellipse class="st4" cx="1230.4" cy="54.2" rx="9" ry="9.3"/>
			<ellipse class="st4" cx="1193.8" cy="54.2" rx="9" ry="9.3"/>
		</g>
	</g>
</g>
<g>
	<path class="st5" d="M1991.6,570.4h-407.2c-3.5,0-6.4-2.8-6.4-6.4v-61.4c0-3.5,2.8-6.4,6.4-6.4h407.3c3.5,0,6.4,2.8,6.4,6.4v61.5
		C1998,567.6,1995.2,570.4,1991.6,570.4z"/>
	<g>
		<g>
			<path class="st6" d="M1760.6,533.9L1760.6,533.9c0-5.6,4.2-10.2,10.2-10.2c3.7,0,5.9,1.2,7.7,3l-2.7,3.2c-1.5-1.4-3.1-2.2-5-2.2
				c-3.3,0-5.7,2.7-5.7,6.1v0.1c0,3.4,2.3,6.2,5.7,6.2c2.2,0,3.6-0.9,5.2-2.3l2.7,2.8c-2,2.2-4.3,3.5-8,3.5
				C1764.9,544,1760.6,539.5,1760.6,533.9z"/>
			<path class="st6" d="M1787.4,528h-6v-4h16.2v4h-6v15.6h-4.3L1787.4,528L1787.4,528z"/>
			<path class="st6" d="M1805.9,523.9h4l8.4,19.7h-4.5l-1.8-4.4h-8.3l-1.8,4.4h-4.4L1805.9,523.9z M1810.4,535.4l-2.6-6.4l-2.6,6.4
				H1810.4z"/>
		</g>
	</g>
</g>
<g>
	<path class="st7" d="M2267.9,792.2h-960V658c0-4.7,3.8-8.5,8.5-8.5h943c4.7,0,8.5,3.8,8.5,8.5V792.2z"/>
</g>
<g>
	<rect x="1307.9" y="402.5" class="st7" width="960" height="16.7"/>
	<rect x="1307.9" y="360.4" class="st7" width="960" height="16.7"/>
</g>
<g>
	<g>
		<path d="M1356.6,192.8V210h-5.2v-40.1h23.4v4.9h-18.3V188h16.5v4.8H1356.6z"/>
		<path d="M1386.1,173.1c0,1-0.4,1.9-1.1,2.6s-1.6,1.1-2.6,1.1s-1.9-0.4-2.6-1.1s-1.1-1.6-1.1-2.6s0.4-1.9,1.1-2.6
			c0.7-0.7,1.6-1.1,2.6-1.1s1.9,0.4,2.6,1.1C1385.8,171.2,1386.1,172.1,1386.1,173.1z M1385.1,182.6V210h-5.2v-27.4H1385.1z"/>
		<path d="M1392.1,182.6h4.9v3.8h0.2c0.8-1.3,2-2.5,3.6-3.4c1.6-0.9,3.3-1.3,5.1-1.3c3.4,0,5.9,1,7.8,2.9c1.8,1.9,2.7,4.7,2.7,8.2
			V210h-5.2v-16.9c-0.1-4.5-2.4-6.7-6.8-6.7c-2.1,0-3.8,0.8-5.2,2.5s-2.1,3.6-2.1,6v15.2h-5.2v-27.5H1392.1z"/>
		<path d="M1432.8,181.7c3.8,0,6.8,1,9,3.1c2.2,2,3.3,4.8,3.3,8.4v16.9h-4.9v-3.8h-0.2c-2.1,3.1-5,4.7-8.5,4.7c-3,0-5.6-0.9-7.6-2.7
			s-3.1-4-3.1-6.7c0-2.8,1.1-5.1,3.2-6.8c2.1-1.7,5-2.5,8.6-2.5c3.1,0,5.6,0.6,7.6,1.7v-1.2c0-1.8-0.7-3.3-2.1-4.6
			c-1.4-1.3-3.1-1.9-5-1.9c-2.9,0-5.2,1.2-6.8,3.6l-4.5-2.9C1424.2,183.5,1427.9,181.7,1432.8,181.7z M1426.2,201.6
			c0,1.3,0.6,2.5,1.7,3.4s2.5,1.3,4,1.3c2.2,0,4.1-0.8,5.8-2.4c1.7-1.6,2.5-3.5,2.5-5.7c-1.6-1.3-3.8-1.9-6.7-1.9
			c-2.1,0-3.8,0.5-5.2,1.5C1426.9,198.9,1426.2,200.1,1426.2,201.6z"/>
		<path d="M1456.4,169.9V210h-5.2v-40.1H1456.4L1456.4,169.9z"/>
		<path d="M1468.1,169.9V210h-5.1v-40.1H1468.1L1468.1,169.9z"/>
		<path d="M1499.2,182.6l-17.2,39.5h-5.3l6.4-13.8l-11.4-25.7h5.6l8.2,19.7h0.1l8-19.7L1499.2,182.6L1499.2,182.6z"/>
		<path d="M1510,206.5c0,1-0.4,1.9-1.1,2.7c-0.7,0.7-1.6,1.1-2.7,1.1c-1,0-1.9-0.4-2.7-1.1c-0.7-0.7-1.1-1.6-1.1-2.7s0.4-2,1.1-2.7
			s1.6-1.1,2.7-1.1c1.1,0,2,0.4,2.7,1.1C1509.6,204.6,1510,205.5,1510,206.5z M1508.2,197.6h-4l-0.6-15v-12.7h5.2v12.7L1508.2,197.6
			z"/>
		<path d="M1552.7,199.3c0,3.5-1.3,6.3-3.9,8.5c-2.6,2.1-5.8,3.1-9.5,3.1c-3.3,0-6.3-1-8.8-2.9s-4.3-4.6-5.3-8l4.9-2
			c0.3,1.2,0.8,2.3,1.4,3.2c0.6,1,1.3,1.8,2.1,2.5c0.8,0.7,1.7,1.2,2.7,1.6s2,0.6,3.1,0.6c2.4,0,4.3-0.6,5.8-1.8s2.2-2.8,2.2-4.8
			c0-1.7-0.6-3.1-1.8-4.3c-1.2-1.2-3.3-2.3-6.5-3.4c-3.2-1.2-5.2-1.9-6-2.4c-4.3-2.2-6.4-5.4-6.4-9.6c0-2.9,1.2-5.5,3.5-7.6
			c2.4-2.1,5.3-3.1,8.8-3.1c3.1,0,5.7,0.8,8,2.4c2.2,1.5,3.7,3.5,4.5,5.8l-4.8,2c-0.4-1.5-1.3-2.7-2.7-3.7c-1.3-1-2.9-1.5-4.8-1.5
			c-2,0-3.7,0.6-5.1,1.7c-1.4,1-2.1,2.4-2.1,4.1c0,1.4,0.5,2.6,1.6,3.6c1.2,1,3.8,2.2,7.8,3.6c4.1,1.4,7,3.1,8.7,5.1
			C1551.8,194,1552.7,196.4,1552.7,199.3z"/>
		<path d="M1556.7,196.3c0-4.2,1.3-7.7,4-10.5s6.1-4.1,10.1-4.1s7.4,1.4,10.1,4.1c2.7,2.8,4,6.3,4,10.5c0,4.3-1.3,7.7-4,10.5
			s-6,4.1-10.1,4.1s-7.4-1.4-10.1-4.1C1558,204,1556.7,200.5,1556.7,196.3z M1561.8,196.3c0,2.9,0.9,5.3,2.6,7.2
			c1.7,1.8,3.8,2.7,6.4,2.7s4.7-0.9,6.4-2.7c1.7-1.8,2.6-4.2,2.6-7.2c0-2.9-0.9-5.3-2.6-7.1c-1.8-1.9-3.9-2.8-6.4-2.8
			s-4.6,0.9-6.4,2.8C1562.7,191,1561.8,193.4,1561.8,196.3z"/>
		<path d="M1622.4,209.7c-1.3,0.5-2.9,0.7-4.7,0.7c-2.2,0-4.1-0.7-5.6-2.1s-2.2-3.3-2.3-5.8v-15.3h-12.3v22.7h-5.2v-22.7h-5.2v-4.6
			h5.2v-4c0-1.3,0.2-2.6,0.7-3.7s1.1-2.1,1.9-2.9c0.8-0.8,1.8-1.4,2.9-1.9c1.1-0.4,2.4-0.7,3.7-0.7c1.9,0,3.4,0.3,4.6,1l-1.4,4.5
			c-0.9-0.4-1.9-0.7-3-0.7c-1.3,0-2.3,0.4-3.1,1.3s-1.2,2-1.2,3.5v3.5h12.3v-8.4h5.2v8.4h6.7v4.7h-6.6v13.7c0,1.8,0.4,3.1,1.1,3.7
			s1.5,1,2.4,1c0.4,0,0.8,0,1.2-0.1c0.4-0.1,0.8-0.2,1.1-0.4L1622.4,209.7z"/>
		<path d="M1666.7,182.6l-8.8,27.4h-5.3l-6.8-21.1L1639,210h-5.2l-8.8-27.4h5.4l6.1,20.7h0.1l6.8-20.7h5.3l6.8,20.7h0.1l6-20.7
			H1666.7z"/>
		<path d="M1680.2,181.7c3.8,0,6.8,1,9,3.1c2.2,2,3.3,4.8,3.3,8.4v16.9h-4.9v-3.8h-0.2c-2.1,3.1-5,4.7-8.5,4.7c-3,0-5.6-0.9-7.6-2.7
			s-3.1-4-3.1-6.7c0-2.8,1.1-5.1,3.2-6.8s5-2.5,8.6-2.5c3.1,0,5.6,0.6,7.6,1.7v-1.2c0-1.8-0.7-3.3-2.1-4.6s-3.1-1.9-5-1.9
			c-2.9,0-5.2,1.2-6.8,3.6l-4.5-2.9C1671.6,183.5,1675.3,181.7,1680.2,181.7z M1673.5,201.6c0,1.3,0.6,2.5,1.7,3.4s2.5,1.3,4,1.3
			c2.2,0,4.1-0.8,5.8-2.4s2.5-3.5,2.5-5.7c-1.6-1.3-3.8-1.9-6.7-1.9c-2.1,0-3.8,0.5-5.2,1.5C1674.2,198.9,1673.5,200.1,1673.5,201.6
			z"/>
		<path d="M1703.8,210h-5.2v-27.4h4.9v4.5h0.2c0.5-1.5,1.6-2.7,3.2-3.7s3.2-1.5,4.8-1.5c1.5,0,2.8,0.2,3.8,0.7l-1.6,5
			c-0.6-0.3-1.6-0.4-3-0.4c-1.9,0-3.6,0.8-5.1,2.4c-1.4,1.6-2.2,3.4-2.2,5.5V210H1703.8z"/>
		<path d="M1729.8,210.9c-4,0-7.4-1.4-10-4.1c-2.6-2.8-3.9-6.3-3.9-10.5s1.3-7.7,3.8-10.4c2.5-2.8,5.8-4.2,9.7-4.2
			c4.1,0,7.3,1.3,9.7,3.9s3.6,6.3,3.6,11.1l-0.1,0.6H1721c0.1,2.7,1,4.9,2.7,6.5s3.8,2.5,6.2,2.5c3.3,0,5.9-1.6,7.7-4.9l4.6,2.2
			c-1.2,2.3-2.9,4.1-5.1,5.4C1735.1,210.3,1732.6,210.9,1729.8,210.9z M1721.6,193h15.7c-0.1-1.9-0.9-3.5-2.3-4.7
			c-1.4-1.3-3.3-1.9-5.6-1.9c-1.9,0-3.6,0.6-5,1.8C1723,189.4,1722.1,191,1721.6,193z"/>
		<path d="M1771.3,210.5c-2.2,0-4.1-0.7-5.6-2.1s-2.2-3.3-2.3-5.8v-15.3h-4.8v-4.7h4.8v-8.4h5.2v8.4h6.7v4.7h-6.7V201
			c0,1.8,0.4,3.1,1.1,3.7c0.7,0.7,1.5,1,2.4,1c0.4,0,0.8,0,1.2-0.1s0.8-0.2,1.1-0.4l1.6,4.6C1774.6,210.2,1773.1,210.5,1771.3,210.5
			z"/>
		<path d="M1778.7,196.3c0-4.2,1.3-7.7,4-10.5s6.1-4.1,10.1-4.1s7.4,1.4,10.1,4.1c2.7,2.8,4,6.3,4,10.5c0,4.3-1.3,7.7-4,10.5
			s-6,4.1-10.1,4.1s-7.4-1.4-10.1-4.1C1780,204,1778.7,200.5,1778.7,196.3z M1783.8,196.3c0,2.9,0.9,5.3,2.6,7.2
			c1.7,1.8,3.8,2.7,6.4,2.7s4.7-0.9,6.4-2.7c1.7-1.8,2.6-4.2,2.6-7.2c0-2.9-0.9-5.3-2.6-7.1c-1.8-1.9-3.9-2.8-6.4-2.8
			s-4.6,0.9-6.4,2.8C1784.7,191,1783.8,193.4,1783.8,196.3z"/>
		<path d="M1830.5,210h-5.2v-40.1h5.2v17.2h20v-17.2h5.2V210h-5.2v-18.1h-20V210z"/>
		<path d="M1875.5,210.9c-4,0-7.4-1.4-10-4.1c-2.6-2.8-3.9-6.3-3.9-10.5s1.3-7.7,3.8-10.4c2.5-2.8,5.8-4.2,9.7-4.2
			c4.1,0,7.3,1.3,9.7,3.9c2.4,2.6,3.6,6.3,3.6,11.1l-0.1,0.6h-21.6c0.1,2.7,1,4.9,2.7,6.5s3.8,2.5,6.2,2.5c3.3,0,5.9-1.6,7.7-4.9
			l4.6,2.2c-1.2,2.3-2.9,4.1-5.1,5.4C1880.7,210.3,1878.3,210.9,1875.5,210.9z M1867.3,193h15.7c-0.1-1.9-0.9-3.5-2.3-4.7
			c-1.4-1.3-3.3-1.9-5.6-1.9c-1.9,0-3.6,0.6-5,1.8C1868.6,189.4,1867.7,191,1867.3,193z"/>
		<path d="M1898.6,169.9V210h-5.2v-40.1H1898.6L1898.6,169.9z"/>
		<path d="M1919.5,210.9c-2,0-3.9-0.4-5.5-1.3c-1.7-0.9-2.9-2-3.8-3.4h-0.2l0.2,3.8v12.1h-5.2v-39.5h4.9v3.8h0.2
			c0.9-1.4,2.2-2.6,3.8-3.4c1.7-0.9,3.5-1.3,5.5-1.3c3.6,0,6.7,1.4,9.2,4.3c2.6,2.9,3.9,6.3,3.9,10.4s-1.3,7.5-3.9,10.4
			C1926.1,209.5,1923.1,210.9,1919.5,210.9z M1918.6,206.2c2.5,0,4.5-0.9,6.2-2.8c1.7-1.8,2.5-4.2,2.5-7.1s-0.8-5.2-2.5-7.1
			c-1.7-1.9-3.8-2.8-6.2-2.8c-2.5,0-4.6,0.9-6.3,2.8c-1.6,1.9-2.5,4.2-2.5,7.1s0.8,5.3,2.5,7.2
			C1914,205.3,1916.1,206.2,1918.6,206.2z"/>
		<path d="M1951,210v-40.1h14.5c3.2,0,5.9,1,8.2,3.1c2.3,2.1,3.4,4.6,3.4,7.8c0,4-1.8,6.7-5.4,8.3v0.2c2.1,0.7,3.7,1.8,4.9,3.5
			c1.2,1.7,1.8,3.6,1.8,5.7c0,3.3-1.2,6-3.6,8.2c-2.3,2.2-5.2,3.2-8.6,3.2L1951,210L1951,210z M1956.1,174.8v12.3h9.4
			c1.8,0,3.4-0.6,4.6-1.8c1.2-1.3,1.8-2.7,1.8-4.3s-0.6-3-1.8-4.3c-1.2-1.2-2.7-1.8-4.4-1.8L1956.1,174.8L1956.1,174.8z
			 M1956.1,191.9v13.2h10.4c1.9,0,3.5-0.7,4.8-2s1.9-2.9,1.9-4.6c0-1.8-0.7-3.3-2-4.6s-2.9-2-4.9-2L1956.1,191.9L1956.1,191.9z"/>
		<path d="M2007.7,210h-4.9v-3.8h-0.2c-0.8,1.3-2,2.5-3.6,3.4s-3.3,1.3-5.1,1.3c-3.4,0-5.9-1-7.8-2.9c-1.8-1.9-2.7-4.7-2.7-8.2
			v-17.2h5.2v16.9c0.1,4.5,2.4,6.7,6.8,6.7c2.1,0,3.8-0.8,5.2-2.5c1.4-1.7,2.1-3.6,2.1-6v-15.1h5.2V210L2007.7,210L2007.7,210z"/>
		<path d="M2035,202.4c0,2.4-1,4.4-3.1,6s-4.7,2.5-7.9,2.5c-2.8,0-5.2-0.7-7.3-2.2c-2.1-1.4-3.6-3.3-4.5-5.7l4.6-2
			c0.7,1.6,1.7,2.9,2.9,3.8c1.3,0.9,2.7,1.4,4.2,1.4c1.6,0,3-0.4,4.1-1.1s1.7-1.5,1.7-2.5c0-1.8-1.3-3-4-3.9l-4.7-1.2
			c-5.3-1.3-8-3.9-8-7.7c0-2.5,1-4.5,3.1-6c2-1.5,4.6-2.3,7.8-2.3c2.4,0,4.6,0.6,6.6,1.7s3.3,2.7,4.1,4.6l-4.6,1.9
			c-0.5-1.2-1.4-2.1-2.5-2.7s-2.5-1-3.9-1c-1.3,0-2.5,0.3-3.6,1s-1.6,1.5-1.6,2.5c0,1.6,1.5,2.7,4.4,3.4l4.1,1.1
			C2032.3,195.5,2035,198.3,2035,202.4z"/>
		<path d="M2064.3,182.6l-17.2,39.5h-5.3l6.4-13.8l-11.3-25.7h5.6l8.2,19.7h0.1l8-19.7L2064.3,182.6L2064.3,182.6z"/>
		<path d="M2086.6,210h-5.2v-40.1h5.2l13.9,24.4h0.2l13.9-24.4h5.2V210h-5.2v-23.8l0.2-6.7h-0.2l-12.5,22h-3l-12.5-22h-0.2l0.2,6.7
			V210z"/>
		<path d="M2125.7,196.3c0-4.2,1.3-7.7,4-10.5s6.1-4.1,10.1-4.1s7.4,1.4,10.1,4.1c2.7,2.8,4,6.3,4,10.5c0,4.3-1.3,7.7-4,10.5
			s-6,4.1-10.1,4.1c-4.1,0-7.4-1.4-10.1-4.1C2127,204,2125.7,200.5,2125.7,196.3z M2130.9,196.3c0,2.9,0.9,5.3,2.6,7.2
			c1.7,1.8,3.8,2.7,6.4,2.7c2.6,0,4.7-0.9,6.4-2.7s2.6-4.2,2.6-7.2c0-2.9-0.9-5.3-2.6-7.1c-1.8-1.9-3.9-2.8-6.4-2.8
			s-4.6,0.9-6.4,2.8C2131.7,191,2130.9,193.4,2130.9,196.3z"/>
		<path d="M2163.5,210h-5.2v-27.4h4.9v3.8h0.2c0.8-1.3,2-2.5,3.6-3.4s3.2-1.3,4.8-1.3c2,0,3.8,0.5,5.3,1.4s2.7,2.2,3.4,3.9
			c2.3-3.5,5.4-5.3,9.5-5.3c3.2,0,5.6,1,7.3,2.9c1.7,1.9,2.6,4.7,2.6,8.3V210h-5.2v-16.4c0-2.6-0.5-4.4-1.4-5.6
			c-0.9-1.1-2.5-1.7-4.7-1.7c-2,0-3.6,0.8-5,2.5c-1.3,1.7-2,3.7-2,5.9v15.2h-5.2v-16.4c0-2.6-0.5-4.4-1.4-5.6
			c-0.9-1.1-2.5-1.7-4.7-1.7c-2,0-3.6,0.8-5,2.5c-1.3,1.7-2,3.7-2,5.9V210L2163.5,210L2163.5,210z"/>
		<path d="M2227.1,202.4c0,2.4-1,4.4-3.1,6s-4.7,2.5-7.9,2.5c-2.8,0-5.2-0.7-7.3-2.2c-2.1-1.4-3.6-3.3-4.5-5.7l4.6-2
			c0.7,1.6,1.7,2.9,2.9,3.8c1.3,0.9,2.7,1.4,4.2,1.4c1.6,0,3-0.4,4.1-1.1s1.7-1.5,1.7-2.5c0-1.8-1.3-3-4-3.9l-4.7-1.2
			c-5.3-1.3-8-3.9-8-7.7c0-2.5,1-4.5,3.1-6c2-1.5,4.6-2.3,7.8-2.3c2.4,0,4.6,0.6,6.6,1.7s3.3,2.7,4.1,4.6l-4.6,1.9
			c-0.5-1.2-1.4-2.1-2.5-2.7s-2.5-1-3.9-1c-1.3,0-2.5,0.3-3.6,1s-1.6,1.5-1.6,2.5c0,1.6,1.5,2.7,4.4,3.4l4.1,1.1
			C2224.3,195.5,2227.1,198.3,2227.1,202.4z"/>
		<path d="M1604.5,269.8V286h-5.2v-40.1h13.7c3.5,0,6.4,1.2,8.8,3.5c2.5,2.3,3.7,5.1,3.7,8.5c0,3.4-1.2,6.2-3.7,8.5
			c-2.4,2.3-5.3,3.4-8.8,3.4H1604.5z M1604.5,250.8v14h8.6c2.1,0,3.8-0.7,5.1-2.1c1.4-1.4,2.1-3,2.1-4.9c0-1.9-0.7-3.5-2.1-4.9
			c-1.3-1.4-3-2.1-5.1-2.1H1604.5z"/>
		<path d="M1635.7,245.9V286h-5.2v-40.1H1635.7z"/>
		<path d="M1652.4,257.7c3.8,0,6.8,1,9,3.1c2.2,2,3.3,4.8,3.3,8.4v16.9h-4.9v-3.8h-0.2c-2.1,3.1-5,4.7-8.5,4.7c-3,0-5.6-0.9-7.6-2.7
			c-2-1.8-3.1-4-3.1-6.7c0-2.8,1.1-5.1,3.2-6.8c2.1-1.7,5-2.5,8.6-2.5c3.1,0,5.6,0.6,7.6,1.7v-1.2c0-1.8-0.7-3.3-2.1-4.6
			c-1.4-1.3-3.1-1.9-5-1.9c-2.9,0-5.2,1.2-6.8,3.6l-4.5-2.9C1643.8,259.5,1647.5,257.7,1652.4,257.7z M1645.8,277.6
			c0,1.3,0.6,2.5,1.7,3.4s2.5,1.3,4,1.3c2.2,0,4.1-0.8,5.8-2.4c1.7-1.6,2.5-3.5,2.5-5.7c-1.6-1.3-3.8-1.9-6.7-1.9
			c-2.1,0-3.8,0.5-5.2,1.5C1646.5,274.9,1645.8,276.1,1645.8,277.6z"/>
		<path d="M1670.9,258.6h4.9v3.8h0.2c0.8-1.3,2-2.5,3.6-3.4s3.3-1.3,5.1-1.3c3.4,0,5.9,1,7.8,2.9c1.8,1.9,2.7,4.7,2.7,8.2V286h-5.2
			v-16.9c-0.1-4.5-2.4-6.7-6.8-6.7c-2.1,0-3.8,0.8-5.2,2.5s-2.1,3.6-2.1,6v15.2h-5.2v-27.5L1670.9,258.6L1670.9,258.6z"/>
		<path d="M1726.4,250.8V286h-5.2v-35.2H1710v-4.9h27.6v4.9H1726.4z"/>
		<path d="M1742.4,245.9h5.2v12.7l-0.2,3.8h0.2c0.8-1.3,2-2.5,3.6-3.4s3.3-1.3,5.1-1.3c3.4,0,5.9,1,7.8,2.9c1.8,1.9,2.7,4.7,2.7,8.2
			V286h-5.2v-16.2c0-4.9-2.2-7.4-6.6-7.4c-2.1,0-3.9,0.9-5.3,2.6s-2.2,3.8-2.2,6.1v15h-5.2L1742.4,245.9L1742.4,245.9z"/>
		<path d="M1785.3,286.9c-4,0-7.4-1.4-10-4.1c-2.6-2.8-3.9-6.3-3.9-10.5s1.3-7.7,3.8-10.4c2.5-2.8,5.8-4.2,9.7-4.2
			c4.1,0,7.3,1.3,9.7,3.9s3.6,6.3,3.6,11.1l-0.1,0.6h-21.6c0.1,2.7,1,4.9,2.7,6.5s3.8,2.5,6.2,2.5c3.3,0,5.9-1.6,7.7-4.9l4.6,2.2
			c-1.2,2.3-2.9,4.1-5.1,5.4C1790.6,286.3,1788.1,286.9,1785.3,286.9z M1777.1,269h15.7c-0.1-1.9-0.9-3.5-2.3-4.7
			c-1.4-1.3-3.3-1.9-5.6-1.9c-1.9,0-3.6,0.6-5,1.8C1778.5,265.4,1777.5,267,1777.1,269z"/>
		<path d="M1810,249.1c0,1-0.4,1.9-1.1,2.6s-1.6,1.1-2.6,1.1s-1.9-0.4-2.6-1.1s-1.1-1.6-1.1-2.6s0.4-1.9,1.1-2.6s1.6-1.1,2.6-1.1
			s1.9,0.4,2.6,1.1S1810,248.1,1810,249.1z M1808.9,258.6V286h-5.2v-27.4H1808.9z"/>
		<path d="M1821,286h-5.2v-27.4h4.9v4.5h0.2c0.5-1.5,1.6-2.7,3.2-3.7s3.2-1.5,4.8-1.5c1.5,0,2.8,0.2,3.8,0.7l-1.6,5
			c-0.6-0.3-1.6-0.4-3-0.4c-1.9,0-3.6,0.8-5.1,2.4c-1.4,1.6-2.2,3.4-2.2,5.5V286H1821z"/>
		<path d="M1889.1,245.9h5.4l-10.7,40.1h-5.3l-8.6-26.4h-0.2l-8.6,26.4h-5.3l-11.1-40.1h5.4l8.5,31.5h0.2l8.7-26.2h4.8l8.7,26.2h0.2
			L1889.1,245.9z"/>
		<path d="M1908,286.9c-4,0-7.4-1.4-10-4.1c-2.6-2.8-3.9-6.3-3.9-10.5s1.3-7.7,3.8-10.4c2.5-2.8,5.8-4.2,9.7-4.2
			c4.1,0,7.3,1.3,9.7,3.9c2.4,2.6,3.6,6.3,3.6,11.1l-0.1,0.6h-21.6c0.1,2.7,1,4.9,2.7,6.5s3.8,2.5,6.2,2.5c3.3,0,5.9-1.6,7.7-4.9
			l4.6,2.2c-1.2,2.3-2.9,4.1-5.1,5.4C1913.2,286.3,1910.8,286.9,1908,286.9z M1899.8,269h15.7c-0.1-1.9-0.9-3.5-2.3-4.7
			c-1.4-1.3-3.3-1.9-5.6-1.9c-1.9,0-3.6,0.6-5,1.8C1901.1,265.4,1900.2,267,1899.8,269z"/>
		<path d="M1938.6,286.9c-4,0-7.4-1.4-10-4.1c-2.6-2.8-3.9-6.3-3.9-10.5s1.3-7.7,3.8-10.4c2.5-2.8,5.8-4.2,9.7-4.2
			c4.1,0,7.3,1.3,9.7,3.9c2.4,2.6,3.6,6.3,3.6,11.1l-0.1,0.6H1930c0.1,2.7,1,4.9,2.7,6.5s3.8,2.5,6.2,2.5c3.3,0,5.9-1.6,7.7-4.9
			l4.6,2.2c-1.2,2.3-2.9,4.1-5.1,5.4C1943.8,286.3,1941.3,286.9,1938.6,286.9z M1930.4,269h15.7c-0.1-1.9-0.9-3.5-2.3-4.7
			c-1.4-1.3-3.3-1.9-5.6-1.9c-1.9,0-3.6,0.6-5,1.8C1931.7,265.4,1930.8,267,1930.4,269z"/>
		<path d="M1980.7,286h-6.2l-8.6-12.9l-4.2,4.1v8.8h-5.2v-40.1h5.2v24.7l11.9-12h6.6v0.2l-10.7,10.6l11.2,16.4L1980.7,286
			L1980.7,286z"/>
	</g>
</g>
</svg>
