<svg xmlns="http://www.w3.org/2000/svg" xmlns:xlink="http://www.w3.org/1999/xlink" id="Layer_1" x="0px" y="0px" viewBox="0 0 787.3 778" style="enable-background:new 0 0 787.3 778;" width="808px" height="798px" xml:space="preserve">
<style type="text/css">
	.st0{fill:#FFC303;}
	.st1{fill:#FFD642;}
	.st2{fill:#212E54;}
	.st3{fill:#182442;}
	.st4{fill:#9BBFA9;}
	.st5{fill:#E0EFDF;}
	.st6{fill:#FFFFFF;}
	.st7{opacity:0.1;}
	.st8{fill:none;}
	.st9{fill:#CEE4CD;}
	.st10{fill:#20287D;}
	.st11{fill:#F2F2F2;}
	.st12{fill:#EAAE96;}
	.st13{fill:#1A1243;}
	.st14{fill:#BC593F;}
</style>
<g>
	<g>
		<path class="st0" d="M785.7,370.9c0-36.1,11.9-200.5-86.1-263.2c-57-36.4-105.3-24-211.9-51.1C406,35.8,374.5,131,375.9,161.3    c4.3,93-70,104.3-150.2,89.4c-44.7-3-217.6,71.6-217,247.2c0,70.2,65.7,111,101.7,147.4c-6.6,17.2-27.2,4,19.6,32.3    c-7.6-28.2,0.4-47.9,9.7-60.2c76,46.7,186.6,52.3,292.4,35.6C619.1,623.4,785.7,513.6,785.7,370.9z"></path>
	</g>
	<g>
		<path class="st1" d="M777.3,392.2c0-36.1,2.5-78.1-17.9-118.4c-21.9-43.2,0-114.6-74.5-136.7C634.2,122,632.1,93,566.3,104.8    c-69.7,12.4-179.1,48.4-177.7,78.7c4.3,93-14.3,143.1-73.3,132.3c-62.9-11.5-64.2,38.2-144.4,23.3c-44.7-3-147.7,45.4-154,165.8    c0,70.2,47.1,106.1,83,142.5C93.4,664.7,777.3,534.9,777.3,392.2z"></path>
	</g>
	<g>
		<path class="st2" d="M787.3,432.2c0-28.6-5.2-93.3-22.1-127.8c-21.9-43.2-3.6-73.6-78.2-95.8c-50.7-15.1-40.6-90.8-106.4-79.1    c-69.7,12.4-183.4,63.6-182,93.9c4.3,93-14.3,143.1-73.3,132.3c-62.9-11.5-63.5,52.6-143.7,37.7c-44.7-3-123.1,15.5-129.4,135.9    c0,70.2,21.9,121.7,57.8,158.1c-6.6,17.2-18,62.2,28.8,90.5c-7.6-28.2,0.4-47.9,9.7-60.2c58.5,35.9,137.3,47.5,218.7,43.3    c2.9-5,5.7-9.3,8.7-9.9c21.2-4,41.6-8.6,63.1-12c44.7-7.1,83.4-34.7,123.2-53.7c80.2-38.3,158-73.4,192-134.7    C777.4,508.9,786.8,465.6,787.3,432.2z"></path>
	</g>
	<g>
		<g>
			<path class="st3" d="M783.8,430.3c-0.7-142.7-98.7-219.7-220.4-212.5c-13.2,0.8-23.6-6.2-32.2-14.3     c-6.7,39.9,33.5,187.5-97,204.3c-38.3,4.9-79.9,75-74.7,113.3c23,170.4-158.4,182.9-153.2,222.8c48.3,15.4,104,20.2,161,17.3     c1.3-1.7,4.1-3.8,5.5-4.1c21-4.5,28.5-27.6,51.4-31.3c30.4-4.8,77-14.2,105.6-24.8c90.4-33.5,168.5-64.1,214.4-132.7     C773,525.1,783.9,454.6,783.8,430.3z"></path>
		</g>
	</g>
	<g>
		<g>
			<path class="st4" d="M190.7,612.4l-21.3-79.2c-0.6-2.2-2.1-4-3.9-5l0,0l-8.6-3.7c0,0-0.4,2.5-1.7,4.2L43,558.8     c-4.3,1.2-6.9,5.6-5.7,10l21.1,78.4l-2.4,2l7.3,4.1l0,0c1.6,0.7,3.5,0.9,5.3,0.4l116.3-31.4C189.3,621.2,191.9,616.7,190.7,612.4     z"></path>
		</g>
		<g>
			<g>
				<path class="st5" d="M177,619.2L62.7,650c-4.9,1.3-10-1.6-11.3-6.5l-20.8-77.1c-1.3-4.9,1.6-10,6.5-11.3l114.3-30.8      c4.9-1.3,10,1.6,11.3,6.5l20.8,77.1C184.8,612.8,181.9,617.9,177,619.2z"></path>
			</g>
			<g>
				<path class="st6" d="M59.1,643.6c-0.2,0-0.3,0-0.5-0.1c-0.5-0.3-0.7-0.9-0.4-1.4l42.6-78.4l76.2,46.4c0.5,0.3,0.6,0.9,0.3,1.4      s-0.9,0.6-1.4,0.3l-74.5-45.3L60,643C59.8,643.4,59.5,643.6,59.1,643.6z"></path>
			</g>
			<g>
				<g class="st7">
					<polygon points="31.3,559.8 31.3,559.8 31.3,559.8      "></polygon>
				</g>
				<g>
					<path class="st8" d="M153.7,524c-0.8,0-1.5,0.1-2.3,0.3L37.1,555.1c-2.6,0.7-4.7,2.5-5.8,4.7l13.8-1.5L153.7,524z"></path>
				</g>
				<g class="st7">
					<path d="M128.8,596.1l33.3-67c-1.6-3.2-4.9-5.2-8.4-5.1L45.1,558.3l-13.8,1.5c0,0,0,0,0,0l65.2,45       C106.5,611.8,123.6,607.2,128.8,596.1z"></path>
				</g>
			</g>
			<g>
				<g>
					
						<rect x="35.1" y="539.7" transform="matrix(0.9655 -0.2603 0.2603 0.9655 -137.2568 43.1552)" class="st8" width="118.4" height="0"></rect>
				</g>
				<g>
					<path class="st6" d="M125.2,596.4l33.4-71.1c-2.1-1.3-4.7-1.8-7.3-1.1L37.1,555.1c-2.6,0.7-4.6,2.4-5.7,4.6L96,604.3       C106.1,611.3,120,607.5,125.2,596.4z"></path>
				</g>
			</g>
		</g>
	</g>
	<g>
		<g>
			<path class="st6" d="M90.5,161.3c5,0,9.5,2.9,11.6,7.5l30.6,67.3c1.4,3.1,1.5,6.6,0.3,9.7c-1.2,3.2-3.6,5.7-6.6,7.1L62,282.1     c-1.7,0.8-3.4,1.1-5.3,1.1c-5,0-9.5-2.9-11.6-7.5l-30.6-67.3c-1.4-3.1-1.5-6.6-0.3-9.7c1.2-3.2,3.6-5.7,6.6-7.1l64.4-29.3     C86.9,161.7,88.7,161.3,90.5,161.3 M90.5,159.3c-2,0-4.1,0.4-6.1,1.3l-64.4,29.3c-7.4,3.4-10.7,12.1-7.3,19.5l30.6,67.3     c2.5,5.4,7.8,8.6,13.4,8.6c2,0,4.1-0.4,6.1-1.3l64.4-29.3c7.4-3.4,10.7-12.1,7.3-19.5l-30.6-67.3     C101.5,162.5,96.1,159.3,90.5,159.3L90.5,159.3z"></path>
		</g>
		<g>
			<path class="st9" d="M71.6,156.6L8.5,185.3c-7.3,3.3-10.5,11.9-7.2,19.1l30,66c3.3,7.3,11.9,10.5,19.1,7.2l63.1-28.7     c7.3-3.3,10.5-11.9,7.2-19.1l-30-66C87.4,156.5,78.8,153.3,71.6,156.6z M75.2,210.6l-9.8,4.5l14,30.8l-12.7,5.8l-14-30.8     l-7.1,3.2l-4.9-10.9l7.1-3.2l-3.2-7c-2.3-5-3.9-13.8,7.5-19l10.2-4.6l4.8,10.6l-8.6,3.9c-1.2,0.5-2.1,1.2-1,3.6l3.1,6.7l11-5     L75.2,210.6z"></path>
		</g>
		<g>
			<path class="st6" d="M57.4,197.4c-1.1-2.4-0.2-3.1,1-3.6l8.6-3.9l-4.8-10.6L52,184c-11.3,5.1-9.7,13.9-7.5,19l3.2,7l-7.1,3.2     l4.9,10.9l7.1-3.2l14,30.8l12.7-5.8l-14-30.8l9.8-4.5l-3.7-11.4l-11,5L57.4,197.4z"></path>
		</g>
	</g>
	<g>
		<circle class="st10" cx="499.3" cy="197" r="6.7"></circle>
	</g>
	<g>
		<g>
			<path class="st11" d="M266.9,480l-8.3,17.2c-1.6,3.2-6.2,3.5-9.4,0.5l-66.2-59.9c-2.3-2.1-3.2-5.3-2.1-7.6l8.3-17.2     c1.6-3.2,6.2-3.5,9.4-0.5l66.2,59.9C267.1,474.5,268,477.7,266.9,480z"></path>
		</g>
		<g>
			<polygon class="st11" points="188.5,412.5 191.2,411 192,412    "></polygon>
		</g>
		<g>
			<path class="st6" d="M264.6,481.3l-8.3,17.2c-1.6,3.2-6.2,3.5-9.4,0.5l-66.2-59.9c-2.3-2.1-3.2-5.3-2.1-7.6l8.3-17.2     c1.6-3.2,6.2-3.5,9.4-0.5l66.2,59.9C264.9,475.8,265.7,479,264.6,481.3z"></path>
		</g>
		<g>
			<g>
				<path class="st12" d="M549,369.7c49.1-14.7,68.5-67.4,71.2-82.7c-25.6,3.6-78.8,12.7-120.5,31.9      C501.3,337.4,503.1,383.3,549,369.7z"></path>
			</g>
		</g>
		<g>
			<g>
				<path class="st6" d="M530.1,389.4c-8.3,0-15.3-2.2-20.8-6.6c-14.2-11.4-15.9-35-14.9-52.8c0-0.6,0.5-1,1.1-0.9      c0.6,0,1,0.5,0.9,1.1c-1,17.4,0.6,40.3,14.2,51.2c8.5,6.8,20.9,8,36.8,3.5c24.4-6.9,42.8-25.2,54-39.4c0.3-0.4,1-0.5,1.4-0.2      c0.4,0.3,0.5,1,0.2,1.4c-11.3,14.4-30.1,33-55,40.1C541.4,388.5,535.4,389.4,530.1,389.4z"></path>
			</g>
		</g>
		<g>
			<g>
				<path class="st9" d="M639.9,283.3c0,0-171.8,15-205.7,93c-18.5,42.5-39.4,216-39.4,216s-12.9,90.9-27.6,168.8      c24.5-1.2,49.2-3.9,73.7-7.8c126.5-20,242.9-94.7,303.2-185C756.3,445.4,754.2,269.6,639.9,283.3z"></path>
			</g>
		</g>
		<g>
			<g class="st7">
				<path d="M721.3,358.9c-17.9-79.1-89-60.3-93.7-23.9c-71.1,281.3-97.5,254.6-108,256.3c-10.5,1.7-101.1-30.5-101.1-30.5      l-39.2,107.7c7.4,7.9,83.9,66.3,168.5,54.5c37.4-15.6,72.4-35.6,103.4-58.7C705,596.8,739.6,439.8,721.3,358.9z"></path>
			</g>
		</g>
		<g>
			<path class="st6" d="M447.3,749.3c-0.1,0-0.1,0-0.2,0c-0.5-0.1-0.9-0.6-0.8-1.2c24.4-124.6,13-189.1,7.5-220.1     c-1.3-7.5-2.3-12.9-2.3-16.7c-0.3-40.6,20.2-99.7,20.4-100.3c0.2-0.5,0.8-0.8,1.3-0.6c0.5,0.2,0.8,0.8,0.6,1.3     c-0.2,0.6-20.5,59.3-20.3,99.6c0,3.7,1,9,2.3,16.4c5.5,31.1,17,95.8-7.5,220.8C448.2,748.9,447.7,749.3,447.3,749.3z"></path>
		</g>
	</g>
	<g>
		<g>
			<circle class="st4" cx="251.7" cy="271.3" r="64.2"></circle>
		</g>
		<g>
			<circle class="st9" cx="243.8" cy="269.9" r="64.2"></circle>
		</g>
		<g>
			<path class="st6" d="M282.3,242.2c-2.9,1.8-6.1,3.2-9.6,3.9c-2.7-3.1-6.7-5-11-5c-8.3,0-15.1,7.1-15.1,15.9     c0,1.2,0.1,2.5,0.4,3.6c-12.5-0.7-23.7-7-31.1-16.6c-1.3,2.3-2,5.1-2,8c0,5.5,2.7,10.4,6.7,13.2c-2.5-0.1-4.8-0.8-6.8-2v0.2     c0,7.7,5.2,14.1,12.1,15.6c-1.3,0.4-2.6,0.6-4,0.6c-1,0-1.9-0.1-2.8-0.3c1.9,6.3,7.5,10.9,14.1,11c-5.2,4.3-11.7,6.8-18.7,6.8     c-1.2,0-2.4-0.1-3.6-0.2c6.7,4.5,14.6,7.1,23.1,7.1c27.8,0,42.9-24.2,42.9-45.3c0-0.7,0-1.4,0-2.1c2.9-2.2,5.5-5,7.5-8.2     c-2.7,1.3-5.6,2.1-8.7,2.5C278.8,249,281.2,245.9,282.3,242.2"></path>
		</g>
	</g>
	<g>
		<g>
			<g>
				<path class="st2" d="M412.5,243.9c-53.7-16.8-47.8-80.1-17.7-95.4c34.7-57.7,91.6-64.3,128.1-37.2      c13.6,10.1,27.4,21.9,57.6,18.2c59-7.2,37.1,27.1,81.9,82.3C694.5,251.3,421.8,246.9,412.5,243.9z"></path>
			</g>
			<g>
				<path class="st12" d="M480.8,270.8l48.5,84.7c16.9-0.1,63.3-35.4,68.8-52.3l-82-110.1L480.8,270.8z"></path>
			</g>
			<g class="st7">
				<path d="M477,264l16.2,28.6c40.2-54.9-1.8-87.8-1.8-87.8L477,264z"></path>
			</g>
			<g>
				<path class="st12" d="M404.8,151.2c0,0-3,8.4-8.2,22.7c-8,21.9,14.3,53.7,14.7,67.3c0.2,6.9-0.9,18.5-1.7,21.2      c-2.1,7,5.4,6.5,13.2,5.3c0,0,14.7,32.9,29.2,34.7c23,2.9,54.5-40.6,60.4-53.7c6-13.1-4.4-48.6-31.8-69.7      C466.6,168.2,436.7,139.8,404.8,151.2z"></path>
			</g>
			<g>
				<g>
					
						<ellipse transform="matrix(-0.9373 0.3485 -0.3485 -0.9373 905.031 298.8751)" class="st13" cx="425.6" cy="230.8" rx="2.9" ry="3.8"></ellipse>
				</g>
				<g>
					<path class="st2" d="M415.6,219.8c-0.8,0-1.6-0.5-1.9-1.3c-0.4-1,0.1-2.2,1.1-2.6c4.9-1.9,12.6-2.6,12.9-2.6       c1.1-0.1,2.1,0.7,2.2,1.8c0.1,1.1-0.7,2.1-1.8,2.2c-0.1,0-7.4,0.6-11.7,2.3C416.1,219.8,415.9,219.8,415.6,219.8z"></path>
				</g>
			</g>
			<g>
				<path class="st2" d="M394.2,202.8c0,0,1.2-30.6,6.6-31.3c1.3-0.2,13,6.8,14.5,8.3c16.5,16.2,47.8,33.7,73.7,20.8      c6.3-3.1,14-8.9,21.6,7.6c36.9,79.9,85.5,111.7,131.6,58.8c21.6-24.9,69.5-4.5,83.6,1.8c13.1,5.8-60.5-79.2-86.9-85.5      c-43.5-10.4-123-2.4-133-28.7c-0.5-1.2-34.5-50.6-92.5-22.2C363,157.1,394.2,202.8,394.2,202.8z"></path>
			</g>
			<g>
				
					<ellipse transform="matrix(0.9999 -1.204885e-002 1.204885e-002 0.9999 -2.3763 5.9792)" class="st12" cx="495" cy="200.2" rx="21" ry="23.7"></ellipse>
			</g>
			<g>
				<path class="st14" d="M500.6,198.6C500.6,198.6,500.6,198.6,500.6,198.6c-0.6,0-1-0.5-1-1.1c0.1-1.4-1.7-4.9-4.5-6      c-2.4-0.9-4.9,0.1-7.3,3.2c-0.3,0.4-1,0.5-1.4,0.1c-0.4-0.3-0.5-1-0.1-1.4c3.8-4.7,7.4-4.7,9.6-3.8c3.6,1.4,5.9,5.7,5.8,8      C501.6,198.2,501.2,198.6,500.6,198.6z"></path>
			</g>
		</g>
	</g>
	<g>
		<path class="st6" d="M5.4,26.7c-0.6,0-1.3-0.2-1.8-0.6c-1.3-1-1.5-2.9-0.5-4.2c0.3-0.4,6.9-8.7,20.3-14.2    c12.2-5,32.8-8.5,61.1,3.3c27.5,11.4,44.4,4.2,60.7-2.8c13.9-6,28.4-12.2,47.9-5c3.4,1.2,6.4,2.4,9.2,3.4    c30.6,11.3,31.8,11.7,65.8,9.2c17.8-1.3,39.9-7.3,40.1-7.4c1.6-0.4,3.2,0.5,3.7,2.1c0.4,1.6-0.5,3.2-2.1,3.7    c-0.9,0.3-22.9,6.2-41.3,7.6c-35.3,2.7-37.2,2-68.3-9.5c-2.8-1-5.9-2.2-9.2-3.4c-17.3-6.3-29.5-1.1-43.5,4.9    c-16.6,7.1-35.4,15.2-65.3,2.8C61.4,7.9,42,6.7,26,13.2C13.9,18,7.9,25.5,7.8,25.6C7.2,26.4,6.3,26.7,5.4,26.7z"></path>
	</g>
	<g>
		<path class="st6" d="M110.8,76c-7.9,0-17.2-1.8-28.6-6.5C32,48.6,8.6,72.4,7.6,73.4c-1.1,1.2-3,1.3-4.2,0.1    c-1.2-1.1-1.3-3-0.1-4.2c1.1-1.1,27-27.9,81.2-5.4c26.5,11,39.9,4.8,54-1.8c13.2-6.1,28.2-13.1,54.3-6.1c41,11,46.1,10.4,79.7,1.4    c1.6-0.4,3.2,0.5,3.7,2.1c0.4,1.6-0.5,3.2-2.1,3.7c-34.5,9.3-40.5,10-82.8-1.4c-24-6.5-37.4-0.3-50.2,5.7    C132.2,71.7,123,76,110.8,76z"></path>
	</g>
	<g>
		<g>
			<path class="st12" d="M403.3,552.5c0,0-93.3-58.1-118.7-81.1c-15.3-13.8-13-19.7-37.6-36.3c-21.2-14.4-28.5-6.1-24-0.4     c3.5,4.5,17,17.6,18.5,21.2c2.9,7.4-35.7-10.9-42.3-10.8c-6.7,0.1-4.9,6.1,1.4,12.5c0.6,0.6-9.3,1.9-0.1,12.3     c1.7,2,1.5,1.4,4.5,4.7c-3.1,1.7-5.3,7,6,14.2c0,0-6.5,4.4,7.5,16.4c11.3,9.7,75,80.4,101.8,105c26.8,24.6,79.1,60.4,83.5,62.8     L403.3,552.5z"></path>
		</g>
		<g>
			<path class="st9" d="M623.3,319.3c7.2-37.4,83-58.4,95.5,31c12.8,91.5-46.5,248.6-106.8,310.4c-95.6,97.8-262.5-5.7-273-16.7     c-1.4-1.2,46.6-105,46.6-105s91.7,39.4,102.7,38.3C499.2,576.2,531.1,606.1,623.3,319.3z"></path>
		</g>
		<g>
			<path class="st14" d="M229.1,477.2c-0.1,0-0.3,0-0.4-0.1c-11.1-4.9-28.1-18-28.8-18.6c-0.4-0.3-0.5-1-0.2-1.4     c0.3-0.4,1-0.5,1.4-0.2c0.2,0.1,17.6,13.6,28.4,18.3c0.5,0.2,0.7,0.8,0.5,1.3C229.9,476.9,229.5,477.2,229.1,477.2z"></path>
		</g>
		<g>
			<path class="st14" d="M231.5,491.9c-0.2,0-0.3,0-0.5-0.1c-0.2-0.1-18.5-10.9-25.9-16.3c-0.4-0.3-0.5-1-0.2-1.4     c0.3-0.4,0.9-0.5,1.4-0.2c7.4,5.4,25.6,16.1,25.8,16.2c0.5,0.3,0.6,0.9,0.4,1.4C232.2,491.7,231.8,491.9,231.5,491.9z"></path>
		</g>
		<g>
			<path class="st14" d="M230.7,504.4c-0.2,0-0.4-0.1-0.6-0.2L210.8,490c-0.4-0.3-0.5-1-0.2-1.4c0.3-0.4,1-0.5,1.4-0.2l19.3,14.1     c0.4,0.3,0.5,1,0.2,1.4C231.3,504.2,231,504.4,230.7,504.4z"></path>
		</g>
		<g>
			<path class="st6" d="M507.4,703.9c-10.6,0-20.7-0.8-30.1-2.1c-45-6-95.3-26.1-128.1-51.1l-0.6-0.5l0.3-0.7l38.8-86.3     c0.2-0.5,0.8-0.7,1.3-0.5c0.5,0.2,0.7,0.8,0.5,1.3l-38.5,85.6c54.8,41.3,190.7,88.2,260,10.6c29-32.5,59.2-86.6,80.7-144.9     c23.8-64.6,33.1-123.1,26-164.7c-6.2-36.2-25.2-60.9-48.5-62.9c-18.8-1.7-35.9,12.2-44.4,36.1c-9.7,28.8-18.9,57.8-27.9,85.9     c-19.5,61.4-36.4,114.5-49.7,137.1c-20.8,35.5-48,34-58.7,31.8c-0.2,0-0.4-0.1-0.5-0.1c-10.9-1.9-99.1-36.9-102.9-38.4     c-0.5-0.2-0.8-0.8-0.6-1.3c0.2-0.5,0.8-0.8,1.3-0.6c0.9,0.4,91.8,36.4,102.5,38.3c0.1,0,0.3,0.1,0.6,0.1     c10.3,2.2,36.4,3.5,56.6-30.8c13.2-22.4,30-75.4,49.5-136.7c8.9-28.1,18.2-57.1,27.9-85.9c8.9-24.8,26.7-39.2,46.5-37.4     c11.3,1,22,7.1,30.7,17.6c9.5,11.4,16.3,27.7,19.6,46.9c7.2,41.9-2.1,100.8-26,165.7c-21.6,58.5-51.9,112.9-81,145.5     C583,694.8,542.8,703.9,507.4,703.9z"></path>
		</g>
	</g>
	<g>
		<path class="st6" d="M435.4,272.5c0,0,10.9-10.5,13.2-14C453,262.5,449,282.1,435.4,272.5z"></path>
	</g>
	<g>
		<path class="st14" d="M518.1,335.2c-0.3,0-0.7-0.2-0.9-0.5l-9.5-16.7c-0.3-0.5-0.1-1.1,0.4-1.4c0.5-0.3,1.1-0.1,1.4,0.4l9.5,16.7    c0.3,0.5,0.1,1.1-0.4,1.4C518.5,335.1,518.3,335.2,518.1,335.2z"></path>
	</g>
</g>
</svg>