<?xml version="1.0" encoding="utf-8"?>
<!-- Generator: Adobe Illustrator 19.1.0, SVG Export Plug-In . SVG Version: 6.00 Build 0)  -->
<svg version="1.1" id="Layer_1" xmlns="http://www.w3.org/2000/svg" xmlns:xlink="http://www.w3.org/1999/xlink" x="0px" y="0px"
	 viewBox="988 -82.4 1600 874.6" style="enable-background:new 988 -82.4 1600 874.6;" width="1600px" height="875px" xml:space="preserve">
<style type="text/css">
	.st0{fill:none;}
	.st1{opacity:5.000000e-002;}
	.st2{fill:#FFFFFF;stroke:#E8E8E8;stroke-miterlimit:10;}
	.st3{fill:#E2E2E2;stroke:#E2E2E2;stroke-miterlimit:10;}
	.st4{fill:#F6F6F6;}
	.st5{fill:#5D5EF4;}
	.st6{fill:#FFFFFF;}
	.st7{fill:#F2F2F2;}
	.st8{fill:#DDDDDD;}
</style>
<g>
	<rect x="988" y="-82.4" class="st0" width="1600" height="874.6"/>
</g>
<g>
	<g>
		<g class="st1">
			<g>
				<path d="M2422.8,688.1H1133.2v-635c0-6.3,5.1-11.5,11.5-11.5h1266.7c6.3,0,11.5,5.1,11.5,11.5L2422.8,688.1L2422.8,688.1z"/>
			</g>
		</g>
		<g>
			<path class="st2" d="M2432.8,668.1H1143.2v-635c0-6.3,5.1-11.5,11.5-11.5h1266.7c6.3,0,11.5,5.1,11.5,11.5L2432.8,668.1
				L2432.8,668.1z"/>
		</g>
		<g>
			<path class="st3" d="M2432.8,86.8H1143.2V31c0-5.2,4.2-9.4,9.4-9.4h1270.9c5.2,0,9.4,4.2,9.4,9.4L2432.8,86.8L2432.8,86.8z"/>
		</g>
	</g>
	<g>
		<g>
			<g>
				<ellipse class="st4" cx="1267" cy="54.2" rx="9" ry="9.3"/>
			</g>
			<g>
				<ellipse class="st4" cx="1230.4" cy="54.2" rx="9" ry="9.3"/>
			</g>
			<g>
				<ellipse class="st4" cx="1193.8" cy="54.2" rx="9" ry="9.3"/>
			</g>
		</g>
	</g>
</g>
<g>
	<g>
		<path class="st5" d="M1668.5,583.5h-407.2c-3.5,0-6.4-2.8-6.4-6.4v-61.5c0-3.5,2.8-6.4,6.4-6.4h407.3c3.5,0,6.4,2.8,6.4,6.4v61.5
			C1674.9,580.7,1672.1,583.5,1668.5,583.5z"/>
	</g>
	<g>
		<path class="st6" d="M1437.5,547L1437.5,547c0-5.6,4.2-10.2,10.2-10.2c3.7,0,5.9,1.2,7.7,3l-2.7,3.2c-1.5-1.4-3.1-2.2-5-2.2
			c-3.3,0-5.7,2.7-5.7,6.1v0.1c0,3.4,2.3,6.2,5.7,6.2c2.2,0,3.6-0.9,5.2-2.3l2.7,2.8c-2,2.2-4.3,3.5-8,3.5
			C1441.8,557.1,1437.5,552.6,1437.5,547z"/>
		<path class="st6" d="M1464.3,541.1h-6v-4h16.2v4h-6v15.6h-4.3L1464.3,541.1L1464.3,541.1z"/>
		<path class="st6" d="M1482.8,537h4l8.4,19.7h-4.5l-1.8-4.4h-8.3l-1.8,4.4h-4.4L1482.8,537z M1487.3,548.5l-2.6-6.4l-2.6,6.4
			H1487.3z"/>
	</g>
</g>
<g>
	<g>
		<path class="st7" d="M2312.6,583.5h-391.1c-4.7,0-8.5-3.8-8.5-8.5V178c0-4.7,3.8-8.5,8.5-8.5h391.1c4.7,0,8.5,3.8,8.5,8.5v397
			C2321.1,579.7,2317.3,583.5,2312.6,583.5z"/>
	</g>
	<g>
		<g>
			<path class="st8" d="M2235.8,465.3h-237.6V287.5h237.6V465.3z M2000.3,463.3h233.6V289.5h-233.6V463.3L2000.3,463.3z"/>
		</g>
		<g>
			<path class="st8" d="M2235.8,465.3h-237.6V287.5h237.6V465.3z M2000.3,463.3h233.6V289.5h-233.6V463.3L2000.3,463.3z"/>
		</g>
		<g>
			<polygon class="st8" points="2068.4,465 2067,463.5 2198.3,332.2 2235.5,369.4 2234.1,370.8 2198.3,335 			"/>
		</g>
		<g>
			<polygon class="st8" points="2000.3,465.3 1998.9,463.9 2094.8,368 2129.4,402.6 2128,404 2094.8,370.8 			"/>
		</g>
		<g>
			<path class="st8" d="M2049.3,357.4c-10.7,0-19.4-8.7-19.4-19.4s8.7-19.4,19.4-19.4c10.7,0,19.4,8.7,19.4,19.4
				S2060,357.4,2049.3,357.4z M2049.3,320.6c-9.6,0-17.4,7.8-17.4,17.4s7.8,17.4,17.4,17.4c9.6,0,17.4-7.8,17.4-17.4
				S2058.9,320.6,2049.3,320.6z"/>
		</g>
	</g>
</g>
<g>
	<g>
		<rect x="1254.9" y="415.4" class="st7" width="395" height="16.7"/>
	</g>
	<g>
		<rect x="1254.9" y="372.7" class="st7" width="569.1" height="16.7"/>
	</g>
	<g>
		<rect x="1254.9" y="330" class="st7" width="569.1" height="16.7"/>
	</g>
	<g>
		<rect x="1254.9" y="287.9" class="st7" width="569.1" height="16.7"/>
	</g>
</g>
<g>
	<path d="M1273.5,191.4V210h-5.2v-18.6l-13.5-21.4h6l9.9,16.3h0.2l9.7-16.3h6L1273.5,191.4z"/>
	<path d="M1283.7,196.3c0-4.2,1.3-7.7,4-10.5c2.7-2.8,6.1-4.1,10.1-4.1c4.1,0,7.4,1.4,10.1,4.1c2.7,2.8,4,6.3,4,10.5
		c0,4.3-1.3,7.7-4,10.5c-2.7,2.8-6,4.1-10.1,4.1c-4.1,0-7.4-1.4-10.1-4.1C1285.1,204,1283.7,200.5,1283.7,196.3z M1288.9,196.3
		c0,2.9,0.9,5.3,2.6,7.2s3.8,2.7,6.4,2.7c2.5,0,4.7-0.9,6.4-2.7s2.6-4.2,2.6-7.2c0-2.9-0.9-5.3-2.6-7.1c-1.8-1.9-3.9-2.8-6.4-2.8
		s-4.6,0.9-6.4,2.8C1289.7,191,1288.9,193.4,1288.9,196.3z"/>
	<path d="M1340.7,210h-4.9v-3.8h-0.2c-0.8,1.3-2,2.5-3.6,3.4s-3.3,1.3-5.1,1.3c-3.4,0-5.9-1-7.8-2.9c-1.8-1.9-2.7-4.7-2.7-8.2v-17.2
		h5.2v16.9c0.1,4.5,2.4,6.7,6.8,6.7c2.1,0,3.8-0.8,5.2-2.5c1.4-1.7,2.1-3.6,2.1-6v-15.1h5.2V210L1340.7,210L1340.7,210z"/>
	<path d="M1352.4,210h-5.2v-27.4h4.9v4.5h0.2c0.5-1.5,1.6-2.7,3.2-3.7c1.6-1,3.2-1.5,4.8-1.5c1.5,0,2.8,0.2,3.8,0.7l-1.6,5
		c-0.6-0.3-1.6-0.4-3-0.4c-1.9,0-3.6,0.8-5.1,2.4c-1.4,1.6-2.2,3.4-2.2,5.5V210H1352.4z"/>
	<path d="M1386.6,192.8V210h-5.2v-40.1h23.4v4.9h-18.3V188h16.5v4.8H1386.6z"/>
	<path d="M1433,210h-5v-3.8h-0.2c-0.8,1.3-2,2.5-3.6,3.4c-1.6,0.9-3.3,1.3-5.1,1.3c-3.4,0-5.9-1-7.8-2.9c-1.8-1.9-2.7-4.7-2.7-8.2
		v-17.2h5.2v16.9c0.1,4.5,2.4,6.7,6.8,6.7c2.1,0,3.8-0.8,5.2-2.5s2.1-3.6,2.1-6v-15.1h5.2L1433,210L1433,210z"/>
	<path d="M1450.7,210.5c-2.2,0-4.1-0.7-5.6-2.1s-2.2-3.3-2.3-5.8v-15.3h-4.8v-4.7h4.8v-8.4h5.2v8.4h6.7v4.7h-6.7V201
		c0,1.8,0.4,3.1,1.1,3.7c0.7,0.7,1.5,1,2.4,1c0.4,0,0.8,0,1.2-0.1c0.4-0.1,0.8-0.2,1.1-0.4l1.6,4.6
		C1454,210.2,1452.5,210.5,1450.7,210.5z"/>
	<path d="M1484,210h-4.9v-3.8h-0.2c-0.8,1.3-2,2.5-3.6,3.4c-1.6,0.9-3.3,1.3-5.1,1.3c-3.4,0-5.9-1-7.8-2.9c-1.8-1.9-2.7-4.7-2.7-8.2
		v-17.2h5.2v16.9c0.1,4.5,2.4,6.7,6.8,6.7c2.1,0,3.8-0.8,5.2-2.5s2.1-3.6,2.1-6v-15.1h5.2V210L1484,210L1484,210z"/>
	<path d="M1495.7,210h-5.2v-27.4h4.9v4.5h0.2c0.5-1.5,1.6-2.7,3.2-3.7c1.6-1,3.2-1.5,4.8-1.5c1.5,0,2.8,0.2,3.8,0.7l-1.6,5
		c-0.6-0.3-1.6-0.4-3-0.4c-1.9,0-3.6,0.8-5.1,2.4c-1.4,1.6-2.2,3.4-2.2,5.5V210H1495.7z"/>
	<path d="M1521.8,210.9c-4,0-7.4-1.4-10-4.1c-2.6-2.8-3.9-6.3-3.9-10.5s1.3-7.7,3.8-10.4c2.5-2.8,5.8-4.2,9.7-4.2
		c4.1,0,7.3,1.3,9.7,3.9s3.6,6.3,3.6,11.1l-0.1,0.6H1513c0.1,2.7,1,4.9,2.7,6.5c1.7,1.6,3.8,2.5,6.2,2.5c3.3,0,5.9-1.6,7.7-4.9
		l4.6,2.2c-1.2,2.3-2.9,4.1-5.1,5.4C1527,210.3,1524.6,210.9,1521.8,210.9z M1513.6,193h15.7c-0.1-1.9-0.9-3.5-2.3-4.7
		c-1.4-1.3-3.3-1.9-5.6-1.9c-1.9,0-3.6,0.6-5,1.8C1514.9,189.4,1514,191,1513.6,193z"/>
	<path d="M1546.9,206.5c0,1-0.4,1.9-1.1,2.7c-0.7,0.7-1.6,1.1-2.7,1.1c-1,0-1.9-0.4-2.7-1.1c-0.7-0.7-1.1-1.6-1.1-2.7s0.4-2,1.1-2.7
		s1.6-1.1,2.7-1.1s2,0.4,2.7,1.1C1546.6,204.6,1546.9,205.5,1546.9,206.5z"/>
	<path d="M1580.4,210h-5.4l-14.1-40.1h5.7l11,32.5h0.2l11.4-32.5h5.7L1580.4,210z"/>
	<path d="M1604.6,173.1c0,1-0.4,1.9-1.1,2.6s-1.6,1.1-2.6,1.1s-1.9-0.4-2.6-1.1s-1.1-1.6-1.1-2.6s0.4-1.9,1.1-2.6
		c0.7-0.7,1.6-1.1,2.6-1.1s1.9,0.4,2.6,1.1C1604.3,171.2,1604.6,172.1,1604.6,173.1z M1603.6,182.6V210h-5.2v-27.4H1603.6z"/>
	<path d="M1631.5,202.4c0,2.4-1,4.4-3.1,6s-4.7,2.5-7.9,2.5c-2.8,0-5.2-0.7-7.3-2.2c-2.1-1.4-3.6-3.3-4.5-5.7l4.6-2
		c0.7,1.6,1.7,2.9,2.9,3.8c1.3,0.9,2.7,1.4,4.2,1.4c1.6,0,3-0.4,4.1-1.1s1.7-1.5,1.7-2.5c0-1.8-1.3-3-4-3.9l-4.7-1.2
		c-5.3-1.3-8-3.9-8-7.7c0-2.5,1-4.5,3.1-6c2-1.5,4.6-2.3,7.8-2.3c2.4,0,4.6,0.6,6.6,1.7s3.3,2.7,4.1,4.6l-4.6,1.9
		c-0.5-1.2-1.4-2.1-2.5-2.7c-1.1-0.6-2.5-1-3.9-1c-1.3,0-2.5,0.3-3.6,1s-1.6,1.5-1.6,2.5c0,1.6,1.5,2.7,4.4,3.4l4.1,1.1
		C1628.8,195.5,1631.5,198.3,1631.5,202.4z"/>
	<path d="M1660.4,210h-4.9v-3.8h-0.2c-0.8,1.3-2,2.5-3.6,3.4s-3.3,1.3-5.1,1.3c-3.4,0-5.9-1-7.8-2.9c-1.8-1.9-2.7-4.7-2.7-8.2v-17.2
		h5.2v16.9c0.1,4.5,2.4,6.7,6.8,6.7c2.1,0,3.8-0.8,5.2-2.5s2.1-3.6,2.1-6v-15.1h5.2V210L1660.4,210L1660.4,210z"/>
	<path d="M1677.1,181.7c3.8,0,6.8,1,9,3.1c2.2,2,3.3,4.8,3.3,8.4v16.9h-4.9v-3.8h-0.2c-2.1,3.1-5,4.7-8.5,4.7c-3,0-5.6-0.9-7.6-2.7
		s-3.1-4-3.1-6.7c0-2.8,1.1-5.1,3.2-6.8s5-2.5,8.6-2.5c3.1,0,5.6,0.6,7.6,1.7v-1.2c0-1.8-0.7-3.3-2.1-4.6s-3.1-1.9-5-1.9
		c-2.9,0-5.2,1.2-6.8,3.6l-4.5-2.9C1668.5,183.5,1672.2,181.7,1677.1,181.7z M1670.4,201.6c0,1.3,0.6,2.5,1.7,3.4s2.5,1.3,4,1.3
		c2.2,0,4.1-0.8,5.8-2.4s2.5-3.5,2.5-5.7c-1.6-1.3-3.8-1.9-6.7-1.9c-2.1,0-3.8,0.5-5.2,1.5C1671.1,198.9,1670.4,200.1,1670.4,201.6z
		"/>
	<path d="M1700.7,169.9V210h-5.2v-40.1H1700.7L1700.7,169.9z"/>
	<path d="M1713.9,173.1c0,1-0.4,1.9-1.1,2.6s-1.6,1.1-2.6,1.1s-1.9-0.4-2.6-1.1s-1.1-1.6-1.1-2.6s0.4-1.9,1.1-2.6
		c0.7-0.7,1.6-1.1,2.6-1.1s1.9,0.4,2.6,1.1S1713.9,172.1,1713.9,173.1z M1712.8,182.6V210h-5.2v-27.4H1712.8z"/>
	<path d="M1740.6,210h-22.2v-4.5l15.6-18.3h-15.2v-4.6h21.5v4.5l-15.6,18.3h15.8L1740.6,210L1740.6,210z"/>
	<path d="M1757.6,210.9c-4,0-7.4-1.4-10-4.1c-2.6-2.8-3.9-6.3-3.9-10.5s1.3-7.7,3.8-10.4c2.5-2.8,5.8-4.2,9.7-4.2
		c4.1,0,7.3,1.3,9.7,3.9c2.4,2.6,3.6,6.3,3.6,11.1l-0.1,0.6H1749c0.1,2.7,1,4.9,2.7,6.5s3.8,2.5,6.2,2.5c3.3,0,5.9-1.6,7.7-4.9
		l4.6,2.2c-1.2,2.3-2.9,4.1-5.1,5.4C1762.8,210.3,1760.4,210.9,1757.6,210.9z M1749.4,193h15.7c-0.1-1.9-0.9-3.5-2.3-4.7
		c-1.4-1.3-3.3-1.9-5.6-1.9c-1.9,0-3.6,0.6-5,1.8C1750.7,189.4,1749.8,191,1749.4,193z"/>
	<path d="M1787.3,210.9c-3.6,0-6.7-1.4-9.2-4.3s-3.8-6.3-3.8-10.4c0-4,1.3-7.5,3.8-10.4c2.6-2.8,5.7-4.3,9.2-4.3
		c2,0,3.9,0.4,5.5,1.3c1.7,0.9,2.9,2,3.8,3.4h0.2l-0.2-3.8v-12.7h5.2v40.1h-4.9V206h-0.2c-0.9,1.4-2.2,2.6-3.8,3.4
		C1791.3,210.2,1789.4,210.9,1787.3,210.9z M1788.2,206.2c2.5,0,4.6-0.9,6.2-2.7c1.7-1.8,2.5-4.2,2.5-7.2c0-2.9-0.8-5.2-2.5-7.1
		c-1.6-1.9-3.7-2.8-6.2-2.8s-4.5,0.9-6.2,2.8s-2.5,4.2-2.5,7.1s0.8,5.3,2.5,7.1C1783.6,205.3,1785.7,206.2,1788.2,206.2z"/>
	<path d="M1815.6,206.5c0,1-0.4,1.9-1.1,2.7c-0.7,0.7-1.6,1.1-2.7,1.1c-1,0-1.9-0.4-2.7-1.1c-0.7-0.7-1.1-1.6-1.1-2.7s0.4-2,1.1-2.7
		s1.6-1.1,2.7-1.1s2,0.4,2.7,1.1C1815.2,204.6,1815.6,205.5,1815.6,206.5z"/>
</g>
</svg>
