<?xml version="1.0" encoding="utf-8"?>
<!-- Generator: Adobe Illustrator 19.1.0, SVG Export Plug-In . SVG Version: 6.00 Build 0)  -->
<svg version="1.1" id="Layer_1" xmlns="http://www.w3.org/2000/svg" xmlns:xlink="http://www.w3.org/1999/xlink" x="0px" y="0px"
	 viewBox="1482 -2207.2 1600 2263.7" style="enable-background:new 1482 -2207.2 1600 2263.7;" width="1600px" height="2264px" xml:space="preserve">
<style type="text/css">
	.st0{fill:none;}
	.st1{opacity:5.000000e-002;}
	.st2{fill:#FFFFFF;stroke:#E8E8E8;stroke-miterlimit:10;}
	.st3{fill:#E2E2E2;stroke:#E2E2E2;stroke-miterlimit:10;}
	.st4{fill:#F6F6F6;}
	.st5{fill:#34BC79;}
	.st6{fill:#FFFFFF;}
	.st7{fill:#5D5EF4;}
	.st8{fill:#FFA300;}
	.st9{fill:#FF4759;}
	.st10{fill:#A900FF;}
	.st11{fill:none;stroke:#E8E8E8;stroke-width:2;stroke-miterlimit:10;}
	.st12{fill:#F2F2F2;}
	.st13{fill:#DDDDDD;}
	.st14{fill:#BCBCBC;}
</style>
<rect x="1482" y="-2207.2" class="st0" width="1600" height="2263.7"/>
<g>
	<g class="st1">
		<path d="M2008.7-45.4v-1895.9c0-5.2,4.2-9.4,9.4-9.4h1054.5c5.2,0,9.4,4.2,9.4,9.4v1896L2008.7-45.4L2008.7-45.4z"/>
	</g>
	<g>
		<g>
			<path class="st2" d="M2018.7-65.4V-1947c0-13.9,10.1-23.7,22.6-23.7h1009.4c17.3,0,31.3,13.5,30.8,30.1V-65.3H2018.7V-65.4z"/>
		</g>
		<g>
			<path class="st3" d="M3081.5-1911.2H2018.7v-50.3c0-5.2,4.2-9.4,9.4-9.4h1053.4V-1911.2z"/>
		</g>
	</g>
	<g>
		<g>
			<g>
				<ellipse class="st4" cx="2146.5" cy="-1939.8" rx="8.4" ry="8.6"/>
			</g>
			<g>
				<ellipse class="st4" cx="2112.6" cy="-1939.8" rx="8.4" ry="8.6"/>
			</g>
			<g>
				<ellipse class="st4" cx="2078.6" cy="-1939.8" rx="8.4" ry="8.6"/>
			</g>
		</g>
	</g>
</g>
<g>
	<g>
		<g>
			<circle class="st5" cx="2066.7" cy="-1782.7" r="9.7"/>
		</g>
		<g>
			<g>
				<rect x="1935.8" y="-1784.7" class="st5" width="127.6" height="4"/>
			</g>
		</g>
	</g>
	<g>
		<path class="st5" d="M1955.5-1690.6h-367.3c-3.5,0-6.4-2.8-6.4-6.4v-171.4c0-3.5,2.8-6.4,6.4-6.4h367.3c3.5,0,6.4,2.8,6.4,6.4
			v171.5C1961.8-1693.4,1959-1690.6,1955.5-1690.6z"/>
	</g>
	<g>
		<path class="st6" d="M1688.1-1831.9h3.4v8.1h9.4v-8.1h3.4v19.6h-3.4v-8.3h-9.4v8.3h-3.4V-1831.9z"/>
		<path class="st6" d="M1710.1-1831.9h14.5v3.1h-11.1v5.1h9.8v3.1h-9.8v5.3h11.2v3.1H1710L1710.1-1831.9L1710.1-1831.9z"/>
		<path class="st6" d="M1736.5-1832.1h3.2l8.6,19.7h-3.6l-2-4.7h-9.3l-2,4.7h-3.5L1736.5-1832.1z M1741.5-1820.1l-3.4-7.8l-3.4,7.8
			H1741.5z"/>
		<path class="st6" d="M1752.4-1831.9h7.3c6.2,0,10.4,4.2,10.4,9.7v0.1c0,5.5-4.3,9.8-10.4,9.8h-7.3V-1831.9z M1759.7-1815.5
			c4.1,0,6.8-2.8,6.8-6.6v-0.1c0-3.8-2.7-6.7-6.8-6.7h-3.9v13.3L1759.7-1815.5L1759.7-1815.5z"/>
		<path class="st6" d="M1775-1831.9h3.4v16.5h10.3v3.1H1775V-1831.9z"/>
		<path class="st6" d="M1793.2-1831.9h3.4v19.6h-3.4V-1831.9z"/>
		<path class="st6" d="M1802.6-1831.9h3.2l10.5,13.6v-13.6h3.4v19.6h-2.9l-10.8-14v13.9h-3.4L1802.6-1831.9L1802.6-1831.9z"/>
		<path class="st6" d="M1825.4-1831.9h14.6v3.1h-11.1v5.1h9.8v3.1h-9.8v5.3h11.2v3.1h-14.7V-1831.9z"/>
		<path class="st6" d="M1844.5-1827.3h13.5v3.1h-13.5V-1827.3z M1844.5-1820.3h13.5v3.1h-13.5V-1820.3z"/>
		<path class="st6" d="M1626.8-1786.9h8.8c2.2,0,4,0.6,5.1,1.7c0.9,0.9,1.3,1.9,1.3,3.2v0.1c0,2.4-1.3,3.6-2.8,4.4
			c2.3,0.8,3.9,2.1,3.9,4.8v0.1c0,3.5-2.9,5.4-7.3,5.4h-9.1L1626.8-1786.9L1626.8-1786.9z M1634.9-1778.7c2.2,0,3.7-0.9,3.7-2.7
			v-0.1c0-1.5-1.2-2.5-3.4-2.5h-5v5.2L1634.9-1778.7L1634.9-1778.7z M1635.9-1770.4c2.4,0,3.8-0.9,3.8-2.7v-0.1c0-1.7-1.3-2.6-4-2.6
			h-5.5v5.4L1635.9-1770.4L1635.9-1770.4z"/>
		<path class="st6" d="M1647.7-1786.9h14.5v3.1h-11.1v5.1h9.8v3.1h-9.8v5.3h11.2v3.1h-14.7L1647.7-1786.9L1647.7-1786.9z"/>
		<path class="st6" d="M1667.1-1786.9h3.2l10.5,13.6v-13.6h3.4v19.6h-2.9l-10.8-13.9v13.9h-3.4L1667.1-1786.9L1667.1-1786.9z"/>
		<path class="st6" d="M1690-1786.9h14.5v3.1h-11.1v5.1h9.8v3.1h-9.8v5.3h11.2v3.1H1690V-1786.9z"/>
		<path class="st6" d="M1709.4-1786.9h14.6v3.1h-11.1v5.3h9.9v3.1h-9.9v8h-3.4L1709.4-1786.9L1709.4-1786.9z"/>
		<path class="st6" d="M1728.7-1786.9h3.4v19.6h-3.4V-1786.9z"/>
		<path class="st6" d="M1742.9-1783.8h-6.2v-3.2h15.9v3.2h-6.2v16.4h-3.5L1742.9-1783.8L1742.9-1783.8z"/>
		<path class="st6" d="M1753.4-1777.6h8.3v3.3h-8.3V-1777.6z"/>
		<path class="st6" d="M1765.6-1777.1L1765.6-1777.1c0-5.6,4.3-10.2,10.3-10.2s10.2,4.6,10.2,10.1v0.1c0,5.5-4.3,10.1-10.3,10.1
			S1765.6-1771.6,1765.6-1777.1z M1782.5-1777.1L1782.5-1777.1c0-3.9-2.8-7-6.7-7c-3.9,0-6.6,3.1-6.6,6.9v0.1c0,3.8,2.8,7,6.7,7
			C1779.8-1770.2,1782.5-1773.3,1782.5-1777.1z"/>
		<path class="st6" d="M1791-1786.9h8.7c2.5,0,4.4,0.7,5.7,2c1,1.1,1.6,2.5,1.6,4.2v0.1c0,3.2-1.9,5.2-4.7,5.9l5.3,7.4h-4.1
			l-4.8-6.8h-4.3v6.8h-3.4L1791-1786.9L1791-1786.9z M1799.5-1777.2c2.5,0,4-1.3,4-3.3v-0.1c0-2.1-1.5-3.2-4.1-3.2h-5v6.6H1799.5z"
			/>
		<path class="st6" d="M1812.1-1786.9h3.4v19.6h-3.4V-1786.9z"/>
		<path class="st6" d="M1821.5-1786.9h14.5v3.1h-11v5.1h9.8v3.1h-9.8v5.3h11.2v3.1h-14.7V-1786.9z"/>
		<path class="st6" d="M1841-1786.9h3.2l10.5,13.6v-13.6h3.4v19.6h-2.9l-10.8-13.9v13.9h-3.4L1841-1786.9L1841-1786.9z"/>
		<path class="st6" d="M1868.6-1783.8h-6.2v-3.2h15.9v3.2h-6.2v16.4h-3.5L1868.6-1783.8L1868.6-1783.8z"/>
		<path class="st6" d="M1882.7-1786.9h14.5v3.1h-11.1v5.1h9.8v3.1h-9.8v5.3h11.2v3.1h-14.7L1882.7-1786.9L1882.7-1786.9z"/>
		<path class="st6" d="M1902.1-1786.9h7.3c6.2,0,10.4,4.2,10.4,9.7v0.1c0,5.5-4.3,9.8-10.4,9.8h-7.3V-1786.9z M1909.4-1770.5
			c4.1,0,6.8-2.8,6.8-6.6v-0.1c0-3.8-2.7-6.7-6.8-6.7h-3.9v13.3L1909.4-1770.5L1909.4-1770.5z"/>
		<path class="st6" d="M1723.4-1732.1L1723.4-1732.1c0-5.6,4.3-10.2,10.3-10.2s10.2,4.6,10.2,10.1v0.1c0,5.5-4.3,10.1-10.3,10.1
			S1723.4-1726.6,1723.4-1732.1z M1740.2-1732.1L1740.2-1732.1c0-3.9-2.8-7-6.7-7s-6.6,3.1-6.6,6.9v0.1c0,3.8,2.8,7,6.7,7
			C1737.5-1725.2,1740.2-1728.3,1740.2-1732.1z"/>
		<path class="st6" d="M1748.7-1741.9h14.6v3.1h-11.1v5.3h9.9v3.1h-9.9v8h-3.4L1748.7-1741.9L1748.7-1741.9L1748.7-1741.9z"/>
		<path class="st6" d="M1767.8-1741.9h14.6v3.1h-11.1v5.3h9.9v3.1h-9.9v8h-3.4L1767.8-1741.9L1767.8-1741.9z"/>
		<path class="st6" d="M1786.9-1741.9h14.5v3.1h-11.1v5.1h9.8v3.1h-9.8v5.3h11.2v3.1h-14.7L1786.9-1741.9L1786.9-1741.9
			L1786.9-1741.9z"/>
		<path class="st6" d="M1806.3-1741.9h8.7c2.5,0,4.4,0.7,5.7,2c1,1.1,1.6,2.5,1.6,4.2v0.1c0,3.2-1.9,5.2-4.7,5.9l5.3,7.4h-4.1
			l-4.8-6.8h-4.3v6.8h-3.4L1806.3-1741.9L1806.3-1741.9z M1814.8-1732.2c2.5,0,4-1.3,4-3.3v-0.1c0-2.1-1.5-3.2-4.1-3.2h-5v6.6
			H1814.8z"/>
	</g>
</g>
<g>
	<g>
		<g>
			<circle class="st7" cx="2066.7" cy="-207.7" r="9.7"/>
		</g>
		<g>
			<g>
				<rect x="1945.8" y="-209.7" class="st7" width="121.2" height="4"/>
			</g>
		</g>
	</g>
	<g>
		<path class="st7" d="M1955.5-135.6h-367.3c-3.5,0-6.4-2.8-6.4-6.4v-131.5c0-3.5,2.8-6.4,6.4-6.4h367.3c3.5,0,6.4,2.8,6.4,6.4V-142
			C1961.8-138.5,1959-135.6,1955.5-135.6z"/>
	</g>
	<g>
		<path class="st6" d="M1637.6-233.8h-6.2v-3.2h15.9v3.2h-6.2v16.4h-3.5L1637.6-233.8L1637.6-233.8z"/>
		<path class="st6" d="M1651.7-237h3.4v8.1h9.4v-8.1h3.4v19.6h-3.4v-8.3h-9.4v8.3h-3.4V-237z"/>
		<path class="st6" d="M1673.6-237h14.5v3.1H1677v5.1h9.8v3.1h-9.8v5.3h11.2v3.1h-14.7L1673.6-237L1673.6-237z"/>
		<path class="st6" d="M1702.2-237h3.4v16.5h10.3v3.1h-13.7L1702.2-237L1702.2-237z"/>
		<path class="st6" d="M1727.2-237.2h3.2l8.6,19.7h-3.6l-2-4.7h-9.3l-2,4.7h-3.5L1727.2-237.2z M1732.1-225.2l-3.4-7.8l-3.4,7.8
			H1732.1z"/>
		<path class="st6" d="M1741.4-220.3l2.1-2.5c1.9,1.6,3.8,2.5,6.2,2.5c2.1,0,3.5-1,3.5-2.5v-0.1c0-1.4-0.8-2.2-4.4-3
			c-4.2-1-6.5-2.2-6.5-5.9v-0.1c0-3.4,2.8-5.7,6.7-5.7c2.9,0,5.1,0.9,7.1,2.5l-1.8,2.6c-1.8-1.3-3.5-2-5.3-2c-2,0-3.2,1-3.2,2.3v0.1
			c0,1.5,0.9,2.2,4.6,3.1c4.1,1,6.3,2.5,6.3,5.7v0.1c0,3.7-2.9,5.9-7,5.9C1746.6-217.1,1743.7-218.2,1741.4-220.3z"/>
		<path class="st6" d="M1765.7-233.8h-6.2v-3.2h15.9v3.2h-6.2v16.4h-3.5L1765.7-233.8L1765.7-233.8z"/>
		<path class="st6" d="M1788-227.2L1788-227.2c0-5.6,4.2-10.2,10.1-10.2c3.6,0,5.8,1.3,7.7,3.1l-2.2,2.5c-1.6-1.5-3.2-2.4-5.5-2.4
			c-3.8,0-6.5,3.1-6.5,6.9v0.1c0,3.8,2.7,7,6.5,7c2.4,0,3.9-1,5.6-2.5l2.2,2.2c-2,2.1-4.3,3.5-8,3.5
			C1792.2-217.1,1788-221.5,1788-227.2z"/>
		<path class="st6" d="M1810.2-237h3.4v8.1h9.4v-8.1h3.4v19.6h-3.4v-8.3h-9.4v8.3h-3.4V-237L1810.2-237z"/>
		<path class="st6" d="M1839.1-237.2h3.2l8.6,19.7h-3.6l-2-4.7h-9.3l-2,4.7h-3.5L1839.1-237.2z M1844.1-225.2l-3.4-7.8l-3.4,7.8
			H1844.1z"/>
		<path class="st6" d="M1855-237h3.2l10.5,13.6V-237h3.4v19.6h-2.9l-10.8-13.9v13.9h-3.4L1855-237L1855-237z"/>
		<path class="st6" d="M1877-227.2L1877-227.2c0-5.6,4.2-10.2,10.1-10.2c3.6,0,5.8,1.3,7.7,3.1l-2.2,2.5c-1.6-1.5-3.2-2.4-5.5-2.4
			c-3.8,0-6.5,3.1-6.5,6.9v0.1c0,3.8,2.7,7,6.5,7c2.4,0,3.9-1,5.6-2.5l2.2,2.2c-2,2.1-4.3,3.5-8,3.5
			C1881.2-217.1,1877-221.5,1877-227.2z"/>
		<path class="st6" d="M1899.2-237h14.5v3.1h-11.1v5.1h9.8v3.1h-9.8v5.3h11.2v3.1h-14.7L1899.2-237L1899.2-237z"/>
		<path class="st6" d="M1744.6-182.2L1744.6-182.2c0-5.6,4.2-10.2,10.1-10.2c3.6,0,5.8,1.3,7.7,3.1l-2.2,2.5
			c-1.6-1.5-3.2-2.4-5.5-2.4c-3.8,0-6.5,3.1-6.5,6.9v0.1c0,3.8,2.7,7,6.5,7c2.4,0,3.9-1,5.6-2.5l2.2,2.2c-2,2.1-4.3,3.5-8,3.5
			C1748.9-172.1,1744.6-176.5,1744.6-182.2z"/>
		<path class="st6" d="M1771.7-188.8h-6.2v-3.2h15.9v3.2h-6.2v16.4h-3.5L1771.7-188.8L1771.7-188.8z"/>
		<path class="st6" d="M1790.1-192.2h3.2l8.6,19.7h-3.6l-2-4.7h-9.3l-2,4.7h-3.5L1790.1-192.2z M1795-180.2l-3.4-7.8l-3.4,7.8H1795z
			"/>
	</g>
</g>
<g>
	<g>
		<g>
			<circle class="st7" cx="2066.7" cy="-1156.1" r="9.7"/>
		</g>
		<g>
			<g>
				<rect x="1935.8" y="-1158.1" class="st7" width="128.4" height="4"/>
			</g>
		</g>
	</g>
	<g>
		<path class="st7" d="M1955.5-1104h-367.3c-3.5,0-6.4-2.8-6.4-6.4v-91.5c0-3.5,2.8-6.4,6.4-6.4h367.3c3.5,0,6.4,2.8,6.4,6.4v91.5
			C1961.8-1106.9,1959-1104,1955.5-1104z"/>
	</g>
	<g>
		<path class="st6" d="M1724-1155.6L1724-1155.6c0-5.6,4.2-10.2,10.1-10.2c3.6,0,5.8,1.3,7.7,3.1l-2.2,2.5c-1.6-1.5-3.2-2.4-5.5-2.4
			c-3.8,0-6.5,3.1-6.5,6.9v0.1c0,3.8,2.7,7,6.5,7c2.4,0,3.9-1,5.6-2.5l2.2,2.2c-2,2.1-4.3,3.5-8,3.5
			C1728.3-1145.5,1724-1149.9,1724-1155.6z"/>
		<path class="st6" d="M1751.1-1162.2h-6.2v-3.2h15.9v3.2h-6.2v16.4h-3.5L1751.1-1162.2L1751.1-1162.2z"/>
		<path class="st6" d="M1769.5-1165.6h3.2l8.6,19.7h-3.6l-2-4.7h-9.3l-2,4.7h-3.5L1769.5-1165.6z M1774.5-1153.6l-3.4-7.8l-3.4,7.8
			H1774.5z"/>
		<path class="st6" d="M1795.6-1150.3h-2.5v-2.9h3l0.8-4.9h-2.8v-2.9h3.3l0.8-4.4h3l-0.8,4.4h4.6l0.7-4.4h3l-0.8,4.4h2.5v2.9h-3
			l-0.8,4.9h2.8v2.9h-3.3l-0.8,4.5h-3l0.8-4.5h-4.6l-0.8,4.5h-3L1795.6-1150.3z M1803.7-1153.2l0.8-4.9h-4.6l-0.8,4.9H1803.7z"/>
		<path class="st6" d="M1817.3-1162.1l-3.5,1l-0.7-2.8l5.3-1.7h2.4v19.7h-3.4L1817.3-1162.1L1817.3-1162.1z"/>
	</g>
</g>
<g>
	<g>
		<g>
			<circle class="st8" cx="2066.7" cy="-486.6" r="9.7"/>
		</g>
		<g>
			<g>
				<rect x="1945.8" y="-488.6" class="st8" width="121.2" height="4"/>
			</g>
		</g>
	</g>
	<g>
		<path class="st8" d="M1955.5-434.5h-367.3c-3.5,0-6.4-2.8-6.4-6.4v-91.5c0-3.5,2.8-6.4,6.4-6.4h367.3c3.5,0,6.4,2.8,6.4,6.4v91.5
			C1961.8-437.3,1959-434.5,1955.5-434.5z"/>
	</g>
	<g>
		<path class="st6" d="M1660.1-492.7h-6.2v-3.2h15.9v3.2h-6.2v16.4h-3.5L1660.1-492.7L1660.1-492.7z"/>
		<path class="st6" d="M1674.1-495.9h3.4v8.1h9.4v-8.1h3.4v19.6h-3.4v-8.3h-9.4v8.3h-3.4V-495.9z"/>
		<path class="st6" d="M1696.1-495.9h14.5v3.1h-11.1v5.1h9.8v3.1h-9.8v5.3h11.2v3.1H1696L1696.1-495.9L1696.1-495.9z"/>
		<path class="st6" d="M1724.6-495.9h14.6v3.1h-11.1v5.3h9.9v3.1h-9.9v8h-3.4L1724.6-495.9L1724.6-495.9L1724.6-495.9z"/>
		<path class="st6" d="M1743.9-495.9h3.4v19.6h-3.4V-495.9z"/>
		<path class="st6" d="M1753.3-495.9h3.2l10.5,13.6v-13.6h3.4v19.6h-2.9l-10.8-13.9v13.9h-3.4L1753.3-495.9L1753.3-495.9z"/>
		<path class="st6" d="M1776.1-495.9h14.5v3.1h-11.1v5.1h9.8v3.1h-9.8v5.3h11.2v3.1H1776L1776.1-495.9L1776.1-495.9z"/>
		<path class="st6" d="M1804.6-495.9h7.7c4.6,0,7.4,2.6,7.4,6.6v0.1c0,4.4-3.5,6.7-7.8,6.7h-3.9v6.3h-3.4L1804.6-495.9L1804.6-495.9
			z M1812.1-485.7c2.6,0,4.2-1.5,4.2-3.5v-0.1c0-2.3-1.7-3.5-4.2-3.5h-4v7.1H1812.1z"/>
		<path class="st6" d="M1824.1-495.9h8.7c2.5,0,4.4,0.7,5.7,2c1,1.1,1.6,2.5,1.6,4.2v0.1c0,3.2-1.9,5.2-4.7,5.9l5.3,7.4h-4.1
			l-4.8-6.8h-4.3v6.8h-3.4L1824.1-495.9L1824.1-495.9z M1832.5-486.2c2.5,0,4-1.3,4-3.3v-0.1c0-2.1-1.5-3.2-4.1-3.2h-5v6.6H1832.5z"
			/>
		<path class="st6" d="M1845.2-495.9h3.4v19.6h-3.4V-495.9z"/>
		<path class="st6" d="M1854.6-495.9h3.2l10.5,13.6v-13.6h3.4v19.6h-2.9l-10.8-13.9v13.9h-3.4L1854.6-495.9L1854.6-495.9z"/>
		<path class="st6" d="M1882.2-492.7h-6.2v-3.2h15.9v3.2h-6.2v16.4h-3.5L1882.2-492.7L1882.2-492.7z"/>
	</g>
</g>
<g>
	<g>
		<g>
			<circle class="st9" cx="2066.7" cy="-1508.2" r="9.7"/>
		</g>
		<g>
			<g>
				<rect x="1935.8" y="-1510.2" class="st9" width="131.2" height="4"/>
			</g>
		</g>
	</g>
	<g>
		<path class="st9" d="M1955.5-1456.1h-367.3c-3.5,0-6.4-2.8-6.4-6.4v-91.5c0-3.5,2.8-6.4,6.4-6.4h367.3c3.5,0,6.4,2.8,6.4,6.4v91.5
			C1961.8-1459,1959-1456.1,1955.5-1456.1z"/>
	</g>
	<g>
		<path class="st6" d="M1678.6-1517.5h3.4v8.1h9.4v-8.1h3.4v19.6h-3.4v-8.3h-9.4v8.3h-3.4V-1517.5z"/>
		<path class="st6" d="M1700.6-1517.5h14.5v3.1H1704v5.1h9.8v3.1h-9.8v5.3h11.2v3.1h-14.7L1700.6-1517.5L1700.6-1517.5z"/>
		<path class="st6" d="M1720-1517.5h8.7c2.5,0,4.4,0.7,5.7,2c1,1.1,1.6,2.5,1.6,4.2v0.1c0,3.2-1.9,5.2-4.7,5.9l5.3,7.4h-4.1
			l-4.8-6.8h-4.3v6.8h-3.4L1720-1517.5L1720-1517.5z M1728.5-1507.8c2.5,0,4-1.3,4-3.3v-0.1c0-2.1-1.5-3.2-4.1-3.2h-5v6.6H1728.5z"
			/>
		<path class="st6" d="M1740.1-1507.7L1740.1-1507.7c0-5.6,4.3-10.2,10.3-10.2s10.2,4.6,10.2,10.1v0.1c0,5.5-4.3,10.1-10.3,10.1
			S1740.1-1502.1,1740.1-1507.7z M1757-1507.7L1757-1507.7c0-3.9-2.8-7-6.7-7c-3.9,0-6.6,3.1-6.6,6.9v0.1c0,3.8,2.8,7,6.7,7
			S1757-1503.8,1757-1507.7z"/>
		<path class="st6" d="M1774.8-1517.5h3.4v19.6h-3.4V-1517.5z"/>
		<path class="st6" d="M1784.2-1517.5h3.7l6,9.3l6-9.3h3.7v19.6h-3.6v-14.1l-6.2,9.2h-0.1l-6.1-9.2v14h-3.4V-1517.5L1784.2-1517.5z"
			/>
		<path class="st6" d="M1816.1-1517.7h3.2l8.6,19.7h-3.6l-2-4.7h-9.3l-2,4.7h-3.5L1816.1-1517.7z M1821-1505.7l-3.4-7.8l-3.4,7.8
			H1821z"/>
		<path class="st6" d="M1829.9-1507.7L1829.9-1507.7c0-5.5,4.2-10.2,10.1-10.2c3.4,0,5.5,1,7.5,2.7l-2.2,2.6c-1.5-1.3-3-2.1-5.5-2.1
			c-3.6,0-6.4,3.2-6.4,6.9v0.1c0,4,2.7,7,6.7,7c1.8,0,3.5-0.6,4.7-1.5v-3.7h-5v-3h8.3v8.2c-1.9,1.7-4.7,3.1-8.2,3.1
			C1833.9-1497.6,1829.9-1501.9,1829.9-1507.7z"/>
		<path class="st6" d="M1853.4-1517.5h14.6v3.1h-11.1v5.1h9.8v3.1h-9.8v5.3h11.2v3.1h-14.7V-1517.5z"/>
	</g>
</g>
<g>
	<g>
		<g>
			<circle class="st10" cx="2066.7" cy="-836.7" r="9.7"/>
		</g>
		<g>
			<g>
				<rect x="1945.8" y="-838.7" class="st10" width="116.2" height="4"/>
			</g>
		</g>
	</g>
	<g>
		<path class="st10" d="M1955.5-784.6h-367.3c-3.5,0-6.4-2.8-6.4-6.4v-91.5c0-3.5,2.8-6.4,6.4-6.4h367.3c3.5,0,6.4,2.8,6.4,6.4v91.5
			C1961.8-787.4,1959-784.6,1955.5-784.6z"/>
	</g>
	<g>
		<path class="st6" d="M1647-842.8h-6.2v-3.2h15.9v3.2h-6.2v16.4h-3.5L1647-842.8L1647-842.8z"/>
		<path class="st6" d="M1661-846h3.4v8.1h9.4v-8.1h3.4v19.6h-3.4v-8.3h-9.4v8.3h-3.4V-846z"/>
		<path class="st6" d="M1683-846h14.5v3.1h-11.1v5.1h9.8v3.1h-9.8v5.3h11.2v3.1H1683V-846z"/>
		<path class="st6" d="M1711.6-846h3.4v9.9l9.3-9.9h4.2l-8.1,8.4l8.5,11.2h-4.2l-6.7-8.8l-3.1,3.1v5.7h-3.4L1711.6-846L1711.6-846z"
			/>
		<path class="st6" d="M1732.6-846h14.5v3.1H1736v5.1h9.8v3.1h-9.8v5.3h11.2v3.1h-14.7L1732.6-846L1732.6-846z"/>
		<path class="st6" d="M1757.8-834.1L1750-846h4.1l5.5,8.7l5.5-8.7h3.9l-7.8,11.8v7.8h-3.5L1757.8-834.1L1757.8-834.1z"/>
		<path class="st6" d="M1781.9-846h7.3c6.2,0,10.4,4.2,10.4,9.7v0.1c0,5.5-4.3,9.8-10.4,9.8h-7.3V-846z M1789.2-829.5
			c4.1,0,6.8-2.8,6.8-6.6v-0.1c0-3.8-2.7-6.7-6.8-6.7h-3.9v13.3L1789.2-829.5L1789.2-829.5z"/>
		<path class="st6" d="M1804.5-846h14.5v3.1h-11.1v5.1h9.8v3.1h-9.8v5.3h11.2v3.1h-14.7L1804.5-846L1804.5-846z"/>
		<path class="st6" d="M1828.7-842.8h-6.2v-3.2h15.9v3.2h-6.2v16.4h-3.5L1828.7-842.8L1828.7-842.8z"/>
		<path class="st6" d="M1847.2-846.1h3.2l8.6,19.7h-3.6l-2-4.7h-9.3l-2,4.7h-3.5L1847.2-846.1z M1852.1-834.2l-3.4-7.8l-3.4,7.8
			H1852.1z"/>
		<path class="st6" d="M1863.3-846h3.4v19.6h-3.4V-846z"/>
		<path class="st6" d="M1872.6-846h3.4v16.5h10.3v3.1h-13.7L1872.6-846L1872.6-846z"/>
		<path class="st6" d="M1889.4-829.2l2.1-2.5c1.9,1.6,3.8,2.5,6.2,2.5c2.1,0,3.5-1,3.5-2.5v-0.1c0-1.4-0.8-2.2-4.4-3
			c-4.2-1-6.5-2.2-6.5-5.9v-0.1c0-3.4,2.8-5.7,6.7-5.7c2.9,0,5.1,0.9,7.1,2.5l-1.8,2.6c-1.8-1.3-3.5-2-5.3-2c-2,0-3.2,1-3.2,2.3v0.1
			c0,1.5,0.9,2.2,4.6,3.1c4.1,1,6.3,2.5,6.3,5.7v0.1c0,3.7-2.9,5.9-7,5.9C1894.5-826.1,1891.7-827.1,1889.4-829.2z"/>
	</g>
</g>
<line class="st11" x1="2018.7" y1="-1017.1" x2="3082" y2="-1017.1"/>
<line class="st11" x1="2018.7" y1="-656.3" x2="3082" y2="-656.3"/>
<g>
	<path d="M2005.3-2103.1h6.8v24.6h15.4v6.2h-22.1L2005.3-2103.1L2005.3-2103.1z"/>
	<path d="M2030.5-2084L2030.5-2084c0-6.8,4.8-12.4,11.7-12.4c7.9,0,11.5,6.1,11.5,12.8c0,0.5,0,1.1-0.1,1.8h-16.4
		c0.7,3,2.8,4.6,5.8,4.6c2.2,0,3.9-0.7,5.7-2.4l3.8,3.4c-2.2,2.7-5.4,4.4-9.6,4.4C2035.7-2071.8,2030.5-2076.8,2030.5-2084z
		 M2047.1-2086c-0.4-3-2.2-5-5-5s-4.6,2-5.1,5H2047.1z"/>
	<path d="M2057.4-2079.1L2057.4-2079.1c0-5.2,3.9-7.6,9.5-7.6c2.4,0,4.1,0.4,5.8,1v-0.5c0-2.8-1.7-4.3-5.1-4.3
		c-2.6,0-4.4,0.5-6.5,1.3l-1.7-5.1c2.6-1.1,5.1-1.9,9.2-1.9c3.7,0,6.3,1,8,2.6c1.8,1.8,2.6,4.4,2.6,7.5v13.7h-6.5v-2.6
		c-1.6,1.8-3.9,3-7.1,3C2061-2072,2057.4-2074.5,2057.4-2079.1z M2072.8-2080.7v-1.2c-1.1-0.5-2.6-0.9-4.3-0.9
		c-2.9,0-4.6,1.1-4.6,3.3v0.1c0,1.8,1.5,2.9,3.7,2.9C2070.6-2076.5,2072.8-2078.2,2072.8-2080.7z"/>
	<path d="M2084-2084.1L2084-2084.1c0-8,5.1-12.3,10.7-12.3c3.6,0,5.8,1.6,7.3,3.5v-11.6h6.7v32.1h-6.7v-3.4
		c-1.6,2.2-3.9,3.8-7.3,3.8C2089.3-2072,2084-2076.2,2084-2084.1z M2102.2-2084.1L2102.2-2084.1c0-4-2.6-6.6-5.7-6.6
		s-5.8,2.6-5.8,6.5v0.1c0,3.9,2.6,6.5,5.8,6.5C2099.6-2077.6,2102.2-2080.2,2102.2-2084.1z"/>
	<path d="M2127.8-2087.6L2127.8-2087.6c0-8.8,6.8-16,16.2-16c5.5,0,8.9,1.5,12.1,4.2l-4.3,5.1c-2.4-2-4.5-3.1-8.1-3.1
		c-4.9,0-8.8,4.4-8.8,9.6v0.1c0,5.6,3.9,9.8,9.3,9.8c2.5,0,4.7-0.6,6.4-1.8v-4.5h-6.8v-5.9h13.4v13.4c-3.2,2.7-7.5,4.9-13.2,4.9
		C2134.4-2071.8,2127.8-2078.5,2127.8-2087.6z"/>
	<path d="M2162-2084L2162-2084c0-6.8,4.8-12.4,11.7-12.4c7.9,0,11.5,6.1,11.5,12.8c0,0.5,0,1.1-0.1,1.8h-16.4c0.7,3,2.8,4.6,5.8,4.6
		c2.2,0,3.9-0.7,5.7-2.4l3.8,3.4c-2.2,2.7-5.4,4.4-9.6,4.4C2167.2-2071.8,2162-2076.8,2162-2084z M2178.6-2086c-0.4-3-2.2-5-5-5
		c-2.8,0-4.6,2-5.1,5H2178.6z"/>
	<path d="M2190.3-2096h6.7v3.3c1.5-2,3.5-3.8,6.9-3.8c5.1,0,8,3.3,8,8.8v15.3h-6.7v-13.2c0-3.2-1.5-4.8-4-4.8
		c-2.6,0-4.2,1.6-4.2,4.8v13.2h-6.7L2190.3-2096L2190.3-2096z"/>
	<path d="M2232.1-2103.1h12.6c7.3,0,11.8,4.4,11.8,10.6v0.1c0,7.1-5.5,10.8-12.5,10.8h-5.1v9.2h-6.8V-2103.1z M2244.2-2087.6
		c3.4,0,5.4-2,5.4-4.7v-0.1c0-3-2.1-4.7-5.5-4.7h-5.2v9.4L2244.2-2087.6L2244.2-2087.6z"/>
	<path d="M2259.1-2079.1L2259.1-2079.1c0-5.2,3.9-7.6,9.5-7.6c2.4,0,4.1,0.4,5.8,1v-0.5c0-2.8-1.7-4.3-5.1-4.3
		c-2.6,0-4.4,0.5-6.5,1.3l-1.7-5.1c2.6-1.1,5.1-1.9,9.2-1.9c3.7,0,6.3,1,8,2.6c1.8,1.8,2.6,4.4,2.6,7.5v13.7h-6.5v-2.6
		c-1.6,1.8-3.9,3-7.1,3C2262.8-2072,2259.1-2074.5,2259.1-2079.1z M2274.5-2080.7v-1.2c-1.1-0.5-2.6-0.9-4.3-0.9
		c-2.9,0-4.6,1.1-4.6,3.3v0.1c0,1.8,1.5,2.9,3.7,2.9C2272.4-2076.5,2274.5-2078.2,2274.5-2080.7z"/>
	<path d="M2286.9-2067.7l2.3-5c2.4,1.4,4.8,2.2,8,2.2c4.6,0,6.7-2.2,6.7-6.4v-1.1c-2,2.4-4.1,3.8-7.7,3.8c-5.5,0-10.5-4-10.5-11
		v-0.1c0-7,5.1-11,10.5-11c3.7,0,5.8,1.5,7.6,3.5v-3.1h6.7v18.3c0,4.2-1,7.3-3,9.3c-2.2,2.2-5.6,3.2-10.2,3.2
		C2293.5-2065.2,2289.9-2066.1,2286.9-2067.7z M2303.9-2085.3L2303.9-2085.3c0-3.3-2.5-5.5-5.8-5.5c-3.3,0-5.7,2.2-5.7,5.5v0.1
		c0,3.3,2.5,5.5,5.7,5.5C2301.4-2079.8,2303.9-2082.1,2303.9-2085.3z"/>
	<path d="M2315.6-2084L2315.6-2084c0-6.8,4.8-12.4,11.7-12.4c7.9,0,11.5,6.1,11.5,12.8c0,0.5,0,1.1-0.1,1.8h-16.4
		c0.7,3,2.8,4.6,5.8,4.6c2.2,0,3.9-0.7,5.7-2.4l3.8,3.4c-2.2,2.7-5.4,4.4-9.6,4.4C2320.8-2071.8,2315.6-2076.8,2315.6-2084z
		 M2332.2-2086c-0.4-3-2.2-5-5-5s-4.6,2-5.1,5H2332.2z"/>
	<path d="M2365.2-2097h-9.4v-6.2h25.5v6.2h-9.3v24.6h-6.8L2365.2-2097L2365.2-2097z"/>
	<path d="M2380.3-2084L2380.3-2084c0-6.8,4.8-12.4,11.7-12.4c7.9,0,11.5,6.1,11.5,12.8c0,0.5,0,1.1-0.1,1.8H2387
		c0.7,3,2.8,4.6,5.8,4.6c2.2,0,3.9-0.7,5.7-2.4l3.8,3.4c-2.2,2.7-5.4,4.4-9.6,4.4C2385.5-2071.8,2380.3-2076.8,2380.3-2084z
		 M2396.9-2086c-0.4-3-2.2-5-5-5c-2.8,0-4.6,2-5.1,5H2396.9z"/>
	<path d="M2408.6-2096h6.7v3.3c1.5-2,3.6-3.8,7-3.8c3.1,0,5.4,1.4,6.6,3.7c2.1-2.4,4.5-3.7,7.7-3.7c5,0,8,3,8,8.7v15.4h-6.6v-13.2
		c0-3.2-1.4-4.8-3.9-4.8s-4,1.6-4,4.8v13.2h-6.7v-13.2c0-3.2-1.4-4.8-3.9-4.8s-4,1.6-4,4.8v13.2h-6.7v-23.6H2408.6L2408.6-2096z"/>
	<path d="M2450.7-2096h6.7v3.4c1.6-2.2,3.9-3.8,7.3-3.8c5.5,0,10.7,4.3,10.7,12.2v0.1c0,7.9-5.1,12.2-10.7,12.2
		c-3.6,0-5.8-1.6-7.3-3.5v10.1h-6.7V-2096z M2468.8-2084.1L2468.8-2084.1c0-4-2.6-6.6-5.8-6.6c-3.1,0-5.7,2.6-5.7,6.5v0.1
		c0,3.9,2.6,6.5,5.7,6.5S2468.8-2080.1,2468.8-2084.1z"/>
	<path d="M2480.9-2104.5h6.7v32.1h-6.7V-2104.5z"/>
	<path d="M2492.7-2079.1L2492.7-2079.1c0-5.2,3.9-7.6,9.5-7.6c2.4,0,4.1,0.4,5.8,1v-0.5c0-2.8-1.7-4.3-5.1-4.3
		c-2.6,0-4.4,0.5-6.5,1.3l-1.7-5.1c2.6-1.1,5.1-1.9,9.2-1.9c3.7,0,6.3,1,8,2.6c1.8,1.8,2.6,4.4,2.6,7.5v13.7h-6.5v-2.6
		c-1.6,1.8-3.9,3-7.1,3C2496.3-2072,2492.7-2074.5,2492.7-2079.1z M2508-2080.7v-1.2c-1.1-0.5-2.6-0.9-4.3-0.9
		c-2.9,0-4.6,1.1-4.6,3.3v0.1c0,1.8,1.5,2.9,3.7,2.9C2505.9-2076.5,2508-2078.2,2508-2080.7z"/>
	<path d="M2521.2-2079v-11.2h-2.8v-5.7h2.8v-6h6.7v6h5.5v5.7h-5.5v10.1c0,1.5,0.7,2.3,2.2,2.3c1.2,0,2.3-0.3,3.3-0.8v5.4
		c-1.4,0.8-3,1.4-5.3,1.4C2524-2072,2521.2-2073.6,2521.2-2079z"/>
	<path d="M2536.8-2084L2536.8-2084c0-6.8,4.8-12.4,11.7-12.4c7.9,0,11.5,6.1,11.5,12.8c0,0.5,0,1.1-0.1,1.8h-16.4
		c0.7,3,2.8,4.6,5.8,4.6c2.2,0,3.9-0.7,5.7-2.4l3.8,3.4c-2.2,2.7-5.4,4.4-9.6,4.4C2542.1-2071.8,2536.8-2076.8,2536.8-2084z
		 M2553.4-2086c-0.4-3-2.2-5-5-5s-4.6,2-5.1,5H2553.4z"/>
</g>
<g>
	<g>
		<path class="st12" d="M3081-1484.4h-402.1c-4.7,0-8.5-3.8-8.5-8.5v-327.8c0-4.7,3.8-8.5,8.5-8.5H3081V-1484.4z"/>
	</g>
	<g>
		<g>
			<path class="st13" d="M3001.3-1564.3h-247.5v-185.3h247.5V-1564.3z M2755.7-1566.3h243.5v-181.3h-243.5V-1566.3z"/>
		</g>
		<g>
			<path class="st13" d="M3001.3-1564.3h-247.5v-185.3h247.5V-1564.3z M2755.7-1566.3h243.5v-181.3h-243.5V-1566.3z"/>
		</g>
		<g>
			<polygon class="st13" points="2826.8,-1564.6 2825.4,-1566.1 2962.2,-1702.9 3001,-1664.2 2999.6,-1662.8 2962.2,-1700.1 			"/>
		</g>
		<g>
			<polygon class="st13" points="2755.8,-1564.3 2754.4,-1565.7 2854.3,-1665.6 2890.3,-1629.6 2888.9,-1628.2 2854.3,-1662.8 			
				"/>
		</g>
		<g>
			<path class="st13" d="M2806.9-1676.7c-11.1,0-20.2-9.1-20.2-20.2c0-11.1,9.1-20.2,20.2-20.2c11.1,0,20.2,9.1,20.2,20.2
				C2827.1-1685.8,2818-1676.7,2806.9-1676.7z M2806.9-1715.1c-10,0-18.2,8.2-18.2,18.2s8.2,18.2,18.2,18.2s18.2-8.2,18.2-18.2
				C2825.1-1707,2816.9-1715.1,2806.9-1715.1z"/>
		</g>
	</g>
</g>
<g>
	<g>
		<rect x="2144.6" y="-1756.1" class="st12" width="400" height="29"/>
	</g>
	<g>
		<rect x="2144.6" y="-1829.2" class="st12" width="450" height="29"/>
	</g>
</g>
<g>
	<g>
		<g>
			<path class="st7" d="M2750-1117.2h-347.3c-3.5,0-6.4-2.8-6.4-6.4v-63.5c0-3.5,2.8-6.4,6.4-6.4H2750c3.5,0,6.4,2.8,6.4,6.4v63.5
				C2756.3-1120,2753.5-1117.2,2750-1117.2z"/>
		</g>
		<g>
			<path class="st6" d="M2474.6-1154.7L2474.6-1154.7c0-5.6,4.3-10.2,10.3-10.2c3.5,0,5.7,1,7.7,2.7l-2.7,3.3c-1.5-1.3-2.9-2-5.1-2
				c-3.1,0-5.6,2.8-5.6,6.1v0.1c0,3.6,2.5,6.2,5.9,6.2c1.6,0,3-0.4,4.1-1.2v-2.8h-4.3v-3.7h8.5v8.5c-2,1.7-4.8,3.1-8.4,3.1
				C2478.8-1144.6,2474.6-1148.9,2474.6-1154.7z"/>
			<path class="st6" d="M2498.1-1164.6h14.8v3.8h-10.5v4h9.2v3.8h-9.2v4.1h10.6v3.8h-14.9V-1164.6z"/>
			<path class="st6" d="M2522.1-1160.6h-6v-4h16.2v4h-6v15.6h-4.3v-15.6H2522.1z"/>
			<path class="st6" d="M2544.1-1147.8l2.5-3.1c1.8,1.5,3.6,2.4,5.9,2.4c1.8,0,2.8-0.7,2.8-1.8v-0.1c0-1.1-0.7-1.7-3.9-2.5
				c-3.9-1-6.5-2.1-6.5-6v-0.1c0-3.6,2.9-5.9,6.9-5.9c2.9,0,5.3,0.9,7.3,2.5l-2.2,3.2c-1.7-1.2-3.4-1.9-5.1-1.9
				c-1.7,0-2.5,0.8-2.5,1.7v0.1c0,1.3,0.8,1.7,4.2,2.6c4,1,6.2,2.5,6.2,5.9v0.1c0,3.9-3,6.1-7.2,6.1
				C2549.5-1144.7,2546.5-1145.7,2544.1-1147.8z"/>
			<path class="st6" d="M2568.2-1160.6h-6v-4h16.2v4h-6v15.6h-4.3v-15.6H2568.2z"/>
			<path class="st6" d="M2586.7-1164.7h4l8.4,19.7h-4.5l-1.8-4.4h-8.3l-1.8,4.4h-4.4L2586.7-1164.7z M2591.3-1153.2l-2.6-6.4
				l-2.6,6.4H2591.3z"/>
			<path class="st6" d="M2602.8-1164.6h9c2.5,0,4.4,0.7,5.7,2c1.1,1.1,1.7,2.6,1.7,4.5v0.1c0,3.2-1.7,5.2-4.2,6.1l4.8,7h-5l-4.2-6.3
				h-3.4v6.3h-4.3L2602.8-1164.6L2602.8-1164.6z M2611.5-1155c2.1,0,3.3-1.1,3.3-2.8v-0.1c0-1.8-1.3-2.8-3.4-2.8h-4.3v5.6
				L2611.5-1155L2611.5-1155z"/>
			<path class="st6" d="M2628.3-1160.6h-6v-4h16.2v4h-6v15.6h-4.3v-15.6H2628.3z"/>
			<path class="st6" d="M2642.6-1164.6h14.8v3.8h-10.5v4h9.2v3.8h-9.2v4.1h10.6v3.8h-14.9L2642.6-1164.6L2642.6-1164.6z"/>
			<path class="st6" d="M2662.1-1164.6h7.6c6.2,0,10.4,4.2,10.4,9.7v0.1c0,5.5-4.3,9.8-10.4,9.8h-7.6V-1164.6z M2669.7-1148.9
				c3.5,0,5.9-2.4,5.9-5.9v-0.1c0-3.5-2.4-5.9-5.9-5.9h-3.3v11.8L2669.7-1148.9L2669.7-1148.9z"/>
		</g>
	</g>
	<g>
		<g>
			<g>
				<path class="st7" d="M2559.2-1299.6c1.3,0,2.4,1.1,2.4,2.4v63.5c0,1.3-1.1,2.4-2.4,2.4h-408.3c-1.3,0-2.4-1.1-2.4-2.4v-63.5
					c0-1.3,1.1-2.4,2.4-2.4H2559.2 M2559.2-1303.6h-408.3c-3.5,0-6.4,2.8-6.4,6.4v63.5c0,3.5,2.8,6.4,6.4,6.4h408.3
					c3.5,0,6.4-2.8,6.4-6.4v-63.5C2565.5-1300.7,2562.7-1303.6,2559.2-1303.6L2559.2-1303.6z"/>
			</g>
		</g>
		<g>
			<path class="st14" d="M2177.4-1274.9h14.7v2.1h-12.4v6.9h11.1v2.1h-11.1v7.1h12.5v2.1h-14.8V-1274.9L2177.4-1274.9z"/>
			<path class="st14" d="M2196.6-1269.6h2.2v2.5c1-1.5,2.3-2.8,4.8-2.8c2.4,0,4,1.3,4.8,3c1.1-1.7,2.7-3,5.3-3c3.5,0,5.6,2.3,5.6,6
				v9.3h-2.2v-8.8c0-2.9-1.5-4.5-3.9-4.5c-2.3,0-4.1,1.7-4.1,4.6v8.6h-2.2v-8.8c0-2.8-1.5-4.5-3.9-4.5c-2.4,0-4.2,2-4.2,4.7v8.6
				h-2.2V-1269.6L2196.6-1269.6z"/>
			<path class="st14" d="M2223.2-1259L2223.2-1259c0-3.3,2.6-5,6.4-5c1.9,0,3.2,0.3,4.6,0.6v-0.5c0-2.7-1.6-4.1-4.4-4.1
				c-1.8,0-3.2,0.4-4.6,1.1l-0.7-1.8c1.7-0.8,3.2-1.3,5.5-1.3c2.1,0,3.8,0.6,4.8,1.7c1,1,1.6,2.5,1.6,4.4v9.2h-2.2v-2.2
				c-1,1.3-2.8,2.6-5.4,2.6C2226-1254.3,2223.2-1255.9,2223.2-1259z M2234.2-1260.1v-1.4c-1.1-0.3-2.6-0.6-4.4-0.6
				c-2.8,0-4.4,1.2-4.4,3v0.1c0,1.9,1.7,3,3.8,3C2232-1256.1,2234.2-1257.7,2234.2-1260.1z"/>
			<path class="st14" d="M2241.3-1275.4h2.6v2.5h-2.6V-1275.4z M2241.5-1269.6h2.2v15h-2.2V-1269.6z"/>
			<path class="st14" d="M2249.3-1275.8h2.2v21.2h-2.2V-1275.8z"/>
			<path class="st14" d="M2273.6-1275.1h2.1l9.3,20.5h-2.5l-2.4-5.4H2269l-2.4,5.4h-2.3L2273.6-1275.1z M2279.2-1262l-4.6-10.4
				l-4.6,10.4H2279.2z"/>
			<path class="st14" d="M2287.1-1262.1L2287.1-1262.1c0-5,3.6-7.9,7.2-7.9c2.8,0,4.6,1.5,5.7,3.2v-9h2.2v21.2h-2.2v-3
				c-1.2,1.8-3,3.3-5.7,3.3C2290.7-1254.3,2287.1-1257.1,2287.1-1262.1z M2300.1-1262.1L2300.1-1262.1c0-3.5-2.6-5.8-5.4-5.8
				c-2.9,0-5.3,2.1-5.3,5.8v0.1c0,3.5,2.4,5.8,5.3,5.8C2297.5-1256.3,2300.1-1258.6,2300.1-1262.1z"/>
			<path class="st14" d="M2306.5-1262.1L2306.5-1262.1c0-5,3.6-7.9,7.2-7.9c2.8,0,4.6,1.5,5.7,3.2v-9h2.2v21.2h-2.2v-3
				c-1.2,1.8-3,3.3-5.7,3.3C2310.1-1254.3,2306.5-1257.1,2306.5-1262.1z M2319.5-1262.1L2319.5-1262.1c0-3.5-2.6-5.8-5.4-5.8
				c-2.9,0-5.3,2.1-5.3,5.8v0.1c0,3.5,2.4,5.8,5.3,5.8C2316.9-1256.3,2319.5-1258.6,2319.5-1262.1z"/>
			<path class="st14" d="M2326.8-1269.6h2.2v3.9c1.1-2.5,3.3-4.3,6.1-4.2v2.4h-0.1c-3.3,0-5.9,2.3-5.9,6.9v6h-2.2L2326.8-1269.6
				L2326.8-1269.6z"/>
			<path class="st14" d="M2344.7-1256.2c2.1,0,3.5-0.8,4.7-2.1l1.4,1.2c-1.5,1.7-3.3,2.8-6.2,2.8c-4.1,0-7.5-3.2-7.5-7.8
				c0-4.4,3-7.8,7.2-7.8c4.4,0,7,3.5,7,7.9c0,0.2,0,0.4,0,0.8h-11.9C2339.7-1258,2342-1256.2,2344.7-1256.2z M2349-1263
				c-0.3-2.7-1.8-5-4.8-5c-2.6,0-4.6,2.1-4.9,5H2349z"/>
			<path class="st14" d="M2354.1-1256.5l1.1-1.6c1.6,1.2,3.4,1.9,5.2,1.9c1.8,0,3.1-0.9,3.1-2.4v-0.1c0-1.5-1.8-2.1-3.7-2.6
				c-2.3-0.7-5-1.5-5-4.2v-0.1c0-2.6,2.1-4.3,5.1-4.3c1.8,0,3.9,0.6,5.4,1.7l-1,1.7c-1.4-0.9-3-1.5-4.4-1.5c-1.8,0-2.9,0.9-2.9,2.2
				v0.1c0,1.4,1.9,2,3.9,2.6c2.3,0.7,4.8,1.6,4.8,4.3v0.1c0,2.8-2.3,4.5-5.3,4.5C2358.2-1254.3,2355.8-1255.2,2354.1-1256.5z"/>
			<path class="st14" d="M2368.4-1256.5l1.1-1.6c1.6,1.2,3.4,1.9,5.2,1.9s3.1-0.9,3.1-2.4v-0.1c0-1.5-1.8-2.1-3.7-2.6
				c-2.3-0.7-5-1.5-5-4.2v-0.1c0-2.6,2.1-4.3,5.1-4.3c1.8,0,3.9,0.6,5.4,1.7l-1,1.7c-1.4-0.9-3-1.5-4.4-1.5c-1.8,0-2.9,0.9-2.9,2.2
				v0.1c0,1.4,1.9,2,3.9,2.6c2.3,0.7,4.8,1.6,4.8,4.3v0.1c0,2.8-2.3,4.5-5.3,4.5C2372.5-1254.3,2370.1-1255.2,2368.4-1256.5z"/>
		</g>
	</g>
	<g>
		<g>
			<g>
				<path class="st7" d="M2994.6-1299.6c1.3,0,2.4,1.1,2.4,2.4v63.5c0,1.3-1.1,2.4-2.4,2.4h-408.3c-1.3,0-2.4-1.1-2.4-2.4v-63.5
					c0-1.3,1.1-2.4,2.4-2.4H2994.6 M2994.6-1303.6h-408.3c-3.5,0-6.4,2.8-6.4,6.4v63.5c0,3.5,2.8,6.4,6.4,6.4h408.3
					c3.5,0,6.4-2.8,6.4-6.4v-63.5C3000.9-1300.7,2998.1-1303.6,2994.6-1303.6L2994.6-1303.6z"/>
			</g>
		</g>
		<g>
			<path class="st14" d="M2612.8-1274.9h7.6c4.6,0,7.6,2.4,7.6,6.4v0.1c0,4.4-3.7,6.6-8,6.6h-4.9v7.2h-2.3L2612.8-1274.9
				L2612.8-1274.9z M2620.1-1263.9c3.4,0,5.6-1.8,5.6-4.5v-0.1c0-2.9-2.2-4.4-5.5-4.4h-5.1v8.9L2620.1-1263.9L2620.1-1263.9z"/>
			<path class="st14" d="M2632-1275.8h2.2v8.8c1-1.6,2.6-2.9,5.1-2.9c3.6,0,5.7,2.4,5.7,6v9.3h-2.2v-8.8c0-2.8-1.5-4.5-4.1-4.5
				s-4.5,1.9-4.5,4.7v8.6h-2.2V-1275.8z"/>
			<path class="st14" d="M2649-1262L2649-1262c0-4.3,3.3-7.9,7.8-7.9s7.8,3.5,7.8,7.8v0.1c0,4.2-3.3,7.8-7.9,7.8
				C2652.3-1254.3,2649-1257.8,2649-1262z M2662.4-1262L2662.4-1262c0-3.3-2.4-5.9-5.6-5.9s-5.5,2.6-5.5,5.8v0.1
				c0,3.2,2.4,5.8,5.5,5.8C2660.1-1256.3,2662.4-1258.9,2662.4-1262z"/>
			<path class="st14" d="M2668.8-1269.6h2.2v2.6c1-1.6,2.6-2.9,5.1-2.9c3.6,0,5.7,2.4,5.7,6v9.3h-2.2v-8.8c0-2.8-1.5-4.5-4.1-4.5
				s-4.5,1.9-4.5,4.7v8.6h-2.2V-1269.6z"/>
			<path class="st14" d="M2693.5-1256.2c2.1,0,3.5-0.8,4.7-2.1l1.4,1.2c-1.5,1.7-3.3,2.8-6.2,2.8c-4.1,0-7.5-3.2-7.5-7.8
				c0-4.4,3-7.8,7.2-7.8c4.4,0,7,3.5,7,7.9c0,0.2,0,0.4,0,0.8h-11.9C2688.5-1258,2690.8-1256.2,2693.5-1256.2z M2697.8-1263
				c-0.3-2.7-1.8-5-4.8-5c-2.6,0-4.6,2.1-4.9,5H2697.8z"/>
			<path class="st14" d="M2713.4-1274.9h2.1l12.8,16.3v-16.3h2.2v20.3h-1.8l-13.1-16.7v16.7h-2.2V-1274.9z"/>
			<path class="st14" d="M2735.8-1260.3v-9.3h2.2v8.8c0,2.8,1.5,4.5,4.1,4.5s4.5-1.9,4.5-4.7v-8.6h2.2v15h-2.2v-2.6
				c-1,1.6-2.6,2.9-5.1,2.9C2737.9-1254.3,2735.8-1256.7,2735.8-1260.3z"/>
			<path class="st14" d="M2754.1-1269.6h2.2v2.5c1-1.5,2.3-2.8,4.8-2.8c2.4,0,4,1.3,4.8,3c1.1-1.7,2.7-3,5.3-3c3.5,0,5.6,2.3,5.6,6
				v9.3h-2.2v-8.8c0-2.9-1.5-4.5-3.9-4.5c-2.3,0-4.1,1.7-4.1,4.6v8.6h-2.2v-8.8c0-2.8-1.5-4.5-3.9-4.5s-4.2,2-4.2,4.7v8.6h-2.2
				L2754.1-1269.6L2754.1-1269.6z"/>
			<path class="st14" d="M2784-1257.5v2.9h-2.2v-21.2h2.2v9.2c1.2-1.8,3-3.3,5.7-3.3c3.6,0,7.2,2.8,7.2,7.8v0.1
				c0,4.9-3.5,7.8-7.2,7.8C2787-1254.3,2785.2-1255.8,2784-1257.5z M2794.6-1262.1L2794.6-1262.1c0-3.6-2.4-5.9-5.3-5.9
				c-2.8,0-5.4,2.3-5.4,5.8v0.1c0,3.5,2.6,5.8,5.4,5.8C2792.3-1256.3,2794.6-1258.4,2794.6-1262.1z"/>
			<path class="st14" d="M2807.8-1256.2c2.1,0,3.5-0.8,4.7-2.1l1.4,1.2c-1.5,1.7-3.3,2.8-6.2,2.8c-4.1,0-7.5-3.2-7.5-7.8
				c0-4.4,3-7.8,7.2-7.8c4.4,0,7,3.5,7,7.9c0,0.2,0,0.4,0,0.8h-11.9C2802.9-1258,2805.2-1256.2,2807.8-1256.2z M2812.2-1263
				c-0.3-2.7-1.8-5-4.8-5c-2.6,0-4.6,2.1-4.9,5H2812.2z"/>
			<path class="st14" d="M2818.5-1269.6h2.2v3.9c1.1-2.5,3.3-4.3,6.1-4.2v2.4h-0.2c-3.3,0-5.9,2.3-5.9,6.9v6h-2.2L2818.5-1269.6
				L2818.5-1269.6z"/>
		</g>
	</g>
	<g>
		<g>
			<g>
				<path class="st7" d="M2559.2-1411.1c1.3,0,2.4,1.1,2.4,2.4v63.5c0,1.3-1.1,2.4-2.4,2.4h-408.3c-1.3,0-2.4-1.1-2.4-2.4v-63.5
					c0-1.3,1.1-2.4,2.4-2.4H2559.2 M2559.2-1415.1h-408.3c-3.5,0-6.4,2.8-6.4,6.4v63.5c0,3.5,2.8,6.4,6.4,6.4h408.3
					c3.5,0,6.4-2.8,6.4-6.4v-63.5C2565.5-1412.2,2562.7-1415.1,2559.2-1415.1L2559.2-1415.1z"/>
			</g>
		</g>
		<g>
			<path class="st14" d="M2177.4-1386.4h14.6v2.1h-12.3v7.3h11v2.1h-11v8.8h-2.3V-1386.4L2177.4-1386.4z"/>
			<path class="st14" d="M2196.3-1386.8h2.6v2.5h-2.6V-1386.8z M2196.4-1381.1h2.2v15h-2.2V-1381.1z"/>
			<path class="st14" d="M2204-1381.1h2.2v3.9c1.1-2.5,3.3-4.3,6.1-4.2v2.4h-0.2c-3.3,0-5.9,2.3-5.9,6.9v6h-2.2V-1381.1z"/>
			<path class="st14" d="M2214.6-1368l1.1-1.6c1.6,1.2,3.4,1.9,5.2,1.9c1.8,0,3.1-0.9,3.1-2.4v-0.1c0-1.5-1.8-2.1-3.7-2.6
				c-2.3-0.7-5-1.5-5-4.2v-0.1c0-2.6,2.1-4.3,5.1-4.3c1.8,0,3.9,0.6,5.4,1.7l-1,1.7c-1.4-0.9-3-1.5-4.4-1.5c-1.8,0-2.9,0.9-2.9,2.2
				v0.1c0,1.4,1.9,2,3.9,2.6c2.3,0.7,4.8,1.6,4.8,4.3v0.1c0,2.8-2.3,4.5-5.3,4.5C2218.7-1365.8,2216.3-1366.7,2214.6-1368z"/>
			<path class="st14" d="M2231-1370.1v-9.1h-2.1v-2h2.1v-4.5h2.2v4.5h4.8v2h-4.8v8.8c0,1.8,1,2.5,2.5,2.5c0.8,0,1.4-0.1,2.2-0.5v1.9
				c-0.8,0.4-1.6,0.6-2.7,0.6C2232.8-1365.8,2231-1367,2231-1370.1z"/>
			<path class="st14" d="M2251.3-1386.4h2.1l12.8,16.3v-16.3h2.2v20.3h-1.8l-13.1-16.7v16.7h-2.2V-1386.4z"/>
			<path class="st14" d="M2272.8-1370.5L2272.8-1370.5c0-3.3,2.6-5,6.4-5c1.9,0,3.2,0.3,4.6,0.6v-0.3c0-2.7-1.6-4.1-4.4-4.1
				c-1.8,0-3.2,0.4-4.6,1.1l-0.7-1.8c1.7-0.8,3.2-1.3,5.5-1.3c2.1,0,3.8,0.6,4.8,1.7c1,1,1.6,2.5,1.6,4.4v9.2h-2.2v-2.2
				c-1,1.3-2.8,2.6-5.4,2.6C2275.6-1365.8,2272.8-1367.4,2272.8-1370.5z M2283.8-1371.6v-1.4c-1.1-0.3-2.6-0.6-4.4-0.6
				c-2.8,0-4.4,1.2-4.4,3v0.1c0,1.9,1.7,3,3.8,3C2281.6-1367.6,2283.8-1369.2,2283.8-1371.6z"/>
			<path class="st14" d="M2290.9-1381.1h2.2v2.5c1-1.5,2.3-2.8,4.8-2.8c2.4,0,4,1.3,4.8,3c1.1-1.7,2.7-3,5.3-3c3.5,0,5.6,2.3,5.6,6
				v9.3h-2.2v-8.8c0-2.9-1.5-4.5-3.9-4.5c-2.3,0-4.1,1.7-4.1,4.6v8.6h-2.2v-8.8c0-2.8-1.5-4.5-3.9-4.5c-2.4,0-4.2,2-4.2,4.7v8.6
				h-2.2L2290.9-1381.1L2290.9-1381.1z"/>
			<path class="st14" d="M2325.2-1367.7c2.1,0,3.5-0.8,4.7-2.1l1.4,1.2c-1.5,1.7-3.3,2.8-6.2,2.8c-4.1,0-7.5-3.2-7.5-7.8
				c0-4.4,3-7.8,7.2-7.8c4.4,0,7,3.5,7,7.9c0,0.2,0,0.4,0,0.8h-11.9C2320.2-1369.5,2322.6-1367.7,2325.2-1367.7z M2329.6-1374.5
				c-0.3-2.7-1.8-5-4.8-5c-2.6,0-4.6,2.1-4.9,5H2329.6z"/>
		</g>
	</g>
	<g>
		<g>
			<g>
				<path class="st7" d="M2994.6-1411.1c1.3,0,2.4,1.1,2.4,2.4v63.5c0,1.3-1.1,2.4-2.4,2.4h-408.3c-1.3,0-2.4-1.1-2.4-2.4v-63.5
					c0-1.3,1.1-2.4,2.4-2.4H2994.6 M2994.6-1415.1h-408.3c-3.5,0-6.4,2.8-6.4,6.4v63.5c0,3.5,2.8,6.4,6.4,6.4h408.3
					c3.5,0,6.4-2.8,6.4-6.4v-63.5C3000.9-1412.2,2998.1-1415.1,2994.6-1415.1L2994.6-1415.1z"/>
			</g>
		</g>
		<g>
			<path class="st14" d="M2612.8-1386.4h2.3v18.2h11.4v2.1h-13.7V-1386.4L2612.8-1386.4z"/>
			<path class="st14" d="M2629.4-1370.5L2629.4-1370.5c0-3.3,2.6-5,6.4-5c1.9,0,3.2,0.3,4.6,0.6v-0.3c0-2.7-1.6-4.1-4.4-4.1
				c-1.8,0-3.2,0.4-4.6,1.1l-0.7-1.8c1.7-0.8,3.2-1.3,5.5-1.3c2.1,0,3.8,0.6,4.8,1.7c1,1,1.6,2.5,1.6,4.4v9.2h-2.2v-2.2
				c-1,1.3-2.8,2.6-5.4,2.6C2632.2-1365.8,2629.4-1367.4,2629.4-1370.5z M2640.4-1371.6v-1.4c-1.1-0.3-2.6-0.6-4.4-0.6
				c-2.8,0-4.4,1.2-4.4,3v0.1c0,1.9,1.7,3,3.8,3C2638.2-1367.6,2640.4-1369.2,2640.4-1371.6z"/>
			<path class="st14" d="M2646.2-1368l1.1-1.6c1.6,1.2,3.4,1.9,5.2,1.9s3.1-0.9,3.1-2.4v-0.1c0-1.5-1.8-2.1-3.7-2.6
				c-2.3-0.7-5-1.5-5-4.2v-0.1c0-2.6,2.1-4.3,5.1-4.3c1.8,0,3.9,0.6,5.4,1.7l-1,1.7c-1.4-0.9-3-1.5-4.4-1.5c-1.8,0-2.9,0.9-2.9,2.2
				v0.1c0,1.4,1.9,2,3.9,2.6c2.3,0.7,4.8,1.6,4.8,4.3v0.1c0,2.8-2.3,4.5-5.3,4.5C2650.3-1365.8,2647.9-1366.7,2646.2-1368z"/>
			<path class="st14" d="M2662.5-1370.1v-9.1h-2.1v-2h2.1v-4.5h2.2v4.5h4.8v2h-4.8v8.8c0,1.8,1,2.5,2.5,2.5c0.8,0,1.4-0.1,2.2-0.5
				v1.9c-0.8,0.4-1.6,0.6-2.7,0.6C2664.4-1365.8,2662.5-1367,2662.5-1370.1z"/>
			<path class="st14" d="M2682.8-1386.4h2.1l12.8,16.3v-16.3h2.2v20.3h-1.8l-13.1-16.7v16.7h-2.2V-1386.4z"/>
			<path class="st14" d="M2704.4-1370.5L2704.4-1370.5c0-3.3,2.6-5,6.4-5c1.9,0,3.2,0.3,4.6,0.6v-0.3c0-2.7-1.6-4.1-4.4-4.1
				c-1.8,0-3.2,0.4-4.6,1.1l-0.7-1.8c1.7-0.8,3.2-1.3,5.5-1.3c2.1,0,3.8,0.6,4.8,1.7c1,1,1.6,2.5,1.6,4.4v9.2h-2.2v-2.2
				c-1,1.3-2.8,2.6-5.4,2.6C2707.2-1365.8,2704.4-1367.4,2704.4-1370.5z M2715.4-1371.6v-1.4c-1.1-0.3-2.6-0.6-4.4-0.6
				c-2.8,0-4.4,1.2-4.4,3v0.1c0,1.9,1.7,3,3.8,3C2713.2-1367.6,2715.4-1369.2,2715.4-1371.6z"/>
			<path class="st14" d="M2722.5-1381.1h2.2v2.5c1-1.5,2.3-2.8,4.8-2.8c2.4,0,4,1.3,4.8,3c1.1-1.7,2.7-3,5.3-3c3.5,0,5.6,2.3,5.6,6
				v9.3h-2.2v-8.8c0-2.9-1.5-4.5-3.9-4.5c-2.3,0-4.1,1.7-4.1,4.6v8.6h-2.2v-8.8c0-2.8-1.5-4.5-3.9-4.5s-4.2,2-4.2,4.7v8.6h-2.2
				L2722.5-1381.1L2722.5-1381.1z"/>
			<path class="st14" d="M2756.8-1367.7c2.1,0,3.5-0.8,4.7-2.1l1.4,1.2c-1.5,1.7-3.3,2.8-6.2,2.8c-4.1,0-7.5-3.2-7.5-7.8
				c0-4.4,3-7.8,7.2-7.8c4.4,0,7,3.5,7,7.9c0,0.2,0,0.4,0,0.8h-11.9C2751.8-1369.5,2754.2-1367.7,2756.8-1367.7z M2761.2-1374.5
				c-0.3-2.7-1.8-5-4.8-5c-2.6,0-4.6,2.1-4.9,5H2761.2z"/>
		</g>
	</g>
</g>
<g>
	<g>
		<rect x="2201.1" y="-770.5" class="st12" width="509.2" height="16.7"/>
	</g>
	<g>
		<rect x="2201.1" y="-843" class="st12" width="700" height="16.7"/>
	</g>
	<g>
		<circle class="st10" cx="2152.9" cy="-834.7" r="8.3"/>
	</g>
	<g>
		<circle class="st10" cx="2152.9" cy="-762.2" r="8.3"/>
	</g>
	<g>
		<rect x="2201.1" y="-915.5" class="st12" width="621" height="16.7"/>
	</g>
	<g>
		<circle class="st10" cx="2152.9" cy="-907.2" r="8.3"/>
	</g>
</g>
<g>
	<g>
		<rect x="2144.5" y="-431.2" class="st12" width="681.5" height="16.7"/>
	</g>
	<g>
		<rect x="2144.5" y="-473.9" class="st12" width="855.6" height="16.7"/>
	</g>
	<g>
		<rect x="2144.5" y="-516.6" class="st12" width="855.6" height="16.7"/>
	</g>
	<g>
		<rect x="2144.5" y="-558.7" class="st12" width="855.6" height="16.7"/>
	</g>
</g>
<g>
	<g>
		<g>
			<path class="st7" d="M2994.6-169.6h-317.3c-3.5,0-6.4-2.8-6.4-6.4v-63.5c0-3.5,2.8-6.4,6.4-6.4h317.3c3.5,0,6.4,2.8,6.4,6.4v63.5
				C3000.9-172.5,2998.1-169.6,2994.6-169.6z"/>
		</g>
		<g>
			<path class="st6" d="M2734.2-207.2L2734.2-207.2c0-5.6,4.3-10.2,10.3-10.2c3.5,0,5.7,1,7.7,2.7l-2.7,3.3c-1.5-1.3-2.9-2-5.1-2
				c-3.1,0-5.6,2.8-5.6,6.1v0.1c0,3.6,2.5,6.2,5.9,6.2c1.6,0,3-0.4,4.1-1.2v-2.8h-4.3v-3.7h8.5v8.5c-2,1.7-4.8,3.1-8.4,3.1
				C2738.4-197.1,2734.2-201.4,2734.2-207.2z"/>
			<path class="st6" d="M2757.7-217h14.8v3.8H2762v4h9.2v3.8h-9.2v4.1h10.6v3.8h-14.9L2757.7-217L2757.7-217z"/>
			<path class="st6" d="M2781.7-213h-6v-4h16.2v4h-6v15.6h-4.3V-213H2781.7z"/>
			<path class="st6" d="M2803.7-200.3l2.5-3.1c1.8,1.5,3.6,2.4,5.9,2.4c1.8,0,2.8-0.7,2.8-1.8v-0.1c0-1.1-0.7-1.7-3.9-2.5
				c-3.9-1-6.5-2.1-6.5-6v-0.1c0-3.6,2.9-5.9,6.9-5.9c2.9,0,5.3,0.9,7.3,2.5l-2.2,3.2c-1.7-1.2-3.4-1.9-5.1-1.9s-2.5,0.8-2.5,1.7
				v0.1c0,1.3,0.8,1.7,4.2,2.6c4,1,6.2,2.5,6.2,5.9v0.1c0,3.9-3,6.1-7.2,6.1C2809.1-197.1,2806.1-198.2,2803.7-200.3z"/>
			<path class="st6" d="M2827.8-213h-6v-4h16.2v4h-6v15.6h-4.3V-213H2827.8z"/>
			<path class="st6" d="M2846.3-217.2h4l8.4,19.7h-4.5l-1.8-4.4h-8.3l-1.8,4.4h-4.4L2846.3-217.2z M2850.9-205.6l-2.6-6.4l-2.6,6.4
				H2850.9z"/>
			<path class="st6" d="M2862.4-217h9c2.5,0,4.4,0.7,5.7,2c1.1,1.1,1.7,2.6,1.7,4.5v0.1c0,3.2-1.7,5.2-4.2,6.1l4.8,7h-5l-4.2-6.3
				h-3.4v6.3h-4.3L2862.4-217L2862.4-217z M2871.1-207.5c2.1,0,3.3-1.1,3.3-2.8v-0.1c0-1.8-1.3-2.8-3.4-2.8h-4.3v5.6L2871.1-207.5
				L2871.1-207.5z"/>
			<path class="st6" d="M2887.9-213h-6v-4h16.2v4h-6v15.6h-4.3V-213H2887.9z"/>
			<path class="st6" d="M2902.2-217h14.8v3.8h-10.5v4h9.2v3.8h-9.2v4.1h10.6v3.8h-14.9L2902.2-217L2902.2-217z"/>
			<path class="st6" d="M2921.7-217h7.6c6.2,0,10.4,4.2,10.4,9.7v0.1c0,5.5-4.3,9.8-10.4,9.8h-7.6V-217z M2929.3-201.3
				c3.5,0,5.9-2.4,5.9-5.9v-0.1c0-3.5-2.4-5.9-5.9-5.9h-3.3v11.8L2929.3-201.3L2929.3-201.3z"/>
		</g>
	</g>
	<g>
		<rect x="2144.5" y="-186.3" class="st12" width="395.6" height="16.7"/>
	</g>
	<g>
		<rect x="2144.5" y="-245.8" class="st12" width="455.1" height="16.7"/>
	</g>
</g>
<g>
	<g>
		<rect x="2144.6" y="-1555.7" class="st12" width="390" height="16.7"/>
	</g>
	<g>
		<rect x="2144.6" y="-1598.4" class="st12" width="450" height="16.7"/>
	</g>
	<g>
		<rect x="2144.6" y="-1641.1" class="st12" width="450" height="16.7"/>
	</g>
</g>
</svg>
