<?xml version="1.0" encoding="utf-8"?>
<!-- Generator: Adobe Illustrator 19.1.0, SVG Export Plug-In . SVG Version: 6.00 Build 0)  -->
<svg version="1.1" id="Layer_1" xmlns="http://www.w3.org/2000/svg" xmlns:xlink="http://www.w3.org/1999/xlink" x="0px" y="0px"
	 viewBox="987.5 -269 1601 1061.7" style="enable-background:new 987.5 -269 1601 1061.7;" width="1600px" height="1061px" xml:space="preserve">
<style type="text/css">
	.st0{fill:#FFFFFF;stroke:#FFFFFF;stroke-miterlimit:10;}
	.st1{fill:#FF4759;}
	.st2{fill:#FFFFFF;}
	.st3{fill:#34BC79;}
	.st4{fill:#7B4EFF;}
	.st5{opacity:5.000000e-002;enable-background:new    ;}
	.st6{fill:#FFFFFF;stroke:#E8E8E8;stroke-miterlimit:10;}
	.st7{fill:#E2E2E2;stroke:#E2E2E2;stroke-miterlimit:10;}
	.st8{fill:#F6F6F6;}
	.st9{fill:#F2F2F2;}
	.st10{fill:none;stroke:#E8E8E8;stroke-miterlimit:10;}
	.st11{fill:#BCBCBC;}
</style>
<rect x="988" y="-268.5" class="st0" width="1600" height="1060.7"/>
<g>
	<g>
		<path class="st1" d="M1459.1-60.2h-364.2c-3.5,0-6.4-2.8-6.4-6.4v-91.5c0-3.5,2.8-6.4,6.4-6.4h364.3c3.5,0,6.4,2.8,6.4,6.4v91.5
			C1465.5-63.1,1462.7-60.2,1459.1-60.2z"/>
		<g>
			<g>
				<path class="st2" d="M1189.1-121.6h8.8c2.2,0,4,0.6,5.1,1.7c0.9,0.9,1.3,1.9,1.3,3.2v0.1c0,2.4-1.3,3.6-2.8,4.4
					c2.3,0.8,3.9,2.1,3.9,4.8v0.1c0,3.5-2.9,5.4-7.3,5.4h-9.1L1189.1-121.6L1189.1-121.6z M1197.2-113.4c2.2,0,3.7-0.9,3.7-2.7v-0.1
					c0-1.5-1.2-2.5-3.4-2.5h-5v5.2h4.7V-113.4z M1198.2-105.1c2.4,0,3.8-0.9,3.8-2.7v-0.1c0-1.7-1.3-2.6-4-2.6h-5.5v5.4H1198.2
					L1198.2-105.1z"/>
				<path class="st2" d="M1209.7-110.3v-11.3h3.4v11.1c0,3.6,1.9,5.6,5,5.6c3.1,0,4.9-1.8,4.9-5.5v-11.3h3.4v11.2
					c0,5.9-3.3,8.8-8.4,8.8C1213-101.7,1209.7-104.6,1209.7-110.3z"/>
				<path class="st2" d="M1230.6-104.9l2.1-2.5c1.9,1.6,3.8,2.5,6.2,2.5c2.1,0,3.5-1,3.5-2.5v-0.1c0-1.4-0.8-2.2-4.4-3
					c-4.2-1-6.5-2.2-6.5-5.9v-0.1c0-3.4,2.8-5.7,6.7-5.7c2.9,0,5.1,0.9,7.1,2.5l-1.8,2.6c-1.8-1.3-3.5-2-5.3-2c-2,0-3.2,1-3.2,2.3
					v0.1c0,1.5,0.9,2.2,4.6,3.1c4.1,1,6.3,2.5,6.3,5.7v0.1c0,3.7-2.9,5.9-7,5.9C1235.8-101.7,1233-102.8,1230.6-104.9z"/>
				<path class="st2" d="M1255.5-109.7l-7.8-11.9h4.1l5.5,8.7l5.5-8.7h3.9l-7.8,11.8v7.8h-3.5L1255.5-109.7L1255.5-109.7z"/>
				<path class="st2" d="M1279.6-121.6h3.7l6,9.3l6-9.3h3.7v19.6h-3.4v-14.1l-6.2,9.2h-0.1l-6.1-9.2v14h-3.4v-19.5H1279.6z"/>
				<path class="st2" d="M1303.7-111.8L1303.7-111.8c0-5.6,4.3-10.2,10.3-10.2s10.2,4.6,10.2,10.1v0.1c0,5.5-4.3,10.1-10.3,10.1
					S1303.7-106.2,1303.7-111.8z M1320.6-111.8L1320.6-111.8c0-3.9-2.8-7-6.7-7c-3.9,0-6.6,3.1-6.6,6.9v0.1c0,3.8,2.8,7,6.7,7
					S1320.6-108,1320.6-111.8z"/>
				<path class="st2" d="M1329.1-121.6h3.7l6,9.3l6-9.3h3.7v19.6h-3.4v-14.1l-6.2,9.2h-0.1l-6.1-9.2v14h-3.4v-19.5H1329.1z"/>
				<path class="st2" d="M1352.7-104.9l2.1-2.5c1.9,1.6,3.8,2.5,6.2,2.5c2.1,0,3.5-1,3.5-2.5v-0.1c0-1.4-0.8-2.2-4.4-3
					c-4.2-1-6.5-2.2-6.5-5.9v-0.1c0-3.4,2.8-5.7,6.7-5.7c2.9,0,5.1,0.9,7.1,2.5l-1.8,2.6c-1.8-1.3-3.5-2-5.3-2c-2,0-3.2,1-3.2,2.3
					v0.1c0,1.5,0.9,2.2,4.6,3.1c4.1,1,6.3,2.5,6.3,5.7v0.1c0,3.7-2.9,5.9-7,5.9C1357.9-101.7,1355.1-102.8,1352.7-104.9z"/>
			</g>
		</g>
	</g>
	<g>
		<path class="st3" d="M2481.1-60.2h-545.2c-3.5,0-6.4-2.8-6.4-6.4v-91.5c0-3.5,2.8-6.4,6.4-6.4h545.3c3.5,0,6.4,2.8,6.4,6.4v91.5
			C2487.5-63.1,2484.7-60.2,2481.1-60.2z"/>
		<g>
			<g>
				<path class="st2" d="M1986.7-121.6h3.4v19.6h-3.4V-121.6z"/>
				<path class="st2" d="M1994.4-121.6h3.8l5.9,15.1l5.9-15.1h3.7l-8.1,19.7h-3L1994.4-121.6z"/>
				<path class="st2" d="M2023-109.7l-7.8-11.9h4.1l5.5,8.7l5.5-8.7h3.9l-7.8,11.8v7.8h-3.5v-7.7H2023z"/>
				<path class="st2" d="M2047.1-121.6h3.4v16.5h10.3v3.1h-13.7L2047.1-121.6L2047.1-121.6z"/>
				<path class="st2" d="M2065.1-121.6h14.5v3.1h-11.1v5.1h9.8v3.1h-9.8v5.3h11.2v3.1H2065L2065.1-121.6L2065.1-121.6z"/>
				<path class="st2" d="M2091.5-121.8h3.2l8.6,19.7h-3.6l-2-4.7h-9.3l-2,4.7h-3.5L2091.5-121.8z M2096.4-109.8l-3.4-7.8l-3.4,7.8
					C2089.6-109.8,2096.4-109.8,2096.4-109.8z"/>
				<path class="st2" d="M2105.3-111.8L2105.3-111.8c0-5.5,4.2-10.2,10.1-10.2c3.4,0,5.5,1,7.5,2.7l-2.2,2.6c-1.5-1.3-3-2.1-5.5-2.1
					c-3.6,0-6.4,3.2-6.4,6.9v0.1c0,4,2.7,7,6.7,7c1.8,0,3.5-0.6,4.7-1.5v-3.7h-5v-3h8.3v8.2c-1.9,1.7-4.7,3.1-8.2,3.1
					C2109.4-101.7,2105.3-106,2105.3-111.8z"/>
				<path class="st2" d="M2128.5-110.3v-11.3h3.4v11.1c0,3.6,1.9,5.6,5,5.6c3.1,0,4.9-1.8,4.9-5.5v-11.3h3.4v11.2
					c0,5.9-3.3,8.8-8.4,8.8C2131.8-101.7,2128.5-104.6,2128.5-110.3z"/>
				<path class="st2" d="M2150.7-121.6h14.5v3.1h-11.1v5.1h9.8v3.1h-9.8v5.3h11.2v3.1h-14.7L2150.7-121.6L2150.7-121.6z"/>
				<path class="st2" d="M2178.4-111.8L2178.4-111.8c0-5.5,4.2-10.2,10.1-10.2c3.4,0,5.5,1,7.5,2.7l-2.2,2.6c-1.5-1.3-3-2.1-5.5-2.1
					c-3.6,0-6.4,3.2-6.4,6.9v0.1c0,4,2.7,7,6.7,7c1.8,0,3.5-0.6,4.7-1.5v-3.7h-5v-3h8.3v8.2c-1.9,1.7-4.7,3.1-8.2,3.1
					C2182.5-101.7,2178.4-106,2178.4-111.8z"/>
				<path class="st2" d="M2202-121.6h8.7c2.5,0,4.4,0.7,5.7,2c1,1.1,1.6,2.5,1.6,4.2v0.1c0,3.2-1.9,5.2-4.7,5.9l5.3,7.4h-4.1
					l-4.8-6.8h-4.3v6.8h-3.4V-121.6L2202-121.6z M2210.4-111.9c2.5,0,4-1.3,4-3.3v-0.1c0-2.1-1.5-3.2-4.1-3.2h-5v6.6H2210.4z"/>
				<path class="st2" d="M2229.8-121.8h3.2l8.6,19.7h-3.6l-2-4.7h-9.3l-2,4.7h-3.5L2229.8-121.8z M2234.8-109.8l-3.4-7.8l-3.4,7.8
					C2228-109.8,2234.8-109.8,2234.8-109.8z"/>
				<path class="st2" d="M2245.7-121.6h7.3c6.2,0,10.4,4.2,10.4,9.7v0.1c0,5.5-4.3,9.8-10.4,9.8h-7.3V-121.6z M2253-105.2
					c4.1,0,6.8-2.8,6.8-6.6v-0.1c0-3.8-2.7-6.7-6.8-6.7h-3.9v13.3h3.9V-105.2z"/>
				<path class="st2" d="M2276.1-104.9l2.1-2.5c1.9,1.6,3.8,2.5,6.2,2.5c2.1,0,3.5-1,3.5-2.5v-0.1c0-1.4-0.8-2.2-4.4-3
					c-4.2-1-6.5-2.2-6.5-5.9v-0.1c0-3.4,2.8-5.7,6.7-5.7c2.9,0,5.1,0.9,7.1,2.5l-1.8,2.6c-1.8-1.3-3.5-2-5.3-2c-2,0-3.2,1-3.2,2.3
					v0.1c0,1.5,0.9,2.2,4.6,3.1c4.1,1,6.3,2.5,6.3,5.7v0.1c0,3.7-2.9,5.9-7,5.9C2281.3-101.7,2278.4-102.8,2276.1-104.9z"/>
				<path class="st2" d="M2300.4-118.4h-6.2v-3.2h15.9v3.2h-6.2v16.4h-3.5L2300.4-118.4L2300.4-118.4z"/>
				<path class="st2" d="M2314.1-110.3v-11.3h3.4v11.1c0,3.6,1.9,5.6,5,5.6s4.9-1.8,4.9-5.5v-11.3h3.4v11.2c0,5.9-3.3,8.8-8.4,8.8
					C2317.4-101.7,2314.1-104.6,2314.1-110.3z"/>
				<path class="st2" d="M2336.4-121.6h7.3c6.2,0,10.4,4.2,10.4,9.7v0.1c0,5.5-4.3,9.8-10.4,9.8h-7.3V-121.6z M2343.7-105.2
					c4.1,0,6.8-2.8,6.8-6.6v-0.1c0-3.8-2.7-6.7-6.8-6.7h-3.9v13.3h3.9V-105.2z"/>
				<path class="st2" d="M2358.9-121.6h14.5v3.1h-11.1v5.1h9.8v3.1h-9.8v5.3h11.2v3.1h-14.7L2358.9-121.6L2358.9-121.6z"/>
				<path class="st2" d="M2378.4-121.6h3.2l10.5,13.6v-13.6h3.4v19.6h-2.9l-10.8-13.9v13.9h-3.4V-121.6L2378.4-121.6z"/>
				<path class="st2" d="M2406-118.4h-6.2v-3.2h15.9v3.2h-6.2v16.4h-3.5V-118.4L2406-118.4z"/>
				<path class="st2" d="M2418.3-104.9l2.1-2.5c1.9,1.6,3.8,2.5,6.2,2.5c2.1,0,3.5-1,3.5-2.5v-0.1c0-1.4-0.8-2.2-4.4-3
					c-4.2-1-6.5-2.2-6.5-5.9v-0.1c0-3.4,2.8-5.7,6.7-5.7c2.9,0,5.1,0.9,7.1,2.5l-1.8,2.6c-1.8-1.3-3.5-2-5.3-2c-2,0-3.2,1-3.2,2.3
					v0.1c0,1.5,0.9,2.2,4.6,3.1c4.1,1,6.3,2.5,6.3,5.7v0.1c0,3.7-2.9,5.9-7,5.9C2423.5-101.7,2420.7-102.8,2418.3-104.9z"/>
			</g>
		</g>
	</g>
	<g>
		<path class="st4" d="M1883.1-60.2h-371.2c-3.5,0-6.4-2.8-6.4-6.4v-91.5c0-3.5,2.8-6.4,6.4-6.4h371.3c3.5,0,6.4,2.8,6.4,6.4v91.5
			C1889.5-63.1,1886.7-60.2,1883.1-60.2z"/>
		<g>
			<g>
				<path class="st2" d="M1660.5-111.8L1660.5-111.8c0-5.6,4.2-10.2,10.1-10.2c3.6,0,5.8,1.3,7.7,3.1l-2.2,2.5
					c-1.6-1.5-3.2-2.4-5.5-2.4c-3.8,0-6.5,3.1-6.5,6.9v0.1c0,3.8,2.7,7,6.5,7c2.4,0,3.9-1,5.6-2.5l2.2,2.2c-2,2.1-4.3,3.5-8,3.5
					C1664.8-101.7,1660.5-106.1,1660.5-111.8z"/>
				<path class="st2" d="M1682.7-121.6h14.5v3.1h-11.1v5.1h9.8v3.1h-9.8v5.3h11.2v3.1h-14.7L1682.7-121.6L1682.7-121.6z"/>
				<path class="st2" d="M1701.3-111.8L1701.3-111.8c0-5.6,4.3-10.2,10.3-10.2s10.2,4.6,10.2,10.1v0.1c0,5.5-4.3,10.1-10.3,10.1
					S1701.3-106.2,1701.3-111.8z M1718.2-111.8L1718.2-111.8c0-3.9-2.8-7-6.7-7s-6.6,3.1-6.6,6.9v0.1c0,3.8,2.8,7,6.7,7
					C1715.5-104.8,1718.2-108,1718.2-111.8z"/>
				<path class="st2" d="M1725.1-103.9l1.5-2.3c1.6,1.2,3.3,1.8,4.8,1.8s2.3-0.6,2.3-1.6v-0.1c0-1.1-1.6-1.5-3.3-2.1
					c-2.2-0.6-4.6-1.5-4.6-4.3l0,0c0-2.8,2.3-4.5,5.3-4.5c1.8,0,3.9,0.6,5.4,1.7l-1.3,2.4c-1.4-0.9-2.9-1.4-4.2-1.4
					s-2.1,0.6-2.1,1.5v0.1c0,1.1,1.6,1.5,3.3,2.1c2.2,0.7,4.6,1.7,4.6,4.3v0.1c0,3.1-2.4,4.6-5.5,4.6
					C1729.3-101.7,1727-102.5,1725.1-103.9z"/>
			</g>
		</g>
	</g>
</g>
<g>
	<g>
		<g>
			<path class="st5" d="M1473.9,495.1h-386c-5.2,0-9.4-4.2-9.4-9.4V191.1c0-6.3,5.1-11.5,11.5-11.5h381.9c6.3,0,11.5,5.1,11.5,11.5
				v294.6C1483.3,490.9,1479.1,495.1,1473.9,495.1z"/>
			<path class="st6" d="M1483.9,475.1h-386c-5.2,0-9.4-4.2-9.4-9.4V171.1c0-6.3,5.1-11.5,11.5-11.5h381.9c6.3,0,11.5,5.1,11.5,11.5
				v294.6C1493.3,470.9,1489.1,475.1,1483.9,475.1z"/>
			<path class="st7" d="M1493.3,183.3h-404.8V169c0-5.2,4.2-9.4,9.4-9.4H1484c5.2,0,9.4,4.2,9.4,9.4L1493.3,183.3L1493.3,183.3z"/>
		</g>
		<g>
			<g>
				<ellipse class="st8" cx="1133.5" cy="171.4" rx="3.3" ry="3.4"/>
				<ellipse class="st8" cx="1120.2" cy="171.4" rx="3.3" ry="3.4"/>
				<ellipse class="st8" cx="1106.9" cy="171.4" rx="3.3" ry="3.4"/>
			</g>
		</g>
	</g>
	<g>
		<rect x="1316.3" y="217.9" class="st9" width="148.4" height="176.8"/>
	</g>
	<g>
		<g>
			<rect x="1117.1" y="217.9" class="st9" width="166.6" height="10.5"/>
		</g>
		<g>
			<rect x="1117.1" y="278.6" class="st9" width="166.6" height="6.1"/>
			<rect x="1117.1" y="309.7" class="st9" width="128.2" height="6.1"/>
			<rect x="1117.1" y="294.1" class="st9" width="166.6" height="6.1"/>
			<rect x="1117.1" y="248.5" class="st9" width="136.6" height="10.5"/>
		</g>
		<g>
			<path class="st1" d="M1279.8,394.8h-156.4c-3.5,0-6.4-2.8-6.4-6.4v-17.9c0-3.5,2.8-6.4,6.4-6.4h156.4c3.5,0,6.4,2.8,6.4,6.4v17.9
				C1286.2,391.9,1283.4,394.8,1279.8,394.8z"/>
		</g>
	</g>
	<line class="st10" x1="1088.5" y1="438.4" x2="1493.3" y2="438.4"/>
</g>
<g>
	<g>
		<g>
			<path class="st5" d="M2468.1,515.1H2082c-5.2,0-9.4-4.2-9.4-9.4V191.1c0-6.3,5.1-11.5,11.5-11.5H2466c6.3,0,11.5,5.1,11.5,11.5
				v314.6C2477.5,510.9,2473.3,515.1,2468.1,515.1z"/>
			<path class="st6" d="M2478.1,495.1H2092c-5.2,0-9.4-4.2-9.4-9.4V171.1c0-6.3,5.1-11.5,11.5-11.5H2476c6.3,0,11.5,5.1,11.5,11.5
				v314.6C2487.5,490.9,2483.3,495.1,2478.1,495.1z"/>
			<path class="st7" d="M2487.5,183.3h-404.8V169c0-5.2,4.2-9.4,9.4-9.4h386.1c5.2,0,9.4,4.2,9.4,9.4L2487.5,183.3L2487.5,183.3z"/>
		</g>
		<g>
			<g>
				<ellipse class="st8" cx="2127.7" cy="171.4" rx="3.3" ry="3.4"/>
				<ellipse class="st8" cx="2114.4" cy="171.4" rx="3.3" ry="3.4"/>
				<ellipse class="st8" cx="2101.1" cy="171.4" rx="3.3" ry="3.4"/>
			</g>
		</g>
	</g>
	<g>
		<rect x="2310.5" y="217.9" class="st9" width="148.4" height="226.8"/>
	</g>
	<g>
		<g>
			<rect x="2111.3" y="248" class="st9" width="166.6" height="6.1"/>
			<rect x="2111.3" y="279.1" class="st9" width="128.2" height="6.1"/>
			<rect x="2111.3" y="263.5" class="st9" width="166.6" height="6.1"/>
			<rect x="2111.3" y="217.9" class="st9" width="166.6" height="10.5"/>
		</g>
		<g>
			<path class="st3" d="M2274,444.8h-156.4c-3.5,0-6.4-2.8-6.4-6.4v-17.9c0-3.5,2.8-6.4,6.4-6.4H2274c3.5,0,6.4,2.8,6.4,6.4v17.9
				C2280.4,441.9,2277.5,444.8,2274,444.8z"/>
		</g>
		<g>
			<g>
				<path class="st3" d="M2274,376c2.4,0,4.4,2,4.4,4.4v17.9c0,2.4-2,4.4-4.4,4.4h-156.4c-2.4,0-4.4-2-4.4-4.4v-17.9
					c0-2.4,2-4.4,4.4-4.4H2274 M2274,374h-156.4c-3.5,0-6.4,2.8-6.4,6.4v17.9c0,3.5,2.8,6.4,6.4,6.4H2274c3.5,0,6.4-2.8,6.4-6.4
					v-17.9C2280.4,376.9,2277.5,374,2274,374L2274,374z"/>
			</g>
		</g>
		<g>
			<g>
				<path class="st3" d="M2274,336c2.4,0,4.4,2,4.4,4.4v17.9c0,2.4-2,4.4-4.4,4.4h-156.4c-2.4,0-4.4-2-4.4-4.4v-17.9
					c0-2.4,2-4.4,4.4-4.4H2274 M2274,334h-156.4c-3.5,0-6.4,2.8-6.4,6.4v17.9c0,3.5,2.8,6.4,6.4,6.4H2274c3.5,0,6.4-2.8,6.4-6.4
					v-17.9C2280.4,336.9,2277.5,334,2274,334L2274,334z"/>
			</g>
		</g>
	</g>
</g>
<g>
	<g>
		<g>
			<path class="st5" d="M1971,608.1h-386c-5.2,0-9.4-4.2-9.4-9.4V191.1c0-6.3,5.1-11.5,11.5-11.5H1969c6.3,0,11.5,5.1,11.5,11.5
				v407.6C1980.4,603.9,1976.2,608.1,1971,608.1z"/>
			<path class="st6" d="M1981,588.1h-386c-5.2,0-9.4-4.2-9.4-9.4V171.1c0-6.3,5.1-11.5,11.5-11.5H1979c6.3,0,11.5,5.1,11.5,11.5
				v407.6C1990.4,583.9,1986.2,588.1,1981,588.1z"/>
			<path class="st7" d="M1990.4,183.3h-404.8V169c0-5.2,4.2-9.4,9.4-9.4h386c5.2,0,9.4,4.2,9.4,9.4L1990.4,183.3L1990.4,183.3z"/>
		</g>
		<g>
			<g>
				<ellipse class="st8" cx="1630.6" cy="171.4" rx="3.3" ry="3.4"/>
				<ellipse class="st8" cx="1617.3" cy="171.4" rx="3.3" ry="3.4"/>
				<ellipse class="st8" cx="1604" cy="171.4" rx="3.3" ry="3.4"/>
			</g>
		</g>
	</g>
	<g>
		<rect x="1614.2" y="349.2" class="st9" width="347.6" height="189"/>
	</g>
	<g>
		<rect x="1614.2" y="248" class="st9" width="347.6" height="6.1"/>
		<rect x="1647.1" y="263.5" class="st9" width="281.8" height="6.1"/>
		<rect x="1614.2" y="217.9" class="st9" width="347.6" height="10.5"/>
	</g>
	<g>
		<path class="st4" d="M1866.2,318.3h-156.4c-3.5,0-6.4-2.8-6.4-6.4V294c0-3.5,2.8-6.4,6.4-6.4h156.4c3.5,0,6.4,2.8,6.4,6.4v17.9
			C1872.6,315.5,1869.7,318.3,1866.2,318.3z"/>
	</g>
</g>
<g>
	<g>
		<path class="st11" d="M1172.4,547.8h3.6v17.1h10.7v3.2h-14.2L1172.4,547.8L1172.4,547.8z"/>
		<path class="st11" d="M1199.4,568.1v-1.9c-1,1.2-2.6,2.2-5,2.2c-2.9,0-5.5-1.7-5.5-4.7v-0.1c0-3.4,2.6-5,6.2-5
			c1.9,0,3,0.3,4.2,0.6v-0.3c0-2.1-1.3-3.3-3.8-3.3c-1.7,0-3,0.4-4.4,1l-1-2.8c1.7-0.8,3.3-1.3,5.8-1.3c4.5,0,6.7,2.4,6.7,6.5v9.1
			H1199.4z M1199.5,561.7c-0.9-0.3-2.1-0.6-3.5-0.6c-2.2,0-3.5,0.9-3.5,2.4v0.1c0,1.5,1.3,2.3,3,2.3c2.3,0,4.1-1.3,4.1-3.2
			L1199.5,561.7L1199.5,561.7z"/>
		<path class="st11" d="M1207.2,552.8h3.5v2.4c1-1.5,2.4-2.7,4.8-2.7c3.5,0,5.5,2.3,5.5,5.9v9.7h-3.5v-8.7c0-2.4-1.2-3.7-3.3-3.7
			c-2,0-3.5,1.4-3.5,3.8v8.6h-3.5V552.8z"/>
		<path class="st11" d="M1224.5,560.5L1224.5,560.5c0-5.1,3.5-8,7.1-8c2.5,0,4.1,1.3,5.2,2.7V547h3.5v21.2h-3.5v-2.6
			c-1.1,1.6-2.7,2.9-5.2,2.9C1228.1,568.5,1224.5,565.6,1224.5,560.5z M1236.9,560.5L1236.9,560.5c0-3-2.1-5-4.4-5
			c-2.4,0-4.4,1.9-4.4,4.9v0.1c0,3,2,4.9,4.4,4.9C1234.8,565.4,1236.9,563.4,1236.9,560.5z"/>
		<path class="st11" d="M1245,547.1h3.8v3.3h-3.8V547.1z M1245.1,552.8h3.5v15.3h-3.5V552.8z"/>
		<path class="st11" d="M1253.3,552.8h3.5v2.4c1-1.5,2.4-2.7,4.8-2.7c3.5,0,5.5,2.3,5.5,5.9v9.7h-3.5v-8.7c0-2.4-1.2-3.7-3.3-3.7
			c-2,0-3.5,1.4-3.5,3.8v8.6h-3.5V552.8z"/>
		<path class="st11" d="M1271.4,571l1.3-2.6c1.6,1,3.4,1.6,5.5,1.6c3.1,0,4.8-1.6,4.8-4.7v-1.2c-1.3,1.7-2.9,2.8-5.4,2.8
			c-3.6,0-7-2.7-7-7.2v-0.1c0-4.5,3.4-7.2,7-7.2c2.6,0,4.2,1.2,5.4,2.6v-2.3h3.5v12.2c0,2.6-0.7,4.5-1.9,5.8
			c-1.4,1.4-3.5,2.1-6.3,2.1C1275.8,572.8,1273.4,572.2,1271.4,571z M1283.1,559.8L1283.1,559.8c0-2.6-2.1-4.3-4.5-4.3
			s-4.4,1.7-4.4,4.2v0.1c0,2.5,1.9,4.2,4.4,4.2C1281,564,1283.1,562.2,1283.1,559.8z"/>
		<path class="st11" d="M1300.3,547.8h8c4.7,0,7.7,2.7,7.7,6.8v0.1c0,4.6-3.7,6.9-8.1,6.9h-4v6.5h-3.6V547.8L1300.3,547.8z
			 M1308,558.4c2.7,0,4.4-1.5,4.4-3.6v-0.1c0-2.4-1.7-3.6-4.4-3.6h-4.1v7.3L1308,558.4L1308,558.4z"/>
		<path class="st11" d="M1328.5,568.1v-1.9c-1,1.2-2.6,2.2-5,2.2c-2.9,0-5.5-1.7-5.5-4.7v-0.1c0-3.4,2.6-5,6.2-5
			c1.9,0,3,0.3,4.2,0.6v-0.3c0-2.1-1.3-3.3-3.8-3.3c-1.7,0-3,0.4-4.4,1l-1-2.8c1.7-0.8,3.3-1.3,5.8-1.3c4.5,0,6.7,2.4,6.7,6.5v9.1
			H1328.5z M1328.6,561.7c-0.9-0.3-2.1-0.6-3.5-0.6c-2.2,0-3.5,0.9-3.5,2.4v0.1c0,1.5,1.3,2.3,3,2.3c2.3,0,4.1-1.3,4.1-3.2
			L1328.6,561.7L1328.6,561.7z"/>
		<path class="st11" d="M1336.3,571l1.3-2.6c1.6,1,3.4,1.6,5.5,1.6c3.1,0,4.8-1.6,4.8-4.7v-1.2c-1.3,1.7-2.9,2.8-5.4,2.8
			c-3.6,0-7-2.7-7-7.2v-0.1c0-4.5,3.4-7.2,7-7.2c2.6,0,4.2,1.2,5.4,2.6v-2.3h3.5v12.2c0,2.6-0.7,4.5-1.9,5.8
			c-1.4,1.4-3.5,2.1-6.3,2.1C1340.6,572.8,1338.2,572.2,1336.3,571z M1347.9,559.8L1347.9,559.8c0-2.6-2.1-4.3-4.5-4.3
			s-4.4,1.7-4.4,4.2v0.1c0,2.5,1.9,4.2,4.4,4.2C1345.8,564,1347.9,562.2,1347.9,559.8z"/>
		<path class="st11" d="M1355,560.5L1355,560.5c0-4.4,3.1-8,7.5-8c4.9,0,7.3,3.8,7.3,8.2c0,0.3,0,0.6-0.1,1h-11.3
			c0.4,2.5,2.1,3.9,4.4,3.9c1.7,0,2.9-0.6,4.1-1.8l2.1,1.8c-1.5,1.7-3.5,2.9-6.3,2.9C1358.4,568.5,1355,565.3,1355,560.5z
			 M1366.4,559.4c-0.2-2.3-1.6-4-3.9-4c-2.1,0-3.7,1.7-4,4H1366.4z"/>
		<path class="st11" d="M1383.9,563.5h-2.6v-3h3.1l0.8-5h-2.9v-3h3.4l0.8-4.6h3.1l-0.8,4.6h4.8l0.8-4.6h3.1l-0.8,4.6h2.6v3h-3.1
			l-0.8,5h2.9v3h-3.4l-0.8,4.7h-3.1l0.8-4.7h-4.8l-0.8,4.7h-3.1L1383.9,563.5z M1392.3,560.4l0.9-5h-4.8l-0.9,5H1392.3z"/>
		<path class="st11" d="M1405.8,551.3l-3.7,1l-0.8-2.9l5.5-1.7h2.5v20.4h-3.5V551.3z"/>
	</g>
</g>
<g>
	<g>
		<path class="st11" d="M1660.3,660.8h3.6v17.1h10.7v3.2h-14.2L1660.3,660.8L1660.3,660.8z"/>
		<path class="st11" d="M1687.3,681.1v-1.9c-1,1.2-2.6,2.2-5,2.2c-2.9,0-5.5-1.7-5.5-4.7v-0.1c0-3.4,2.6-5,6.2-5
			c1.9,0,3,0.3,4.2,0.6v-0.3c0-2.1-1.3-3.3-3.8-3.3c-1.7,0-3,0.4-4.4,1l-1-2.8c1.7-0.8,3.3-1.3,5.8-1.3c4.5,0,6.7,2.4,6.7,6.5v9.1
			H1687.3z M1687.4,674.7c-0.9-0.3-2.1-0.6-3.5-0.6c-2.2,0-3.5,0.9-3.5,2.4v0.1c0,1.4,1.3,2.3,3,2.3c2.3,0,4.1-1.3,4.1-3.2
			L1687.4,674.7L1687.4,674.7z"/>
		<path class="st11" d="M1695.1,665.8h3.5v2.4c1-1.5,2.4-2.7,4.8-2.7c3.5,0,5.5,2.3,5.5,5.9v9.7h-3.5v-8.7c0-2.4-1.2-3.7-3.3-3.7
			c-2,0-3.5,1.4-3.5,3.8v8.6h-3.5V665.8z"/>
		<path class="st11" d="M1712.5,673.5L1712.5,673.5c0-5.1,3.5-8,7.1-8c2.5,0,4.1,1.3,5.2,2.7V660h3.5v21.2h-3.5v-2.6
			c-1.1,1.6-2.7,2.9-5.2,2.9C1716,681.5,1712.5,678.6,1712.5,673.5z M1724.9,673.5L1724.9,673.5c0-3-2.1-5-4.4-5
			c-2.4,0-4.4,1.9-4.4,4.9v0.1c0,3,2,4.9,4.4,4.9C1722.8,678.4,1724.9,676.4,1724.9,673.5z"/>
		<path class="st11" d="M1732.9,660.1h3.8v3.3h-3.8V660.1z M1733,665.8h3.5v15.3h-3.5V665.8z"/>
		<path class="st11" d="M1741.3,665.8h3.5v2.4c1-1.5,2.4-2.7,4.8-2.7c3.5,0,5.5,2.3,5.5,5.9v9.7h-3.5v-8.7c0-2.4-1.2-3.7-3.3-3.7
			c-2,0-3.5,1.4-3.5,3.8v8.6h-3.5V665.8z"/>
		<path class="st11" d="M1759.4,684l1.3-2.6c1.6,1,3.4,1.6,5.5,1.6c3.1,0,4.8-1.6,4.8-4.7v-1.2c-1.3,1.7-2.9,2.8-5.4,2.8
			c-3.6,0-7-2.7-7-7.2v-0.1c0-4.5,3.4-7.2,7-7.2c2.6,0,4.2,1.2,5.4,2.6v-2.3h3.5v12.2c0,2.6-0.7,4.5-1.9,5.8
			c-1.4,1.4-3.5,2.1-6.3,2.1C1763.7,685.8,1761.3,685.2,1759.4,684z M1771,672.8L1771,672.8c0-2.6-2.1-4.3-4.5-4.3s-4.4,1.7-4.4,4.2
			v0.1c0,2.5,1.9,4.2,4.4,4.2C1768.9,677,1771,675.2,1771,672.8z"/>
		<path class="st11" d="M1788.2,660.8h8c4.7,0,7.7,2.7,7.7,6.8v0.1c0,4.6-3.7,6.9-8.1,6.9h-4v6.5h-3.6V660.8L1788.2,660.8z
			 M1795.9,671.4c2.7,0,4.4-1.5,4.4-3.6v-0.1c0-2.4-1.7-3.6-4.4-3.6h-4.1v7.3L1795.9,671.4L1795.9,671.4z"/>
		<path class="st11" d="M1816.4,681.1v-1.9c-1,1.2-2.6,2.2-5,2.2c-2.9,0-5.5-1.7-5.5-4.7v-0.1c0-3.4,2.6-5,6.2-5
			c1.9,0,3,0.3,4.2,0.6v-0.3c0-2.1-1.3-3.3-3.8-3.3c-1.7,0-3,0.4-4.4,1l-1-2.8c1.7-0.8,3.3-1.3,5.8-1.3c4.5,0,6.7,2.4,6.7,6.5v9.1
			H1816.4z M1816.5,674.7c-0.9-0.3-2.1-0.6-3.5-0.6c-2.2,0-3.5,0.9-3.5,2.4v0.1c0,1.4,1.3,2.3,3,2.3c2.3,0,4.1-1.3,4.1-3.2
			L1816.5,674.7L1816.5,674.7z"/>
		<path class="st11" d="M1824.2,684l1.3-2.6c1.6,1,3.4,1.6,5.5,1.6c3.1,0,4.8-1.6,4.8-4.7v-1.2c-1.3,1.7-2.9,2.8-5.4,2.8
			c-3.6,0-7-2.7-7-7.2v-0.1c0-4.5,3.4-7.2,7-7.2c2.6,0,4.2,1.2,5.4,2.6v-2.3h3.5v12.2c0,2.6-0.7,4.5-1.9,5.8
			c-1.4,1.4-3.5,2.1-6.3,2.1C1828.5,685.8,1826.1,685.2,1824.2,684z M1835.8,672.8L1835.8,672.8c0-2.6-2.1-4.3-4.5-4.3
			s-4.4,1.7-4.4,4.2v0.1c0,2.5,1.9,4.2,4.4,4.2C1833.7,677,1835.8,675.2,1835.8,672.8z"/>
		<path class="st11" d="M1842.9,673.5L1842.9,673.5c0-4.4,3.1-8,7.5-8c4.9,0,7.3,3.8,7.3,8.2c0,0.3,0,0.6-0.1,1h-11.3
			c0.4,2.5,2.1,3.9,4.4,3.9c1.7,0,2.9-0.6,4.1-1.8l2.1,1.8c-1.4,1.7-3.5,2.9-6.3,2.9C1846.4,681.5,1842.9,678.3,1842.9,673.5z
			 M1854.3,672.4c-0.2-2.3-1.6-4-3.9-4c-2.1,0-3.7,1.7-4,4H1854.3z"/>
		<path class="st11" d="M1871.8,676.5h-2.6v-3h3.1l0.8-5h-2.9v-3h3.4l0.8-4.6h3.1l-0.8,4.6h4.8l0.8-4.6h3.1l-0.8,4.6h2.6v3h-3.1
			l-0.8,5h2.9v3h-3.4l-0.8,4.7h-3.1l0.8-4.7h-4.8l-0.8,4.7h-3.1L1871.8,676.5z M1880.2,673.4l0.9-5h-4.8l-0.9,5H1880.2z"/>
		<path class="st11" d="M1889.9,678.3l7-5.9c2.8-2.3,3.8-3.7,3.8-5.5c0-2-1.4-3.2-3.3-3.2s-3.1,1-4.7,3l-2.5-2
			c1.9-2.7,3.9-4.3,7.5-4.3c4,0,6.7,2.4,6.7,6.1v0.1c0,3.2-1.7,4.9-5.3,7.9l-4.2,3.5h9.7v3.1h-14.7V678.3z"/>
	</g>
</g>
<g>
	<g>
		<path class="st11" d="M2163.3,567.8h3.6v17.1h10.7v3.2h-14.2L2163.3,567.8L2163.3,567.8z"/>
		<path class="st11" d="M2190.4,588.1v-1.9c-1,1.2-2.6,2.2-5,2.2c-2.9,0-5.5-1.7-5.5-4.7v-0.1c0-3.4,2.6-5,6.2-5
			c1.9,0,3,0.3,4.2,0.6v-0.3c0-2.1-1.3-3.3-3.8-3.3c-1.7,0-3,0.4-4.4,1l-1-2.8c1.7-0.8,3.3-1.3,5.8-1.3c4.5,0,6.7,2.4,6.7,6.5v9.1
			H2190.4z M2190.4,581.7c-0.9-0.3-2.1-0.6-3.5-0.6c-2.2,0-3.5,0.9-3.5,2.4v0.1c0,1.5,1.3,2.3,3,2.3c2.3,0,4.1-1.3,4.1-3.2
			L2190.4,581.7L2190.4,581.7z"/>
		<path class="st11" d="M2198.2,572.8h3.5v2.4c1-1.5,2.4-2.7,4.8-2.7c3.5,0,5.5,2.3,5.5,5.9v9.7h-3.5v-8.7c0-2.4-1.2-3.7-3.3-3.7
			c-2,0-3.5,1.4-3.5,3.8v8.6h-3.5V572.8z"/>
		<path class="st11" d="M2215.5,580.5L2215.5,580.5c0-5.1,3.5-8,7.1-8c2.5,0,4.1,1.3,5.2,2.7V567h3.5v21.2h-3.5v-2.6
			c-1.1,1.6-2.7,2.9-5.2,2.9C2219,588.5,2215.5,585.6,2215.5,580.5z M2227.9,580.5L2227.9,580.5c0-3-2.1-5-4.4-5
			c-2.4,0-4.4,1.9-4.4,4.9v0.1c0,3,2,4.9,4.4,4.9C2225.8,585.4,2227.9,583.4,2227.9,580.5z"/>
		<path class="st11" d="M2235.9,567.1h3.8v3.3h-3.8V567.1z M2236.1,572.8h3.5v15.3h-3.5V572.8z"/>
		<path class="st11" d="M2244.3,572.8h3.5v2.4c1-1.5,2.4-2.7,4.8-2.7c3.5,0,5.5,2.3,5.5,5.9v9.7h-3.5v-8.7c0-2.4-1.2-3.7-3.3-3.7
			c-2,0-3.5,1.4-3.5,3.8v8.6h-3.5V572.8z"/>
		<path class="st11" d="M2262.4,591l1.3-2.6c1.6,1,3.4,1.6,5.5,1.6c3.1,0,4.8-1.6,4.8-4.7v-1.2c-1.3,1.7-2.9,2.8-5.4,2.8
			c-3.6,0-7-2.7-7-7.2v-0.1c0-4.5,3.4-7.2,7-7.2c2.6,0,4.2,1.2,5.4,2.6v-2.3h3.5v12.2c0,2.6-0.7,4.5-1.9,5.8
			c-1.4,1.4-3.5,2.1-6.3,2.1C2266.7,592.8,2264.4,592.2,2262.4,591z M2274,579.8L2274,579.8c0-2.6-2.1-4.3-4.5-4.3s-4.4,1.7-4.4,4.2
			v0.1c0,2.5,1.9,4.2,4.4,4.2S2274,582.2,2274,579.8z"/>
		<path class="st11" d="M2291.2,567.8h8c4.7,0,7.7,2.7,7.7,6.8v0.1c0,4.6-3.7,6.9-8.1,6.9h-4v6.5h-3.6V567.8z M2299,578.4
			c2.7,0,4.4-1.5,4.4-3.6v-0.1c0-2.4-1.7-3.6-4.4-3.6h-4.1v7.3L2299,578.4L2299,578.4z"/>
		<path class="st11" d="M2319.4,588.1v-1.9c-1,1.2-2.6,2.2-5,2.2c-2.9,0-5.5-1.7-5.5-4.7v-0.1c0-3.4,2.6-5,6.2-5
			c1.9,0,3,0.3,4.2,0.6v-0.3c0-2.1-1.3-3.3-3.8-3.3c-1.7,0-3,0.4-4.4,1l-1-2.8c1.7-0.8,3.3-1.3,5.8-1.3c4.5,0,6.7,2.4,6.7,6.5v9.1
			H2319.4z M2319.5,581.7c-0.9-0.3-2.1-0.6-3.5-0.6c-2.2,0-3.5,0.9-3.5,2.4v0.1c0,1.5,1.3,2.3,3,2.3c2.3,0,4.1-1.3,4.1-3.2
			L2319.5,581.7L2319.5,581.7z"/>
		<path class="st11" d="M2327.2,591l1.3-2.6c1.6,1,3.4,1.6,5.5,1.6c3.1,0,4.8-1.6,4.8-4.7v-1.2c-1.3,1.7-2.9,2.8-5.4,2.8
			c-3.6,0-7-2.7-7-7.2v-0.1c0-4.5,3.4-7.2,7-7.2c2.6,0,4.2,1.2,5.4,2.6v-2.3h3.5v12.2c0,2.6-0.7,4.5-1.9,5.8
			c-1.4,1.4-3.5,2.1-6.3,2.1C2331.5,592.8,2329.2,592.2,2327.2,591z M2338.8,579.8L2338.8,579.8c0-2.6-2.1-4.3-4.5-4.3
			s-4.4,1.7-4.4,4.2v0.1c0,2.5,1.9,4.2,4.4,4.2S2338.8,582.2,2338.8,579.8z"/>
		<path class="st11" d="M2346,580.5L2346,580.5c0-4.4,3.1-8,7.5-8c4.9,0,7.3,3.8,7.3,8.2c0,0.3,0,0.6-0.1,1h-11.3
			c0.4,2.5,2.1,3.9,4.4,3.9c1.7,0,2.9-0.6,4.1-1.8l2.1,1.8c-1.5,1.7-3.5,2.9-6.3,2.9C2349.4,588.5,2346,585.3,2346,580.5z
			 M2357.3,579.4c-0.2-2.3-1.6-4-3.9-4c-2.1,0-3.7,1.7-4,4H2357.3z"/>
		<path class="st11" d="M2374.9,583.5h-2.6v-3h3.1l0.8-5h-2.9v-3h3.4l0.8-4.6h3.1l-0.8,4.6h4.8l0.8-4.6h3.1l-0.8,4.6h2.6v3h-3.1
			l-0.8,5h2.9v3h-3.4l-0.8,4.7h-3.1l0.8-4.7h-4.8l-0.8,4.7h-3.1L2374.9,583.5z M2383.2,580.4l0.9-5h-4.8l-0.9,5H2383.2z"/>
		<path class="st11" d="M2392.8,584.9l2.5-2.3c1.5,1.7,3.1,2.7,5.3,2.7c2,0,3.5-1.2,3.5-3.1v-0.1c0-2-1.8-3.1-4.7-3.1h-1.7l-0.6-2.2
			l5.5-5.8h-8.8v-3.1h13.4v2.7l-5.7,5.8c3.1,0.4,6,1.9,6,5.7v0.1c0,3.7-2.9,6.4-7.1,6.4C2397,588.5,2394.5,587,2392.8,584.9z"/>
	</g>
</g>
<polygon class="st1" points="1297.8,106.4 1295,103.6 1279,119.5 1279,-64.9 1275,-64.9 1275,119.5 1259,103.6 1256.2,106.4 
	1277,127.2 "/>
<polygon class="st4" points="1718.3,106.4 1715.5,103.6 1699.5,119.5 1699.5,-64.9 1695.5,-64.9 1695.5,119.5 1679.5,103.6 
	1676.7,106.4 1697.5,127.2 "/>
<polygon class="st3" points="2230.3,106.4 2227.5,103.6 2211.5,119.5 2211.5,-64.9 2207.5,-64.9 2207.5,119.5 2191.6,103.6 
	2188.7,106.4 2209.5,127.2 "/>
</svg>
