<?xml version="1.0" encoding="utf-8"?>
<!-- Generator: Adobe Illustrator 19.1.0, SVG Export Plug-In . SVG Version: 6.00 Build 0)  -->
<svg version="1.1" id="Layer_1" xmlns="http://www.w3.org/2000/svg" xmlns:xlink="http://www.w3.org/1999/xlink" x="0px" y="0px"
	 viewBox="988 -1874.4 1600 2666.4" style="enable-background:new 988 -1874.4 1600 2666.4;" width="1600px" height="2666px" xml:space="preserve">
<style type="text/css">
	.st0{fill:none;}
	.st1{opacity:5.000000e-002;}
	.st2{fill:#FFFFFF;stroke:#E8E8E8;stroke-miterlimit:10;}
	.st3{fill:#E2E2E2;stroke:#E2E2E2;stroke-miterlimit:10;}
	.st4{fill:#F6F6F6;}
	.st5{fill:#FFA300;}
	.st6{fill:#FFFFFF;}
	.st7{fill:#34BC79;}
	.st8{fill:#5D5EF4;}
	.st9{fill:#A900FF;}
	.st10{fill:#FF4759;}
	.st11{fill:none;stroke:#E8E8E8;stroke-width:2;stroke-miterlimit:10;}
	.st12{fill:#F2F2F2;}
	.st13{fill:#DDDDDD;}
	.st14{fill:#00BEA4;}
	.st15{fill:none;stroke:#A900FF;stroke-width:8;stroke-miterlimit:10;}
	.st16{fill:#CCCCCC;}
</style>
<rect x="988" y="-1874.4" class="st0" width="1600" height="2666.4"/>
<g>
	<g class="st1">
		<path d="M1514.7,689.7v-2298.3c0-5.2,4.2-9.4,9.4-9.4h1054.5c5.2,0,9.4,4.2,9.4,9.4V689.8L1514.7,689.7L1514.7,689.7z"/>
	</g>
	<g>
		<g>
			<path class="st2" d="M1524.7,669.7v-2284c0-13.9,10.1-23.7,22.6-23.7h1009.4c17.3,0,31.3,13.5,30.8,30.1V669.8L1524.7,669.7
				L1524.7,669.7z"/>
		</g>
		<g>
			<path class="st3" d="M2587.5-1578.4H1524.7v-50.3c0-5.2,4.2-9.4,9.4-9.4h1053.4V-1578.4z"/>
		</g>
	</g>
	<g>
		<g>
			<g>
				<ellipse class="st4" cx="1652.5" cy="-1607" rx="8.4" ry="8.6"/>
			</g>
			<g>
				<ellipse class="st4" cx="1618.6" cy="-1607" rx="8.4" ry="8.6"/>
			</g>
			<g>
				<ellipse class="st4" cx="1584.6" cy="-1607" rx="8.4" ry="8.6"/>
			</g>
		</g>
	</g>
</g>
<g>
	<g>
		<circle class="st5" cx="1572.7" cy="-1048" r="9.7"/>
		<g>
			<rect x="1451.9" y="-1050" class="st5" width="121.2" height="4"/>
		</g>
	</g>
	<path class="st5" d="M1461.5-975.9h-367.2c-3.5,0-6.4-2.8-6.4-6.4v-131.4c0-3.5,2.8-6.4,6.4-6.4h367.2c3.5,0,6.4,2.8,6.4,6.4v131.5
		C1467.8-978.7,1465-975.9,1461.5-975.9z"/>
	<g>
		<g>
			<path class="st6" d="M1159.4-1067.4L1159.4-1067.4c0-5.6,4.2-10.2,10.1-10.2c3.6,0,5.8,1.3,7.7,3.1l-2.2,2.5
				c-1.6-1.5-3.2-2.4-5.5-2.4c-3.8,0-6.5,3.1-6.5,6.9v0.1c0,3.8,2.7,7,6.5,7c2.4,0,3.9-1,5.6-2.5l2.2,2.2c-2,2.1-4.3,3.5-8,3.5
				C1163.6-1057.3,1159.4-1061.7,1159.4-1067.4z"/>
			<path class="st6" d="M1180.2-1067.4L1180.2-1067.4c0-5.6,4.3-10.2,10.3-10.2s10.2,4.6,10.2,10.1v0.1c0,5.5-4.3,10.1-10.3,10.1
				S1180.2-1061.9,1180.2-1067.4z M1197.1-1067.4L1197.1-1067.4c0-3.9-2.8-7-6.7-7c-3.9,0-6.6,3.1-6.6,6.9v0.1c0,3.8,2.8,7,6.7,7
				C1194.4-1060.5,1197.1-1063.6,1197.1-1067.4z"/>
			<path class="st6" d="M1205.6-1077.2h3.2l10.5,13.6v-13.6h3.4v19.6h-2.9l-10.8-13.9v13.9h-3.4V-1077.2z"/>
			<path class="st6" d="M1227.5-1067.4L1227.5-1067.4c0-5.6,4.2-10.2,10.1-10.2c3.6,0,5.8,1.3,7.7,3.1l-2.2,2.5
				c-1.6-1.5-3.2-2.4-5.5-2.4c-3.8,0-6.5,3.1-6.5,6.9v0.1c0,3.8,2.7,7,6.5,7c2.4,0,3.9-1,5.6-2.5l2.2,2.2c-2,2.1-4.3,3.5-8,3.5
				C1231.8-1057.3,1227.5-1061.7,1227.5-1067.4z"/>
			<path class="st6" d="M1249.7-1077.2h14.5v3.1h-11.1v5.1h9.8v3.1h-9.8v5.3h11.2v3.1h-14.7L1249.7-1077.2L1249.7-1077.2
				L1249.7-1077.2z"/>
			<path class="st6" d="M1269.2-1077.2h7.7c4.6,0,7.4,2.6,7.4,6.6v0.1c0,4.4-3.5,6.7-7.8,6.7h-3.9v6.3h-3.4V-1077.2L1269.2-1077.2z
				 M1276.6-1067c2.6,0,4.2-1.5,4.2-3.5v-0.1c0-2.3-1.7-3.5-4.2-3.5h-4v7.1H1276.6z"/>
			<path class="st6" d="M1293.4-1074h-6.2v-3.2h15.9v3.2h-6.2v16.4h-3.5V-1074z"/>
			<path class="st6" d="M1316.5-1077.2h3.4v8.1h9.4v-8.1h3.4v19.6h-3.4v-8.3h-9.4v8.3h-3.4V-1077.2z"/>
			<path class="st6" d="M1338.5-1077.2h14.6v3.1H1342v5.1h9.8v3.1h-9.8v5.3h11.2v3.1h-14.7V-1077.2z"/>
			<path class="st6" d="M1358-1077.2h8.7c2.5,0,4.4,0.7,5.7,2c1,1.1,1.6,2.5,1.6,4.2v0.1c0,3.2-1.9,5.2-4.7,5.9l5.3,7.4h-4.1
				l-4.8-6.8h-4.3v6.8h-3.4V-1077.2L1358-1077.2z M1366.5-1067.5c2.5,0,4-1.3,4-3.3v-0.1c0-2.1-1.5-3.2-4.1-3.2h-5v6.6H1366.5z"/>
			<path class="st6" d="M1378.1-1067.4L1378.1-1067.4c0-5.6,4.3-10.2,10.3-10.2s10.2,4.6,10.2,10.1v0.1c0,5.5-4.3,10.1-10.3,10.1
				S1378.1-1061.9,1378.1-1067.4z M1394.9-1067.4L1394.9-1067.4c0-3.9-2.8-7-6.7-7c-3.9,0-6.6,3.1-6.6,6.9v0.1c0,3.8,2.8,7,6.7,7
				C1392.2-1060.4,1394.9-1063.6,1394.9-1067.4z"/>
			<path class="st6" d="M1232.9-1032.2h3.4v19.6h-3.4V-1032.2z"/>
			<path class="st6" d="M1242.3-1032.2h3.7l6,9.3l6-9.3h3.7v19.6h-3.6v-14.1l-6.2,9.2h-0.1l-6.1-9.2v14h-3.4V-1032.2L1242.3-1032.2z
				"/>
			<path class="st6" d="M1274.2-1032.4h3.2l8.6,19.7h-3.6l-2-4.7h-9.3l-2,4.7h-3.5L1274.2-1032.4z M1279.1-1020.4l-3.4-7.8l-3.4,7.8
				H1279.1z"/>
			<path class="st6" d="M1288-1022.4L1288-1022.4c0-5.5,4.2-10.2,10.1-10.2c3.4,0,5.5,1,7.5,2.7l-2.2,2.6c-1.5-1.3-3-2.1-5.5-2.1
				c-3.6,0-6.4,3.2-6.4,6.9v0.1c0,4,2.7,7,6.7,7c1.8,0,3.5-0.6,4.7-1.5v-3.7h-5v-3h8.3v8.2c-1.9,1.7-4.7,3.1-8.2,3.1
				C1292-1012.3,1288-1016.7,1288-1022.4z"/>
			<path class="st6" d="M1311.5-1032.2h14.6v3.1H1315v5.1h9.8v3.1h-9.8v5.3h11.2v3.1h-14.7V-1032.2z"/>
		</g>
	</g>
</g>
<g>
	<g>
		<circle class="st7" cx="1572.7" cy="-1470" r="9.7"/>
		<g>
			<rect x="1451.9" y="-1472" class="st7" width="121.2" height="4"/>
		</g>
	</g>
	<path class="st7" d="M1461.5-1397.9h-367.2c-3.5,0-6.4-2.8-6.4-6.4v-131.4c0-3.5,2.8-6.4,6.4-6.4h367.2c3.5,0,6.4,2.8,6.4,6.4
		v131.5C1467.8-1400.7,1465-1397.9,1461.5-1397.9z"/>
	<g>
		<g>
			<path class="st6" d="M1164.4-1499.2h7.7c4.6,0,7.4,2.6,7.4,6.6v0.1c0,4.4-3.5,6.7-7.8,6.7h-3.9v6.3h-3.4V-1499.2z M1171.8-1489.1
				c2.6,0,4.2-1.5,4.2-3.5v-0.1c0-2.3-1.7-3.5-4.2-3.5h-4v7.1H1171.8z"/>
			<path class="st6" d="M1183.8-1499.2h3.4v16.5h10.3v3.1h-13.7V-1499.2z"/>
			<path class="st6" d="M1208.8-1499.4h3.2l8.6,19.7h-3.6l-2-4.7h-9.3l-2,4.7h-3.6L1208.8-1499.4z M1213.7-1487.4l-3.4-7.8l-3.4,7.8
				H1213.7z"/>
			<path class="st6" d="M1224.8-1499.2h3.4v19.6h-3.4V-1499.2z"/>
			<path class="st6" d="M1234.2-1499.2h3.2l10.5,13.6v-13.6h3.4v19.6h-2.9l-10.8-13.9v13.9h-3.4V-1499.2L1234.2-1499.2z"/>
			<path class="st6" d="M1266.1-1499.2h14.5v3.1h-11.1v5.1h9.8v3.1h-9.8v5.3h11.2v3.1h-14.6L1266.1-1499.2L1266.1-1499.2z"/>
			<path class="st6" d="M1285.6-1499.2h3.2l10.5,13.6v-13.6h3.4v19.6h-2.9l-10.8-13.9v13.9h-3.4V-1499.2L1285.6-1499.2z"/>
			<path class="st6" d="M1307.6-1489.4L1307.6-1489.4c0-5.5,4.2-10.2,10.1-10.2c3.4,0,5.5,1,7.5,2.7l-2.2,2.6
				c-1.5-1.3-3-2.1-5.5-2.1c-3.6,0-6.4,3.2-6.4,6.9v0.1c0,4,2.7,7,6.7,7c1.8,0,3.5-0.6,4.7-1.5v-3.7h-5v-3h8.3v8.2
				c-1.9,1.7-4.7,3.1-8.2,3.1C1311.6-1479.3,1307.6-1483.7,1307.6-1489.4z"/>
			<path class="st6" d="M1331.1-1499.2h3.4v16.5h10.3v3.1h-13.7V-1499.2z"/>
			<path class="st6" d="M1349.3-1499.2h3.4v19.6h-3.4V-1499.2z"/>
			<path class="st6" d="M1357.4-1482.5l2.1-2.5c1.9,1.6,3.8,2.5,6.2,2.5c2.1,0,3.5-1,3.5-2.5v-0.1c0-1.4-0.8-2.2-4.4-3
				c-4.2-1-6.5-2.2-6.5-5.9v-0.1c0-3.4,2.8-5.7,6.7-5.7c2.9,0,5.1,0.9,7.1,2.5l-2,2.8c-1.8-1.3-3.5-2-5.3-2c-2,0-3.2,1-3.2,2.3v0.1
				c0,1.5,0.9,2.2,4.6,3.1c4.1,1,6.3,2.5,6.3,5.7v0.1c0,3.7-2.9,5.9-7,5.9C1362.5-1479.4,1359.7-1480.4,1357.4-1482.5z"/>
			<path class="st6" d="M1377.3-1499.2h3.4v8.1h9.4v-8.1h3.4v19.6h-3.4v-8.3h-9.4v8.3h-3.4V-1499.2z"/>
			<path class="st6" d="M1203.5-1454.2h3.4v8.1h9.4v-8.1h3.4v19.6h-3.4v-8.3h-9.4v8.3h-3.4V-1454.2z"/>
			<path class="st6" d="M1225.4-1454.2h14.5v3.1h-11.1v5.1h9.8v3.1h-9.8v5.3h11.3v3.1h-14.7V-1454.2z"/>
			<path class="st6" d="M1251.8-1454.4h3.2l8.6,19.7h-3.6l-2-4.7h-9.3l-2,4.7h-3.5L1251.8-1454.4z M1256.8-1442.4l-3.4-7.8l-3.4,7.8
				H1256.8z"/>
			<path class="st6" d="M1267.7-1454.2h7.3c6.2,0,10.4,4.2,10.4,9.7v0.1c0,5.5-4.3,9.8-10.4,9.8h-7.3V-1454.2z M1275-1437.8
				c4.1,0,6.8-2.8,6.8-6.6v-0.1c0-3.8-2.7-6.7-6.8-6.7h-3.9v13.3L1275-1437.8L1275-1437.8z"/>
			<path class="st6" d="M1290.3-1454.2h3.4v16.5h10.4v3.1h-13.7L1290.3-1454.2L1290.3-1454.2z"/>
			<path class="st6" d="M1308.5-1454.2h3.4v19.6h-3.4V-1454.2z"/>
			<path class="st6" d="M1317.9-1454.2h3.2l10.5,13.6v-13.6h3.4v19.6h-2.9l-10.8-13.9v13.9h-3.4V-1454.2L1317.9-1454.2z"/>
			<path class="st6" d="M1340.7-1454.2h14.5v3.1h-11.1v5.1h9.8v3.1h-9.8v5.3h11.2v3.1h-14.7L1340.7-1454.2L1340.7-1454.2z"/>
		</g>
	</g>
</g>
<g>
	<g>
		<circle class="st8" cx="1572.7" cy="-651.1" r="9.7"/>
		<g>
			<rect x="1451.9" y="-653.1" class="st8" width="121.2" height="4"/>
		</g>
	</g>
	<path class="st8" d="M1461.5-599h-367.2c-3.5,0-6.4-2.8-6.4-6.4v-91.5c0-3.5,2.8-6.4,6.4-6.4h367.2c3.5,0,6.4,2.8,6.4,6.4v91.5
		C1467.8-601.8,1465-599,1461.5-599z"/>
	<g>
		<g>
			<path class="st6" d="M1141.6-650.5L1141.6-650.5c0-5.5,4.2-10.2,10.1-10.2c3.4,0,5.5,1,7.5,2.7l-2.2,2.6c-1.5-1.3-3-2.1-5.5-2.1
				c-3.6,0-6.4,3.2-6.4,6.9v0.1c0,4,2.7,7,6.7,7c1.8,0,3.5-0.6,4.7-1.5v-3.7h-5v-3h8.3v8.2c-1.9,1.7-4.7,3.1-8.2,3.1
				C1145.6-640.4,1141.6-644.8,1141.6-650.5z"/>
			<path class="st6" d="M1165.1-660.3h14.5v3.1h-11.1v5.1h9.8v3.1h-9.8v5.3h11.2v3.1h-14.6L1165.1-660.3L1165.1-660.3z"/>
			<path class="st6" d="M1189.4-657.1h-6.2v-3.2h15.9v3.2h-6.2v16.4h-3.5V-657.1z"/>
			<path class="st6" d="M1211.2-643.6l2.1-2.5c1.9,1.6,3.8,2.5,6.2,2.5c2.1,0,3.5-1,3.5-2.5v-0.1c0-1.4-0.8-2.2-4.4-3
				c-4.2-1-6.5-2.2-6.5-5.9v-0.1c0-3.4,2.8-5.7,6.7-5.7c2.9,0,5.1,0.9,7.1,2.5l-1.8,2.6c-1.8-1.3-3.5-2-5.3-2c-2,0-3.2,1-3.2,2.3
				v0.1c0,1.5,0.9,2.2,4.6,3.1c4.1,1,6.3,2.5,6.3,5.7v0.1c0,3.7-2.9,5.9-7,5.9C1216.4-640.5,1213.5-641.5,1211.2-643.6z"/>
			<path class="st6" d="M1235.5-657.1h-6.2v-3.2h15.9v3.2h-6.2v16.4h-3.5V-657.1L1235.5-657.1z"/>
			<path class="st6" d="M1254-660.5h3.2l8.6,19.7h-3.6l-2-4.7h-9.3l-2,4.7h-3.5L1254-660.5z M1258.9-648.5l-3.4-7.8l-3.4,7.8H1258.9
				z"/>
			<path class="st6" d="M1269.9-660.3h8.7c2.5,0,4.4,0.7,5.7,2c1,1.1,1.6,2.5,1.6,4.2v0.1c0,3.2-1.9,5.2-4.7,5.9l5.3,7.4h-4.1
				l-4.8-6.8h-4.3v6.8h-3.4V-660.3L1269.9-660.3z M1278.3-650.6c2.5,0,4-1.3,4-3.3v-0.1c0-2.1-1.5-3.2-4.1-3.2h-5v6.6H1278.3z"/>
			<path class="st6" d="M1295.5-657.1h-6.2v-3.2h15.9v3.2h-6.2v16.4h-3.5V-657.1L1295.5-657.1z"/>
			<path class="st6" d="M1309.6-660.3h14.5v3.1H1313v5.1h9.8v3.1h-9.8v5.3h11.2v3.1h-14.7L1309.6-660.3L1309.6-660.3z"/>
			<path class="st6" d="M1329-660.3h7.3c6.2,0,10.4,4.2,10.4,9.7v0.1c0,5.5-4.3,9.8-10.4,9.8h-7.3V-660.3z M1336.3-643.9
				c4.1,0,6.8-2.8,6.8-6.6v-0.1c0-3.8-2.7-6.7-6.8-6.7h-3.9v13.3L1336.3-643.9L1336.3-643.9z"/>
			<path class="st6" d="M1359.8-650.5L1359.8-650.5c0-5.6,4.2-10.2,10.1-10.2c3.6,0,5.8,1.3,7.7,3.1l-2.2,2.5
				c-1.6-1.5-3.2-2.4-5.5-2.4c-3.8,0-6.5,3.1-6.5,6.9v0.1c0,3.8,2.7,7,6.5,7c2.4,0,3.9-1,5.6-2.5l2.2,2.2c-2,2.1-4.3,3.5-8,3.5
				C1364.1-640.4,1359.8-644.9,1359.8-650.5z"/>
			<path class="st6" d="M1386.9-657.1h-6.2v-3.2h15.9v3.2h-6.2v16.4h-3.5V-657.1L1386.9-657.1z"/>
			<path class="st6" d="M1405.3-660.5h3.2l8.6,19.7h-3.6l-2-4.7h-9.3l-2,4.7h-3.5L1405.3-660.5z M1410.3-648.5l-3.4-7.8l-3.4,7.8
				H1410.3z"/>
		</g>
	</g>
</g>
<g>
	<g>
		<circle class="st8" cx="1572.7" cy="525" r="9.7"/>
		<g>
			<rect x="1451.9" y="523" class="st8" width="121.2" height="4"/>
		</g>
	</g>
	<path class="st8" d="M1461.5,577.1h-367.2c-3.5,0-6.4-2.8-6.4-6.4v-91.5c0-3.5,2.8-6.4,6.4-6.4h367.2c3.5,0,6.4,2.8,6.4,6.4v91.5
		C1467.8,574.3,1465,577.1,1461.5,577.1z"/>
	<g>
		<g>
			<path class="st6" d="M1200.9,515.8h14.6v3.1h-11.1v5.3h9.9v3.1h-9.9v8h-3.4L1200.9,515.8L1200.9,515.8z"/>
			<path class="st6" d="M1220.1,515.8h3.4v19.6h-3.4V515.8z"/>
			<path class="st6" d="M1229.5,515.8h3.2l10.5,13.6v-13.6h3.4v19.6h-2.9l-10.8-13.9v13.9h-3.4V515.8L1229.5,515.8z"/>
			<path class="st6" d="M1259.3,515.6h3.2l8.6,19.7h-3.6l-2-4.7h-9.3l-2,4.7h-3.5L1259.3,515.6z M1264.2,527.6l-3.4-7.8l-3.4,7.8
				H1264.2z"/>
			<path class="st6" d="M1275.2,515.8h3.4v16.5h10.3v3.1h-13.7V515.8L1275.2,515.8z"/>
			<path class="st6" d="M1301.4,525.6L1301.4,525.6c0-5.6,4.2-10.2,10.1-10.2c3.6,0,5.8,1.3,7.7,3.1l-2.2,2.5
				c-1.6-1.5-3.2-2.4-5.5-2.4c-3.8,0-6.5,3.1-6.5,6.9v0.1c0,3.8,2.7,7,6.5,7c2.4,0,3.9-1,5.6-2.5l2.2,2.2c-2,2.1-4.3,3.5-8,3.5
				C1305.7,535.7,1301.4,531.2,1301.4,525.6z"/>
			<path class="st6" d="M1328.5,518.9h-6.2v-3.2h15.9v3.2h-6.2v16.4h-3.5V518.9L1328.5,518.9z"/>
			<path class="st6" d="M1346.9,515.6h3.2l8.6,19.7h-3.6l-2-4.7h-9.3l-2,4.7h-3.5L1346.9,515.6z M1351.9,527.6l-3.4-7.8l-3.4,7.8
				H1351.9z"/>
		</g>
	</g>
</g>
<g>
	<g>
		<circle class="st9" cx="1572.7" cy="-330.8" r="9.7"/>
		<g>
			<rect x="1461.8" y="-332.8" class="st9" width="111.2" height="4"/>
		</g>
	</g>
	<path class="st9" d="M1461.5-278.7h-367.2c-3.5,0-6.4-2.8-6.4-6.4v-91.5c0-3.5,2.8-6.4,6.4-6.4h367.2c3.5,0,6.4,2.8,6.4,6.4v91.5
		C1467.8-281.5,1465-278.7,1461.5-278.7z"/>
	<g>
		<g>
			<path class="st6" d="M1175-340.1h14.6v3.1h-11.1v5.3h9.9v3.1h-9.9v8h-3.4L1175-340.1L1175-340.1L1175-340.1z"/>
			<path class="st6" d="M1194-340.1h14.5v3.1h-11.1v5.1h9.8v3.1h-9.8v5.3h11.2v3.1h-14.7L1194-340.1L1194-340.1L1194-340.1z"/>
			<path class="st6" d="M1220.4-340.2h3.2l8.6,19.7h-3.6l-2-4.7h-9.3l-2,4.7h-3.5L1220.4-340.2z M1225.4-328.3l-3.4-7.8l-3.4,7.8
				H1225.4z"/>
			<path class="st6" d="M1238.6-336.9h-6.2v-3.2h15.9v3.2h-6.2v16.4h-3.5V-336.9z"/>
			<path class="st6" d="M1252.3-328.8v-11.3h3.4v11.1c0,3.6,1.9,5.6,5,5.6c3.1,0,4.9-1.8,4.9-5.5v-11.3h3.4v11.1
				c0,5.9-3.3,8.8-8.4,8.8C1255.6-320.2,1252.3-323.1,1252.3-328.8z"/>
			<path class="st6" d="M1274.5-340.1h8.7c2.5,0,4.4,0.7,5.7,2c1,1.1,1.6,2.5,1.6,4.2v0.1c0,3.2-1.9,5.2-4.7,5.9l5.3,7.4h-4
				l-4.8-6.8h-4.3v6.8h-3.4L1274.5-340.1L1274.5-340.1L1274.5-340.1z M1283-330.4c2.5,0,4-1.3,4-3.3v-0.1c0-2.1-1.5-3.2-4.1-3.2h-5
				v6.6H1283z"/>
			<path class="st6" d="M1295.5-340.1h14.5v3.1h-11.1v5.1h9.8v3.1h-9.8v5.3h11.2v3.1h-14.7L1295.5-340.1L1295.5-340.1z"/>
			<path class="st6" d="M1324-340.1h3.4v16.5h10.3v3.1H1324V-340.1L1324-340.1z"/>
			<path class="st6" d="M1342.3-340.1h3.4v19.6h-3.4V-340.1z"/>
			<path class="st6" d="M1350.3-323.3l2.1-2.5c1.9,1.6,3.8,2.5,6.2,2.5c2.1,0,3.5-1,3.5-2.5v-0.1c0-1.4-0.8-2.2-4.4-3
				c-4.2-1-6.5-2.2-6.5-5.9v-0.1c0-3.4,2.8-5.7,6.7-5.7c2.9,0,5.1,0.9,7.1,2.5l-1.8,2.6c-1.8-1.3-3.5-2-5.3-2c-2,0-3.2,1-3.2,2.3
				v0.1c0,1.5,0.9,2.2,4.6,3.1c4.1,1,6.3,2.5,6.3,5.7v0.1c0,3.7-2.9,5.9-7,5.9C1355.5-320.2,1352.7-321.2,1350.3-323.3z"/>
			<path class="st6" d="M1374.7-336.9h-6.2v-3.2h15.9v3.2h-6.3v16.4h-3.5L1374.7-336.9L1374.7-336.9z"/>
		</g>
	</g>
</g>
<g>
	<g>
		<circle class="st10" cx="1572.7" cy="-1257.4" r="9.7"/>
		<g>
			<rect x="1461.8" y="-1259.4" class="st10" width="111.2" height="4"/>
		</g>
	</g>
	<path class="st10" d="M1461.5-1205.3h-367.2c-3.5,0-6.4-2.8-6.4-6.4v-91.5c0-3.5,2.8-6.4,6.4-6.4h367.2c3.5,0,6.4,2.8,6.4,6.4v91.5
		C1467.8-1208.1,1465-1205.3,1461.5-1205.3z"/>
	<g>
		<g>
			<path class="st6" d="M1161.5-1262.1c0-3.1,1.5-4.4,4.3-4.6l0.4,1.5c-1.7,0.3-2.5,1.2-2.4,2.6h1.4v3.9h-3.7V-1262.1z M1168-1262.1
				c0-3.1,1.5-4.4,4.3-4.6l0.4,1.5c-1.7,0.3-2.5,1.2-2.4,2.6h1.5v3.9h-3.7L1168-1262.1L1168-1262.1z"/>
			<path class="st6" d="M1175.4-1266.6h3.7l4.7,14.5l4.8-14.6h2.9l4.8,14.6l4.7-14.5h3.6l-6.8,19.7h-3l-4.8-14.1l-4.8,14.1h-3
				L1175.4-1266.6z"/>
			<path class="st6" d="M1208.9-1266.6h3.4v8.1h9.4v-8.1h3.4v19.6h-3.4v-8.3h-9.4v8.3h-3.4V-1266.6z"/>
			<path class="st6" d="M1237.8-1266.8h3.2l8.6,19.7h-3.6l-2-4.7h-9.3l-2,4.7h-3.5L1237.8-1266.8z M1242.8-1254.8l-3.4-7.8l-3.4,7.8
				H1242.8z"/>
			<path class="st6" d="M1256-1263.4h-6.2v-3.2h15.9v3.2h-6.2v16.4h-3.5V-1263.4L1256-1263.4z"/>
			<path class="st6" d="M1277.6-1266.6h3.7l4.7,14.5l4.8-14.6h2.9l4.8,14.6l4.7-14.5h3.6l-6.8,19.7h-3l-4.8-14.1l-4.8,14.1h-3
				L1277.6-1266.6z"/>
			<path class="st6" d="M1311.1-1266.6h14.5v3.1h-11.1v5.1h9.8v3.1h-9.8v5.3h11.2v3.1h-14.6L1311.1-1266.6L1311.1-1266.6z"/>
			<path class="st6" d="M1339.6-1266.6h7.3c6.2,0,10.4,4.2,10.4,9.7v0.1c0,5.5-4.3,9.8-10.4,9.8h-7.3V-1266.6z M1346.9-1250.2
				c4.1,0,6.8-2.8,6.8-6.6v-0.1c0-3.8-2.7-6.7-6.8-6.7h-3.8v13.3L1346.9-1250.2L1346.9-1250.2z"/>
			<path class="st6" d="M1361.4-1256.8L1361.4-1256.8c0-5.6,4.3-10.2,10.3-10.2s10.2,4.6,10.2,10.1v0.1c0,5.5-4.3,10.1-10.3,10.1
				C1365.6-1246.7,1361.4-1251.3,1361.4-1256.8z M1378.2-1256.8L1378.2-1256.8c0-3.9-2.8-7-6.7-7s-6.6,3.1-6.6,6.9v0.1
				c0,3.8,2.8,7,6.7,7C1375.5-1249.8,1378.2-1253,1378.2-1256.8z"/>
			<path class="st6" d="M1385.3-1260.2c1.7-0.3,2.5-1.2,2.4-2.6h-1.4v-3.8h3.7v3.3c0,3.1-1.5,4.4-4.3,4.6L1385.3-1260.2z
				 M1391.8-1260.2c1.7-0.3,2.5-1.2,2.4-2.6h-1.4v-3.8h3.7v3.3c0,3.1-1.5,4.4-4.3,4.6L1391.8-1260.2z"/>
		</g>
	</g>
</g>
<line class="st11" x1="1524.7" y1="-513.8" x2="2587.9" y2="-513.8"/>
<line class="st11" x1="1524.7" y1="297.7" x2="2587.9" y2="297.7"/>
<line class="st11" x1="1524.7" y1="-154" x2="2587.9" y2="-154"/>
<g>
	<g>
		<path d="M1448.2-1744l4-4.8c2.8,2.3,5.7,3.7,9.2,3.7c2.8,0,4.4-1.1,4.4-2.9v-0.1c0-1.7-1.1-2.6-6.2-3.9
			c-6.2-1.6-10.2-3.3-10.2-9.4v-0.1c0-5.6,4.5-9.3,10.8-9.3c4.5,0,8.3,1.4,11.4,3.9l-3.5,5.1c-2.7-1.9-5.4-3-8-3c-2.6,0-4,1.2-4,2.7
			v0.1c0,2,1.3,2.7,6.6,4c6.2,1.6,9.8,3.9,9.8,9.2v0.1c0,6.1-4.7,9.5-11.3,9.5C1456.5-1739.1,1451.9-1740.7,1448.2-1744z"/>
		<path d="M1476.5-1746.3L1476.5-1746.3c0-5.2,3.9-7.6,9.5-7.6c2.4,0,4.1,0.4,5.8,1v-0.5c0-2.8-1.7-4.3-5.1-4.3
			c-2.6,0-4.4,0.5-6.5,1.3l-1.7-5.1c2.6-1.1,5.1-1.9,9.2-1.9c3.7,0,6.3,1,8,2.6c1.8,1.8,2.6,4.4,2.6,7.5v13.7h-6.5v-2.6
			c-1.6,1.8-3.9,3-7.1,3C1480.1-1739.1,1476.5-1741.6,1476.5-1746.3z M1491.8-1747.9v-1.2c-1.1-0.5-2.6-0.9-4.3-0.9
			c-2.9,0-4.6,1.1-4.6,3.3v0.1c0,1.8,1.5,2.9,3.7,2.9C1489.7-1743.7,1491.8-1745.4,1491.8-1747.9z"/>
		<path d="M1502.7-1746.3L1502.7-1746.3c0-5.2,3.9-7.6,9.5-7.6c2.4,0,4.1,0.4,5.8,1v-0.5c0-2.8-1.7-4.3-5.1-4.3
			c-2.6,0-4.4,0.5-6.5,1.3l-1.7-5.1c2.6-1.1,5.1-1.9,9.2-1.9c3.7,0,6.3,1,8,2.6c1.8,1.8,2.6,4.4,2.6,7.5v13.7h-6.5v-2.6
			c-1.6,1.8-3.9,3-7.1,3C1506.4-1739.1,1502.7-1741.6,1502.7-1746.3z M1518.1-1747.9v-1.2c-1.1-0.5-2.6-0.9-4.3-0.9
			c-2.9,0-4.6,1.1-4.6,3.3v0.1c0,1.8,1.5,2.9,3.7,2.9C1516-1743.7,1518.1-1745.4,1518.1-1747.9z"/>
		<path d="M1529-1744l4-4.8c2.8,2.3,5.7,3.7,9.2,3.7c2.8,0,4.4-1.1,4.4-2.9v-0.1c0-1.7-1.1-2.6-6.2-3.9c-6.2-1.6-10.2-3.3-10.2-9.4
			v-0.1c0-5.6,4.5-9.3,10.8-9.3c4.5,0,8.3,1.4,11.4,3.9l-3.5,5.1c-2.7-1.9-5.4-3-8-3s-4,1.2-4,2.7v0.1c0,2,1.3,2.7,6.6,4
			c6.2,1.6,9.8,3.9,9.8,9.2v0.1c0,6.1-4.7,9.5-11.3,9.5C1537.4-1739.1,1532.7-1740.7,1529-1744z"/>
		<path d="M1572.9-1770.3h23.5v6.2h-16.7v6.6h14.7v6.2h-14.7v11.9h-6.8V-1770.3z"/>
		<path d="M1601.3-1763.1h6.7v4.8c1.4-3.3,3.6-5.4,7.5-5.2v7h-0.4c-4.4,0-7.2,2.7-7.2,8.3v8.7h-6.7L1601.3-1763.1L1601.3-1763.1z"/>
		<path d="M1618.1-1751.2L1618.1-1751.2c0-6.8,4.8-12.4,11.7-12.4c7.9,0,11.5,6.1,11.5,12.8c0,0.5,0,1.1-0.1,1.8h-16.4
			c0.7,3,2.8,4.6,5.8,4.6c2.2,0,3.9-0.7,5.7-2.4l3.8,3.4c-2.2,2.7-5.4,4.4-9.6,4.4C1623.3-1739,1618.1-1744,1618.1-1751.2z
			 M1634.7-1753.2c-0.4-3-2.2-5-5-5s-4.6,2-5.1,5H1634.7z"/>
		<path d="M1645.3-1751.2L1645.3-1751.2c0-6.8,4.8-12.4,11.7-12.4c7.9,0,11.5,6.1,11.5,12.8c0,0.5,0,1.1-0.1,1.8H1652
			c0.7,3,2.8,4.6,5.8,4.6c2.2,0,3.9-0.7,5.7-2.4l3.8,3.4c-2.2,2.7-5.4,4.4-9.6,4.4C1650.5-1739,1645.3-1744,1645.3-1751.2z
			 M1661.9-1753.2c-0.4-3-2.2-5-5-5s-4.6,2-5.1,5H1661.9z"/>
		<path d="M1694.9-1764.1h-9.4v-6.2h25.5v6.2h-9.4v24.6h-6.8v-24.6H1694.9z"/>
		<path d="M1713.1-1763.1h6.7v4.8c1.4-3.3,3.6-5.4,7.5-5.2v7h-0.3c-4.4,0-7.2,2.7-7.2,8.3v8.7h-6.7V-1763.1z"/>
		<path d="M1731.9-1771.7h7v5.9h-7V-1771.7z M1732.1-1763.1h6.7v23.6h-6.7V-1763.1z"/>
		<path d="M1743.9-1746.3L1743.9-1746.3c0-5.2,3.9-7.6,9.5-7.6c2.4,0,4.1,0.4,5.8,1v-0.5c0-2.8-1.7-4.3-5.1-4.3
			c-2.6,0-4.4,0.5-6.5,1.3l-1.7-5.1c2.6-1.1,5.1-1.9,9.2-1.9c3.7,0,6.3,1,8,2.6c1.8,1.8,2.6,4.4,2.6,7.5v13.7h-6.5v-2.6
			c-1.6,1.8-3.9,3-7.1,3C1747.5-1739.1,1743.9-1741.6,1743.9-1746.3z M1759.2-1747.9v-1.2c-1.1-0.5-2.6-0.9-4.3-0.9
			c-2.9,0-4.6,1.1-4.6,3.3v0.1c0,1.8,1.5,2.9,3.7,2.9C1757.1-1743.7,1759.2-1745.4,1759.2-1747.9z"/>
		<path d="M1771.8-1771.7h6.7v32.1h-6.7V-1771.7z"/>
		<path d="M1799.2-1770.3h12.6c7.3,0,11.8,4.4,11.8,10.6v0.1c0,7.1-5.5,10.8-12.5,10.8h-5.1v9.2h-6.8V-1770.3z M1811.3-1754.8
			c3.4,0,5.4-2,5.4-4.7v-0.1c0-3-2.1-4.7-5.5-4.7h-5.2v9.4L1811.3-1754.8L1811.3-1754.8z"/>
		<path d="M1826.2-1746.3L1826.2-1746.3c0-5.2,3.9-7.6,9.5-7.6c2.4,0,4.1,0.4,5.8,1v-0.5c0-2.8-1.7-4.3-5.1-4.3
			c-2.6,0-4.4,0.5-6.5,1.3l-1.7-5.1c2.6-1.1,5.1-1.9,9.2-1.9c3.7,0,6.3,1,8,2.6c1.8,1.8,2.6,4.4,2.6,7.5v13.7h-6.5v-2.6
			c-1.6,1.8-3.9,3-7.1,3C1829.9-1739.1,1826.2-1741.6,1826.2-1746.3z M1841.6-1747.9v-1.2c-1.1-0.5-2.6-0.9-4.3-0.9
			c-2.9,0-4.6,1.1-4.6,3.3v0.1c0,1.8,1.5,2.9,3.7,2.9C1839.5-1743.7,1841.6-1745.4,1841.6-1747.9z"/>
		<path d="M1854-1734.9l2.3-5c2.4,1.4,4.8,2.2,8,2.2c4.6,0,6.7-2.2,6.7-6.4v-1.1c-2,2.4-4.1,3.8-7.7,3.8c-5.5,0-10.5-4-10.5-11v-0.1
			c0-7,5.1-11,10.5-11c3.7,0,5.8,1.5,7.6,3.5v-3.1h6.7v18.3c0,4.2-1,7.3-3,9.3c-2.2,2.2-5.6,3.2-10.2,3.2
			C1860.6-1732.4,1857-1733.3,1854-1734.9z M1871-1752.5L1871-1752.5c0-3.3-2.5-5.5-5.8-5.5s-5.7,2.2-5.7,5.5v0.1
			c0,3.3,2.5,5.5,5.7,5.5C1868.5-1747,1871-1749.3,1871-1752.5z"/>
		<path d="M1882.7-1751.2L1882.7-1751.2c0-6.8,4.8-12.4,11.7-12.4c7.9,0,11.5,6.1,11.5,12.8c0,0.5,0,1.1-0.1,1.8h-16.4
			c0.7,3,2.8,4.6,5.8,4.6c2.2,0,3.9-0.7,5.7-2.4l3.8,3.4c-2.2,2.7-5.4,4.4-9.6,4.4C1887.9-1739,1882.7-1744,1882.7-1751.2z
			 M1899.3-1753.2c-0.4-3-2.2-5-5-5s-4.6,2-5.1,5H1899.3z"/>
		<path d="M1932.3-1764.1h-9.4v-6.2h25.5v6.2h-9.4v24.6h-6.8L1932.3-1764.1L1932.3-1764.1z"/>
		<path d="M1947.4-1751.2L1947.4-1751.2c0-6.8,4.8-12.4,11.7-12.4c7.9,0,11.5,6.1,11.5,12.8c0,0.5,0,1.1-0.1,1.8H1954
			c0.7,3,2.8,4.6,5.8,4.6c2.2,0,3.9-0.7,5.7-2.4l3.8,3.4c-2.2,2.7-5.4,4.4-9.6,4.4C1952.6-1739,1947.4-1744,1947.4-1751.2z
			 M1964-1753.2c-0.4-3-2.2-5-5-5s-4.6,2-5.1,5H1964z"/>
		<path d="M1975.7-1763.1h6.7v3.3c1.5-2,3.6-3.8,7-3.8c3.1,0,5.4,1.4,6.6,3.7c2.1-2.4,4.5-3.7,7.7-3.7c5,0,8,3,8,8.7v15.4h-6.7
			v-13.2c0-3.2-1.4-4.8-3.9-4.8s-4,1.6-4,4.8v13.2h-6.7v-13.2c0-3.2-1.4-4.8-3.9-4.8s-4,1.6-4,4.8v13.2h-6.7L1975.7-1763.1
			L1975.7-1763.1z"/>
		<path d="M2017.8-1763.1h6.7v3.4c1.6-2.2,3.9-3.8,7.3-3.8c5.5,0,10.7,4.3,10.7,12.2v0.1c0,7.9-5.1,12.2-10.7,12.2
			c-3.6,0-5.8-1.6-7.3-3.5v10.1h-6.7V-1763.1z M2035.8-1751.3L2035.8-1751.3c0-4-2.6-6.6-5.8-6.6c-3.1,0-5.7,2.6-5.7,6.5v0.1
			c0,3.9,2.6,6.5,5.7,6.5C2033.2-1744.8,2035.8-1747.3,2035.8-1751.3z"/>
		<path d="M2048-1771.7h6.7v32.1h-6.7V-1771.7z"/>
		<path d="M2059.8-1746.3L2059.8-1746.3c0-5.2,3.9-7.6,9.5-7.6c2.4,0,4.1,0.4,5.8,1v-0.5c0-2.8-1.7-4.3-5.1-4.3
			c-2.6,0-4.4,0.5-6.5,1.3l-1.7-5.1c2.6-1.1,5.1-1.9,9.2-1.9c3.7,0,6.3,1,8,2.6c1.8,1.8,2.6,4.4,2.6,7.5v13.7h-6.5v-2.6
			c-1.6,1.8-3.9,3-7.1,3C2063.4-1739.1,2059.8-1741.6,2059.8-1746.3z M2075.1-1747.9v-1.2c-1.1-0.5-2.6-0.9-4.3-0.9
			c-2.9,0-4.6,1.1-4.6,3.3v0.1c0,1.8,1.5,2.9,3.7,2.9C2073-1743.7,2075.1-1745.4,2075.1-1747.9z"/>
		<path d="M2088.3-1746.2v-11.2h-2.8v-5.7h2.8v-6h6.7v6h5.5v5.7h-5.5v10.1c0,1.5,0.7,2.3,2.2,2.3c1.2,0,2.3-0.3,3.3-0.8v5.4
			c-1.4,0.8-3,1.4-5.3,1.4C2091.1-1739.1,2088.3-1740.8,2088.3-1746.2z"/>
		<path d="M2103.9-1751.2L2103.9-1751.2c0-6.8,4.8-12.4,11.7-12.4c7.9,0,11.5,6.1,11.5,12.8c0,0.5,0,1.1-0.1,1.8h-16.4
			c0.7,3,2.8,4.6,5.8,4.6c2.2,0,3.9-0.7,5.7-2.4l3.8,3.4c-2.2,2.7-5.4,4.4-9.6,4.4C2109.1-1739,2103.9-1744,2103.9-1751.2z
			 M2120.5-1753.2c-0.4-3-2.2-5-5-5s-4.6,2-5.1,5H2120.5z"/>
	</g>
</g>
<g>
	<g>
		<path class="st12" d="M2497.6-740.1H1659c-4.7,0-8.5-3.8-8.5-8.5v-387.5c0-4.7,3.8-8.5,8.5-8.5h838.5c4.7,0,8.5,3.8,8.5,8.5v387.5
			C2506-743.9,2502.2-740.1,2497.6-740.1z"/>
	</g>
	<g>
		<g>
			<path class="st13" d="M2202-850h-247.5v-185.1H2202V-850z M1956.6-852H2200v-181.1h-243.5L1956.6-852L1956.6-852z"/>
		</g>
		<g>
			<path class="st13" d="M2202-850h-247.5v-185.1H2202V-850z M1956.6-852H2200v-181.1h-243.5L1956.6-852L1956.6-852z"/>
		</g>
		<g>
			<polygon class="st13" points="2027.6,-850.3 2026.2,-851.7 2163,-988.5 2201.7,-949.7 2200.3,-948.3 2163,-985.6 			"/>
		</g>
		<g>
			<polygon class="st13" points="1956.7,-849.9 1955.2,-851.3 2055.2,-951.2 2091.2,-915.2 2089.8,-913.8 2055.2,-948.4 			"/>
		</g>
		<g>
			<path class="st13" d="M2007.7-962.3c-11.1,0-20.2-9.1-20.2-20.2c0-11.1,9.1-20.2,20.2-20.2s20.2,9.1,20.2,20.2
				C2027.9-971.4,2018.8-962.3,2007.7-962.3z M2007.7-1000.7c-10,0-18.2,8.2-18.2,18.2s8.2,18.2,18.2,18.2s18.2-8.2,18.2-18.2
				S2017.7-1000.7,2007.7-1000.7z"/>
		</g>
	</g>
</g>
<g>
	<rect x="1706" y="-1223" class="st12" width="744.2" height="16.7"/>
	<rect x="1650.6" y="-1265.7" class="st12" width="855.5" height="16.7"/>
	<rect x="1650.6" y="-1308.4" class="st12" width="855.5" height="16.7"/>
</g>
<rect x="1809.4" y="-1423.4" class="st12" width="537.5" height="29"/>
<rect x="1650.4" y="-1496.5" class="st12" width="855.5" height="29"/>
<rect x="1649.1" y="400" class="st12" width="856.3" height="26.4"/>
<g>
	<g>
		<rect x="1924.8" y="54.1" class="st12" width="455.5" height="16.7"/>
		<rect x="1924.8" y="12" class="st12" width="396.9" height="16.7"/>
	</g>
	<g>
		<path class="st14" d="M1802.5-21.3c0-23.6,11.8-33.1,33.1-33.4l2.3,11.3c-12.3,1.3-18.4,7.5-17.5,17.7h11.1V2.9h-29V-21.3
			L1802.5-21.3z M1847.9-21.3c0-23.6,11.8-33.1,33.1-33.4l2.3,11.3c-12.3,1.3-18.4,7.5-17.5,17.7h11.1V2.9h-29V-21.3L1847.9-21.3z"
			/>
	</g>
	<g>
		<path class="st14" d="M2460,94.9c0,23.6-11.8,33.1-33.1,33.4l-2.3-11.3c12.3-1.3,18.4-7.5,17.5-17.7H2431V70.7h29V94.9z
			 M2505.4,94.9c0,23.6-11.8,33.1-33.1,33.4L2470,117c12.3-1.3,18.4-7.5,17.5-17.7h-11.1V70.7h29V94.9z"/>
	</g>
</g>
<g>
	<path class="st8" d="M2296.7-613h-437.1c-3.5,0-6.4-2.8-6.4-6.4v-63.5c0-3.5,2.8-6.4,6.4-6.4h437.2c3.5,0,6.4,2.8,6.4,6.4v63.5
		C2303.1-615.8,2300.3-613,2296.7-613z"/>
	<g>
		<g>
			<path class="st6" d="M1976.4-650.5L1976.4-650.5c0-5.6,4.3-10.2,10.3-10.2c3.5,0,5.7,1,7.7,2.7l-2.7,3.3c-1.5-1.3-2.9-2-5.1-2
				c-3.1,0-5.6,2.8-5.6,6.1v0.1c0,3.6,2.5,6.2,5.9,6.2c1.6,0,3-0.4,4.1-1.2v-2.8h-4.3v-3.7h8.5v8.5c-2,1.7-4.8,3.1-8.4,3.1
				C1980.6-640.4,1976.4-644.7,1976.4-650.5z"/>
			<path class="st6" d="M2000-660.3h14.8v3.8h-10.5v4h9.2v3.8h-9.2v4.1h10.6v3.8H2000V-660.3z"/>
			<path class="st6" d="M2024-656.4h-6v-4h16.2v4h-6v15.6h-4.3v-15.6H2024z"/>
			<path class="st6" d="M2046-643.6l2.5-3.1c1.8,1.5,3.6,2.4,5.9,2.4c1.8,0,2.8-0.7,2.8-1.8v-0.1c0-1.1-0.7-1.7-3.9-2.5
				c-3.9-1-6.5-2.1-6.5-6v-0.1c0-3.6,2.9-5.9,6.9-5.9c2.9,0,5.3,0.9,7.3,2.5l-2.2,3.2c-1.7-1.2-3.4-1.9-5.1-1.9s-2.5,0.8-2.5,1.7
				v0.1c0,1.3,0.8,1.7,4.2,2.6c4,1,6.2,2.5,6.2,5.9v0.1c0,3.9-3,6.1-7.2,6.1C2051.4-640.5,2048.4-641.5,2046-643.6z"/>
			<path class="st6" d="M2070.1-656.4h-6v-4h16.2v4h-6v15.6h-4.3v-15.6H2070.1z"/>
			<path class="st6" d="M2088.6-660.5h4l8.4,19.7h-4.5l-1.8-4.4h-8.3l-1.8,4.4h-4.4L2088.6-660.5z M2093.1-648.9l-2.6-6.4l-2.6,6.4
				H2093.1z"/>
			<path class="st6" d="M2104.7-660.3h9c2.5,0,4.4,0.7,5.7,2c1.1,1.1,1.7,2.6,1.7,4.5v0.1c0,3.2-1.7,5.2-4.2,6.1l4.8,7h-5l-4.2-6.3
				h-3.4v6.3h-4.3L2104.7-660.3L2104.7-660.3z M2113.4-650.8c2.1,0,3.3-1.1,3.3-2.8v-0.1c0-1.8-1.3-2.8-3.4-2.8h-4.3v5.6
				L2113.4-650.8L2113.4-650.8z"/>
			<path class="st6" d="M2130.1-656.4h-6v-4h16.2v4h-6v15.6h-4.3v-15.6H2130.1z"/>
			<path class="st6" d="M2144.4-660.3h14.8v3.8h-10.5v4h9.2v3.8h-9.2v4.1h10.6v3.8h-14.9V-660.3z"/>
			<path class="st6" d="M2163.9-660.3h7.6c6.2,0,10.4,4.2,10.4,9.7v0.1c0,5.5-4.3,9.8-10.4,9.8h-7.6V-660.3z M2171.5-644.6
				c3.5,0,5.9-2.4,5.9-5.9v-0.1c0-3.5-2.4-5.9-5.9-5.9h-3.3v11.8L2171.5-644.6L2171.5-644.6z"/>
		</g>
	</g>
</g>
<g>
	<path class="st8" d="M2296.7,563.1h-437.1c-3.5,0-6.4-2.8-6.4-6.4v-63.5c0-3.5,2.8-6.4,6.4-6.4h437.2c3.5,0,6.4,2.8,6.4,6.4v63.5
		C2303.1,560.3,2300.3,563.1,2296.7,563.1z"/>
	<g>
		<g>
			<path class="st6" d="M1976.4,525.6L1976.4,525.6c0-5.6,4.3-10.2,10.3-10.2c3.5,0,5.7,1,7.7,2.7l-2.7,3.3c-1.5-1.3-2.9-2-5.1-2
				c-3.1,0-5.6,2.8-5.6,6.1v0.1c0,3.6,2.5,6.2,5.9,6.2c1.6,0,3-0.4,4.1-1.2v-2.8h-4.3v-3.7h8.5v8.5c-2,1.7-4.8,3.1-8.4,3.1
				C1980.6,535.7,1976.4,531.4,1976.4,525.6z"/>
			<path class="st6" d="M2000,515.8h14.8v3.8h-10.5v4h9.2v3.8h-9.2v4.1h10.6v3.8H2000V515.8z"/>
			<path class="st6" d="M2024,519.7h-6v-4h16.2v4h-6v15.6h-4.3v-15.6H2024z"/>
			<path class="st6" d="M2046,532.5l2.5-3.1c1.8,1.5,3.6,2.4,5.9,2.4c1.8,0,2.8-0.7,2.8-1.8v-0.1c0-1.1-0.7-1.7-3.9-2.5
				c-3.9-1-6.5-2.1-6.5-6v-0.1c0-3.6,2.9-5.9,6.9-5.9c2.9,0,5.3,0.9,7.3,2.5l-2.2,3.2c-1.7-1.2-3.4-1.9-5.1-1.9s-2.5,0.8-2.5,1.7
				v0.1c0,1.3,0.8,1.7,4.2,2.6c4,1,6.2,2.5,6.2,5.9v0.1c0,3.9-3,6.1-7.2,6.1C2051.4,535.6,2048.4,534.6,2046,532.5z"/>
			<path class="st6" d="M2070.1,519.7h-6v-4h16.2v4h-6v15.6h-4.3v-15.6H2070.1z"/>
			<path class="st6" d="M2088.6,515.6h4l8.4,19.7h-4.5l-1.8-4.4h-8.3l-1.8,4.4h-4.4L2088.6,515.6z M2093.1,527.2l-2.6-6.4l-2.6,6.4
				H2093.1z"/>
			<path class="st6" d="M2104.7,515.8h9c2.5,0,4.4,0.7,5.7,2c1.1,1.1,1.7,2.6,1.7,4.5v0.1c0,3.2-1.7,5.2-4.2,6.1l4.8,7h-5l-4.2-6.3
				h-3.4v6.3h-4.3L2104.7,515.8L2104.7,515.8z M2113.4,525.3c2.1,0,3.3-1.1,3.3-2.8v-0.1c0-1.8-1.3-2.8-3.4-2.8h-4.3v5.6
				L2113.4,525.3L2113.4,525.3z"/>
			<path class="st6" d="M2130.1,519.7h-6v-4h16.2v4h-6v15.6h-4.3v-15.6H2130.1z"/>
			<path class="st6" d="M2144.4,515.8h14.8v3.8h-10.5v4h9.2v3.8h-9.2v4.1h10.6v3.8h-14.9V515.8z"/>
			<path class="st6" d="M2163.9,515.8h7.6c6.2,0,10.4,4.2,10.4,9.7v0.1c0,5.5-4.3,9.8-10.4,9.8h-7.6V515.8z M2171.5,531.5
				c3.5,0,5.9-2.4,5.9-5.9v-0.1c0-3.5-2.4-5.9-5.9-5.9h-3.3v11.8L2171.5,531.5L2171.5,531.5z"/>
		</g>
	</g>
</g>
<g>
	<g>
		<circle class="st14" cx="1572.7" cy="36.8" r="9.7"/>
		<g>
			<rect x="1461.8" y="34.8" class="st14" width="111.2" height="4"/>
		</g>
	</g>
	<path class="st14" d="M1461.5,88.9h-367.2c-3.5,0-6.4-2.8-6.4-6.4V-9c0-3.5,2.8-6.4,6.4-6.4h367.2c3.5,0,6.4,2.8,6.4,6.4v91.5
		C1467.8,86.1,1465,88.9,1461.5,88.9z"/>
	<g>
		<g>
			<path class="st6" d="M1164.3,44.3l2.1-2.5c1.9,1.6,3.8,2.5,6.2,2.5c2.1,0,3.5-1,3.5-2.5v-0.1c0-1.4-0.8-2.2-4.4-3
				c-4.2-1-6.5-2.2-6.5-5.9v-0.1c0-3.4,2.8-5.7,6.7-5.7c2.9,0,5.1,0.9,7.1,2.5l-1.8,2.6c-1.8-1.3-3.5-2-5.3-2c-2,0-3.2,1-3.2,2.3
				v0.1c0,1.5,0.9,2.2,4.6,3.1c4.1,1,6.3,2.5,6.3,5.7v0.1c0,3.7-2.9,5.9-7,5.9C1169.5,47.4,1166.7,46.4,1164.3,44.3z"/>
			<path class="st6" d="M1183.4,37.4L1183.4,37.4c0-5.6,4.3-10.2,10.3-10.2s10.2,4.6,10.2,10.1v0.1c0,5.5-4.3,10.1-10.3,10.1
				S1183.4,42.9,1183.4,37.4z M1200.3,37.4L1200.3,37.4c0-3.9-2.8-7-6.7-7s-6.6,3.1-6.6,6.9v0.1c0,3.8,2.8,7,6.7,7
				C1197.6,44.4,1200.3,41.2,1200.3,37.4z"/>
			<path class="st6" d="M1207.9,37.4L1207.9,37.4c0-5.6,4.2-10.2,10.1-10.2c3.6,0,5.8,1.3,7.7,3.1l-2.2,2.5
				c-1.6-1.5-3.2-2.4-5.5-2.4c-3.8,0-6.5,3.1-6.5,6.9v0.1c0,3.8,2.7,7,6.5,7c2.4,0,3.9-1,5.6-2.5l2.2,2.2c-2,2.1-4.3,3.5-8,3.5
				C1212.1,47.5,1207.9,43,1207.9,37.4z"/>
			<path class="st6" d="M1230.3,27.6h3.4v19.6h-3.4V27.6z"/>
			<path class="st6" d="M1246.6,27.4h3.2l8.6,19.7h-3.6l-2-4.7h-9.3l-2,4.7h-3.5L1246.6,27.4z M1251.6,39.4l-3.4-7.8l-3.4,7.8
				H1251.6z"/>
			<path class="st6" d="M1262.5,27.6h3.4v16.5h10.3v3.1h-13.7V27.6L1262.5,27.6z"/>
			<path class="st6" d="M1289.6,27.6h7.7c4.6,0,7.4,2.6,7.4,6.6v0.1c0,4.4-3.5,6.7-7.8,6.7h-3.8v6.3h-3.4L1289.6,27.6L1289.6,27.6z
				 M1297.1,37.7c2.6,0,4.2-1.5,4.2-3.5v-0.1c0-2.3-1.7-3.5-4.2-3.5h-4v7.1H1297.1z"/>
			<path class="st6" d="M1309,27.6h8.7c2.5,0,4.4,0.7,5.7,2c1,1.1,1.6,2.5,1.6,4.2v0.1c0,3.2-1.9,5.2-4.7,5.9l5.3,7.4h-4.1l-4.8-6.8
				h-4.3v6.8h-3.4V27.6L1309,27.6z M1317.5,37.3c2.5,0,4-1.3,4-3.3v-0.1c0-2.1-1.5-3.2-4.1-3.2h-5v6.6H1317.5z"/>
			<path class="st6" d="M1329.1,37.4L1329.1,37.4c0-5.6,4.3-10.2,10.3-10.2s10.2,4.6,10.2,10.1v0.1c0,5.5-4.3,10.1-10.3,10.1
				S1329.1,42.9,1329.1,37.4z M1346,37.4L1346,37.4c0-3.9-2.8-7-6.7-7c-3.9,0-6.6,3.1-6.6,6.9v0.1c0,3.8,2.8,7,6.7,7
				C1343.3,44.3,1346,41.2,1346,37.4z"/>
			<path class="st6" d="M1353.6,37.4L1353.6,37.4c0-5.6,4.3-10.2,10.3-10.2s10.2,4.6,10.2,10.1v0.1c0,5.5-4.3,10.1-10.3,10.1
				S1353.6,42.9,1353.6,37.4z M1370.5,37.4L1370.5,37.4c0-3.9-2.8-7-6.7-7c-3.9,0-6.6,3.1-6.6,6.9v0.1c0,3.8,2.8,7,6.7,7
				C1367.8,44.3,1370.5,41.2,1370.5,37.4z"/>
			<path class="st6" d="M1379,27.6h14.6v3.1h-11.1V36h9.9v3.1h-9.9v8h-3.4L1379,27.6L1379,27.6z"/>
		</g>
	</g>
</g>
<g>
	<g>
		<rect x="1730.3" y="-412.5" class="st12" width="620.9" height="16.7"/>
		<polyline class="st15" points="1650.6,-407.9 1663.9,-394.6 1683.1,-413.7 		"/>
	</g>
	<g>
		<rect x="1730.3" y="-339.1" class="st12" width="730.9" height="16.7"/>
		<polyline class="st15" points="1650.6,-334.6 1663.9,-321.2 1683.1,-340.4 		"/>
	</g>
	<g>
		<rect x="1730.3" y="-265.8" class="st12" width="490.9" height="16.7"/>
		<polyline class="st15" points="1650.6,-261.3 1663.9,-247.9 1683.1,-267 		"/>
	</g>
</g>
<g>
	<circle class="st16" cx="1696.5" cy="36.8" r="46"/>
	<g>
		<g>
			<circle class="st12" cx="1696.5" cy="27.8" r="20"/>
			<path class="st12" d="M1727.9,70.4c-6.8-10.1-18.3-16.8-31.4-16.8s-24.6,6.7-31.4,16.8c8.2,7.7,19.2,12.5,31.4,12.5
				C1708.7,82.8,1719.7,78.1,1727.9,70.4z"/>
		</g>
	</g>
</g>
<g>
	<circle class="st16" cx="2005.2" cy="193.6" r="12"/>
	<circle class="st12" cx="2056.3" cy="193.6" r="12"/>
	<circle class="st12" cx="2107.5" cy="193.6" r="12"/>
</g>
</svg>
