<?xml version="1.0" encoding="utf-8"?>
<!-- Generator: Adobe Illustrator 19.1.0, SVG Export Plug-In . SVG Version: 6.00 Build 0)  -->
<svg version="1.1" id="Layer_1" xmlns="http://www.w3.org/2000/svg" xmlns:xlink="http://www.w3.org/1999/xlink" x="0px" y="0px"
	 viewBox="988 -2151.5 1600 2943.7" style="enable-background:new 988 -2151.5 1600 2943.7;" width="1600px" height="2944px" xml:space="preserve">
<style type="text/css">
	.st0{fill:none;}
	.st1{opacity:5.000000e-002;}
	.st2{fill:#FFFFFF;stroke:#E8E8E8;stroke-miterlimit:10;}
	.st3{fill:#E2E2E2;stroke:#E2E2E2;stroke-miterlimit:10;}
	.st4{fill:#FFA300;}
	.st5{fill:#FFFFFF;}
	.st6{fill:#00B7D3;}
	.st7{fill:#34BC79;}
	.st8{fill:#00BEA4;}
	.st9{fill:#5D5EF4;}
	.st10{fill:#FF4759;}
	.st11{fill:#A900FF;}
	.st12{fill:none;stroke:#E8E8E8;stroke-width:2;stroke-miterlimit:10;}
	.st13{fill:#F6F6F6;}
	.st14{fill:#F2F2F2;}
	.st15{fill:#DDDDDD;}
</style>
<g>
	<rect x="988" y="-2151.5" class="st0" width="1600" height="2943.7"/>
</g>
<g class="st1">
	<path d="M1514.7,690.1v-2575.8c0-5.2,4.2-9.4,9.4-9.4h1054.5c5.2,0,9.4,4.2,9.4,9.4v2576H1514.7V690.1z"/>
</g>
<g>
	<g>
		<path class="st2" d="M1524.7,670.1v-2561.6c0-13.9,10.1-23.7,22.6-23.7h1009.4c17.3,0,31.3,13.5,30.8,30.1V670.3H1524.7V670.1z"/>
	</g>
	<g>
		<path class="st3" d="M2587.5-1855.5H1524.7v-50.3c0-5.2,4.2-9.4,9.4-9.4h1053.4V-1855.5z"/>
	</g>
</g>
<g>
	<g>
		<g>
			<circle class="st4" cx="1572.7" cy="-1536.2" r="9.7"/>
		</g>
		<g>
			<g>
				<rect x="1451.8" y="-1538.2" class="st4" width="121.2" height="4"/>
			</g>
		</g>
	</g>
	<g>
		<path class="st4" d="M1461.5-1464.1h-367.3c-3.5,0-6.4-2.8-6.4-6.4v-131.4c0-3.5,2.8-6.4,6.4-6.4h367.3c3.5,0,6.4,2.8,6.4,6.4
			v131.5C1467.8-1467,1465-1464.1,1461.5-1464.1z"/>
	</g>
	<g>
		<path class="st5" d="M1208.5-1562.3h-6.2v-3.2h15.9v3.2h-6.2v16.4h-3.5V-1562.3z"/>
		<path class="st5" d="M1222.6-1565.5h3.4v8.1h9.4v-8.1h3.4v19.6h-3.4v-8.3h-9.4v8.3h-3.4V-1565.5z"/>
		<path class="st5" d="M1244.6-1565.5h14.5v3.1H1248v5.1h9.8v3.1h-9.8v5.3h11.2v3.1h-14.7L1244.6-1565.5L1244.6-1565.5z"/>
		<path class="st5" d="M1273.1-1565.5h14.6v3.1h-11.1v5.3h9.9v3.1h-9.9v8h-3.4L1273.1-1565.5L1273.1-1565.5z"/>
		<path class="st5" d="M1292.4-1565.5h3.4v19.6h-3.4V-1565.5z"/>
		<path class="st5" d="M1301.8-1565.5h8.7c2.5,0,4.4,0.7,5.7,2c1,1.1,1.6,2.5,1.6,4.2v0.1c0,3.2-1.9,5.2-4.7,5.9l5.3,7.4h-4.1
			l-4.8-6.8h-4.3v6.8h-3.4V-1565.5L1301.8-1565.5z M1310.2-1555.7c2.5,0,4-1.3,4-3.3v-0.1c0-2.1-1.5-3.2-4.1-3.2h-5v6.6H1310.2z"/>
		<path class="st5" d="M1321.4-1548.7l2.1-2.5c1.9,1.6,3.8,2.5,6.2,2.5c2.1,0,3.5-1,3.5-2.5v-0.1c0-1.4-0.8-2.2-4.4-3
			c-4.2-1-6.5-2.2-6.5-5.9v-0.1c0-3.4,2.8-5.7,6.7-5.7c2.9,0,5.1,0.9,7.1,2.5l-1.8,2.6c-1.8-1.3-3.5-2-5.3-2c-2,0-3.2,1-3.2,2.3v0.1
			c0,1.5,0.9,2.2,4.6,3.1c4.1,1,6.3,2.5,6.3,5.7v0.1c0,3.7-2.9,5.9-7,5.9C1326.6-1545.6,1323.7-1546.6,1321.4-1548.7z"/>
		<path class="st5" d="M1345.7-1562.3h-6.2v-3.2h15.9v3.2h-6.2v16.4h-3.5V-1562.3L1345.7-1562.3z"/>
		<path class="st5" d="M1135.9-1520.5h7.7c4.6,0,7.4,2.6,7.4,6.6v0.1c0,4.4-3.5,6.7-7.8,6.7h-3.9v6.3h-3.4V-1520.5z M1143.3-1510.3
			c2.6,0,4.2-1.5,4.2-3.5v-0.1c0-2.3-1.7-3.5-4.2-3.5h-4v7.1H1143.3z"/>
		<path class="st5" d="M1160.3-1520.6h3.2l8.6,19.7h-3.6l-2-4.7h-9.3l-2,4.7h-3.5L1160.3-1520.6z M1165.2-1508.6l-3.4-7.8l-3.4,7.8
			H1165.2z"/>
		<path class="st5" d="M1176.2-1520.5h8.7c2.5,0,4.4,0.7,5.7,2c1,1.1,1.6,2.5,1.6,4.2v0.1c0,3.2-1.9,5.2-4.7,5.9l5.3,7.4h-4.1
			l-4.8-6.8h-4.3v6.8h-3.4V-1520.5z M1184.6-1510.7c2.5,0,4-1.3,4-3.3v-0.1c0-2.1-1.5-3.2-4.1-3.2h-5v6.6H1184.6z"/>
		<path class="st5" d="M1204-1520.6h3.2l8.6,19.7h-3.6l-2-4.7h-9.2l-2,4.7h-3.5L1204-1520.6z M1209-1508.6l-3.4-7.8l-3.4,7.8H1209z"
			/>
		<path class="st5" d="M1217.8-1510.6L1217.8-1510.6c0-5.5,4.2-10.2,10.1-10.2c3.4,0,5.5,1,7.5,2.7l-2.2,2.6c-1.5-1.3-3-2.1-5.5-2.1
			c-3.6,0-6.4,3.2-6.4,6.9v0.1c0,4,2.7,7,6.7,7c1.8,0,3.5-0.6,4.7-1.5v-3.7h-5v-3h8.3v8.2c-1.9,1.7-4.7,3.1-8.2,3.1
			C1221.9-1500.5,1217.8-1505,1217.8-1510.6z"/>
		<path class="st5" d="M1241.4-1520.5h8.7c2.5,0,4.4,0.7,5.7,2c1,1.1,1.6,2.5,1.6,4.2v0.1c0,3.2-1.9,5.2-4.7,5.9l5.3,7.4h-4.1
			l-4.8-6.8h-4.3v6.8h-3.4V-1520.5L1241.4-1520.5z M1249.8-1510.7c2.5,0,4-1.3,4-3.3v-0.1c0-2.1-1.5-3.2-4.1-3.2h-5v6.6H1249.8z"/>
		<path class="st5" d="M1269.3-1520.6h3.2l8.6,19.7h-3.6l-2-4.7h-9.3l-2,4.7h-3.5L1269.3-1520.6z M1274.2-1508.6l-3.4-7.8l-3.4,7.8
			H1274.2z"/>
		<path class="st5" d="M1285.1-1520.5h7.7c4.6,0,7.4,2.6,7.4,6.6v0.1c0,4.4-3.5,6.7-7.8,6.7h-3.9v6.3h-3.4V-1520.5L1285.1-1520.5z
			 M1292.6-1510.3c2.6,0,4.2-1.5,4.2-3.5v-0.1c0-2.3-1.7-3.5-4.2-3.5h-4v7.1H1292.6z"/>
		<path class="st5" d="M1304.5-1520.5h3.4v8.1h9.4v-8.1h3.4v19.6h-3.4v-8.3h-9.3v8.3h-3.4L1304.5-1520.5L1304.5-1520.5z"/>
		<path class="st5" d="M1335.6-1520.5h3.4v8.1h9.4v-8.1h3.4v19.6h-3.4v-8.3h-9.4v8.3h-3.4V-1520.5z"/>
		<path class="st5" d="M1356.7-1510.6L1356.7-1510.6c0-5.6,4.3-10.2,10.3-10.2s10.2,4.6,10.2,10.1v0.1c0,5.5-4.3,10.1-10.3,10.1
			S1356.7-1505.1,1356.7-1510.6z M1373.6-1510.6L1373.6-1510.6c0-3.9-2.8-7-6.7-7c-3.9,0-6.6,3.1-6.6,6.9v0.1c0,3.8,2.8,7,6.7,7
			S1373.6-1506.8,1373.6-1510.6z"/>
		<path class="st5" d="M1381.2-1510.6L1381.2-1510.6c0-5.6,4.3-10.2,10.3-10.2s10.2,4.6,10.2,10.1v0.1c0,5.5-4.3,10.1-10.3,10.1
			S1381.2-1505.1,1381.2-1510.6z M1398.1-1510.6L1398.1-1510.6c0-3.9-2.8-7-6.7-7c-3.9,0-6.6,3.1-6.6,6.9v0.1c0,3.8,2.8,7,6.7,7
			C1395.4-1503.7,1398.1-1506.8,1398.1-1510.6z"/>
		<path class="st5" d="M1406.6-1520.5h3.4v9.9l9.3-9.9h4.2l-8.1,8.4l8.5,11.2h-4.2l-6.7-8.8l-3,3.2v5.7h-3.4V-1520.5z"/>
	</g>
</g>
<g>
	<g>
		<g>
			<circle class="st6" cx="1572.7" cy="-1222.5" r="9.7"/>
		</g>
		<g>
			<g>
				<rect x="1451.8" y="-1224.5" class="st6" width="121.2" height="4"/>
			</g>
		</g>
	</g>
	<g>
		<path class="st6" d="M1461.5-1150.3h-367.3c-3.5,0-6.4-2.8-6.4-6.4v-131.5c0-3.5,2.8-6.4,6.4-6.4h367.3c3.5,0,6.4,2.8,6.4,6.4
			v131.5C1467.8-1153.2,1465-1150.3,1461.5-1150.3z"/>
	</g>
	<g>
		<path class="st5" d="M1142.5-1248.5h-6.2v-3.2h15.9v3.2h-6.2v16.4h-3.5V-1248.5z"/>
		<path class="st5" d="M1156.5-1251.7h3.4v8.1h9.4v-8.1h3.4v19.6h-3.4v-8.3h-9.4v8.3h-3.4V-1251.7z"/>
		<path class="st5" d="M1178.5-1251.7h14.5v3.1h-11.1v5.1h9.8v3.1h-9.8v5.3h11.2v3.1h-14.7L1178.5-1251.7L1178.5-1251.7z"/>
		<path class="st5" d="M1207-1251.7h8.8c2.2,0,4,0.6,5.1,1.7c0.9,0.9,1.3,1.9,1.3,3.2v0.1c0,2.4-1.3,3.6-2.8,4.4
			c2.3,0.8,3.9,2.1,3.9,4.8v0.1c0,3.5-2.9,5.4-7.3,5.4h-9V-1251.7z M1215.1-1243.5c2.2,0,3.7-0.9,3.7-2.7v-0.1
			c0-1.5-1.2-2.5-3.4-2.5h-5v5.2L1215.1-1243.5L1215.1-1243.5z M1216.1-1235.2c2.4,0,3.8-0.9,3.8-2.7v-0.1c0-1.7-1.3-2.6-4-2.6h-5.5
			v5.4H1216.1L1216.1-1235.2z"/>
		<path class="st5" d="M1234.9-1252h3.2l8.6,19.7h-3.6l-2-4.7h-9.3l-2,4.7h-3.5L1234.9-1252z M1239.8-1240l-3.4-7.8l-3.4,7.8H1239.8
			z"/>
		<path class="st5" d="M1248.7-1242L1248.7-1242c0-5.6,4.2-10.2,10.1-10.2c3.6,0,5.8,1.3,7.7,3.1l-2.2,2.5c-1.6-1.5-3.2-2.4-5.5-2.4
			c-3.8,0-6.5,3.1-6.5,6.9v0.1c0,3.8,2.7,7,6.5,7c2.4,0,3.9-1,5.6-2.5l2.2,2.2c-2,2.1-4.3,3.5-8,3.5
			C1252.9-1231.8,1248.7-1236.2,1248.7-1242z"/>
		<path class="st5" d="M1270.9-1251.7h3.4v9.9l9.3-9.9h4.2l-8.1,8.4l8.5,11.2h-4.2l-6.7-8.8l-3.1,3.1v5.7h-3.4L1270.9-1251.7
			L1270.9-1251.7z"/>
		<path class="st5" d="M1289.6-1242L1289.6-1242c0-5.5,4.2-10.2,10.1-10.2c3.4,0,5.5,1,7.5,2.7l-2.2,2.6c-1.5-1.3-3-2.1-5.5-2.1
			c-3.6,0-6.4,3.2-6.4,6.9v0.1c0,4,2.7,7,6.7,7c1.8,0,3.5-0.6,4.7-1.5v-3.7h-5v-3h8.3v8.2c-1.9,1.7-4.7,3.1-8.2,3.1
			C1293.6-1231.8,1289.6-1236.1,1289.6-1242z"/>
		<path class="st5" d="M1313.1-1251.7h8.7c2.5,0,4.4,0.7,5.7,2c1,1.1,1.6,2.5,1.6,4.2v0.1c0,3.2-1.9,5.2-4.7,5.9l5.3,7.4h-4.1
			l-4.8-6.8h-4.3v6.8h-3.4V-1251.7L1313.1-1251.7z M1321.6-1242c2.5,0,4-1.3,4-3.3v-0.1c0-2.1-1.5-3.2-4.1-3.2h-5v6.6H1321.6z"/>
		<path class="st5" d="M1333.2-1242L1333.2-1242c0-5.6,4.3-10.2,10.3-10.2s10.2,4.6,10.2,10.1v0.1c0,5.5-4.3,10.1-10.3,10.1
			C1337.4-1231.8,1333.2-1236.3,1333.2-1242z M1350-1242L1350-1242c0-3.9-2.8-7-6.7-7c-3.9,0-6.6,3.1-6.6,6.9v0.1c0,3.8,2.8,7,6.7,7
			S1350-1238,1350-1242z"/>
		<path class="st5" d="M1358.2-1240.5v-11.2h3.4v11.1c0,3.6,1.9,5.6,5,5.6c3.1,0,4.9-1.8,4.9-5.5v-11.3h3.4v11.1
			c0,5.9-3.3,8.8-8.4,8.8C1361.5-1231.8,1358.2-1234.7,1358.2-1240.5z"/>
		<path class="st5" d="M1380.4-1251.7h3.2l10.5,13.6v-13.6h3.4v19.6h-2.9l-10.8-13.9v13.9h-3.4V-1251.7L1380.4-1251.7z"/>
		<path class="st5" d="M1403.2-1251.7h7.3c6.2,0,10.4,4.2,10.4,9.7v0.1c0,5.5-4.3,9.8-10.4,9.8h-7.3V-1251.7z M1410.6-1235.2
			c4.1,0,6.8-2.8,6.8-6.6v-0.1c0-3.8-2.7-6.7-6.8-6.7h-3.9v13.3L1410.6-1235.2L1410.6-1235.2z"/>
		<path class="st5" d="M1229.7-1190l2.1-2.5c1.9,1.6,3.8,2.5,6.2,2.5c2.1,0,3.5-1,3.5-2.5v-0.1c0-1.4-0.8-2.2-4.4-3
			c-4.2-1-6.5-2.2-6.5-5.9v-0.1c0-3.4,2.8-5.7,6.7-5.7c2.9,0,5.1,0.9,7.1,2.5l-1.8,2.6c-1.8-1.3-3.5-2-5.3-2c-2,0-3.2,1-3.2,2.3v0.1
			c0,1.5,0.9,2.2,4.6,3.1c4.1,1,6.3,2.5,6.3,5.7v0.1c0,3.7-2.9,5.9-7,5.9C1234.9-1186.8,1232-1188,1229.7-1190z"/>
		<path class="st5" d="M1254-1203.5h-6.2v-3.2h15.9v3.2h-6.2v16.4h-3.5V-1203.5z"/>
		<path class="st5" d="M1266.1-1197L1266.1-1197c0-5.6,4.3-10.2,10.3-10.2s10.2,4.6,10.2,10.1v0.1c0,5.5-4.3,10.1-10.3,10.1
			C1270.3-1186.8,1266.1-1191.3,1266.1-1197z M1283-1197L1283-1197c0-3.9-2.8-7-6.7-7c-3.9,0-6.6,3.1-6.6,6.9v0.1c0,3.8,2.8,7,6.7,7
			S1283-1193,1283-1197z"/>
		<path class="st5" d="M1291.5-1206.7h8.7c2.5,0,4.4,0.7,5.7,2c1,1.1,1.6,2.5,1.6,4.2v0.1c0,3.2-1.9,5.2-4.7,5.9l5.3,7.4h-4.1
			l-4.8-6.8h-4.3v6.8h-3.4V-1206.7L1291.5-1206.7z M1300-1197c2.5,0,4-1.3,4-3.3v-0.1c0-2.1-1.5-3.2-4.1-3.2h-5v6.6H1300z"/>
		<path class="st5" d="M1317.5-1194.8l-7.8-11.9h4.1l5.5,8.7l5.5-8.7h3.9l-7.8,11.8v7.8h-3.5L1317.5-1194.8L1317.5-1194.8z"/>
	</g>
</g>
<g>
	<g>
		<g>
			<circle class="st7" cx="1572.7" cy="-1747" r="9.7"/>
		</g>
		<g>
			<g>
				<rect x="1451.8" y="-1749" class="st7" width="121.2" height="4"/>
			</g>
		</g>
	</g>
	<g>
		<path class="st7" d="M1461.5-1675h-367.3c-3.5,0-6.4-2.8-6.4-6.4v-131.3c0-3.5,2.8-6.4,6.4-6.4h367.3c3.5,0,6.4,2.8,6.4,6.4v131.5
			C1467.8-1677.7,1465-1675,1461.5-1675z"/>
	</g>
	<g>
		<path class="st5" d="M1194.1-1776.2h3.4v8.1h9.4v-8.1h3.4v19.6h-3.4v-8.3h-9.4v8.3h-3.4V-1776.2z"/>
		<path class="st5" d="M1216.1-1776.2h14.5v3.1h-11.1v5.1h9.8v3.1h-9.8v5.3h11.2v3.1H1216L1216.1-1776.2L1216.1-1776.2z"/>
		<path class="st5" d="M1242.5-1776.5h3.2l8.6,19.7h-3.6l-2-4.7h-9.3l-2,4.7h-3.5L1242.5-1776.5z M1247.5-1764.5l-3.4-7.8l-3.4,7.8
			H1247.5z"/>
		<path class="st5" d="M1258.4-1776.2h7.3c6.2,0,10.4,4.2,10.4,9.7v0.1c0,5.5-4.3,9.8-10.4,9.8h-7.3V-1776.2z M1265.7-1759.8
			c4.1,0,6.8-2.8,6.8-6.6v-0.1c0-3.8-2.7-6.7-6.8-6.7h-3.9v13.3L1265.7-1759.8L1265.7-1759.8z"/>
		<path class="st5" d="M1281-1776.2h3.4v16.5h10.3v3.1H1281V-1776.2z"/>
		<path class="st5" d="M1299.2-1776.2h3.4v19.6h-3.4V-1776.2z"/>
		<path class="st5" d="M1308.6-1776.2h3.2l10.5,13.6v-13.6h3.4v19.6h-2.9l-10.8-14v13.9h-3.4V-1776.2z"/>
		<path class="st5" d="M1331.4-1776.2h14.6v3.1h-11.1v5.1h9.8v3.1h-9.8v5.3h11.2v3.1h-14.7V-1776.2z"/>
		<path class="st5" d="M1350.5-1771.6h13.5v3.1h-13.5V-1771.6z M1350.5-1764.6h13.5v3.1h-13.5V-1764.6z"/>
		<path class="st5" d="M1159.9-1721.5L1159.9-1721.5c0-5.6,4.2-10.2,10.1-10.2c3.6,0,5.8,1.3,7.7,3.1l-2.2,2.5
			c-1.6-1.5-3.2-2.4-5.5-2.4c-3.8,0-6.5,3.1-6.5,6.9v0.1c0,3.8,2.7,7,6.5,7c2.4,0,3.9-1,5.6-2.5l2.2,2.2c-2,2.1-4.3,3.5-8,3.5
			C1164.2-1711.3,1159.9-1715.8,1159.9-1721.5z"/>
		<path class="st5" d="M1182.2-1731.2h3.4v16.5h10.3v3.1h-13.7V-1731.2z"/>
		<path class="st5" d="M1200.2-1731.2h14.5v3.1h-11.1v5.1h9.8v3.1h-9.8v5.3h11.2v3.1h-14.7L1200.2-1731.2L1200.2-1731.2
			L1200.2-1731.2z"/>
		<path class="st5" d="M1226.6-1731.5h3.2l8.6,19.7h-3.6l-2-4.7h-9.3l-2,4.7h-3.5L1226.6-1731.5z M1231.5-1719.5l-3.4-7.8l-3.4,7.8
			H1231.5z"/>
		<path class="st5" d="M1242.5-1731.2h8.7c2.5,0,4.4,0.7,5.7,2c1,1.1,1.6,2.5,1.6,4.2v0.1c0,3.2-1.9,5.2-4.7,5.9l5.3,7.4h-4.1
			l-4.8-6.8h-4.3v6.8h-3.4V-1731.2L1242.5-1731.2z M1251-1721.5c2.5,0,4-1.3,4-3.3v-0.1c0-2.1-1.5-3.2-4.1-3.2h-5v6.6H1251z"/>
		<path class="st5" d="M1272.5-1731.2h8.8c2.2,0,4,0.6,5.1,1.7c0.9,0.9,1.3,1.9,1.3,3.2v0.1c0,2.4-1.3,3.6-2.8,4.4
			c2.3,0.8,3.9,2.1,3.9,4.8v0.1c0,3.5-2.9,5.4-7.3,5.4h-9.1L1272.5-1731.2L1272.5-1731.2z M1280.6-1723c2.2,0,3.7-0.9,3.7-2.7v-0.1
			c0-1.5-1.2-2.5-3.4-2.5h-5v5.2L1280.6-1723L1280.6-1723z M1281.6-1714.7c2.4,0,3.8-0.9,3.8-2.7v-0.1c0-1.7-1.3-2.6-4-2.6h-5.5v5.4
			H1281.6L1281.6-1714.7z"/>
		<path class="st5" d="M1293.4-1731.2h14.6v3.1h-11.1v5.1h9.8v3.1h-9.8v5.3h11.2v3.1h-14.7V-1731.2z"/>
		<path class="st5" d="M1312.9-1731.2h3.2l10.5,13.6v-13.6h3.4v19.6h-2.9l-10.8-13.9v13.9h-3.4V-1731.2L1312.9-1731.2z"/>
		<path class="st5" d="M1335.7-1731.2h14.5v3.1h-11.1v5.1h9.8v3.1h-9.8v5.3h11.2v3.1h-14.7L1335.7-1731.2L1335.7-1731.2
			L1335.7-1731.2z"/>
		<path class="st5" d="M1355.2-1731.2h14.6v3.1h-11.1v5.3h9.9v3.1h-9.9v8h-3.4v-19.5H1355.2L1355.2-1731.2z"/>
		<path class="st5" d="M1374.4-1731.2h3.4v19.6h-3.4V-1731.2z"/>
		<path class="st5" d="M1388.6-1728.1h-6.2v-3.2h15.9v3.2h-6.2v16.4h-3.5V-1728.1L1388.6-1728.1z"/>
	</g>
</g>
<g>
	<g>
		<g>
			<circle class="st8" cx="1572.7" cy="-188.4" r="9.7"/>
		</g>
		<g>
			<g>
				<rect x="1451.8" y="-190.4" class="st8" width="121.2" height="4"/>
			</g>
		</g>
	</g>
	<g>
		<path class="st8" d="M1461.5-116.4h-367.3c-3.5,0-6.4-2.8-6.4-6.4v-131.5c0-3.5,2.8-6.4,6.4-6.4h367.3c3.5,0,6.4,2.8,6.4,6.4
			v131.5C1467.8-119.1,1465-116.4,1461.5-116.4z"/>
	</g>
	<g>
		<path class="st5" d="M1196.3-207.9L1196.3-207.9c0-5.6,4.2-10.2,10.1-10.2c3.6,0,5.8,1.3,7.7,3.1l-2.2,2.5
			c-1.6-1.5-3.2-2.4-5.5-2.4c-3.8,0-6.5,3.1-6.5,6.9v0.1c0,3.8,2.7,7,6.5,7c2.4,0,3.9-1,5.6-2.5l2.2,2.2c-2,2.1-4.3,3.5-8,3.5
			C1200.6-197.7,1196.3-202.1,1196.3-207.9z"/>
		<path class="st5" d="M1218.2-206.4v-11.3h3.4v11.1c0,3.6,1.9,5.6,5,5.6c3.1,0,4.9-1.8,4.9-5.5v-11.3h3.4v11.1
			c0,5.9-3.3,8.8-8.4,8.8C1221.5-197.7,1218.2-200.7,1218.2-206.4z"/>
		<path class="st5" d="M1239.1-200.9l2.1-2.5c1.9,1.6,3.8,2.5,6.2,2.5c2.1,0,3.5-1,3.5-2.5v-0.1c0-1.4-0.8-2.2-4.4-3
			c-4.2-1-6.5-2.2-6.5-5.9v-0.1c0-3.4,2.8-5.7,6.7-5.7c2.9,0,5.1,0.9,7.1,2.5l-1.8,2.6c-1.8-1.3-3.5-2-5.3-2c-2,0-3.2,1-3.2,2.3v0.1
			c0,1.5,0.9,2.2,4.6,3.1c4.1,1,6.3,2.5,6.3,5.7v0.1c0,3.7-2.9,5.9-7,5.9C1244.3-197.9,1241.5-198.9,1239.1-200.9z"/>
		<path class="st5" d="M1263.4-214.4h-6.2v-3.2h15.9v3.2h-6.2v16.4h-3.5V-214.4L1263.4-214.4z"/>
		<path class="st5" d="M1275.5-207.9L1275.5-207.9c0-5.6,4.3-10.2,10.3-10.2s10.2,4.6,10.2,10.1v0.1c0,5.5-4.3,10.1-10.3,10.1
			C1279.7-197.7,1275.5-202.4,1275.5-207.9z M1292.4-207.9L1292.4-207.9c0-3.9-2.8-7-6.7-7c-3.9,0-6.6,3.1-6.6,6.9v0.1
			c0,3.8,2.8,7,6.7,7S1292.4-204,1292.4-207.9z"/>
		<path class="st5" d="M1300.9-217.6h3.7l6,9.3l6-9.3h3.7v19.6h-3.4v-14.1l-6.2,9.2h-0.1l-6.1-9.2v14h-3.4v-19.5H1300.9z"/>
		<path class="st5" d="M1325.9-217.6h14.5v3.1h-11.1v5.1h9.8v3.1h-9.8v5.3h11.2v3.1h-14.7L1325.9-217.6L1325.9-217.6L1325.9-217.6z"
			/>
		<path class="st5" d="M1345.4-217.6h8.7c2.5,0,4.4,0.7,5.7,2c1,1.1,1.6,2.5,1.6,4.2v0.1c0,3.2-1.9,5.2-4.7,5.9l5.3,7.4h-4.1
			l-4.8-6.8h-4.3v6.8h-3.4V-217.6L1345.4-217.6z M1353.9-207.9c2.5,0,4-1.3,4-3.3v-0.1c0-2.1-1.5-3.2-4.1-3.2h-5v6.6H1353.9z"/>
		<path class="st5" d="M1173.4-169.4h-6.2v-3.2h15.9v3.2h-6.2v16.4h-3.5V-169.4z"/>
		<path class="st5" d="M1187.4-172.6h14.6v3.1h-11.1v5.1h9.8v3.1h-9.8v5.3h11.2v3.1h-14.7V-172.6z"/>
		<path class="st5" d="M1205.6-155.9l2.1-2.5c1.9,1.6,3.8,2.5,6.2,2.5c2.1,0,3.5-1,3.5-2.5v-0.1c0-1.4-0.8-2.2-4.4-3
			c-4.2-1-6.5-2.2-6.5-5.9v-0.1c0-3.4,2.8-5.7,6.7-5.7c2.9,0,5.1,0.9,7.1,2.5l-1.8,2.6c-1.8-1.3-3.5-2-5.3-2c-2,0-3.2,1-3.2,2.3v0.1
			c0,1.5,0.9,2.2,4.6,3.1c4.1,1,6.3,2.5,6.3,5.7v0.1c0,3.7-2.9,5.9-7,5.9C1210.8-152.9,1207.9-153.9,1205.6-155.9z"/>
		<path class="st5" d="M1229.9-169.4h-6.2v-3.2h15.9v3.2h-6.2v16.4h-3.5V-169.4z"/>
		<path class="st5" d="M1244.1-172.6h3.4v19.6h-3.4V-172.6z"/>
		<path class="st5" d="M1253.5-172.6h3.7l6,9.3l6-9.3h3.7v19.6h-3.4v-14.1l-6.2,9.2h-0.3l-6.1-9.2v14h-3.4V-172.6z"/>
		<path class="st5" d="M1277.7-162.9L1277.7-162.9c0-5.6,4.3-10.2,10.3-10.2s10.2,4.6,10.2,10.1v0.1c0,5.5-4.3,10.1-10.3,10.1
			C1281.9-152.7,1277.7-157.4,1277.7-162.9z M1294.5-162.9L1294.5-162.9c0-3.9-2.8-7-6.7-7c-3.9,0-6.6,3.1-6.6,6.9v0.1
			c0,3.8,2.8,7,6.7,7S1294.5-159,1294.5-162.9z"/>
		<path class="st5" d="M1303-172.6h3.2l10.5,13.6v-13.6h3.4v19.6h-2.9l-10.8-13.9v13.9h-3.4V-172.6z"/>
		<path class="st5" d="M1326-172.6h3.4v19.6h-3.4V-172.6z"/>
		<path class="st5" d="M1342.4-172.9h3.2l8.6,19.7h-3.6l-2-4.7h-9.3l-2,4.7h-3.5L1342.4-172.9z M1347.3-160.9l-3.4-7.8l-3.4,7.8
			H1347.3z"/>
		<path class="st5" d="M1358.2-172.6h3.4v16.5h10.4v3.1h-13.7L1358.2-172.6L1358.2-172.6z"/>
		<path class="st5" d="M1374.9-155.9l2.1-2.5c1.9,1.6,3.8,2.5,6.2,2.5c2.1,0,3.5-1,3.5-2.5v-0.1c0-1.4-0.8-2.2-4.4-3
			c-4.2-1-6.5-2.2-6.5-5.9v-0.1c0-3.4,2.8-5.7,6.7-5.7c2.9,0,5.1,0.9,7.1,2.5l-1.8,2.6c-1.8-1.3-3.5-2-5.3-2c-2,0-3.2,1-3.2,2.3v0.1
			c0,1.5,0.9,2.2,4.6,3.1c4.1,1,6.3,2.5,6.3,5.7v0.1c0,3.7-2.9,5.9-7,5.9C1380.1-152.9,1377.3-153.9,1374.9-155.9z"/>
	</g>
</g>
<g>
	<g>
		<g>
			<circle class="st9" cx="1572.7" cy="164.3" r="9.7"/>
		</g>
		<g>
			<g>
				<rect x="1451.8" y="162.3" class="st9" width="121.2" height="4"/>
			</g>
		</g>
	</g>
	<g>
		<path class="st9" d="M1461.5,216.3h-367.3c-3.5,0-6.4-2.8-6.4-6.4v-91.5c0-3.5,2.8-6.4,6.4-6.4h367.3c3.5,0,6.4,2.8,6.4,6.4v91.5
			C1467.8,213.6,1465,216.3,1461.5,216.3z"/>
	</g>
	<g>
		<path class="st5" d="M1171.5,155.1h8.8c2.2,0,4,0.6,5.1,1.7c0.9,0.9,1.3,1.9,1.3,3.2v0.1c0,2.4-1.3,3.6-2.8,4.4
			c2.3,0.8,3.9,2.1,3.9,4.8v0.1c0,3.5-2.9,5.4-7.3,5.4h-9.1L1171.5,155.1L1171.5,155.1z M1179.6,163.3c2.2,0,3.7-0.9,3.7-2.7v-0.1
			c0-1.5-1.2-2.5-3.4-2.5h-5v5.2L1179.6,163.3L1179.6,163.3z M1180.6,171.6c2.4,0,3.8-0.9,3.8-2.7v-0.1c0-1.7-1.3-2.6-4-2.6h-5.5
			v5.4L1180.6,171.6L1180.6,171.6z"/>
		<path class="st5" d="M1192.1,166.3V155h3.4v11.1c0,3.6,1.9,5.6,5,5.6s4.9-1.8,4.9-5.5v-11.3h3.4V166c0,5.9-3.3,8.8-8.4,8.8
			C1195.4,175,1192.1,172,1192.1,166.3z"/>
		<path class="st5" d="M1220.1,166.8l-7.8-11.9h4.1l5.5,8.7l5.5-8.7h3.9l-7.8,11.8v7.8h-3.5L1220.1,166.8L1220.1,166.8z"/>
		<path class="st5" d="M1244.2,155.1h3.2l10.5,13.6v-13.6h3.4v19.6h-2.9l-10.8-13.9v13.9h-3.4V155.1L1244.2,155.1z"/>
		<path class="st5" d="M1266.1,164.8L1266.1,164.8c0-5.6,4.3-10.2,10.3-10.2s10.2,4.6,10.2,10.1v0.1c0,5.5-4.3,10.1-10.3,10.1
			C1270.3,175,1266.1,170.3,1266.1,164.8z M1283,164.8L1283,164.8c0-3.9-2.8-7-6.7-7c-3.9,0-6.6,3.1-6.6,6.9v0.1c0,3.8,2.8,7,6.7,7
			S1283,168.6,1283,164.8z"/>
		<path class="st5" d="M1288.9,155.1h3.7l4.7,14.5l4.8-14.6h2.9l4.8,14.6l4.7-14.5h3.6l-6.8,19.7h-3l-4.8-14.1l-4.8,14.1h-3
			L1288.9,155.1z"/>
		<path class="st5" d="M1330.6,164.8L1330.6,164.8c0-5.6,4.2-10.2,10.1-10.2c3.6,0,5.8,1.3,7.7,3.1l-2.2,2.5
			c-1.6-1.5-3.2-2.4-5.5-2.4c-3.8,0-6.5,3.1-6.5,6.9v0.1c0,3.8,2.7,7,6.5,7c2.4,0,3.9-1,5.6-2.5l2.2,2.2c-2,2.1-4.3,3.5-8,3.5
			C1334.9,175,1330.6,170.5,1330.6,164.8z"/>
		<path class="st5" d="M1357.6,158.1h-6.2v-3.2h15.9v3.2h-6.2v16.4h-3.5V158.1L1357.6,158.1z"/>
		<path class="st5" d="M1376.1,154.8h3.2l8.6,19.7h-3.6l-2-4.7h-9.3l-2,4.7h-3.5L1376.1,154.8z M1381,166.8l-3.4-7.8l-3.4,7.8H1381z
			"/>
	</g>
</g>
<g>
	<g>
		<g>
			<circle class="st10" cx="1572.7" cy="494.6" r="9.7"/>
		</g>
		<g>
			<g>
				<rect x="1451.8" y="492.6" class="st10" width="121.2" height="4"/>
			</g>
		</g>
	</g>
	<g>
		<path class="st10" d="M1461.5,546.8h-367.3c-3.5,0-6.4-2.8-6.4-6.4v-91.5c0-3.5,2.8-6.4,6.4-6.4h367.3c3.5,0,6.4,2.8,6.4,6.4v91.5
			C1467.8,543.8,1465,546.8,1461.5,546.8z"/>
	</g>
	<g>
		<path class="st5" d="M1133.7,502.1l2.1-2.5c1.9,1.6,3.8,2.5,6.2,2.5c2.1,0,3.5-1,3.5-2.5v-0.1c0-1.4-0.8-2.2-4.4-3
			c-4.2-1-6.5-2.2-6.5-5.9v-0.1c0-3.4,2.8-5.7,6.7-5.7c2.9,0,5.1,0.9,7.1,2.5l-1.8,2.6c-1.8-1.3-3.5-2-5.3-2c-2,0-3.2,1-3.2,2.3v0.1
			c0,1.5,0.9,2.2,4.6,3.1c4.1,1,6.3,2.5,6.3,5.7v0.1c0,3.7-2.9,5.9-7,5.9C1138.9,505.3,1136.1,504.1,1133.7,502.1z"/>
		<path class="st5" d="M1152.8,495.1L1152.8,495.1c0-5.6,4.3-10.2,10.3-10.2s10.2,4.6,10.2,10.1v0.1c0,5.5-4.3,10.1-10.3,10.1
			C1157,505.3,1152.8,500.6,1152.8,495.1z M1169.7,495.1L1169.7,495.1c0-3.9-2.8-7-6.7-7s-6.6,3.1-6.6,6.9v0.1c0,3.8,2.8,7,6.7,7
			C1167,502.1,1169.7,499,1169.7,495.1z"/>
		<path class="st5" d="M1178.1,485.3h3.4v16.5h10.3v3.1h-13.7V485.3z"/>
		<path class="st5" d="M1196.4,485.3h3.4v19.6h-3.4V485.3z"/>
		<path class="st5" d="M1205.7,485.3h7.3c6.2,0,10.4,4.2,10.4,9.7v0.1c0,5.5-4.3,9.8-10.4,9.8h-7.3V485.3z M1213.1,501.8
			c4.1,0,6.8-2.8,6.8-6.6v-0.1c0-3.8-2.7-6.7-6.8-6.7h-3.9v13.3L1213.1,501.8L1213.1,501.8z"/>
		<path class="st5" d="M1236.6,495.1L1236.6,495.1c0-5.5,4.2-10.2,10.1-10.2c3.4,0,5.5,1,7.5,2.7l-2.2,2.6c-1.5-1.3-3-2.1-5.5-2.1
			c-3.6,0-6.4,3.2-6.4,6.9v0.1c0,4,2.7,7,6.7,7c1.8,0,3.5-0.6,4.7-1.5v-3.7h-5v-3h8.3v8.2c-1.9,1.7-4.7,3.1-8.2,3.1
			C1240.6,505.3,1236.6,500.8,1236.6,495.1z"/>
		<path class="st5" d="M1259.8,496.6v-11.3h3.4v11.1c0,3.6,1.9,5.6,5,5.6c3.1,0,4.9-1.8,4.9-5.5v-11.2h3.4v11.1
			c0,5.9-3.3,8.8-8.4,8.8C1263,505.3,1259.8,502.3,1259.8,496.6z"/>
		<path class="st5" d="M1288.2,485.1h3.2l8.6,19.7h-3.6l-2-4.7h-9.3l-2,4.7h-3.5L1288.2,485.1z M1293.2,497.1l-3.4-7.8l-3.4,7.8
			H1293.2z"/>
		<path class="st5" d="M1304.1,485.3h8.7c2.5,0,4.4,0.7,5.7,2c1,1.1,1.6,2.5,1.6,4.2v0.1c0,3.2-1.9,5.2-4.7,5.9l5.3,7.4h-4.1
			l-4.8-6.8h-4.3v6.8h-3.4V485.3L1304.1,485.3z M1312.6,495.1c2.5,0,4-1.3,4-3.3v-0.1c0-2.1-1.5-3.2-4.1-3.2h-5v6.6H1312.6z"/>
		<path class="st5" d="M1332,485.1h3.2l8.6,19.7h-3.6l-2-4.7h-9.3l-2,4.7h-3.5L1332,485.1z M1336.9,497.1l-3.4-7.8l-3.4,7.8H1336.9z
			"/>
		<path class="st5" d="M1347.9,485.3h3.2l10.5,13.6v-13.6h3.4v19.6h-2.9l-10.8-13.9v13.9h-3.4V485.3L1347.9,485.3z"/>
		<path class="st5" d="M1375.5,488.6h-6.2v-3.2h15.9v3.2h-6.2V505h-3.5V488.6z"/>
		<path class="st5" d="M1389.5,485.3h14.5v3.1h-11v5.1h9.8v3.1h-9.8v5.3h11.2v3.1h-14.7V485.3z"/>
		<path class="st5" d="M1409,485.3h14.5v3.1h-11.1v5.1h9.8v3.1h-9.8v5.3h11.2v3.1H1409V485.3z"/>
	</g>
</g>
<g>
	<g>
		<g>
			<circle class="st11" cx="1572.7" cy="-868" r="9.7"/>
		</g>
		<g>
			<g>
				<rect x="1461.8" y="-870" class="st11" width="111.2" height="4"/>
			</g>
		</g>
	</g>
	<g>
		<path class="st11" d="M1461.5-815.9h-367.3c-3.5,0-6.4-2.8-6.4-6.4v-91.5c0-3.5,2.8-6.4,6.4-6.4h367.3c3.5,0,6.4,2.8,6.4,6.4v91.5
			C1467.8-818.7,1465-815.9,1461.5-815.9z"/>
	</g>
	<g>
		<path class="st5" d="M1159.5-874.1h-6.2v-3.2h15.9v3.2h-6.2v16.4h-3.5V-874.1z"/>
		<path class="st5" d="M1173.6-877.4h3.4v8.1h9.4v-8.1h3.4v19.6h-3.4v-8.3h-9.4v8.3h-3.4V-877.4z"/>
		<path class="st5" d="M1195.5-877.4h14.5v3.1h-11v5.1h9.8v3.1h-9.8v5.3h11.2v3.1h-14.7V-877.4z"/>
		<path class="st5" d="M1224.1-877.4h8.8c2.2,0,4,0.6,5.1,1.7c0.9,0.9,1.3,1.9,1.3,3.2v0.1c0,2.4-1.3,3.6-2.8,4.4
			c2.3,0.8,3.9,2.1,3.9,4.8v0.1c0,3.5-2.9,5.4-7.3,5.4h-9.1L1224.1-877.4L1224.1-877.4z M1232.2-869c2.2,0,3.7-0.9,3.7-2.7v-0.1
			c0-1.5-1.2-2.5-3.4-2.5h-5v5.2L1232.2-869L1232.2-869z M1233.2-860.7c2.4,0,3.8-0.9,3.8-2.7v-0.1c0-1.7-1.3-2.6-4-2.6h-5.5v5.4
			H1233.2L1233.2-860.7z"/>
		<path class="st5" d="M1245.2-877.4h3.4v19.6h-3.4V-877.4z"/>
		<path class="st5" d="M1253.7-867.4L1253.7-867.4c0-5.5,4.2-10.2,10.1-10.2c3.4,0,5.5,1,7.5,2.7l-2.2,2.6c-1.5-1.3-3-2.1-5.5-2.1
			c-3.6,0-6.4,3.2-6.4,6.9v0.1c0,4,2.7,7,6.7,7c1.8,0,3.5-0.6,4.7-1.5v-3.7h-5v-3h8.3v8.2c-1.9,1.7-4.7,3.1-8.2,3.1
			C1257.8-857.4,1253.7-861.7,1253.7-867.4z"/>
		<path class="st5" d="M1286.3-877.4h8.7c2.5,0,4.4,0.7,5.7,2c1,1.1,1.6,2.5,1.6,4.2v0.1c0,3.2-1.9,5.2-4.7,5.9l5.3,7.4h-4.1
			l-4.8-6.8h-4.3v6.8h-3.4V-877.4L1286.3-877.4z M1294.8-867.6c2.5,0,4-1.3,4-3.3v-0.1c0-2.1-1.5-3.2-4.1-3.2h-5v6.6H1294.8z"/>
		<path class="st5" d="M1307.3-877.4h14.5v3.1h-11.1v5.1h9.8v3.1h-9.8v5.3h11.3v3.1h-14.7V-877.4z"/>
		<path class="st5" d="M1325.1-877.4h3.8l5.9,15.1l5.9-15.1h3.7l-8.1,19.7h-3L1325.1-877.4z"/>
		<path class="st5" d="M1348.4-877.4h14.6v3.1h-11.1v5.1h9.8v3.1h-9.8v5.3h11.2v3.1h-14.7V-877.4z"/>
		<path class="st5" d="M1374.9-877.4h3.2l8.6,19.7h-3.7l-2-4.7h-9.3l-2,4.7h-3.5L1374.9-877.4z M1379.8-865.5l-3.4-7.8l-3.4,7.8
			H1379.8z"/>
		<path class="st5" d="M1390.7-877.4h3.4v16.5h10.3v3.1h-13.7V-877.4L1390.7-877.4z"/>
	</g>
</g>
<line class="st12" x1="1524.7" y1="-1053.4" x2="2588" y2="-1053.4"/>
<line class="st12" x1="1524.7" y1="306.3" x2="2588" y2="306.3"/>
<line class="st12" x1="1524.7" y1="-1386.5" x2="2588" y2="-1386.5"/>
<g>
	<g>
		<g>
			<ellipse class="st13" cx="1652.5" cy="-1884.1" rx="8.4" ry="8.6"/>
		</g>
		<g>
			<ellipse class="st13" cx="1618.6" cy="-1884.1" rx="8.4" ry="8.6"/>
		</g>
		<g>
			<ellipse class="st13" cx="1584.6" cy="-1884.1" rx="8.4" ry="8.6"/>
		</g>
	</g>
</g>
<g>
	<path d="M1557-2021.1l4-4.8c2.8,2.3,5.7,3.7,9.2,3.7c2.8,0,4.4-1.1,4.4-2.9v-0.1c0-1.7-1.1-2.6-6.2-3.9c-6.2-1.6-10.2-3.3-10.2-9.4
		v-0.1c0-5.6,4.5-9.3,10.8-9.3c4.5,0,8.3,1.4,11.4,3.9l-3.5,5.1c-2.7-1.9-5.4-3-8-3s-4,1.2-4,2.7v0.1c0,2,1.3,2.7,6.6,4
		c6.2,1.6,9.8,3.9,9.8,9.2v0.1c0,6.1-4.7,9.5-11.3,9.5C1565.4-2016.2,1560.7-2017.8,1557-2021.1z"/>
	<path d="M1585.4-2023.5L1585.4-2023.5c0-5.2,3.9-7.6,9.5-7.6c2.4,0,4.1,0.4,5.8,1v-0.5c0-2.8-1.7-4.3-5.1-4.3
		c-2.6,0-4.4,0.5-6.5,1.3l-1.7-5.1c2.6-1.1,5.1-1.9,9.2-1.9c3.7,0,6.3,1,8,2.6c1.8,1.8,2.6,4.4,2.6,7.5v13.7h-6.5v-2.6
		c-1.6,1.8-3.9,3-7.1,3C1589.1-2016.2,1585.4-2018.7,1585.4-2023.5z M1600.8-2025v-1.2c-1.1-0.5-2.6-0.9-4.3-0.9
		c-2.9,0-4.6,1.1-4.6,3.3v0.1c0,1.8,1.5,2.9,3.7,2.9C1598.7-2020.8,1600.8-2022.5,1600.8-2025z"/>
	<path d="M1613.4-2048.8h6.7v32.1h-6.7V-2048.8z"/>
	<path d="M1625.5-2028.3L1625.5-2028.3c0-6.8,4.8-12.4,11.7-12.4c7.9,0,11.5,6.1,11.5,12.8c0,0.5,0,1.1-0.1,1.8h-16.4
		c0.7,3,2.8,4.6,5.8,4.6c2.2,0,3.9-0.7,5.7-2.4l3.8,3.4c-2.2,2.7-5.4,4.4-9.6,4.4C1630.7-2016.1,1625.5-2021.1,1625.5-2028.3z
		 M1642.1-2030.3c-0.4-3-2.2-5-5-5s-4.6,2-5.1,5H1642.1z"/>
	<path d="M1651.9-2019.8l2.9-4.4c2.6,1.8,5.2,2.8,7.4,2.8c1.9,0,2.8-0.7,2.8-1.8v-0.1c0-1.5-2.3-1.9-4.9-2.7c-3.3-1-7-2.5-7-7.1
		v-0.1c0-4.8,3.9-7.5,8.6-7.5c3,0,6.2,1,8.8,2.7l-2.6,4.6c-2.3-1.4-4.7-2.2-6.4-2.2c-1.6,0-2.5,0.7-2.5,1.6v0.1
		c0,1.3,2.2,1.9,4.8,2.8c3.3,1.1,7.1,2.7,7.1,7v0.1c0,5.2-3.9,7.6-9,7.6C1658.8-2016.2,1655.1-2017.3,1651.9-2019.8z"/>
	<path d="M1690.2-2047.5h12.6c7.3,0,11.8,4.4,11.8,10.6v0.1c0,7.1-5.5,10.8-12.5,10.8h-5.1v9.2h-6.8V-2047.5z M1702.4-2032
		c3.4,0,5.4-2,5.4-4.7v-0.1c0-3-2.1-4.7-5.5-4.7h-5.3v9.4L1702.4-2032L1702.4-2032z"/>
	<path d="M1717.3-2023.5L1717.3-2023.5c0-5.2,3.9-7.6,9.5-7.6c2.4,0,4.1,0.4,5.8,1v-0.5c0-2.8-1.7-4.3-5.1-4.3
		c-2.6,0-4.4,0.5-6.5,1.3l-1.7-5.1c2.6-1.1,5.1-1.9,9.2-1.9c3.7,0,6.3,1,8,2.6c1.8,1.8,2.6,4.4,2.6,7.5v13.7h-6.5v-2.6
		c-1.6,1.8-3.9,3-7.1,3C1720.9-2016.2,1717.3-2018.7,1717.3-2023.5z M1732.6-2025v-1.2c-1.1-0.5-2.6-0.9-4.3-0.9
		c-2.9,0-4.6,1.1-4.6,3.3v0.1c0,1.8,1.5,2.9,3.7,2.9C1730.5-2020.8,1732.6-2022.5,1732.6-2025z"/>
	<path d="M1745.1-2012l2.3-5c2.4,1.4,4.8,2.2,8,2.2c4.6,0,6.7-2.2,6.7-6.4v-1.1c-2,2.4-4.1,3.8-7.7,3.8c-5.5,0-10.5-4-10.5-11v-0.1
		c0-7,5.1-11,10.5-11c3.7,0,5.8,1.5,7.6,3.5v-3.1h6.7v18.3c0,4.2-1,7.3-3,9.3c-2.2,2.2-5.6,3.2-10.2,3.2
		C1751.7-2009.5,1748.1-2010.5,1745.1-2012z M1762.1-2029.6L1762.1-2029.6c0-3.3-2.5-5.5-5.8-5.5s-5.7,2.2-5.7,5.5v0.1
		c0,3.3,2.5,5.5,5.7,5.5C1759.6-2024.1,1762.1-2026.5,1762.1-2029.6z"/>
	<path d="M1773.7-2028.3L1773.7-2028.3c0-6.8,4.8-12.4,11.7-12.4c7.9,0,11.5,6.1,11.5,12.8c0,0.5,0,1.1-0.1,1.8h-16.4
		c0.7,3,2.8,4.6,5.8,4.6c2.2,0,3.9-0.7,5.7-2.4l3.8,3.4c-2.2,2.7-5.4,4.4-9.6,4.4C1779-2016.1,1773.7-2021.1,1773.7-2028.3z
		 M1790.4-2030.3c-0.4-3-2.2-5-5-5s-4.6,2-5.1,5H1790.4z"/>
	<path d="M1823.4-2041.2h-9.4v-6.2h25.5v6.2h-9.4v24.6h-6.8L1823.4-2041.2L1823.4-2041.2z"/>
	<path d="M1838.5-2028.3L1838.5-2028.3c0-6.8,4.8-12.4,11.7-12.4c7.9,0,11.5,6.1,11.5,12.8c0,0.5,0,1.1-0.1,1.8h-16.4
		c0.7,3,2.8,4.6,5.8,4.6c2.2,0,3.9-0.7,5.7-2.4l3.8,3.4c-2.2,2.7-5.4,4.4-9.6,4.4C1843.7-2016.1,1838.5-2021.1,1838.5-2028.3z
		 M1855.1-2030.3c-0.4-3-2.2-5-5-5s-4.6,2-5.1,5H1855.1z"/>
	<path d="M1866.8-2040.2h6.7v3.3c1.5-2,3.6-3.8,7-3.8c3.1,0,5.4,1.4,6.6,3.7c2.1-2.4,4.5-3.7,7.7-3.7c5,0,8,3,8,8.7v15.4h-6.7v-13.2
		c0-3.2-1.4-4.8-3.9-4.8s-4,1.6-4,4.8v13.2h-6.7v-13.2c0-3.2-1.4-4.8-3.9-4.8s-4,1.6-4,4.8v13.2h-6.7L1866.8-2040.2L1866.8-2040.2z"
		/>
	<path d="M1908.8-2040.2h6.7v3.4c1.6-2.2,3.9-3.8,7.3-3.8c5.5,0,10.7,4.3,10.7,12.2v0.1c0,7.9-5.1,12.2-10.7,12.2
		c-3.6,0-5.8-1.6-7.3-3.5v10.1h-6.7V-2040.2z M1926.9-2028.5L1926.9-2028.5c0-4-2.6-6.6-5.8-6.6c-3.1,0-5.7,2.6-5.7,6.5v0.1
		c0,3.9,2.6,6.5,5.7,6.5C1924.3-2022,1926.9-2024.5,1926.9-2028.5z"/>
	<path d="M1939-2048.8h6.7v32.1h-6.7V-2048.8z"/>
	<path d="M1950.8-2023.5L1950.8-2023.5c0-5.2,3.9-7.6,9.5-7.6c2.4,0,4.1,0.4,5.8,1v-0.5c0-2.8-1.7-4.3-5.1-4.3
		c-2.6,0-4.4,0.5-6.5,1.3l-1.7-5.1c2.6-1.1,5.1-1.9,9.2-1.9c3.7,0,6.3,1,8,2.6c1.8,1.8,2.6,4.4,2.6,7.5v13.7h-6.5v-2.6
		c-1.6,1.8-3.9,3-7.1,3C1954.5-2016.2,1950.8-2018.7,1950.8-2023.5z M1966.2-2025v-1.2c-1.1-0.5-2.6-0.9-4.3-0.9
		c-2.9,0-4.6,1.1-4.6,3.3v0.1c0,1.8,1.5,2.9,3.7,2.9C1964.1-2020.8,1966.2-2022.5,1966.2-2025z"/>
	<path d="M1979.4-2023.3v-11.2h-2.8v-5.7h2.8v-6h6.7v6h5.5v5.7h-5.5v10.1c0,1.5,0.7,2.3,2.2,2.3c1.2,0,2.3-0.3,3.3-0.8v5.4
		c-1.4,0.8-3,1.4-5.3,1.4C1982.2-2016.2,1979.4-2018,1979.4-2023.3z"/>
	<path d="M1995-2028.3L1995-2028.3c0-6.8,4.8-12.4,11.7-12.4c7.9,0,11.5,6.1,11.5,12.8c0,0.5,0,1.1-0.1,1.8h-16.4
		c0.7,3,2.8,4.6,5.8,4.6c2.2,0,3.9-0.7,5.7-2.4l3.8,3.4c-2.2,2.7-5.4,4.4-9.6,4.4C2000.2-2016.1,1995-2021.1,1995-2028.3z
		 M2011.6-2030.3c-0.4-3-2.2-5-5-5s-4.6,2-5.1,5H2011.6z"/>
</g>
<g>
	<g>
		<path class="st14" d="M2587-422.9h-402.1c-4.7,0-8.5-3.8-8.5-8.5v-517.5c0-4.7,3.8-8.5,8.5-8.5H2587V-422.9z"/>
	</g>
	<g>
		<g>
			<path class="st15" d="M2507.3-597.6h-247.5v-185.2h247.5V-597.6z M2261.7-599.6h243.5v-181.2h-243.5V-599.6z"/>
		</g>
		<g>
			<path class="st15" d="M2507.3-597.6h-247.5v-185.2h247.5V-597.6z M2261.7-599.6h243.5v-181.2h-243.5V-599.6z"/>
		</g>
		<g>
			<polygon class="st15" points="2332.8,-597.9 2331.4,-599.4 2468.2,-736.2 2507,-697.5 2505.6,-696 2468.2,-733.4 			"/>
		</g>
		<g>
			<polygon class="st15" points="2261.8,-597.6 2260.4,-599 2360.3,-698.9 2396.3,-662.9 2394.9,-661.5 2360.3,-696.1 			"/>
		</g>
		<g>
			<path class="st15" d="M2312.9-710c-11.1,0-20.2-9.1-20.2-20.2s9.1-20.2,20.2-20.2c11.1,0,20.2,9.1,20.2,20.2S2324-710,2312.9-710
				z M2312.9-748.4c-10,0-18.2,8.2-18.2,18.2s8.2,18.2,18.2,18.2s18.2-8.2,18.2-18.2S2322.9-748.4,2312.9-748.4z"/>
		</g>
	</g>
</g>
<g>
	<g>
		<rect x="1650.6" y="-1500" class="st14" width="744.3" height="16.7"/>
	</g>
	<g>
		<rect x="1650.6" y="-1542.7" class="st14" width="855.6" height="16.7"/>
	</g>
	<g>
		<rect x="1650.6" y="-1585.5" class="st14" width="855.6" height="16.7"/>
	</g>
</g>
<g>
	<g>
		<rect x="1650.6" y="-1167" class="st14" width="681.5" height="16.7"/>
	</g>
	<g>
		<rect x="1650.6" y="-1209.7" class="st14" width="855.6" height="16.7"/>
	</g>
	<g>
		<rect x="1650.6" y="-1252.5" class="st14" width="855.6" height="16.7"/>
	</g>
	<g>
		<rect x="1650.6" y="-1294.5" class="st14" width="855.6" height="16.7"/>
	</g>
</g>
<g>
	<g>
		<rect x="1867.4" y="550.1" class="st14" width="464.6" height="16.7"/>
	</g>
	<g>
		<rect x="1867.4" y="507.3" class="st14" width="638.1" height="16.7"/>
	</g>
	<g>
		<rect x="1867.4" y="464.6" class="st14" width="638.1" height="16.7"/>
	</g>
	<g>
		<rect x="1867.4" y="422.6" class="st14" width="638.1" height="16.7"/>
	</g>
</g>
<g>
	<rect x="1650.6" y="-1700.5" class="st14" width="537.6" height="29"/>
</g>
<g>
	<rect x="1650.6" y="-1773.5" class="st14" width="855.6" height="29"/>
</g>
<g>
	<rect x="1649.1" y="39.1" class="st14" width="856.4" height="26.4"/>
</g>
<g>
	<g>
		<g>
			<rect x="1792.9" y="-150" class="st14" width="552.7" height="16.7"/>
		</g>
		<g>
			<rect x="1792.9" y="-192.2" class="st14" width="595.6" height="16.7"/>
		</g>
		<g>
			<rect x="1792.9" y="-234.4" class="st14" width="507" height="16.7"/>
		</g>
	</g>
	<g>
		<g>
			<path class="st8" d="M1650.6-267.6c0-23.6,11.8-33.1,33.1-33.4l2.3,11.3c-12.3,1.3-18.4,7.5-17.5,17.7h11.1v28.6h-29V-267.6
				L1650.6-267.6z M1696-267.6c0-23.6,11.8-33.1,33.1-33.4l2.3,11.3c-12.3,1.3-18.4,7.5-17.5,17.7h11.1v28.6h-29V-267.6L1696-267.6z
				"/>
		</g>
	</g>
	<g>
		<g>
			<path class="st8" d="M2459.5-109.1c0,23.6-11.8,33.1-33.1,33.4l-2.3-11.3c12.3-1.3,18.4-7.5,17.5-17.7h-11.1v-28.6h29V-109.1z
				 M2504.9-109.1c0,23.6-11.8,33.1-33.1,33.4l-2.3-11.3c12.3-1.3,18.4-7.5,17.5-17.7h-11.1v-28.6h29V-109.1z"/>
		</g>
	</g>
</g>
<g>
	<rect x="1650.6" y="-818.4" class="st14" width="405.8" height="16.7"/>
</g>
<g>
	<rect x="1650.6" y="-861.1" class="st14" width="450" height="16.7"/>
</g>
<g>
	<rect x="1650.6" y="-957.4" class="st14" width="450" height="29"/>
</g>
<g>
	<g>
		<rect x="1700.7" y="-591.6" class="st14" width="269.2" height="16.7"/>
	</g>
	<g>
		<rect x="1700.7" y="-664.1" class="st14" width="399.8" height="16.7"/>
	</g>
	<g>
		<circle class="st11" cx="1652.5" cy="-655.9" r="8.3"/>
	</g>
	<g>
		<circle class="st11" cx="1652.5" cy="-583.4" r="8.3"/>
	</g>
	<g>
		<rect x="1700.7" y="-736.6" class="st14" width="399.8" height="16.7"/>
	</g>
	<g>
		<circle class="st11" cx="1652.5" cy="-728.4" r="8.3"/>
	</g>
</g>
<g>
	<g>
		<path class="st9" d="M2094.2-422.9h-437.3c-3.5,0-6.4-2.8-6.4-6.4v-63.5c0-3.5,2.8-6.4,6.4-6.4h437.3c3.5,0,6.4,2.8,6.4,6.4v63.5
			C2100.6-425.6,2097.7-422.9,2094.2-422.9z"/>
	</g>
	<g>
		<path class="st5" d="M1803.8-470.2h9.1c2.2,0,4,0.6,5.1,1.7c0.9,0.9,1.3,2,1.3,3.3v0.1c0,2.2-1.2,3.4-2.6,4.2
			c2.3,0.9,3.7,2.2,3.7,4.8v0.1c0,3.6-2.9,5.4-7.3,5.4h-9.3L1803.8-470.2L1803.8-470.2z M1812-462.2c1.9,0,3.1-0.6,3.1-2.1v-0.1
			c0-1.3-1-2-2.8-2h-4.3v4.1L1812-462.2L1812-462.2z M1813.1-454.4c1.9,0,3.1-0.7,3.1-2.1v-0.1c0-1.3-1-2.1-3.2-2.1h-5v4.3
			L1813.1-454.4L1813.1-454.4z"/>
		<path class="st5" d="M1824.4-459v-11.2h4.3v11.1c0,3.2,1.6,4.8,4.2,4.8s4.2-1.6,4.2-4.7v-11.2h4.3v11.1c0,5.9-3.3,8.8-8.6,8.8
			C1827.6-450.2,1824.4-453.2,1824.4-459z"/>
		<path class="st5" d="M1852.1-458.4l-7.5-11.9h5l4.7,7.9l4.8-7.9h4.9l-7.5,11.8v7.8h-4.3L1852.1-458.4L1852.1-458.4z"/>
		<path class="st5" d="M1876.4-470.2h4l9.2,12.1v-12.1h4.3v19.6h-3.7l-9.5-12.5v12.5h-4.3V-470.2z"/>
		<path class="st5" d="M1898.4-460.4L1898.4-460.4c0-5.6,4.4-10.2,10.4-10.2s10.4,4.5,10.4,10.1v0.1c0,5.6-4.4,10.1-10.4,10.1
			S1898.4-454.7,1898.4-460.4z M1914.7-460.4L1914.7-460.4c0-3.4-2.5-6.2-5.9-6.2s-5.9,2.7-5.9,6.1v0.1c0,3.4,2.5,6.2,5.9,6.2
			C1912.3-454.2,1914.7-456.9,1914.7-460.4z"/>
		<path class="st5" d="M1921.1-470.2h4.6l4.1,13.3l4.4-13.3h3.7l4.4,13.3l4.1-13.3h4.5l-6.7,19.7h-3.8l-4.4-12.8l-4.4,12.8h-3.8
			L1921.1-470.2z"/>
	</g>
</g>
<g>
	<g>
		<path class="st9" d="M2296,202.3h-437.3c-3.5,0-6.4-2.8-6.4-6.4v-63.5c0-3.5,2.8-6.4,6.4-6.4H2296c3.5,0,6.4,2.8,6.4,6.4v63.5
			C2302.3,199.6,2299.5,202.3,2296,202.3z"/>
	</g>
	<g>
		<path class="st5" d="M2005.6,155.1h9.1c2.2,0,4,0.6,5.1,1.7c0.9,0.9,1.3,2,1.3,3.3v0.1c0,2.2-1.2,3.4-2.6,4.2
			c2.3,0.9,3.7,2.2,3.7,4.8v0.1c0,3.6-2.9,5.4-7.3,5.4h-9.3L2005.6,155.1L2005.6,155.1z M2013.8,163c1.9,0,3.1-0.6,3.1-2.1v-0.1
			c0-1.3-1-2-2.8-2h-4.3v4.1L2013.8,163L2013.8,163L2013.8,163z M2014.9,170.8c1.9,0,3.1-0.7,3.1-2.1v-0.1c0-1.3-1-2.1-3.2-2.1h-5
			v4.3L2014.9,170.8L2014.9,170.8z"/>
		<path class="st5" d="M2026.2,166.3v-11.2h4.3v11.1c0,3.2,1.6,4.8,4.2,4.8s4.2-1.6,4.2-4.7v-11.2h4.3v11.1c0,5.9-3.3,8.8-8.6,8.8
			S2026.2,172,2026.2,166.3z"/>
		<path class="st5" d="M2053.9,166.8l-7.5-11.9h5l4.7,7.9l4.8-7.9h4.9l-7.5,11.8v7.8h-4.3L2053.9,166.8L2053.9,166.8z"/>
		<path class="st5" d="M2078.2,155.1h4l9.2,12.1v-12.1h4.3v19.6h-3.7l-9.5-12.5v12.5h-4.3V155.1z"/>
		<path class="st5" d="M2100.2,164.8L2100.2,164.8c0-5.6,4.4-10.2,10.4-10.2s10.4,4.5,10.4,10.1v0.1c0,5.6-4.4,10.1-10.4,10.1
			C2104.5,175,2100.2,170.5,2100.2,164.8z M2116.5,164.8L2116.5,164.8c0-3.4-2.5-6.2-5.9-6.2c-3.5,0-5.9,2.7-5.9,6.1v0.1
			c0,3.4,2.5,6.2,5.9,6.2C2114,171,2116.5,168.3,2116.5,164.8z"/>
		<path class="st5" d="M2122.9,155.1h4.6l4.1,13.3l4.4-13.3h3.7l4.4,13.3l4.1-13.3h4.5l-6.7,19.7h-3.8l-4.4-12.8l-4.4,12.8h-3.8
			L2122.9,155.1z"/>
	</g>
</g>
<g>
	<g>
		<polygon class="st10" points="1713.5,529.8 1665.9,482.1 1680.1,468 1713.5,501.5 1764.4,450.6 1778.6,464.6 		"/>
	</g>
	<g>
		<path class="st10" d="M1713.3,558.3c-35.1,0-63.7-28.6-63.7-63.7s28.6-63.7,63.7-63.7c15,0,29.5,5.3,40.9,14.9l-1.3,1.5
			c-11.1-9.3-25.2-14.4-39.7-14.4c-34,0-61.7,27.7-61.7,61.7s27.7,61.7,61.7,61.7s61.7-27.7,61.7-61.7c0-3.4-0.3-6.8-0.8-10.1l2-0.3
			c0.6,3.4,0.9,7,0.9,10.5C1777,529.8,1748.4,558.3,1713.3,558.3z"/>
	</g>
</g>
</svg>
