<?xml version="1.0" encoding="utf-8"?>
<!-- Generator: Adobe Illustrator 19.1.0, SVG Export Plug-In . SVG Version: 6.00 Build 0)  -->
<svg version="1.1" id="Layer_1" xmlns="http://www.w3.org/2000/svg" xmlns:xlink="http://www.w3.org/1999/xlink" x="0px" y="0px"
	 viewBox="988 -387.5 1600 1179.7" style="enable-background:new 988 -387.5 1600 1179.7;" width="1600px" height="1180px" xml:space="preserve">
<style type="text/css">
	.st0{fill:none;}
	.st1{fill:#F6F6F6;}
	.st2{fill:#4689FF;}
	.st3{fill:#FFFFFF;}
	.st4{fill:#00BEA4;}
	.st5{fill:#4960C1;}
	.st6{fill:#B12CFF;}
	.st7{opacity:5.000000e-002;}
	.st8{fill:#FFFFFF;stroke:#E8E8E8;stroke-miterlimit:10;}
	.st9{fill:#E2E2E2;stroke:#E2E2E2;stroke-miterlimit:10;}
	.st10{fill:#F2F2F2;}
	.st11{fill:#5D5EF4;}
	.st12{fill:#DDDDDD;}
	.st13{fill:none;stroke:#E8E8E8;stroke-miterlimit:10;}
</style>
<rect x="988" y="-387.5" class="st0" width="1600" height="1179.7"/>
<polygon class="st1" points="2488.2,-231.2 2488.2,-41.1 2178.1,155.1 1399.7,155.1 1088.5,-41.1 1088.5,-231.2 "/>
<g>
	<g>
		<g>
			<path class="st2" d="M1329.1-179.2h-234.2c-3.5,0-6.4-2.8-6.4-6.4v-91.5c0-3.5,2.8-6.4,6.4-6.4h234.3c3.5,0,6.4,2.8,6.4,6.4v91.5
				C1335.5-182.1,1332.7-179.2,1329.1-179.2z"/>
		</g>
		<g>
			<path class="st3" d="M1149.1-230.8L1149.1-230.8c0-5.5,4.2-10.2,10.1-10.2c3.4,0,5.5,1,7.5,2.7l-2.2,2.6c-1.5-1.3-3-2.1-5.5-2.1
				c-3.6,0-6.4,3.2-6.4,6.9v0.1c0,4,2.7,7,6.7,7c1.8,0,3.5-0.6,4.7-1.5v-3.7h-5v-3h8.3v8.2c-1.9,1.7-4.7,3.1-8.2,3.1
				C1153.2-220.7,1149.1-225,1149.1-230.8z"/>
			<path class="st3" d="M1171.8-230.8L1171.8-230.8c0-5.6,4.3-10.2,10.3-10.2s10.2,4.6,10.2,10.1v0.1c0,5.5-4.3,10.1-10.3,10.1
				S1171.8-225.2,1171.8-230.8z M1188.7-230.8L1188.7-230.8c0-3.9-2.8-7-6.7-7s-6.6,3.1-6.6,6.9v0.1c0,3.8,2.8,7,6.7,7
				C1186-223.8,1188.7-227,1188.7-230.8z"/>
			<path class="st3" d="M1196.3-230.8L1196.3-230.8c0-5.6,4.3-10.2,10.3-10.2s10.2,4.6,10.2,10.1v0.1c0,5.5-4.3,10.1-10.3,10.1
				S1196.3-225.2,1196.3-230.8z M1213.2-230.8L1213.2-230.8c0-3.9-2.8-7-6.7-7s-6.6,3.1-6.6,6.9v0.1c0,3.8,2.8,7,6.7,7
				C1210.5-223.8,1213.2-227,1213.2-230.8z"/>
			<path class="st3" d="M1220.8-230.8L1220.8-230.8c0-5.5,4.2-10.2,10.1-10.2c3.4,0,5.5,1,7.5,2.7l-2.2,2.6c-1.5-1.3-3-2.1-5.5-2.1
				c-3.6,0-6.4,3.2-6.4,6.9v0.1c0,4,2.7,7,6.7,7c1.8,0,3.5-0.6,4.7-1.5v-3.7h-5v-3h8.3v8.2c-1.9,1.7-4.7,3.1-8.2,3.1
				C1224.8-220.7,1220.8-225,1220.8-230.8z"/>
			<path class="st3" d="M1244.3-240.6h3.4v16.5h10.3v3.1h-13.7V-240.6L1244.3-240.6z"/>
			<path class="st3" d="M1262.3-240.6h14.5v3.1h-11.1v5.1h9.8v3.1h-9.8v5.3h11.3v3.1h-14.7V-240.6z"/>
		</g>
	</g>
	<g>
		<g>
			<path class="st4" d="M2481.1-179.2h-282.3c-3.5,0-6.4-2.8-6.4-6.4v-91.5c0-3.5,2.8-6.4,6.4-6.4h282.3c3.5,0,6.4,2.8,6.4,6.4v91.5
				C2487.5-182.1,2484.7-179.2,2481.1-179.2z"/>
		</g>
		<g>
			<path class="st3" d="M2247.4-240.6h8.8c2.2,0,4,0.6,5.1,1.7c0.9,0.9,1.3,1.9,1.3,3.2v0.1c0,2.4-1.3,3.6-2.8,4.4
				c2.3,0.8,3.9,2.1,3.9,4.8v0.1c0,3.5-2.9,5.4-7.3,5.4h-9.1L2247.4-240.6L2247.4-240.6z M2255.4-232.4c2.2,0,3.7-0.9,3.7-2.7v-0.1
				c0-1.5-1.2-2.5-3.4-2.5h-5v5.2h4.7V-232.4L2255.4-232.4z M2256.5-224.1c2.4,0,3.8-0.9,3.8-2.7v-0.1c0-1.7-1.3-2.6-4-2.6h-5.5v5.4
				H2256.5L2256.5-224.1z"/>
			<path class="st3" d="M2268.3-240.6h3.4v16.5h10.3v3.1h-13.7L2268.3-240.6L2268.3-240.6z"/>
			<path class="st3" d="M2284.3-230.8L2284.3-230.8c0-5.6,4.3-10.2,10.3-10.2s10.2,4.6,10.2,10.1v0.1c0,5.5-4.3,10.1-10.3,10.1
				S2284.3-225.2,2284.3-230.8z M2301.2-230.8L2301.2-230.8c0-3.9-2.8-7-6.7-7s-6.6,3.1-6.6,6.9v0.1c0,3.8,2.8,7,6.7,7
				C2298.5-223.8,2301.2-227,2301.2-230.8z"/>
			<path class="st3" d="M2308.8-230.8L2308.8-230.8c0-5.5,4.2-10.2,10.1-10.2c3.4,0,5.5,1,7.5,2.7l-2.2,2.6c-1.5-1.3-3-2.1-5.5-2.1
				c-3.6,0-6.4,3.2-6.4,6.9v0.1c0,4,2.7,7,6.7,7c1.8,0,3.5-0.6,4.7-1.5v-3.7h-5v-3h8.3v8.2c-1.9,1.7-4.7,3.1-8.2,3.1
				C2312.8-220.7,2308.8-225,2308.8-230.8z"/>
			<path class="st3" d="M2341.4-240.6h7.7c4.6,0,7.4,2.6,7.4,6.6v0.1c0,4.4-3.5,6.7-7.8,6.7h-3.9v6.3h-3.4V-240.6L2341.4-240.6z
				 M2348.9-230.4c2.6,0,4.2-1.5,4.2-3.5v-0.1c0-2.3-1.7-3.5-4.2-3.5h-4v7.1H2348.9z"/>
			<path class="st3" d="M2360-230.8L2360-230.8c0-5.6,4.3-10.2,10.3-10.2s10.2,4.6,10.2,10.1v0.1c0,5.5-4.3,10.1-10.3,10.1
				S2360-225.2,2360-230.8z M2376.9-230.8L2376.9-230.8c0-3.9-2.8-7-6.7-7c-3.9,0-6.6,3.1-6.6,6.9v0.1c0,3.8,2.8,7,6.7,7
				C2374.1-223.8,2376.9-227,2376.9-230.8z"/>
			<path class="st3" d="M2383.9-223.9l2.1-2.5c1.9,1.6,3.8,2.5,6.2,2.5c2.1,0,3.5-1,3.5-2.5v-0.1c0-1.4-0.8-2.2-4.4-3
				c-4.2-1-6.5-2.2-6.5-5.9v-0.1c0-3.4,2.8-5.7,6.7-5.7c2.9,0,5.1,0.9,7.1,2.5l-1.8,2.6c-1.8-1.3-3.5-2-5.3-2c-2,0-3.2,1-3.2,2.3
				v0.1c0,1.5,0.9,2.2,4.6,3.1c4.1,1,6.3,2.5,6.3,5.7v0.1c0,3.7-2.9,5.9-7,5.9C2389.1-220.7,2386.2-221.8,2383.9-223.9z"/>
			<path class="st3" d="M2408.2-237.4h-6.2v-3.2h15.9v3.2h-6.2v16.4h-3.5L2408.2-237.4L2408.2-237.4z"/>
			<path class="st3" d="M2420.5-223.9l2.1-2.5c1.9,1.6,3.8,2.5,6.2,2.5c2.1,0,3.5-1,3.5-2.5v-0.1c0-1.4-0.8-2.2-4.4-3
				c-4.2-1-6.5-2.2-6.5-5.9v-0.1c0-3.4,2.8-5.7,6.7-5.7c2.9,0,5.1,0.9,7.1,2.5l-1.8,2.6c-1.8-1.3-3.5-2-5.3-2c-2,0-3.2,1-3.2,2.3
				v0.1c0,1.5,0.9,2.2,4.6,3.1c4.1,1,6.3,2.5,6.3,5.7v0.1c0,3.7-2.9,5.9-7,5.9C2425.7-220.7,2422.9-221.8,2420.5-223.9z"/>
		</g>
	</g>
	<g>
		<g>
			<path class="st5" d="M1702.1-179.2h-320.2c-3.5,0-6.4-2.8-6.4-6.4v-91.5c0-3.5,2.8-6.4,6.4-6.4h320.3c3.5,0,6.4,2.8,6.4,6.4v91.5
				C1708.5-182.1,1705.7-179.2,1702.1-179.2z"/>
		</g>
		<g>
			<path class="st3" d="M1424.4-240.6h14.6v3.1h-11.1v5.3h9.9v3.1h-9.9v8h-3.4L1424.4-240.6L1424.4-240.6z"/>
			<path class="st3" d="M1448.1-240.8h3.2l8.6,19.7h-3.6l-2-4.7h-9.3l-2,4.7h-3.5L1448.1-240.8z M1453.1-228.8l-3.4-7.8l-3.4,7.8
				H1453.1z"/>
			<path class="st3" d="M1462-230.8L1462-230.8c0-5.6,4.2-10.2,10.1-10.2c3.6,0,5.8,1.3,7.7,3.1l-2.2,2.5c-1.6-1.5-3.2-2.4-5.5-2.4
				c-3.8,0-6.5,3.1-6.5,6.9v0.1c0,3.8,2.7,7,6.5,7c2.4,0,3.9-1,5.6-2.5l2.2,2.2c-2,2.1-4.3,3.5-8,3.5
				C1466.2-220.7,1462-225.1,1462-230.8z"/>
			<path class="st3" d="M1484.2-240.6h14.5v3.1h-11.1v5.1h9.8v3.1h-9.8v5.3h11.2v3.1h-14.7L1484.2-240.6
				C1484.1-240.6,1484.2-240.6,1484.2-240.6z"/>
			<path class="st3" d="M1503.6-240.6h8.8c2.2,0,4,0.6,5.1,1.7c0.9,0.9,1.3,1.9,1.3,3.2v0.1c0,2.4-1.3,3.6-2.8,4.4
				c2.3,0.8,3.9,2.1,3.9,4.8v0.1c0,3.5-2.9,5.4-7.3,5.4h-9.1L1503.6-240.6L1503.6-240.6z M1511.7-232.4c2.2,0,3.7-0.9,3.7-2.7v-0.1
				c0-1.5-1.2-2.5-3.4-2.5h-5v5.2h4.7V-232.4z M1512.7-224.1c2.4,0,3.8-0.9,3.8-2.7v-0.1c0-1.7-1.3-2.6-4-2.6h-5.5v5.4H1512.7
				L1512.7-224.1z"/>
			<path class="st3" d="M1523.7-230.8L1523.7-230.8c0-5.6,4.3-10.2,10.3-10.2s10.2,4.6,10.2,10.1v0.1c0,5.5-4.3,10.1-10.3,10.1
				S1523.7-225.2,1523.7-230.8z M1540.6-230.8L1540.6-230.8c0-3.9-2.8-7-6.7-7c-3.9,0-6.6,3.1-6.6,6.9v0.1c0,3.8,2.8,7,6.7,7
				S1540.6-227,1540.6-230.8z"/>
			<path class="st3" d="M1548.2-230.8L1548.2-230.8c0-5.6,4.3-10.2,10.3-10.2s10.2,4.6,10.2,10.1v0.1c0,5.5-4.3,10.1-10.3,10.1
				S1548.2-225.2,1548.2-230.8z M1565.1-230.8L1565.1-230.8c0-3.9-2.8-7-6.7-7c-3.9,0-6.6,3.1-6.6,6.9v0.1c0,3.8,2.8,7,6.7,7
				S1565.1-227,1565.1-230.8z"/>
			<path class="st3" d="M1573.6-240.6h3.4v9.9l9.3-9.9h4.2l-8.1,8.4l8.5,11.2h-4.2l-6.7-8.8l-3.1,3.1v5.7h-3.4L1573.6-240.6
				L1573.6-240.6z"/>
			<path class="st3" d="M1610.6-240.8h3.2l8.6,19.7h-3.6l-2-4.7h-9.3l-2,4.7h-3.5L1610.6-240.8z M1615.5-228.8l-3.4-7.8l-3.4,7.8
				H1615.5z"/>
			<path class="st3" d="M1626.5-240.6h7.3c6.2,0,10.4,4.2,10.4,9.7v0.1c0,5.5-4.3,9.8-10.4,9.8h-7.3V-240.6z M1633.8-224.2
				c4.1,0,6.8-2.8,6.8-6.6v-0.1c0-3.8-2.7-6.7-6.8-6.7h-3.9v13.3L1633.8-224.2L1633.8-224.2z"/>
			<path class="st3" d="M1647.5-223.9l2.1-2.5c1.9,1.6,3.8,2.5,6.2,2.5c2.1,0,3.5-1,3.5-2.5v-0.1c0-1.4-0.8-2.2-4.4-3
				c-4.2-1-6.5-2.2-6.5-5.9v-0.1c0-3.4,2.8-5.7,6.7-5.7c2.9,0,5.1,0.9,7.1,2.5l-1.8,2.6c-1.8-1.3-3.5-2-5.3-2c-2,0-3.2,1-3.2,2.3
				v0.1c0,1.5,0.9,2.2,4.6,3.1c4.1,1,6.3,2.5,6.3,5.7v0.1c0,3.7-2.9,5.9-7,5.9C1652.7-220.7,1649.8-221.8,1647.5-223.9z"/>
		</g>
	</g>
	<g>
		<g>
			<path class="st6" d="M2146.1-179.2h-391.2c-3.5,0-6.4-2.8-6.4-6.4v-91.5c0-3.5,2.8-6.4,6.4-6.4h391.3c3.5,0,6.4,2.8,6.4,6.4v91.5
				C2152.5-182.1,2149.7-179.2,2146.1-179.2z"/>
		</g>
		<g>
			<path class="st3" d="M1795.5-240.6h3.4v19.6h-3.4V-240.6z"/>
			<path class="st3" d="M1804.9-240.6h3.2l10.5,13.6v-13.6h3.4v19.6h-2.9l-10.8-13.9v13.9h-3.4L1804.9-240.6L1804.9-240.6z"/>
			<path class="st3" d="M1826.4-223.9l2.1-2.5c1.9,1.6,3.8,2.5,6.2,2.5c2.1,0,3.5-1,3.5-2.5v-0.1c0-1.4-0.8-2.2-4.4-3
				c-4.2-1-6.5-2.2-6.5-5.9v-0.1c0-3.4,2.8-5.7,6.7-5.7c2.9,0,5.1,0.9,7.1,2.5l-1.8,2.6c-1.8-1.3-3.5-2-5.3-2c-2,0-3.2,1-3.2,2.3
				v0.1c0,1.5,0.9,2.2,4.6,3.1c4.1,1,6.3,2.5,6.3,5.7v0.1c0,3.7-2.9,5.9-7,5.9C1831.6-220.7,1828.8-221.8,1826.4-223.9z"/>
			<path class="st3" d="M1850.7-237.4h-6.2v-3.2h15.9v3.2h-6.2v16.4h-3.5L1850.7-237.4L1850.7-237.4z"/>
			<path class="st3" d="M1869.2-240.8h3.2l8.6,19.7h-3.6l-2-4.7h-9.3l-2,4.7h-3.5L1869.2-240.8z M1874.1-228.8l-3.4-7.8l-3.4,7.8
				H1874.1z"/>
			<path class="st3" d="M1883-230.8L1883-230.8c0-5.5,4.2-10.2,10.1-10.2c3.4,0,5.5,1,7.5,2.7l-2.2,2.6c-1.5-1.3-3-2.1-5.5-2.1
				c-3.6,0-6.4,3.2-6.4,6.9v0.1c0,4,2.7,7,6.7,7c1.8,0,3.5-0.6,4.7-1.5v-3.7h-5v-3h8.3v8.2c-1.9,1.7-4.7,3.1-8.2,3.1
				C1887-220.7,1883-225,1883-230.8z"/>
			<path class="st3" d="M1906.5-240.6h8.7c2.5,0,4.4,0.7,5.7,2c1,1.1,1.6,2.5,1.6,4.2v0.1c0,3.2-1.9,5.2-4.7,5.9l5.3,7.4h-4.1
				l-4.8-6.8h-4.2v6.8h-3.4L1906.5-240.6L1906.5-240.6z M1915-230.9c2.5,0,4-1.3,4-3.3v-0.1c0-2.1-1.5-3.2-4.1-3.2h-5v6.6H1915z"/>
			<path class="st3" d="M1934.4-240.8h3.2l8.6,19.7h-3.6l-2-4.7h-9.3l-2,4.7h-3.5L1934.4-240.8z M1939.3-228.8l-3.4-7.8l-3.4,7.8
				H1939.3z"/>
			<path class="st3" d="M1950.3-240.6h3.7l6,9.3l6-9.3h3.7v19.6h-3.4v-14.1l-6.2,9.2h-0.1l-6.1-9.2v14h-3.4v-19.5H1950.3z"/>
			<path class="st3" d="M1983.1-223.9l2.1-2.5c1.9,1.6,3.8,2.5,6.2,2.5c2.1,0,3.5-1,3.5-2.5v-0.1c0-1.4-0.8-2.2-4.4-3
				c-4.2-1-6.5-2.2-6.5-5.9v-0.1c0-3.4,2.8-5.7,6.7-5.7c2.9,0,5.1,0.9,7.1,2.5l-1.8,2.6c-1.8-1.3-3.5-2-5.3-2c-2,0-3.2,1-3.2,2.3
				v0.1c0,1.5,0.9,2.2,4.6,3.1c4.1,1,6.3,2.5,6.3,5.7v0.1c0,3.7-2.9,5.9-7,5.9C1988.2-220.7,1985.4-221.8,1983.1-223.9z"/>
			<path class="st3" d="M2007.4-237.4h-6.2v-3.2h15.9v3.2h-6.2v16.4h-3.5L2007.4-237.4L2007.4-237.4z"/>
			<path class="st3" d="M2019.5-230.8L2019.5-230.8c0-5.6,4.3-10.2,10.3-10.2s10.2,4.6,10.2,10.1v0.1c0,5.5-4.3,10.1-10.3,10.1
				S2019.5-225.2,2019.5-230.8z M2036.4-230.8L2036.4-230.8c0-3.9-2.8-7-6.7-7c-3.9,0-6.6,3.1-6.6,6.9v0.1c0,3.8,2.8,7,6.7,7
				S2036.4-227,2036.4-230.8z"/>
			<path class="st3" d="M2044.9-240.6h8.7c2.5,0,4.4,0.7,5.7,2c1,1.1,1.6,2.5,1.6,4.2v0.1c0,3.2-1.9,5.2-4.7,5.9l5.3,7.4h-4.1
				l-4.8-6.8h-4.3v6.8h-3.4L2044.9-240.6L2044.9-240.6z M2053.3-230.9c2.5,0,4-1.3,4-3.3v-0.1c0-2.1-1.5-3.2-4.1-3.2h-5v6.6H2053.3z
				"/>
			<path class="st3" d="M2066-240.6h3.4v19.6h-3.4V-240.6z"/>
			<path class="st3" d="M2075.4-240.6h14.5v3.1h-11.1v5.1h9.8v3.1h-9.8v5.3h11.2v3.1h-14.7L2075.4-240.6L2075.4-240.6z"/>
			<path class="st3" d="M2093.5-223.9l2.1-2.5c1.9,1.6,3.8,2.5,6.2,2.5c2.1,0,3.5-1,3.5-2.5v-0.1c0-1.4-0.8-2.2-4.4-3
				c-4.2-1-6.5-2.2-6.5-5.9v-0.1c0-3.4,2.8-5.7,6.7-5.7c2.9,0,5.1,0.9,7.1,2.5l-1.8,2.6c-1.8-1.3-3.5-2-5.3-2c-2,0-3.2,1-3.2,2.3
				v0.1c0,1.5,0.9,2.2,4.6,3.1c4.1,1,6.3,2.5,6.3,5.7v0.1c0,3.7-2.9,5.9-7,5.9C2098.7-220.7,2095.9-221.8,2093.5-223.9z"/>
		</g>
	</g>
</g>
<g>
	<g>
		<g>
			<g class="st7">
				<g>
					<path d="M2158.2,688.1h-760.4c-5.2,0-9.4-4.2-9.4-9.4V178.9c0-6.3,5.1-11.5,11.5-11.5h756.2c6.3,0,11.5,5.1,11.5,11.5v499.9
						C2167.6,684,2163.4,688.1,2158.2,688.1z"/>
				</g>
			</g>
			<g>
				<path class="st8" d="M2168.2,668.1h-760.4c-5.2,0-9.4-4.2-9.4-9.4V158.9c0-6.3,5.1-11.5,11.5-11.5h756.2
					c6.3,0,11.5,5.1,11.5,11.5v499.9C2177.6,664,2173.4,668.1,2168.2,668.1z"/>
			</g>
			<g>
				<path class="st9" d="M2177.6,186.8h-779.2v-30c0-5.2,4.2-9.4,9.4-9.4h760.4c5.2,0,9.4,4.2,9.4,9.4V186.8L2177.6,186.8z"/>
			</g>
		</g>
		<g>
			<g>
				<g>
					<ellipse class="st1" cx="1473.2" cy="167.1" rx="5.4" ry="5.6"/>
				</g>
				<g>
					<ellipse class="st1" cx="1451.1" cy="167.1" rx="5.4" ry="5.6"/>
				</g>
				<g>
					<ellipse class="st1" cx="1429" cy="167.1" rx="5.4" ry="5.6"/>
				</g>
			</g>
		</g>
	</g>
	<g>
		<g>
			<rect x="1465.9" y="291" class="st10" width="309.9" height="10.1"/>
		</g>
		<g>
			<rect x="1465.9" y="342.6" class="st10" width="212.9" height="10.1"/>
		</g>
		<g>
			<rect x="1465.9" y="316.8" class="st10" width="309.9" height="10.1"/>
		</g>
		<g>
			<rect x="1465.9" y="241" class="st10" width="309.9" height="17.5"/>
		</g>
	</g>
	<g>
		<g>
			<path class="st11" d="M1773.7,534.8h-301.4c-3.5,0-6.4-2.8-6.4-6.4v-38.1c0-3.5,2.8-6.4,6.4-6.4h301.4c3.5,0,6.4,2.8,6.4,6.4v38
				C1780.1,532,1777.2,534.8,1773.7,534.8z"/>
		</g>
		<g>
			<path class="st3" d="M1605.4,510.1L1605.4,510.1c0-3.6,2.7-6.6,6.6-6.6c2.4,0,3.8,0.8,5,1.9l-1.8,2c-1-0.9-2-1.4-3.2-1.4
				c-2.1,0-3.7,1.8-3.7,3.9l0,0c0,2.2,1.5,4,3.7,4c1.4,0,2.3-0.6,3.3-1.5l1.8,1.8c-1.3,1.4-2.7,2.3-5.2,2.3
				C1608.1,516.6,1605.4,513.8,1605.4,510.1z"/>
			<path class="st3" d="M1622.6,506.4h-3.8v-2.6h10.4v2.6h-3.8v10h-2.8L1622.6,506.4L1622.6,506.4z"/>
			<path class="st3" d="M1634.5,503.7h2.6l5.4,12.7h-2.9l-1.2-2.8h-5.4l-1.2,2.8h-2.8L1634.5,503.7z M1637.4,511.1l-1.7-4.1
				l-1.7,4.1H1637.4z"/>
		</g>
	</g>
	<g>
		<g>
			<path class="st10" d="M2101.6,534.8H1872c-4.7,0-8.5-3.8-8.5-8.5V249.5c0-4.7,3.8-8.5,8.5-8.5h229.6c4.7,0,8.5,3.8,8.5,8.5v276.8
				C2110.1,531,2106.3,534.8,2101.6,534.8z"/>
		</g>
		<g>
			<g>
				<path class="st12" d="M2058.9,441.9h-144.3V333.7h144.3V441.9z M1916.6,439.9h140.3V335.7h-140.3V439.9z"/>
			</g>
			<g>
				<path class="st12" d="M2058.9,441.9h-144.3V333.7h144.3V441.9z M1916.6,439.9h140.3V335.7h-140.3V439.9z"/>
			</g>
			<g>
				<polygon class="st12" points="1957.7,441.6 1956.3,440.2 2035.9,360.6 2058.7,383.3 2057.2,384.7 2035.9,363.4 				"/>
			</g>
			<g>
				<polygon class="st12" points="1916.6,441.8 1915.1,440.4 1973.4,382.2 1994.5,403.3 1993.1,404.8 1973.4,385 				"/>
			</g>
			<g>
				<path class="st12" d="M1945.9,376.8c-6.7,0-12.1-5.4-12.1-12.1s5.4-12.1,12.1-12.1s12.1,5.4,12.1,12.1
					S1952.5,376.8,1945.9,376.8z M1945.9,354.5c-5.6,0-10.1,4.5-10.1,10.1s4.5,10.1,10.1,10.1s10.1-4.5,10.1-10.1
					S1951.4,354.5,1945.9,354.5z"/>
			</g>
		</g>
	</g>
	<g>
		<g>
			<path class="st11" d="M1773.7,419.3c2.4,0,4.4,2,4.4,4.4v38.1c0,2.4-2,4.4-4.4,4.4h-301.4c-2.4,0-4.4-2-4.4-4.4v-38.1
				c0-2.4,2-4.4,4.4-4.4H1773.7 M1773.7,417.3h-301.4c-3.5,0-6.4,2.8-6.4,6.4v38.1c0,3.5,2.8,6.4,6.4,6.4h301.4
				c3.5,0,6.4-2.8,6.4-6.4v-38.1C1780.1,420.1,1777.2,417.3,1773.7,417.3L1773.7,417.3z"/>
		</g>
	</g>
	<line class="st13" x1="1398.4" y1="607.3" x2="2177.6" y2="607.3"/>
</g>
<polygon class="st2" points="1233.8,-77.9 1231,-80.7 1215,-64.8 1215,-189.2 1211,-189.2 1211,-64.8 1195.1,-80.7 1192.2,-77.9 
	1213,-57.1 "/>
<polygon class="st5" points="1563.8,-77.9 1561,-80.7 1545,-64.8 1545,-189.2 1541,-189.2 1541,-64.8 1525.1,-80.7 1522.2,-77.9 
	1543,-57.1 "/>
<polygon class="st6" points="1971.3,-77.9 1968.5,-80.7 1952.5,-64.8 1952.5,-189.2 1948.5,-189.2 1948.5,-64.8 1932.5,-80.7 
	1929.7,-77.9 1950.5,-57.1 "/>
<polygon class="st4" points="2361.8,-77.9 2359,-80.7 2343,-64.8 2343,-189.2 2339,-189.2 2339,-64.8 2323.1,-80.7 2320.2,-77.9 
	2341,-57.1 "/>
</svg>
